<svg xmlns="http://www.w3.org/2000/svg" xmlns:xlink="http://www.w3.org/1999/xlink" width="1920" height="1080" viewBox="0 0 1920 1080">
  <defs>
    <clipPath id="clip-bg">
      <rect width="1920" height="1080"/>
    </clipPath>
  </defs>
  <g id="bg" clip-path="url(#clip-bg)">
    <rect width="1920" height="1080" fill="#fff"/>
    <rect id="사각형_24" data-name="사각형 24" width="1920.857" height="1169.756" transform="translate(-0.857 -33)" fill="#bed9ea"/>
    <g id="그룹_18" data-name="그룹 18" transform="translate(2 312.148)">
      <path id="패스_8" data-name="패스 8" d="M.976,456.6V394.446q138.938-5.373,281.939-5.473c547.266,0,1054.925,60.675,1473.8,164.22C1171.472,448.371,525.7,412.231.976,456.6Z" transform="translate(-11.976 -161.121)" fill="#add912" fill-rule="evenodd"/>
      <path id="패스_7" data-name="패스 7" d="M1920.976,547.411v661.908H.976V394.253q151.936-5.184,308.316-5.28C907.758,388.973,1462.911,447.511,1920.976,547.411Z" transform="translate(-2.976 -125.319)" fill="#84a316" fill-rule="evenodd"/>
    </g>
    <g id="그룹_19" data-name="그룹 19" transform="translate(20 318.756)">
      <path id="패스_11" data-name="패스 11" d="M575.816,508.537V661.962H.976V628.041C183.653,517.178,390,486.767,575.816,508.537Z" transform="translate(1342.184 -192)" fill="#add912" fill-rule="evenodd"/>
      <path id="패스_95" data-name="패스 95" d="M660.717,508.537V661.962H.976V628.041C210.633,517.178,447.458,486.767,660.717,508.537Z" transform="translate(1259.283 -178)" fill="#84a316" fill-rule="evenodd"/>
    </g>
    <path id="패스_46" data-name="패스 46" d="M107.883,453.936c7.779,0,14.087,2.1,14.087,4.7s-6.308,4.695-14.087,4.695-14.089-2.1-14.089-4.695,6.307-4.7,14.089-4.7Zm59.31,37.57c6.532,0,11.828,2.025,11.828,4.523s-5.3,4.52-11.828,4.52-11.826-2.025-11.826-4.52,5.295-4.523,11.826-4.523Zm311.692-69.574c6.917,0,12.522,2.338,12.522,5.218s-5.605,5.218-12.522,5.218-12.525-2.337-12.525-5.218,5.608-5.218,12.525-5.218Zm-98.8-49.406c7.69,0,13.924,2.028,13.924,4.528s-6.234,4.525-13.924,4.525-13.924-2.028-13.924-4.525,6.234-4.528,13.924-4.528Zm-220.89.01c4.612,0,8.35,1.478,8.35,3.3s-3.739,3.3-8.35,3.3-8.348-1.481-8.348-3.3,3.737-3.3,8.348-3.3ZM67.877,422.627c4.514,0,8.175,1.4,8.175,3.13s-3.661,3.132-8.175,3.132-8.175-1.4-8.175-3.132S63.363,422.627,67.877,422.627Z" transform="translate(127.594 256.193)" fill="#99bd14" fill-rule="evenodd"/>
    <path id="패스_855" data-name="패스 855" d="M106.561,451.7c7.566,0,13.7,2.043,13.7,4.568s-6.135,4.566-13.7,4.566-13.7-2.044-13.7-4.566,6.134-4.568,13.7-4.568Zm57.682,36.539c6.353,0,11.5,1.97,11.5,4.4s-5.151,4.4-11.5,4.4-11.5-1.97-11.5-4.4,5.15-4.4,11.5-4.4Zm303.142-67.665c6.727,0,12.179,2.274,12.179,5.075s-5.452,5.075-12.179,5.075-12.181-2.273-12.181-5.075,5.454-5.075,12.181-5.075Zm-96.092-48.051c7.479,0,13.542,1.972,13.542,4.4s-6.063,4.4-13.542,4.4-13.542-1.972-13.542-4.4,6.063-4.4,13.542-4.4Zm-214.83.01c4.485,0,8.121,1.438,8.121,3.214s-3.636,3.214-8.121,3.214-8.119-1.44-8.119-3.214,3.635-3.214,8.119-3.214Zm-88.81,48.718c4.39,0,7.951,1.363,7.951,3.044s-3.56,3.046-7.951,3.046S59.7,425.979,59.7,424.3,63.262,421.252,67.653,421.252Z" transform="translate(1394.183 482.937)" fill="#99bd14" fill-rule="evenodd"/>
    <g id="그룹_462" data-name="그룹 462" transform="translate(31.975 -72.365)">
      <path id="패스_27" data-name="패스 27" d="M200.361,391.579a281.838,281.838,0,0,1-1.125,56.683c-15.4,3.412-17.982,2.679-31.755-4.649,1.928-40.058-2.2-98.833-5.71-139.433-4.789-54.276-6-73.175.518-127.629a229.864,229.864,0,0,0,1.886-38.789c11.906-2.449,15.9-2.648,27.829-.036,1.264,43.109-7.454,76.342-4.213,122.462C190.826,303.381,197.049,347.688,200.361,391.579Z" transform="translate(-25.797 584.061)" fill="#6e3105" fill-rule="evenodd"/>
    </g>
    <path id="패스_97" data-name="패스 97" d="M182.031,363.912l11.624,36.182,11.622,36.183H158.784l11.624-36.183Z" transform="translate(1656.216 283.629)" fill="#21340e" fill-rule="evenodd"/>
    <path id="패스_98" data-name="패스 98" d="M219.45,317.709l16.18,55.13,16.18,55.131H187.09l16.179-55.131Z" transform="translate(1656.216 291.937)" fill="#2c5a18" fill-rule="evenodd"/>
    <path id="패스_856" data-name="패스 856" d="M182.031,363.912l11.624,36.576,11.622,36.577H158.784l11.624-36.577Z" transform="translate(-58.912 122.936)" fill="#21340e" fill-rule="evenodd"/>
    <path id="패스_857" data-name="패스 857" d="M219.45,317.709l16.18,58.932,16.18,58.932H187.09l16.179-58.932Z" transform="translate(-58.912 124.428)" fill="#2c5a18" fill-rule="evenodd"/>
    <g id="그룹_22" data-name="그룹 22" transform="translate(121.267 389.123)">
      <path id="패스_15" data-name="패스 15" d="M24.862,578.293l18.54-18.54,39-6.073,12.787-11.188,24.294,8.95,5.753,25.253,18.54,10.869-10.867,13.1-55.62.96-35.162,7.991L18.789,600.03Z" transform="translate(0)" fill="#6d554e" fill-rule="evenodd"/>
      <path id="패스_16" data-name="패스 16" d="M119.479,556.965l.319,32.284-6.393,4.477-39.317,1.6-22.7,9.269-32.6.96,23.334,9.589,35.162-7.991,55.62-.96,10.867-13.1-18.54-10.869Z" transform="translate(0 -5.522)" fill="#59423e" fill-rule="evenodd"/>
    </g>
  </g>
</svg>
