<svg xmlns="http://www.w3.org/2000/svg" width="531.233" height="107.264" viewBox="0 0 531.233 107.264">
  <path id="패스_113" data-name="패스 113" d="M528.462,135.9a62.224,62.224,0,0,1,21.456,3.791A90.622,90.622,0,0,1,718.2,157.47a51.155,51.155,0,0,1,49.727,16.054,59.433,59.433,0,0,1,113.481,23.982H466.139a62.329,62.329,0,0,1,62.324-61.6ZM387.5,159.817a37.327,37.327,0,0,1,37.326,37.326l-.007.363h-74.64v-.363A37.322,37.322,0,0,1,387.5,159.817Z" transform="translate(-350.174 -90.241)" fill="#edf6fa" fill-rule="evenodd"/>
</svg>
