<svg xmlns="http://www.w3.org/2000/svg" width="227.822" height="417.142" viewBox="0 0 227.822 417.142">
  <g id="그룹_337" data-name="그룹 337" transform="translate(-189.758 -162.556)">
    <g id="그룹_321" data-name="그룹 321" transform="translate(388.85 436.189)">
      <g id="그룹_320" data-name="그룹 320">
        <path id="패스_525" data-name="패스 525" d="M269.411,279.043a33.614,33.614,0,0,0,.03,6.918,26.717,26.717,0,0,0,.922,5.44c.233.721.681,1.63,1.51,1.831.9.218,1.267-.478,1.36-1.2.13-1.027-.516-2.74.949-3.183s2.029,7.667,3.011,8.265c.756.461,1.806-2,1.8-3.354s.346-4.025.346-4.025.331,8.2,1.337,7.957c2.437-.584,2.1-8.208,2.1-8.208s.043,6.64,1.072,6.675c2.114.075,1.961-7.7,1.961-7.7s-.228,6.555.929,6.6c3.053.118,2.74-8.416,1.568-11.263-1.6-3.887-6.945-9.891-11.06-11.982" transform="translate(-269.248 -271.807)" fill="#ffd5b8"/>
      </g>
      <path id="패스_526" data-name="패스 526" d="M272.985,276.152a9.776,9.776,0,0,0,4.924,3.3,2.659,2.659,0,0,1,1.413.689c.471.576.3,1.463.676,2.1" transform="translate(-263.624 -265.269)" fill="none" stroke="#f9b995" stroke-miterlimit="10" stroke-width="1"/>
      <path id="패스_527" data-name="패스 527" d="M272.809,277.136a2.981,2.981,0,0,1-2.046,3.311" transform="translate(-266.968 -263.789)" fill="none" stroke="#f9b995" stroke-miterlimit="10" stroke-width="1"/>
    </g>
    <g id="그룹_325" data-name="그룹 325" transform="translate(189.758 215.578)">
      <g id="그룹_322" data-name="그룹 322" transform="translate(5.763 25.15)">
        <path id="패스_528" data-name="패스 528" d="M199.7,216.118l3.431-1.62,4.305-2.838,2.051-2.6,1.082-2.572-.213-3.028.361-2.788-.075-2.024-1.009-2.457-6.537-2.419a12,12,0,0,0-8.944,4.944,13.19,13.19,0,0,0-1.706,10.432,10.656,10.656,0,0,0,2.392,4.881,5.857,5.857,0,0,0,4.861,2.094" transform="translate(-192.059 -193.767)" fill="#7c3432"/>
        <path id="패스_529" data-name="패스 529" d="M206.785,195.852c2.312,3.672,2.632,6.079,1.683,9.836a12.231,12.231,0,0,1-1.363,3.369c-2.071,3.409-6.4,5.57-11.116,5.55-1.505-.008-1.142-1.621-.606-2.254a7.079,7.079,0,0,1,1.776-1.29c4.744-2.888,10.2-10.389,8.841-15.686" transform="translate(-187.756 -191.346)" fill="#632a2a"/>
        <path id="패스_530" data-name="패스 530" d="M199.62,196.886a12.249,12.249,0,0,1-.611,4.01c-1.13,1.934-.641,2.875-3.722,4.28-.456.208-.511.869-.889,1.222a3.625,3.625,0,0,1-.393-2.883,4.566,4.566,0,0,1,.6-1.533c1.152-1.768,3.99-2.442,4.671-4.421" transform="translate(-189.321 -189.074)" fill="#632a2a"/>
        <path id="패스_531" data-name="패스 531" d="M194.889,202.289a3.069,3.069,0,0,0,.984-1.979,7.223,7.223,0,0,0-1.019-3.572,3.534,3.534,0,0,1-.155,1.921,8.5,8.5,0,0,0-.043,4.8" transform="translate(-188.647 -189.295)" fill="#632a2a"/>
      </g>
      <g id="그룹_323" data-name="그룹 323" transform="translate(16.679)">
        <path id="패스_532" data-name="패스 532" d="M202.185,215.362c-1.866.135-3.687-1.32-4.654-3.236a12.864,12.864,0,0,1-1.089-6.389,20.491,20.491,0,0,1,5.114-12.766c3.011-3.254,10.324-9.325,14.5-9.245" transform="translate(-196.417 -183.726)" fill="#7c3432"/>
        <path id="패스_533" data-name="패스 533" d="M217.158,186.888a21.077,21.077,0,0,1-1.658,14.76,19.375,19.375,0,0,1-2.54,4.015c-3.324,3.977-6.061,5.428-11.2,4.789-1.641-.2-3.406-1.485-2.622-2.2a9.484,9.484,0,0,1,2.342-1.375c6.081-2.98,10.812-9.127,10.983-15.9" transform="translate(-192.617 -178.968)" fill="#632a2a"/>
        <path id="패스_534" data-name="패스 534" d="M207,189.267a8.4,8.4,0,0,1-1.8,2.986q-2.758,3.389-5.515,6.775a7.9,7.9,0,0,1-1.35,1.408,5.144,5.144,0,0,1,.468-3.642,7.235,7.235,0,0,1,1.13-1.828c1.808-2.054,5.117-2.525,6.479-4.9" transform="translate(-193.788 -175.388)" fill="#632a2a"/>
        <path id="패스_535" data-name="패스 535" d="M199.653,195.788a4.837,4.837,0,0,0,1.691-2.337,9.627,9.627,0,0,0,0-4.578,5.408,5.408,0,0,1-.769,2.372,12.782,12.782,0,0,0-1.54,5.969" transform="translate(-192.487 -175.981)" fill="#632a2a"/>
      </g>
      <path id="패스_536" data-name="패스 536" d="M202.675,203.043c1.052,1.788,2.031,3.764,1.878,5.833a11.188,11.188,0,0,1-1.788,4.6,12.028,12.028,0,0,0-1.866,4.573c-.18,1.651,1.658,4.243,3.186,4.892-1.718,1.373-4.533.626-6.339.671a6.392,6.392,0,0,1-4.909-1.866c-1.217-1.337-1.3-4.366-.844-5.716a2.815,2.815,0,0,1-2.227-2.965,8.167,8.167,0,0,1,1.58-4.977,18.355,18.355,0,0,1,3.729-3.759,9.062,9.062,0,0,1,2.081-1.342,3.457,3.457,0,0,1,2.424-.178" transform="translate(-189.758 -155.229)" fill="#7c3432"/>
      <g id="그룹_324" data-name="그룹 324" transform="translate(0 47.802)">
        <path id="패스_537" data-name="패스 537" d="M191.8,212.659a4.835,4.835,0,0,1,.19-.942,2.815,2.815,0,0,1-2.227-2.965,7.332,7.332,0,0,1,.636-3.218l.158,1.125c.08.574.223,1.237.744,1.485.569.271,1.225-.123,1.7-.541s.992-.909,1.618-.857a9.4,9.4,0,0,0-2.692,5.848Z" transform="translate(-189.758 -198.715)" fill="#632a2a"/>
        <path id="패스_538" data-name="패스 538" d="M193.482,218.222a10.151,10.151,0,0,1,.779-4.826,21.915,21.915,0,0,0,1.415-4.716,5.338,5.338,0,0,0-1.373-4.556l2.677-1.312.188.012c1.052,1.788,2.031,3.764,1.878,5.833a11.188,11.188,0,0,1-1.788,4.6,12.028,12.028,0,0,0-1.866,4.573c-.133,1.22.839,2.953,1.974,4.037a3.2,3.2,0,0,1-.939-.058A4.2,4.2,0,0,1,193.482,218.222Z" transform="translate(-184.252 -202.811)" fill="#632a2a"/>
      </g>
      <path id="패스_539" data-name="패스 539" d="M192.835,201.911c.078-.038.155-.07.223-.1a4.543,4.543,0,0,1,1.523-.023,10.49,10.49,0,0,1,1.861.276,15.849,15.849,0,0,1,3.386,1.275c.917.458,1.873,1.067,1.974,1.906a.323.323,0,0,1-.055.265.553.553,0,0,1-.308.143,4.5,4.5,0,0,1-2.1-.21,32.88,32.88,0,0,1-4.263-1.47C194.438,203.692,191.443,202.567,192.835,201.911Z" transform="translate(-185.676 -156.636)" fill="#ff6183"/>
      <path id="패스_540" data-name="패스 540" d="M191.981,203.349a.478.478,0,0,1,.043-.2,1.163,1.163,0,0,1,.523-.476,4.981,4.981,0,0,1,4.288.1,18.934,18.934,0,0,1,1.768.959c.726.4,1.558.659,2.254,1.092.371.228.759.571.6.917a1.016,1.016,0,0,1-.724.426,6.758,6.758,0,0,1-2.765-.155,18.792,18.792,0,0,1-5.122-1.708C192.424,204.068,191.984,203.722,191.981,203.349Z" transform="translate(-186.413 -155.888)" fill="#ff6183"/>
    </g>
    <g id="그룹_330" data-name="그룹 330" transform="translate(273.653 492.581)">
      <g id="그룹_327" data-name="그룹 327">
        <g id="그룹_326" data-name="그룹 326" transform="translate(1.268)">
          <path id="패스_541" data-name="패스 541" d="M254.87,371.714c-.388-2.572-.989-8.127-1.28-11.987-.293-3.9,1.127-60.211,1.312-60.221,0,0-24.36-12.9-23.421,2s3.033,21.375,7.9,56.2c.418,3.005,1.3,6.412-1.553,8.29-1.969,1.295-6.079,1.886-8.275,2.79a12.4,12.4,0,0,0-5.69,4.007c-1.247,1.8,8.979,6.875,13.7,6.279a42.217,42.217,0,0,0,7.441-1.4,41.01,41.01,0,0,0,9.4-4.879,1.144,1.144,0,0,0,.418-.376A1.112,1.112,0,0,0,254.87,371.714Z" transform="translate(-223.76 -294.323)" fill="#ffdbbb"/>
        </g>
        <path id="패스_542" data-name="패스 542" d="M229.054,330.762a20.972,20.972,0,0,0,5.33-1.327,3.827,3.827,0,0,0,1.25-.859,20.3,20.3,0,0,0,.058-6.677c-.361-1.155-1.13-2.94-.556-3.434s1.678.559,2.106,1.706a1.333,1.333,0,0,1,1.368-1.558c.819.065,2.074.884,2,1.711a1.923,1.923,0,0,1,2-1.525,2.349,2.349,0,0,1,2.1,1.861c.2-1,.889-1.806,1.856-1.706s1.448,1.022,1.533,2.016a2.337,2.337,0,0,1,1.084-1.991c.761-.518,2-.358,2.044.614a16.131,16.131,0,0,1-.443,2.009c-.4,1.7.761,9.705.942,12.238a13.252,13.252,0,0,1,.113,3.749,5.228,5.228,0,0,1-1.177,2.039,11.394,11.394,0,0,1-6.319,3.061,41.277,41.277,0,0,1-17.46-.493c-.338-.078-.676-.158-1.012-.238" transform="translate(-219.316 -258.186)" fill="#ff6183"/>
        <path id="패스_543" data-name="패스 543" d="M255.664,327.688c-.589,2.041-7.088,3.156-10.231,3.1-3.391-1.277-5.678-5.175-5.861-8.363a5.424,5.424,0,0,0-2,1.175c-.431,1.658.138,4.163,2.294,6.677-.912.208-3.537-.18-4.08-1.089a9.359,9.359,0,0,1-1.413-5.012,21.145,21.145,0,0,0-5.1,1.019,8.844,8.844,0,0,0-4.481,3.133,8.946,8.946,0,0,0-1.505,3.977,8.263,8.263,0,0,0,.286,3.011c.624,2.086,6.5,3.9,11.3,3.835,4.421-.065,14.963.153,20.277-3.832C256.748,334.125,256.874,327.656,255.664,327.688Z" transform="translate(-223.254 -252.037)" fill="#b72a71"/>
      </g>
      <g id="그룹_329" data-name="그룹 329" transform="translate(45.381)">
        <g id="그룹_328" data-name="그룹 328" transform="translate(0.809)">
          <path id="패스_544" data-name="패스 544" d="M241.731,371.714c.386-2.572.989-8.127,1.277-11.987.293-3.9-1.127-60.211-1.312-60.221,0,0,24.36-12.9,23.423,2s-3.036,21.375-7.9,56.2c-.421,3.005-1.3,6.412,1.55,8.29,1.969,1.295,6.081,1.886,8.275,2.79a12.4,12.4,0,0,1,5.69,4.007c1.247,1.8-8.979,6.875-13.7,6.279a42.3,42.3,0,0,1-7.441-1.4A40.943,40.943,0,0,1,242.2,372.8a1.153,1.153,0,0,1-.421-.376A1.1,1.1,0,0,1,241.731,371.714Z" transform="translate(-241.696 -294.323)" fill="#ffdbbb"/>
        </g>
        <path id="패스_545" data-name="패스 545" d="M264.5,330.762a21,21,0,0,1-5.33-1.327,3.855,3.855,0,0,1-1.25-.859,20.435,20.435,0,0,1-.058-6.677c.361-1.155,1.13-2.94.558-3.434s-1.681.559-2.109,1.706a1.333,1.333,0,0,0-1.368-1.558c-.819.065-2.074.884-2,1.711a1.926,1.926,0,0,0-2-1.525,2.352,2.352,0,0,0-2.1,1.861c-.2-1-.889-1.806-1.853-1.706s-1.45,1.022-1.533,2.016a2.342,2.342,0,0,0-1.084-1.991c-.764-.518-2-.358-2.046.614a16.15,16.15,0,0,0,.446,2.009c.4,1.7-.764,9.705-.944,12.238a13.252,13.252,0,0,0-.11,3.749,5.228,5.228,0,0,0,1.177,2.039c1.585,1.758,3.955,2.57,6.317,3.061a41.288,41.288,0,0,0,17.462-.493c.336-.078.674-.158,1.012-.238" transform="translate(-241.022 -258.186)" fill="#ff6183"/>
        <path id="패스_546" data-name="패스 546" d="M242.182,327.688c.591,2.041,7.091,3.156,10.234,3.1,3.391-1.277,5.676-5.175,5.858-8.363a5.453,5.453,0,0,1,2,1.175c.428,1.658-.138,4.163-2.294,6.677.912.208,3.534-.18,4.08-1.089a9.374,9.374,0,0,0,1.41-5.012,21.12,21.12,0,0,1,5.1,1.019,8.861,8.861,0,0,1,4.483,3.133,8.973,8.973,0,0,1,1.5,3.977,8.264,8.264,0,0,1-.286,3.011c-.621,2.086-6.5,3.9-11.3,3.835-4.423-.065-14.965.153-20.28-3.832C241.1,334.125,240.972,327.656,242.182,327.688Z" transform="translate(-241.373 -252.037)" fill="#b72a71"/>
      </g>
    </g>
    <path id="패스_547" data-name="패스 547" d="M383.221,306.446c3,3,3.016,7.6-.336,8.924-2.392.947-7.719.879-9.753-.7-.235,3.785-1.806,5.913-5.52,6.672a11.757,11.757,0,0,1-10.374-3.411,8.923,8.923,0,0,1-16.135-.7c-.529,4.258-3.687,7.414-7.211,7.759-2.958.288-7.617-.659-9.325-3.091-.388,3.506-3.739,6.174-7.236,6.642s-7.015-.859-10-2.735a9.406,9.406,0,0,1-15.722,2.362,8.081,8.081,0,0,1-7.128,3.634c-2.79-.163-6.883-2.705-8.107-5.22a7.5,7.5,0,0,1-13.45-2.592,10.769,10.769,0,0,1-9.445,3.564c-3.474-.481-6.637-4.235-8.125-7.414a8.418,8.418,0,0,1-15.288-1.287,9.2,9.2,0,0,1-15.7-3.158c-3.113,1.032-6.8,1.16-9.422-.817s-3.254-6.522-.6-8.446l12.994-4.27,12.764-7s5.089-5.515,19.726-7.211l14.637-1.7,3.6,1.272" transform="translate(19.383 186.114)" fill="#b72a71"/>
    <path id="패스_549" data-name="패스 549" d="M242.88,224.051c1.277,11.04-2.229,15.4-12.536,17.568,0,0-.644,15.216,19.18,17.562,8.15.967,21.74-9.811,24.125-17.3-8.688-1.573-13.227-9.63-10.494-16.851" transform="translate(61.064 92.527)" fill="#ffd5b8"/>
    <path id="패스_550" data-name="패스 550" d="M235.954,227.086a53.032,53.032,0,0,0,14.306.093,5.622,5.622,0,0,1-5.543,3.634,11.315,11.315,0,0,1-2.7-.626,35.886,35.886,0,0,1-6.066-3.1" transform="translate(69.508 97.093)" fill="#f9b995"/>
    <path id="패스_551" data-name="패스 551" d="M284.7,273.16a3.631,3.631,0,0,1,.972.681,1.243,1.243,0,0,1,.348,1.09,1.786,1.786,0,0,1-.691.887,20.9,20.9,0,0,1-13.452,4.624,9.033,9.033,0,0,1-2.417-.318.784.784,0,0,1-.451-.266.857.857,0,0,1-.115-.4,25.874,25.874,0,0,1-.148-2.75" transform="translate(118.849 166.417)" fill="#b72a71"/>
    <path id="패스_552" data-name="패스 552" d="M314.843,230.86s-6.414,3.421-19.4,3.421-19.4-3.421-19.4-3.421c-46.15,6.484-66.16,140.229-70.255,158.929,19.872,11.859,32.214,7.541,46.829,7.617,10.955.055,13.109,9.35,42.822,9.35s31.869-9.295,42.822-9.35c14.617-.075,26.957,4.243,46.829-7.617-6.978-28.17-19.266-30.574-26.361-60.71,3.043,8.566,5.558,10.1,11.1,13.154,4.037.927,13.753-.784,16.981-5.37C400.29,322.489,360.993,237.345,314.843,230.86Z" transform="translate(17.507 102.772)" fill="#dd4583"/>
    <g id="그룹_331" data-name="그룹 331" transform="translate(249.537 370.842)">
      <path id="패스_553" data-name="패스 553" d="M228.272,245.758c-8.729,18.875-10.454,40.713-14.642,60.875a.178.178,0,0,0,.343.093c5.29-20.052,5.8-41.8,14.434-60.89.04-.09-.093-.17-.135-.078Z" transform="translate(-213.625 -245.717)" fill="#b72a71"/>
    </g>
    <g id="그룹_332" data-name="그룹 332" transform="translate(361.819 370.842)">
      <path id="패스_554" data-name="패스 554" d="M258.463,245.835c8.636,19.093,9.144,40.838,14.434,60.89a.178.178,0,0,0,.343-.093c-4.188-20.162-5.913-42-14.642-60.875-.043-.093-.175-.013-.135.078Z" transform="translate(-258.455 -245.717)" fill="#b72a71"/>
    </g>
    <path id="패스_555" data-name="패스 555" d="M403.349,287.005c-.431-5.918,1.565-11.7,1.893-17.575,1.187-21.164-11.9-47.282-22.745-64.264-10.221-16-41.915-53.917-80.631-39.338-38.719-14.579-70.41,23.338-80.631,39.338-10.848,16.981-23.934,43.1-22.747,64.264.331,5.873,2.327,11.656,1.893,17.575-.378,5.217-4.155,10.029-3.374,15.291a21.336,21.336,0,0,0,9.518,14.236,32.148,32.148,0,0,0,16.546,4.887,8.357,8.357,0,0,1,2.369.3,8.538,8.538,0,0,1,2.6,1.711c7.559,6.274,17.66,10.194,27.4,7.845,3.774-.912,7.536-2.249,11.411-2.071,4.113.188,8.235,2.079,12.225,1.039a9.367,9.367,0,0,0,2.685-1.195,5.466,5.466,0,0,1,5.5-.235c3.506,1.821,8.749,2.976,14.609,2.976s11.1-1.155,14.609-2.976a5.461,5.461,0,0,1,5.5.235,9.382,9.382,0,0,0,2.687,1.195c3.99,1.039,8.11-.852,12.225-1.039,3.875-.178,7.637,1.16,11.409,2.071,9.74,2.349,19.842-1.57,27.4-7.845a8.547,8.547,0,0,1,2.6-1.711,8.339,8.339,0,0,1,2.367-.3,32.157,32.157,0,0,0,16.548-4.887,21.352,21.352,0,0,0,9.518-14.236C407.5,297.034,403.73,292.223,403.349,287.005Z" transform="translate(10.749 0)" fill="#7c3432"/>
    <path id="패스_556" data-name="패스 556" d="M389.948,224.542c-.584-.791-1.092-1.708-1.991-2.076-1.1-.453-2.334.09-3.419.584a45.277,45.277,0,0,1-14.364,3.837,4.05,4.05,0,0,1-3-.531c-2.327-1.914.984-6.55-1.337-8.466a42.847,42.847,0,0,0-16.215,7.872c-2.079,1.63-4.052,3.479-6.492,4.491s-5.553.969-7.4-.914c-1.215-1.235-1.7-3.058-2.961-4.25a6.546,6.546,0,0,0-4.258-1.553c-4.7-.205-8.967,2.45-13.079,4.724s-8.947,4.3-13.395,2.778c-4.869-1.666-8.623-7.349-13.665-6.314-2.187.448-3.882,2.116-5.788,3.276-7.474,4.548-17.422.809-23.954-5.007a3.75,3.75,0,0,0-1.871-1.112c-2.1-.273-2.745,2.675-3.877,4.461-2.156,3.4-7.364,2.828-10.9.914s-6.845-4.819-10.868-4.912c-5.8-.13-9.808,5.092-15.176,6.384a27.814,27.814,0,0,1-8.458.964c-2.079-.188-8.128-1.152-9.36-3.058.266.411.546.812.879,1.252a24.741,24.741,0,0,0,3,3.271,23.754,23.754,0,0,0,2.7,2.119,32.148,32.148,0,0,0,16.546,4.887,8.357,8.357,0,0,1,2.369.3,8.538,8.538,0,0,1,2.6,1.711c7.559,6.274,17.66,10.194,27.4,7.845,3.774-.912,7.536-2.249,11.411-2.071,4.113.188,8.235,2.079,12.225,1.039a9.367,9.367,0,0,0,2.685-1.195,5.466,5.466,0,0,1,5.5-.235c3.506,1.821,8.749,2.976,14.609,2.976s11.1-1.155,14.609-2.976a5.461,5.461,0,0,1,5.5.235,9.382,9.382,0,0,0,2.687,1.195c3.99,1.039,8.11-.852,12.225-1.039,3.875-.178,7.637,1.16,11.409,2.071,9.74,2.349,19.842-1.57,27.4-7.845a8.547,8.547,0,0,1,2.6-1.711,8.339,8.339,0,0,1,2.367-.3,36.154,36.154,0,0,0,10.449-1.9c.336-.118.666-.25,1-.378.286-.113.571-.223.854-.343s.579-.255.864-.388c.351-.165.7-.338,1.042-.516.223-.115.446-.228.664-.351.571-.318,1.132-.649,1.678-1.009a22.907,22.907,0,0,0,1.856-1.375c.073-.058.138-.125.21-.185.531-.448,1.052-.914,1.543-1.408l.06-.065a15.145,15.145,0,0,0,2.642-3.379c-3.707,1.35-8.884,1.35-11.594-2.134C390.04,224.668,390,224.6,389.948,224.542Z" transform="translate(12.584 83.257)" fill="#632a2a"/>
    <g id="그룹_333" data-name="그룹 333" transform="translate(314.387 170.334)">
      <path id="패스_557" data-name="패스 557" d="M239.82,169.079a26.9,26.9,0,0,1,20.212-1.36c6.477,2.114,11.306,6.389,15.9,11.228.2.213.6-.073.418-.323-8.062-11.313-24.165-16.854-36.738-9.888-.225.125-.028.456.2.343Z" transform="translate(-239.517 -165.662)" fill="#632a2a"/>
    </g>
    <g id="그룹_334" data-name="그룹 334" transform="translate(315.395 174.765)">
      <path id="패스_558" data-name="패스 558" d="M240.05,168.644a22.417,22.417,0,0,1,15.5,1.568c.238.105.443-.22.208-.356A19.662,19.662,0,0,0,240,168.441a.105.105,0,0,0,.055.2Z" transform="translate(-239.92 -167.431)" fill="#632a2a"/>
    </g>
    <g id="그룹_335" data-name="그룹 335" transform="translate(281.302 171.719)">
      <path id="패스_559" data-name="패스 559" d="M226.646,176.277c8.2-7.138,17.82-11.514,28.593-7.644a.251.251,0,0,0,.193-.456c-10.166-5.28-21.467,1.037-29.061,7.824-.188.168.088.438.276.276Z" transform="translate(-226.308 -166.215)" fill="#632a2a"/>
    </g>
    <g id="그룹_336" data-name="그룹 336" transform="translate(297.047 176.159)">
      <path id="패스_560" data-name="패스 560" d="M232.912,174.879c3.359-4.318,7.967-6.044,13.3-6.194a.306.306,0,0,0,0-.611c-5.34-.639-10.562,2.322-13.588,6.582-.12.168.158.386.288.223Z" transform="translate(-232.594 -167.987)" fill="#632a2a"/>
    </g>
    <path id="패스_561" data-name="패스 561" d="M262.949,200.6c-1.378,4.531-.456,9.45,1.092,13.923s3.712,8.739,4.9,13.322a33.112,33.112,0,0,1-3.91,25.492" transform="translate(109.111 57.237)" fill="none" stroke="#632a2a" stroke-miterlimit="10" stroke-width="1"/>
    <path id="패스_562" data-name="패스 562" d="M275.494,206.143a58.876,58.876,0,0,1,5.185,24.508,16.99,16.99,0,0,1-.441,4.275c-1.287,4.839-5.876,7.932-10.126,10.58" transform="translate(120.903 65.582)" fill="none" stroke="#632a2a" stroke-miterlimit="10" stroke-width="1"/>
    <path id="패스_563" data-name="패스 563" d="M241.891,239.995a31.588,31.588,0,0,1-3.223-28.761c-3.264,3.922-4.508,9.134-5.1,14.2a32.682,32.682,0,0,0,.383,11.734,15.922,15.922,0,0,0,6.4,9.588" transform="translate(65.402 73.242)" fill="#632a2a"/>
    <path id="패스_564" data-name="패스 564" d="M248.463,250.281a25.978,25.978,0,0,0,9.675-21.47c-.178-3.146-.932-6.227-1.39-9.345-.857-5.863-.654-11.822-.448-17.743-.245,6.865,1.941,13.545,3.431,20.25a101.679,101.679,0,0,1,2.339,17.906,22.277,22.277,0,0,1-.451,6.53c-1.12,4.283-4.393,7.614-7.536,10.732" transform="translate(88.329 58.933)" fill="#632a2a"/>
    <path id="패스_565" data-name="패스 565" d="M209.118,234.08a8.863,8.863,0,0,0,2.019-5.751c.09-2.074-.175-4.153-.035-6.224a16.125,16.125,0,0,1,4.511-10.094,30.4,30.4,0,0,0,13.072,28.969" transform="translate(29.13 74.412)" fill="#632a2a"/>
    <path id="패스_566" data-name="패스 566" d="M234.92,209.139c-1.956,6.329-3.932,12.809-3.677,19.431s3.163,13.525,8.917,16.811" transform="translate(62.387 70.09)" fill="none" stroke="#632a2a" stroke-miterlimit="10" stroke-width="1"/>
    <path id="패스_567" data-name="패스 567" d="M219.418,203.413a36.029,36.029,0,0,1-.909,12.052c-1.285,5.157-3.714,10.026-4.483,15.288a25.442,25.442,0,0,0,11.719,24.838" transform="translate(36.15 61.474)" fill="none" stroke="#632a2a" stroke-miterlimit="10" stroke-width="1"/>
    <path id="패스_568" data-name="패스 568" d="M222.527,209.329c.739,7.469-3.023,15.03-1.37,22.351,1.585,7.021,7.842,12.082,14.424,14.993" transform="translate(46.606 70.375)" fill="none" stroke="#632a2a" stroke-miterlimit="10" stroke-width="1"/>
    <path id="패스_569" data-name="패스 569" d="M241.124,169.984a28.109,28.109,0,0,1,20.1,20.5c2.915,12.643-3.258,26.251.466,38.679" transform="translate(77.287 11.176)" fill="none" stroke="#632a2a" stroke-miterlimit="10" stroke-width="1"/>
    <path id="패스_570" data-name="패스 570" d="M240.167,172.392c-3.572,6.7-3.667,14.725-2.725,22.264s2.833,14.988,2.938,22.584" transform="translate(70.986 14.799)" fill="none" stroke="#632a2a" stroke-miterlimit="10" stroke-width="1"/>
  </g>
</svg>
