<svg xmlns="http://www.w3.org/2000/svg" width="101.678" height="97.304" viewBox="0 0 101.678 97.304">
  <g id="그룹_522" data-name="그룹 522" transform="translate(-880.679 -578.372) rotate(-7)">
    <g id="그룹_521" data-name="그룹 521" transform="matrix(-0.53, -0.848, 0.848, -0.53, 819.253, 724.859)">
      <path id="패스_784" data-name="패스 784" d="M11.41,22.152c-.362-.061-.726-.118-1.086-.189A13.883,13.883,0,0,1,6.015,20.32a21.974,21.974,0,0,1-3.447-2.051C-.9,15.322-1.312,5.215,4.189,2.317A24.381,24.381,0,0,1,12.166.184,12.1,12.1,0,0,1,19.977,1.3a2.778,2.778,0,0,1,1.455,1.626c.167.73-.03,1.633-.771,1.521,1.24,0,2.328.23,2.786,2.356a1.81,1.81,0,0,1-.006,1.1.835.835,0,0,1-.9.52,1.34,1.34,0,0,1,1.13.813,2.526,2.526,0,0,1-.507,2.852,1.33,1.33,0,0,1-1.359.391c.722.245,11.119,1.542,11.244,2.294.319,1.91-11.4,2.715-13.133,2.632a8.172,8.172,0,0,0-2.739.012,16.837,16.837,0,0,0-1.7.309c-.16.149.789.578.884.629,1.9,1,2.987,3.708,1.661,5.578-.9,1.269-2.053.776-3.081-.063a6.891,6.891,0,0,0-1.834-1.316A9.909,9.909,0,0,0,11.41,22.152Z" transform="translate(0 0)" fill="#ffd5b8"/>
      <path id="패스_785" data-name="패스 785" d="M0,.2A8.309,8.309,0,0,1,3.571.188" transform="translate(17.576 4.368)" fill="none" stroke="#f9b995" stroke-miterlimit="10" stroke-width="1"/>
      <path id="패스_786" data-name="패스 786" d="M0,.052A8.291,8.291,0,0,1,3.982.471" transform="translate(18.719 8.178)" fill="none" stroke="#f9b995" stroke-miterlimit="10" stroke-width="1"/>
      <path id="패스_787" data-name="패스 787" d="M0,.012A15.72,15.72,0,0,1,1.987.06a2.231,2.231,0,0,1,1.23.377" transform="translate(18.641 12.115)" fill="none" stroke="#f9b995" stroke-miterlimit="10" stroke-width="1"/>
      <path id="패스_788" data-name="패스 788" d="M0,.088.674,0" transform="translate(16.102 12.04)" fill="none" stroke="#f9b995" stroke-miterlimit="10" stroke-width="1"/>
      <path id="패스_789" data-name="패스 789" d="M0,.119.476,0" transform="translate(15.982 8.113)" fill="none" stroke="#f9b995" stroke-miterlimit="10" stroke-width="1"/>
      <path id="패스_790" data-name="패스 790" d="M0,.079.357,0" transform="translate(15.506 4.502)" fill="none" stroke="#f9b995" stroke-miterlimit="10" stroke-width="1"/>
      <path id="패스_791" data-name="패스 791" d="M0,1.148A5.1,5.1,0,0,1,3.181,0" transform="translate(14.381 17.264)" fill="none" stroke="#f9b995" stroke-miterlimit="10" stroke-width="1"/>
    </g>
    <g id="그룹_403" data-name="그룹 403" transform="matrix(0.602, -0.799, 0.799, 0.602, 797.802, 730.668)">
      <path id="패스_727" data-name="패스 727" d="M0,3.087.215.681A.692.692,0,0,1,.822.049a18.344,18.344,0,0,1,6.555.88c2.454.7,5.7,2.616,5.85,3.526s-1.488,3.029-1.488,3.029" transform="translate(21.852 12.969)" fill="#b72a71"/>
      <path id="패스_728" data-name="패스 728" d="M32.436,34.978c2.5,10.386,7.09,21.369,4.569,31.071-5.7,21.968-29.54,14.738-33.379.757C-.306,52.492-1.213,41.484,1.76,30.472c2.9-10.755,12.654-29.11,20.9-30.386,3.28-.509,9.585,1.267,12.037,4.2C37.738,7.912,35.088,24.555,32.436,34.978Z" transform="translate(0 15.347)" fill="#dd4583"/>
    </g>
  </g>
</svg>
