<svg xmlns="http://www.w3.org/2000/svg" width="224.857" height="147.094" viewBox="0 0 224.857 147.094">
  <g id="그룹_608" data-name="그룹 608" transform="translate(-7896.656 125.094)">
    <g id="그룹_607" data-name="그룹 607" transform="translate(6881.694 -736.756)">
      <g id="그룹_477" data-name="그룹 477" transform="translate(852.767 412.352)">
        <path id="패스_32" data-name="패스 32" d="M261.083,486.436c39.344,0,71.433-4.618,71.433-10.282s-32.089-10.283-71.433-10.283-71.433,4.619-71.433,10.283S221.739,486.436,261.083,486.436Z" transform="translate(0 -160.821)" fill="#2d1309" fill-rule="evenodd"/>
        <path id="패스_33" data-name="패스 33" d="M382.044,316.447l.015,0a19.264,19.264,0,0,1,21.184,18.873q.3,20.029.61,40.059H370.662V363.342a15.65,15.65,0,0,1,8.011-13.876l.628-.363q.426-2.46.853-4.923a10.739,10.739,0,0,0-12.184-12.454l-1.235.187a38.762,38.762,0,0,1-34.127-11.206l-10.651-10.629c-18.519,18.159,8.12,53.767,3.672,75.533a388.378,388.378,0,0,1-47.746,2.635c-21.211,0-40.258-1.332-53.34-3.443,14.175-42.24,37.175-89.6,75.446-116.246a35.272,35.272,0,0,1,32.158-4.67l2.828.936a36.411,36.411,0,0,1,24.974,32.665,20.113,20.113,0,0,0,22.1,18.962Z" transform="translate(-16.801 -62.631)" fill="#8d4a13" fill-rule="evenodd"/>
        <path id="패스_35" data-name="패스 35" d="M396.567,346.557c-17.591,17.25,5.561,50.24,4.113,72.158-4.6-27.819-33.573-48.318-15.076-81.01C390.986,339.13,393.351,342.789,396.567,346.557Z" transform="translate(-91.409 -99.111)" fill="#b26c2b" fill-rule="evenodd"/>
      </g>
      <g id="그룹_6" data-name="그룹 6" transform="translate(1030.828 690.16)">
        <path id="패스_37" data-name="패스 37" d="M191.545,454.661c8.989,0,16.32-2.02,16.32-4.5s-7.331-4.5-16.32-4.5-16.319,2.022-16.319,4.5S182.556,454.661,191.545,454.661Z" transform="translate(-170.161 -440.956)" fill="#d2a168" fill-rule="evenodd"/>
        <path id="패스_38" data-name="패스 38" d="M185.282,453.355c8.988,0,16.318-3.148,16.318-7s-7.33-7-16.318-7-16.319,3.145-16.319,7S176.294,453.355,185.282,453.355Z" transform="translate(-168.963 -439.349)" fill="#623311" fill-rule="evenodd"/>
      </g>
      <g id="그룹_7" data-name="그룹 7" transform="translate(1014.962 721.372)">
        <path id="패스_39" data-name="패스 39" d="M86.887,509.508c4.974,0,9.032-.922,9.032-2.053s-4.057-2.055-9.032-2.055-9.031.924-9.031,2.055S81.913,509.508,86.887,509.508Z" transform="translate(-75.053 -503.25)" fill="#d2a168" fill-rule="evenodd"/>
        <ellipse id="타원_1" data-name="타원 1" cx="9.032" cy="3.197" rx="9.032" ry="3.197" fill="#623311"/>
      </g>
      <g id="그룹_8" data-name="그룹 8" transform="translate(1057.06 747.282)">
        <path id="패스_40" data-name="패스 40" d="M125.046,459.516c4.784,0,8.685-1.166,8.685-2.6s-3.9-2.6-8.685-2.6-8.685,1.167-8.685,2.6S120.263,459.516,125.046,459.516Z" transform="translate(-113.666 -451.602)" fill="#d2a168" fill-rule="evenodd"/>
        <path id="패스_41" data-name="패스 41" d="M121.179,458.507c4.784,0,8.685-1.817,8.685-4.043s-3.9-4.043-8.685-4.043-8.684,1.817-8.684,4.043S116.4,458.507,121.179,458.507Z" transform="translate(-112.495 -450.42)" fill="#623311" fill-rule="evenodd"/>
      </g>
      <g id="그룹_9" data-name="그룹 9" transform="translate(1118.269 743.767)">
        <path id="패스_42" data-name="패스 42" d="M182.606,522.756c8.87,0,16.1-2.163,16.1-4.815s-7.232-4.817-16.1-4.817-16.1,2.163-16.1,4.817S173.737,522.756,182.606,522.756Z" transform="translate(-161.507 -508.085)" fill="#d2a168" fill-rule="evenodd"/>
        <path id="패스_43" data-name="패스 43" d="M177.609,523.074c8.868,0,16.1-3.367,16.1-7.494s-7.234-7.5-16.1-7.5-16.1,3.367-16.1,7.5S168.74,523.074,177.609,523.074Z" transform="translate(-161.507 -508.085)" fill="#623311" fill-rule="evenodd"/>
      </g>
      <g id="그룹_12" data-name="그룹 12" transform="translate(1171.796 743.303)">
        <path id="패스_48" data-name="패스 48" d="M464.2,526.28c4.706,0,8.545-1.144,8.545-2.554s-3.839-2.557-8.545-2.557-8.548,1.147-8.548,2.557S459.5,526.28,464.2,526.28Z" transform="translate(-453.006 -518.496)" fill="#d2a168" fill-rule="evenodd"/>
        <path id="패스_49" data-name="패스 49" d="M461.551,526.454c4.708,0,8.548-1.788,8.548-3.98s-3.84-3.978-8.548-3.978-8.545,1.788-8.545,3.978S456.845,526.454,461.551,526.454Z" transform="translate(-453.006 -518.496)" fill="#623311" fill-rule="evenodd"/>
      </g>
      <g id="그룹_14" data-name="그룹 14" transform="translate(1164.326 695.42)">
        <path id="패스_52" data-name="패스 52" d="M531.591,509.35c8.266,0,15.011-2.017,15.011-4.491s-6.745-4.488-15.011-4.488-15.012,2.016-15.012,4.488S523.321,509.35,531.591,509.35Z" transform="translate(-511.919 -495.673)" fill="#d2a168" fill-rule="evenodd"/>
        <path id="패스_53" data-name="패스 53" d="M526.931,509.648c8.268,0,15.011-3.139,15.011-6.987s-6.743-6.988-15.011-6.988-15.012,3.137-15.012,6.988S518.662,509.648,526.931,509.648Z" transform="translate(-511.919 -495.673)" fill="#623311" fill-rule="evenodd"/>
      </g>
    </g>
  </g>
</svg>
