<svg xmlns="http://www.w3.org/2000/svg" width="73.349" height="84.112" viewBox="0 0 73.349 84.112">
  <g id="그룹_609" data-name="그룹 609" transform="translate(-8375.151 151.539)">
    <path id="패스_2552" data-name="패스 2552" d="M363.315,171.26c.956,16.293-12.18,18.38-17.687,29.2a82.8,82.8,0,0,1-9.908,15.519L327,211.7a40.233,40.233,0,0,0,12.59-23.258c4.736-28.847-21.769-52.669-49.574-45.778C317.287,119.679,361.207,135.324,363.315,171.26Z" transform="translate(8085.135 -283.404)" fill="#8d4a13" fill-rule="evenodd"/>
    <path id="패스_2553" data-name="패스 2553" d="M363.315,171.26c.643,10.969-5.1,15.5-10.6,20.591h0c16.823-28.548-18.683-71.407-62.694-49.186C317.287,119.679,361.207,135.324,363.315,171.26Z" transform="translate(8085.135 -283.404)" fill="#b26c2b" fill-rule="evenodd"/>
  </g>
</svg>
