<svg xmlns="http://www.w3.org/2000/svg" width="20.408" height="7.662" viewBox="0 0 20.408 7.662">
  <g id="그룹_605" data-name="그룹 605" transform="translate(-10006.144 -200.3)">
    <path id="패스_289" data-name="패스 289" d="M439.552,72.578a10.712,10.712,0,0,1,15.872-1.887" transform="translate(9567.001 133.372)" fill="none" stroke="#7c3432" stroke-miterlimit="10" stroke-width="1"/>
    <path id="패스_290" data-name="패스 290" d="M439.66,70.18a4.949,4.949,0,0,1,3.355-1.4,16.246,16.246,0,0,1,5.88.124,7.33,7.33,0,0,1,4.708,3.312" transform="translate(9567.407 135.503)" fill="none" stroke="#7c3432" stroke-miterlimit="10" stroke-width="1"/>
    <g id="그룹_163" data-name="그룹 163" transform="translate(10021.247 200.3)">
      <path id="패스_291" data-name="패스 291" d="M445.234,67.955c-.157.858-1.558,1.453-2.24,2.011-.4.319-.543,1.01-.019,1.082,2,.276,2.849-1.206,2.735-3.026-.019-.257-.424-.353-.477-.067Z" transform="translate(-442.636 -67.78)" fill="#7c3432"/>
    </g>
    <g id="그룹_164" data-name="그룹 164" transform="translate(10021.065 202.356)">
      <path id="패스_292" data-name="패스 292" d="M446.969,68.532a3.871,3.871,0,0,1-2.473.639,2.681,2.681,0,0,0-1.549.5.738.738,0,0,0,0,1.253c1.768,1.339,4.517-.3,5.1-2.192C448.232,68.146,447.655,68.022,446.969,68.532Z" transform="translate(-442.598 -68.212)" fill="#7c3432"/>
    </g>
  </g>
</svg>
