<svg xmlns="http://www.w3.org/2000/svg" width="20.854" height="16.534" viewBox="0 0 20.854 16.534">
  <g id="그룹_602" data-name="그룹 602" transform="translate(-531.188 -262.186)">
    <g id="그룹_599" data-name="그룹 599">
      <g id="그룹_367" data-name="그룹 367" transform="translate(533.149 263.493)">
        <path id="패스_656" data-name="패스 656" d="M450.873,216.963c9.758.794,11.006-14.372,1.23-15.166-9.758-.794-11.006,14.372-1.23,15.166Z" transform="translate(-444.134 -201.767)" fill="#7c3432"/>
      </g>
      <g id="그룹_368" data-name="그룹 368" transform="translate(536.397 266.855)">
        <path id="패스_657" data-name="패스 657" d="M449.192,211.6c5.45.444,6.147-8.027.689-8.47s-6.147,8.027-.689,8.47Z" transform="translate(-445.43 -203.108)" fill="#512020"/>
      </g>
      <g id="그룹_369" data-name="그룹 369" transform="translate(534.504 266.855)">
        <path id="패스_658" data-name="패스 658" d="M447.744,210.029c4.443.361,5.012-6.546.559-6.906s-5.012,6.546-.559,6.906Z" transform="translate(-444.674 -203.109)" fill="#fff"/>
      </g>
      <g id="그룹_371" data-name="그룹 371" transform="translate(531.188 262.186)">
        <path id="패스_660" data-name="패스 660" d="M443.74,207.9c2.248-3.819,6.586-6.232,11.046-4.917,4.35,1.281,5.618,5.355,7.067,9.2a.536.536,0,0,0,1.048-.143,10.723,10.723,0,0,0-8.312-10.643c-4.631-.809-9.951,1.649-11.229,6.338a.209.209,0,0,0,.381.16Z" transform="translate(-443.351 -201.245)" fill="#7c3432"/>
      </g>
      <g id="그룹_372" data-name="그룹 372" transform="translate(549.187 268.552)">
        <path id="패스_661" data-name="패스 661" d="M452.53,203.822c-.286.333-.386.8-.729,1.088-.361.3-.784.1-1.128.358a.306.306,0,0,0-.105.4l.055.123a.431.431,0,0,0,.383.218c1.01-.02,2.113-1.07,1.719-2.135a.118.118,0,0,0-.2-.053Z" transform="translate(-450.533 -203.786)" fill="#7c3432"/>
      </g>
    </g>
    <g id="그룹_373" data-name="그룹 373" transform="translate(549.616 270.405)">
      <path id="패스_662" data-name="패스 662" d="M452.776,204.593a1.5,1.5,0,0,1-.957.556,1.754,1.754,0,0,0-.867.226.528.528,0,0,0,0,.895c.945.719,1.982-.657,2.173-1.473.045-.185-.208-.376-.348-.2Z" transform="translate(-450.704 -204.525)" fill="#7c3432"/>
    </g>
    <g id="그룹_374" data-name="그룹 374" transform="translate(548.497 267.849)">
      <path id="패스_663" data-name="패스 663" d="M451.756,203.6a1.556,1.556,0,0,1-1.168.609c-.479.1-.4.757,0,.895a1.223,1.223,0,0,0,1.519-1.458.2.2,0,0,0-.351-.045Z" transform="translate(-450.258 -203.505)" fill="#7c3432"/>
    </g>
  </g>
</svg>
