<svg xmlns="http://www.w3.org/2000/svg" width="80.44" height="98.524" viewBox="0 0 80.44 98.524">
  <g id="그룹_633" data-name="그룹 633" transform="matrix(0.956, -0.292, 0.292, 0.956, -476.693, -508.167)">
    <g id="그룹_426" data-name="그룹 426" transform="matrix(-0.97, 0.242, -0.242, -0.97, 359.291, 683.621)">
      <path id="패스_800" data-name="패스 800" d="M4.92,27.154a6.7,6.7,0,0,1-1.157.773,2.878,2.878,0,0,1-2.11.338A2.582,2.582,0,0,1,.018,25.987a7.336,7.336,0,0,1,.5-2.909A54.481,54.481,0,0,1,5.4,11.593a24.383,24.383,0,0,1,8.646-8.84c7.979-4.512,23.275-4.112,27.192,5.991,1.364,3.517.846,7.585,2.424,11.009,1.668,3.623,5.565,6.3,5.814,10.283.068,1.109-.429,2.483-1.535,2.586a2.573,2.573,0,0,1-1.6-.6,35.532,35.532,0,0,1-8.045-7.463c-.156,4.781,3.344,8.9,4.252,13.6a3.254,3.254,0,0,1-.149,2.187,2.519,2.519,0,0,1-3.133.833,6.638,6.638,0,0,1-2.6-2.356A90.487,90.487,0,0,1,30.161,28.21q.873,7.425,1.745,14.848c.157,1.34.219,2.931-.831,3.777a2.74,2.74,0,0,1-3.3-.231A7.537,7.537,0,0,1,25.8,43.663a84.36,84.36,0,0,1-5.167-15.1c-2.1,4.805.208,10.629-1.7,15.516a3.571,3.571,0,0,1-1.119,1.649c-3.028,2.214-5.171-6.557-5.568-8.359a63.566,63.566,0,0,1-1.115-12.55c-.019-1-.36-2.337-1.361-2.317a1.783,1.783,0,0,0-1.124.615C7.335,24.388,6.311,26.01,4.92,27.154Z" transform="translate(0 0)" fill="#ffd5b8"/>
      <path id="패스_801" data-name="패스 801" d="M0,2.247A39.5,39.5,0,0,0,18.881,0" transform="translate(18.235 23.625)" fill="none" stroke="#f9b995" stroke-miterlimit="10" stroke-width="1"/>
      <path id="패스_802" data-name="패스 802" d="M6.508,13.407C2.123,11.577-.213,4.635.015,0" transform="translate(30.608 8.332)" fill="none" stroke="#f9b995" stroke-miterlimit="10" stroke-width="1"/>
      <path id="패스_803" data-name="패스 803" d="M0,12.1A12.983,12.983,0,0,0,6.368,7.469,12.991,12.991,0,0,0,8.858,0" transform="translate(12.434 8.153)" fill="none" stroke="#f9b995" stroke-miterlimit="10" stroke-width="1"/>
    </g>
    <g id="그룹_408" data-name="그룹 408" transform="matrix(-0.139, -0.99, 0.99, -0.139, 333.05, 742.474)">
      <path id="패스_739" data-name="패스 739" d="M0,.721,2.3.029a.691.691,0,0,1,.809.327A18.326,18.326,0,0,1,4.723,6.738c.26,2.527-.312,6.233-1.1,6.709S.279,13.193.279,13.193" transform="translate(49.745 3.57)" fill="#b72a71"/>
      <path id="패스_740" data-name="패스 740" d="M31.26,23.459C33.747,33.8-.3,18.386,7.842,5.9,13.9-3.387,42.184.05,49.745,4.291c2.882,1.615,3.028,8.355,2.315,11.942C51.3,20.058,37.537,22.967,31.26,23.459Z" transform="translate(0 0)" fill="#dd4583"/>
    </g>
  </g>
</svg>
