<svg xmlns="http://www.w3.org/2000/svg" width="243.974" height="456.576" viewBox="0 0 243.974 456.576">
  <g id="그룹_639" data-name="그룹 639" transform="translate(-30.773 -35.203)">
    <g id="그룹_5" data-name="그룹 5" transform="translate(102.876 395.733)">
      <g id="그룹_2" data-name="그룹 2">
        <g id="그룹_1" data-name="그룹 1" transform="translate(0.835)">
          <path id="패스_1" data-name="패스 1" d="M112.258,351.824c-.424-2.81-1.08-8.877-1.4-13.094-.32-4.264,1.232-65.777,1.434-65.788,0,0-26.611-14.093-25.588,2.187s3.315,23.352,8.633,61.4c.46,3.284,1.423,7-1.695,9.057C91.494,347,87,347.645,84.606,348.63a13.578,13.578,0,0,0-6.217,4.378c-1.362,1.97-.191,4.42-.3,6.792a1.265,1.265,0,0,0,.194.907,1.421,1.421,0,0,0,1.081.34c5.2.129,8.83-.525,13.985-1.179a46,46,0,0,0,8.129-1.53,44.833,44.833,0,0,0,10.266-5.332,1.269,1.269,0,0,0,.458-.409A1.2,1.2,0,0,0,112.258,351.824Z" transform="translate(-77.724 -267.279)" fill="#ffdbbb"/>
        </g>
        <path id="패스_2" data-name="패스 2" d="M85.274,324.483a25.392,25.392,0,0,0,5.823-2.166,7.55,7.55,0,0,0,1.656-1.412c.482-1.372.093-6-.228-7-.393-1.213-1.233-3.062-.609-3.677s1.836.387,2.3,1.581a1.584,1.584,0,1,1,3.129-.13,2.453,2.453,0,0,1,2.187-1.933,2.312,2.312,0,0,1,2.293,1.751,1.793,1.793,0,0,1,1.628-2.223,2.2,2.2,0,0,1,2.069,2.038,2.771,2.771,0,0,1,1.738-2.41,1.789,1.789,0,0,1,2.285,1.453,3.75,3.75,0,0,1-.16,1.019,16.656,16.656,0,0,0,.107,5.85q.534,4.087.828,8.2a10.2,10.2,0,0,1-.16,3.45,6.638,6.638,0,0,1-1.286,2.385,14.458,14.458,0,0,1-6.9,4.193,45.674,45.674,0,0,1-19.075,1.8q-.552-.058-1.1-.124" transform="translate(-74.635 -244.277)" fill="#ff6183"/>
        <path id="패스_3" data-name="패스 3" d="M112.593,317.974A11.953,11.953,0,0,1,105.8,324.6a16.163,16.163,0,0,0-6.755-7.7,7.778,7.778,0,0,0-3.912-.663,4.27,4.27,0,0,0-1.63,1.988c3.523.255,8.148,4.932,7.948,7.938a25.432,25.432,0,0,1-4.2,1.21,4.408,4.408,0,0,1-3.009-.7,11.083,11.083,0,0,1-2.27-2.742,14.527,14.527,0,0,0-3.708-3.926,16.8,16.8,0,0,0-4.5,1.519,11.509,11.509,0,0,0-4.9,4.025,11.055,11.055,0,0,0-1.644,4.547,8.7,8.7,0,0,0,.314,3.25c.68,2.2,7.1,3.394,12.347,2.672,4.828-.663,16.346-1.839,22.151-6.9C113.777,327.6,113.914,317.777,112.593,317.974Z" transform="translate(-77.186 -240.186)" fill="#b72a71"/>
      </g>
      <g id="그룹_4" data-name="그룹 4" transform="translate(49.576)">
        <g id="그룹_3" data-name="그룹 3" transform="translate(0.884)">
          <path id="패스_4" data-name="패스 4" d="M109.705,351.824c.424-2.81,1.081-8.877,1.4-13.094.322-4.264-1.232-65.777-1.434-65.788,0,0,26.611-14.093,25.588,2.187s-3.315,23.352-8.633,61.4c-.458,3.284-1.423,7,1.695,9.057,2.152,1.415,6.643,2.062,9.04,3.046s4.775,2.293,6.217,4.378c1.364,1.97.191,4.42.3,6.792a1.273,1.273,0,0,1-.2.907,1.421,1.421,0,0,1-1.081.34c-5.2.129-8.83-.525-13.985-1.179a46,46,0,0,1-8.129-1.53,44.833,44.833,0,0,1-10.266-5.332,1.269,1.269,0,0,1-.458-.409A1.2,1.2,0,0,1,109.705,351.824Z" transform="translate(-109.668 -267.279)" fill="#ffdbbb"/>
        </g>
        <path id="패스_5" data-name="패스 5" d="M134.56,324.483a25.392,25.392,0,0,1-5.823-2.166,7.551,7.551,0,0,1-1.656-1.412c-.482-1.372-.093-6,.228-7,.393-1.213,1.233-3.062.609-3.677s-1.835.387-2.3,1.581a1.584,1.584,0,1,0-3.129-.13,2.452,2.452,0,0,0-2.187-1.933,2.312,2.312,0,0,0-2.293,1.751,1.792,1.792,0,0,0-1.627-2.223,2.205,2.205,0,0,0-2.071,2.038,2.771,2.771,0,0,0-1.738-2.41,1.789,1.789,0,0,0-2.285,1.453,3.75,3.75,0,0,0,.16,1.019,16.655,16.655,0,0,1-.107,5.85q-.534,4.087-.828,8.2a10.194,10.194,0,0,0,.16,3.45,6.638,6.638,0,0,0,1.286,2.385,14.463,14.463,0,0,0,6.9,4.193,45.667,45.667,0,0,0,19.074,1.8c.368-.039.738-.081,1.106-.124" transform="translate(-108.909 -244.277)" fill="#ff6183"/>
        <path id="패스_6" data-name="패스 6" d="M109.983,317.974a11.953,11.953,0,0,0,6.793,6.626,16.165,16.165,0,0,1,6.756-7.7,7.776,7.776,0,0,1,3.912-.663,4.267,4.267,0,0,1,1.628,1.988c-3.523.255-8.147,4.932-7.948,7.938a25.406,25.406,0,0,0,4.2,1.21,4.406,4.406,0,0,0,3.008-.7,11.017,11.017,0,0,0,2.27-2.742,14.527,14.527,0,0,1,3.708-3.926,16.8,16.8,0,0,1,4.5,1.519,11.491,11.491,0,0,1,4.9,4.025,11.033,11.033,0,0,1,1.644,4.547,8.729,8.729,0,0,1-.312,3.25c-.68,2.2-7.1,3.394-12.349,2.672-4.828-.663-16.346-1.839-22.151-6.9C108.8,327.6,108.662,317.777,109.983,317.974Z" transform="translate(-109.099 -240.186)" fill="#b72a71"/>
      </g>
    </g>
    <g id="그룹_7" data-name="그룹 7" transform="translate(30.773 35.203)">
      <g id="그룹_6" data-name="그룹 6">
        <path id="패스_8" data-name="패스 8" d="M256.3,171.156c-.471-6.466,1.709-12.784,2.069-19.2,1.3-23.121-13-51.652-24.848-70.2-11.165-17.478-45.788-58.9-88.083-42.974-42.3-15.925-76.919,25.5-88.085,42.974-11.85,18.552-26.145,47.084-24.848,70.2.36,6.416,2.54,12.734,2.069,19.2-.415,5.7-4.539,10.955-3.686,16.7.948,6.386,5.075,12.024,10.4,15.552a35.123,35.123,0,0,0,18.077,5.338,9.221,9.221,0,0,1,2.588.326,9.335,9.335,0,0,1,2.838,1.87c8.255,6.852,19.291,11.134,29.93,8.568,4.121-.994,8.232-2.456,12.464-2.263,4.494.205,9,2.273,13.355,1.137a10.145,10.145,0,0,0,2.935-1.306,5.965,5.965,0,0,1,6.007-.255c3.832,1.987,9.557,3.251,15.961,3.251s12.127-1.265,15.959-3.251a5.965,5.965,0,0,1,6.007.255,10.146,10.146,0,0,0,2.935,1.306c4.359,1.136,8.861-.932,13.355-1.137,4.233-.193,8.342,1.269,12.464,2.263,10.64,2.566,21.674-1.715,29.931-8.568a9.316,9.316,0,0,1,2.838-1.87,9.2,9.2,0,0,1,2.587-.326,35.123,35.123,0,0,0,18.077-5.338c5.321-3.528,9.45-9.166,10.4-15.552C260.843,182.111,256.719,176.856,256.3,171.156ZM131.485,204.1A26.673,26.673,0,0,0,126.1,181.49L138.41,90.643l26.371,90.847a26.673,26.673,0,0,0-5.388,22.608,42.544,42.544,0,0,0-27.909,0Z" transform="translate(-30.773 -35.203)" fill="#7c3432"/>
      </g>
    </g>
    <path id="패스_7" data-name="패스 7" d="M238.153,275.126c3.276,3.272,3.293,8.3-.367,9.747-2.615,1.035-8.434.962-10.654-.764-.258,4.134-1.975,6.458-6.032,7.289a12.848,12.848,0,0,1-11.333-3.727,9.748,9.748,0,0,1-17.626-.766c-.576,4.651-4.028,8.1-7.876,8.474-3.231.317-8.321-.719-10.188-3.374-.424,3.831-4.084,6.744-7.9,7.256s-7.665-.938-10.927-2.989a10.275,10.275,0,0,1-17.176,2.58,8.827,8.827,0,0,1-7.786,3.969c-3.048-.177-7.52-2.953-8.857-5.7a8.2,8.2,0,0,1-14.693-2.832,11.763,11.763,0,0,1-10.318,3.891c-3.8-.525-7.253-4.626-8.877-8.1a9.2,9.2,0,0,1-16.7-1.407,10.051,10.051,0,0,1-17.148-3.452c-3.4,1.131-7.432,1.268-10.293-.89s-3.553-7.124-.651-9.226l14.194-4.665L70.882,262.8s5.562-6.024,21.552-7.878l15.989-1.855,3.94,1.39" transform="translate(5.594 120.586)" fill="#b72a71"/>
    <g id="그룹_11" data-name="그룹 11" transform="translate(228.981 92.236)">
      <g id="그룹_8" data-name="그룹 8" transform="translate(16.298 28.365)">
        <path id="패스_9" data-name="패스 9" d="M182.687,114.59l-3.75-1.769-4.7-3.1-2.24-2.846-1.182-2.81.231-3.311-.393-3.043.081-2.212,1.1-2.683,7.141-2.643a13.116,13.116,0,0,1,9.772,5.4,14.413,14.413,0,0,1,1.864,11.395A11.645,11.645,0,0,1,188,112.3c-1.406,1.535-3.528,2.591-5.31,2.287" transform="translate(-167.857 -90.174)" fill="#7c3432"/>
        <path id="패스_10" data-name="패스 10" d="M171.237,93.528c-2.526,4.01-2.877,6.64-1.838,10.746a13.348,13.348,0,0,0,1.488,3.679c2.262,3.724,6.992,6.085,12.144,6.063,1.644-.008,1.247-1.771.66-2.462a7.692,7.692,0,0,0-1.94-1.411c-5.182-3.152-11.139-11.35-9.657-17.135" transform="translate(-168.852 -88.605)" fill="#632a2a"/>
        <path id="패스_11" data-name="패스 11" d="M176.526,95.667a5.767,5.767,0,0,0,1.024,2.725l3.708,6.332a5.612,5.612,0,0,0,.971,1.334,3.954,3.954,0,0,0,.43-3.149,4.947,4.947,0,0,0-.651-1.673c-1.258-1.933-4.358-2.669-5.1-4.83" transform="translate(-164.604 -87.134)" fill="#632a2a"/>
        <path id="패스_12" data-name="패스 12" d="M179.766,101.471a3.361,3.361,0,0,1-1.075-2.161,7.908,7.908,0,0,1,1.115-3.9,3.855,3.855,0,0,0,.169,2.1,9.275,9.275,0,0,1,.045,5.24" transform="translate(-163.414 -87.277)" fill="#632a2a"/>
      </g>
      <g id="그룹_9" data-name="그룹 9">
        <path id="패스_13" data-name="패스 13" d="M176.192,107.366c2.041.149,4.028-1.442,5.086-3.534a14.082,14.082,0,0,0,1.19-6.981,22.383,22.383,0,0,0-5.589-13.944c-3.289-3.556-7.794-11.078-12.355-10.989" transform="translate(-154.95 -71.915)" fill="#7c3432"/>
        <path id="패스_14" data-name="패스 14" d="M159.1,78.057a23.042,23.042,0,0,0,1.811,16.125,21.322,21.322,0,0,0,2.773,4.387,17.339,17.339,0,0,0,15.153,5.975c1.793-.224.809-2.366-.047-3.152a10.412,10.412,0,0,0-2.559-1.5c-6.644-3.255-11.813-9.97-12-17.365" transform="translate(-158.361 -68.516)" fill="#632a2a"/>
        <path id="패스_15" data-name="패스 15" d="M166.8,82.248a9.149,9.149,0,0,0,1.968,3.261l6.025,7.4a8.633,8.633,0,0,0,1.476,1.535,5.624,5.624,0,0,0-.511-3.977,7.957,7.957,0,0,0-1.233-2c-1.978-2.243-5.591-2.757-7.079-5.352" transform="translate(-153.689 -66.196)" fill="#632a2a"/>
        <path id="패스_16" data-name="패스 16" d="M171.823,89.107a5.27,5.27,0,0,1-1.849-2.552,10.548,10.548,0,0,1,0-5,5.946,5.946,0,0,0,.839,2.591,13.934,13.934,0,0,1,1.684,6.519" transform="translate(-152.104 -66.581)" fill="#632a2a"/>
      </g>
      <path id="패스_17" data-name="패스 17" d="M179.475,106.26c-1.15,1.954-2.22,4.111-2.052,6.372a12.191,12.191,0,0,0,1.953,5.024,13.211,13.211,0,0,1,2.038,5c.2,1.8-1.811,4.634-3.48,5.342,1.878,1.5,4.953.684,6.924.736a7,7,0,0,0,5.364-2.041c1.328-1.459,1.425-4.768.921-6.242a3.074,3.074,0,0,0,2.433-3.241,8.922,8.922,0,0,0-1.726-5.436,20.019,20.019,0,0,0-4.075-4.107A9.89,9.89,0,0,0,185.5,106.2a3.777,3.777,0,0,0-2.649-.193" transform="translate(-147.819 -53.135)" fill="#7c3432"/>
      <g id="그룹_10" data-name="그룹 10" transform="translate(29.586 53.109)">
        <path id="패스_18" data-name="패스 18" d="M187.48,118.682a5.315,5.315,0,0,0-.21-1.028,3.074,3.074,0,0,0,2.433-3.241,8.011,8.011,0,0,0-.7-3.517c-.057.41-.113.82-.171,1.23-.087.626-.244,1.352-.814,1.622-.621.3-1.336-.135-1.85-.59a2.613,2.613,0,0,0-1.769-.937,10.252,10.252,0,0,1,2.942,6.39Z" transform="translate(-173.533 -103.449)" fill="#632a2a"/>
        <path id="패스_19" data-name="패스 19" d="M183.5,122.937a11.072,11.072,0,0,0-.848-5.271,23.827,23.827,0,0,1-1.546-5.153,5.822,5.822,0,0,1,1.5-4.976l-2.925-1.435-.2.016c-1.15,1.954-2.22,4.111-2.052,6.372a12.191,12.191,0,0,0,1.953,5.024,13.211,13.211,0,0,1,2.038,5c.146,1.333-.918,3.227-2.155,4.41a3.506,3.506,0,0,0,1.025-.064A4.588,4.588,0,0,0,183.5,122.937Z" transform="translate(-177.406 -106.102)" fill="#632a2a"/>
      </g>
      <path id="패스_20" data-name="패스 20" d="M186.28,104.4c-.085-.04-.171-.078-.244-.113a5,5,0,0,0-1.664-.023,11.37,11.37,0,0,0-2.032.3,17.237,17.237,0,0,0-3.7,1.393c-1,.5-2.046,1.165-2.156,2.083a.362.362,0,0,0,.062.289.615.615,0,0,0,.337.157,4.909,4.909,0,0,0,2.29-.233,35.819,35.819,0,0,0,4.656-1.6C184.527,106.342,187.8,105.114,186.28,104.4Z" transform="translate(-148.334 -54.047)" fill="#ff6183"/>
      <path id="패스_21" data-name="패스 21" d="M187.606,106.3a.5.5,0,0,0-.044-.213,1.281,1.281,0,0,0-.575-.522,5.438,5.438,0,0,0-4.684.106,19.956,19.956,0,0,0-1.931,1.047c-.794.432-1.7.719-2.462,1.192-.4.25-.828.626-.657,1a1.1,1.1,0,0,0,.791.465,7.319,7.319,0,0,0,3.022-.169,20.54,20.54,0,0,0,5.6-1.866C187.125,107.087,187.6,106.707,187.606,106.3Z" transform="translate(-147.925 -53.562)" fill="#ff6183"/>
    </g>
    <path id="패스_22" data-name="패스 22" d="M237.354,190.906c-2.4-1.233-4.508-3.576-4.387-6.27a8.871,8.871,0,0,1,1.588-4.142c2.927-4.743,6.884-9.088,8.022-14.542,1.555-7.451-.976-14.822-5.165-21.176a18.45,18.45,0,0,1-2.725-5.245c-.831-3.129.087-6.416.753-9.585,3.1-14.7-.859-30.214-6.548-44.116S214.361,59.511,204.48,48.194l-42.6,2.775c4.852,15.481,2.538,32.244-.886,48.1-2.526,11.7-5.641,23.254-9.172,34.687L163.592,174.3a26.673,26.673,0,0,0-5.388,22.608,42.545,42.545,0,0,0-27.909,0,27.062,27.062,0,0,0-3.571-20.171l-.019,0c-.106-.163-.221-.318-.329-.478a23.11,23.11,0,0,0-1.466-1.964l7.489-55.267c-1.8-6.61-3.447-13.261-4.894-19.961-3.424-15.858-5.737-32.622-.886-48.1l-42.6-2.775C74.142,59.511,65.3,71.928,59.61,85.831s-9.649,29.419-6.55,44.116c.668,3.169,1.586,6.456.753,9.585a18.484,18.484,0,0,1-2.723,5.245c-4.19,6.354-6.722,13.725-5.167,21.176,1.14,5.454,5.1,9.8,8.022,14.542a8.871,8.871,0,0,1,1.588,4.142c.121,2.694-1.988,5.036-4.387,6.27-5.689,2.922-12.374,1.108-18.226-1.942.289.449.6.887.918,1.314l.042.056a26.023,26.023,0,0,0,3.289,3.57l-.016,0a25.756,25.756,0,0,0,2.942,2.315,35.122,35.122,0,0,0,18.077,5.338,9.221,9.221,0,0,1,2.588.326,9.335,9.335,0,0,1,2.838,1.87c8.255,6.853,19.291,11.134,29.93,8.568,4.121-.994,8.232-2.456,12.464-2.263,4.494.205,9,2.273,13.355,1.137a10.145,10.145,0,0,0,2.935-1.306,5.966,5.966,0,0,1,6.007-.255c3.832,1.987,9.557,3.251,15.961,3.251s12.127-1.265,15.959-3.251a5.966,5.966,0,0,1,6.007.255,10.145,10.145,0,0,0,2.935,1.306c4.359,1.136,8.861-.932,13.355-1.137,4.233-.193,8.342,1.269,12.464,2.263,10.64,2.566,21.674-1.715,29.931-8.568a9.316,9.316,0,0,1,2.838-1.87,9.2,9.2,0,0,1,2.587-.326,39.4,39.4,0,0,0,11.415-2.075c.367-.129.725-.273,1.087-.415.312-.121.626-.242.934-.374s.632-.28.945-.424q.576-.27,1.137-.564c.244-.126.488-.249.727-.382.621-.346,1.235-.708,1.832-1.1a25.02,25.02,0,0,0,2.027-1.5c.079-.065.151-.138.23-.205.581-.488,1.15-1,1.686-1.536.023-.023.044-.048.065-.071a24.837,24.837,0,0,0,3.168-3.941l0,0C249.728,192.016,243.043,193.828,237.354,190.906Z" transform="translate(1.189 7.191)" fill="#632a2a"/>
    <g id="그룹_18" data-name="그룹 18" transform="translate(50.147 155.793)">
      <path id="패스_28" data-name="패스 28" d="M63.882,117.582c-1.838-4.166-7.424-5.768-11.665-4.109s-7.106,5.818-8.349,10.2a14.561,14.561,0,0,0-.621,4.241c.107,5.75,4.8,10.541,10.067,12.857a15.9,15.9,0,0,0,9.329,1.4,9.226,9.226,0,0,0,7.076-5.781" transform="translate(-43.245 -112.828)" fill="#ffd5b8"/>
      <g id="그룹_16" data-name="그룹 16" transform="translate(6.202 5.463)">
        <path id="패스_29" data-name="패스 29" d="M47.863,121.842c-.452-2.638,2.032-5.447,4.8-4.23,3.551,1.561.3,5.415.8,7.862.39,1.908,2.644,1.853,3.977,2.709a5.449,5.449,0,0,1,2.3,3.318c.511,3.256-3.36,2.018-4.99,1.2-.465-.235-.977.354-.575.746,2.085,2.026,7.328,2.74,7.129-1.448a6.6,6.6,0,0,0-2.27-4.241,5.888,5.888,0,0,0-1.494-.991,11.6,11.6,0,0,1-1.658-.534c-1.738-1.187-.8-2.347-.536-3.71.562-2.919-.517-6.422-4.066-6.161a4.346,4.346,0,0,0-3.884,5.613c.078.308.519.172.466-.129Z" transform="translate(-47.237 -116.344)" fill="#f9b995"/>
      </g>
      <g id="그룹_17" data-name="그룹 17" transform="translate(6.34 14.962)">
        <path id="패스_30" data-name="패스 30" d="M47.351,122.751c-.2,1.825.8,4.4,2.841,4.747.407.068.812-.429.443-.76-1.341-1.2-2.526-2.009-2.677-3.988a.3.3,0,0,0-.607,0Z" transform="translate(-47.326 -122.459)" fill="#f9b995"/>
      </g>
      <path id="패스_31" data-name="패스 31" d="M67.964,136.213l-5.837-18.8a8.013,8.013,0,0,0-5.072-4.274c-.786,7.388,1.075,20.912,2.133,25.664-2.532,1.776-10.082-.522-12.773-1.487a20.005,20.005,0,0,0,5.144,3.284,15.9,15.9,0,0,0,9.329,1.4A9.226,9.226,0,0,0,67.964,136.213Z" transform="translate(-41.49 -112.657)" fill="#f9b995" opacity="0.55" style="mix-blend-mode: multiply;isolation: isolate"/>
    </g>
    <g id="그룹_21" data-name="그룹 21" transform="translate(214.574 155.793)">
      <path id="패스_32" data-name="패스 32" d="M154.925,117.582c1.836-4.166,7.423-5.768,11.664-4.109s7.106,5.818,8.349,10.2a14.615,14.615,0,0,1,.623,4.241c-.109,5.75-4.8,10.541-10.068,12.857a15.9,15.9,0,0,1-9.329,1.4,9.226,9.226,0,0,1-7.076-5.781" transform="translate(-149.087 -112.828)" fill="#ffd5b8"/>
      <g id="그룹_19" data-name="그룹 19" transform="translate(6.199 5.463)">
        <path id="패스_33" data-name="패스 33" d="M166.524,121.842c.452-2.638-2.032-5.447-4.8-4.23-3.551,1.561-.3,5.415-.8,7.862-.39,1.908-2.644,1.853-3.975,2.709a5.445,5.445,0,0,0-2.3,3.318c-.51,3.256,3.36,2.018,4.99,1.2.464-.235.979.354.575.746-2.085,2.026-7.326,2.74-7.129-1.448a6.606,6.606,0,0,1,2.271-4.241,5.834,5.834,0,0,1,1.494-.991,11.521,11.521,0,0,0,1.656-.534c1.74-1.187.8-2.347.536-3.71-.561-2.919.517-6.422,4.066-6.161a4.348,4.348,0,0,1,3.885,5.613c-.079.308-.519.172-.468-.129Z" transform="translate(-153.077 -116.344)" fill="#f9b995"/>
      </g>
      <g id="그룹_20" data-name="그룹 20" transform="translate(16.68 14.962)">
        <path id="패스_34" data-name="패스 34" d="M163.253,122.751c.2,1.825-.8,4.4-2.841,4.747-.407.068-.812-.429-.441-.76,1.341-1.2,2.524-2.009,2.677-3.988a.3.3,0,0,1,.606,0Z" transform="translate(-159.824 -122.459)" fill="#f9b995"/>
      </g>
      <path id="패스_35" data-name="패스 35" d="M149.087,136.213l5.838-18.8A8.01,8.01,0,0,1,160,113.137c.786,7.388,1.147,17-1.392,24.651,2.532,1.776,9.343.491,12.032-.474a19.978,19.978,0,0,1-5.144,3.284,15.9,15.9,0,0,1-9.329,1.4A9.226,9.226,0,0,1,149.087,136.213Z" transform="translate(-149.087 -112.657)" fill="#f9b995" opacity="0.55" style="mix-blend-mode: multiply;isolation: isolate"/>
    </g>
    <path id="패스_36" data-name="패스 36" d="M103.366,143.512c1.4,12.061-2.436,16.823-13.693,19.192,0,0-.705,16.622,20.952,19.186,8.9,1.055,22.776-8.65,25.381-16.829-9.492-1.718-13.475-12.59-10.491-20.478" transform="translate(32.6 59.949)" fill="#ffd5b8"/>
    <path id="패스_37" data-name="패스 37" d="M99.555,148.857a57.971,57.971,0,0,0,15.627.1,6.136,6.136,0,0,1-6.052,3.969,12.429,12.429,0,0,1-2.949-.684,38.926,38.926,0,0,1-6.626-3.388" transform="translate(38.071 62.908)" fill="#f9b995"/>
    <path id="패스_38" data-name="패스 38" d="M209.979,129.6c-2.74-15.408-9.071-29.65-14.6-44.081-3.228-8.425-6.9-17.794-14.466-21.316l-3.471-.284c-6.265-4.345-13.657-6.692-20.915-5.622l-23.918,1.956L108.691,58.3c-7.26-1.07-14.65,1.277-20.916,5.622L84.3,64.2C76.738,67.726,73.066,77.095,69.837,85.52c-5.53,14.43-11.861,28.673-14.6,44.081s-1.409,32.574,7.211,45.011c8.92,12.871,27.064,20.467,41.419,23.107,18.729,3.441,39.867,3.735,58.558-.207,14.552-3.067,31.023-9.453,40.343-22.9C211.388,162.174,212.719,145.006,209.979,129.6Z" transform="translate(12.832 12.641)" fill="#ffd5b8"/>
    <path id="패스_39" data-name="패스 39" d="M127.4,125.6c-.471-4.97,6.511-5.019,9.821-4.775,3.921.287,12.284,1.251,8.322,7.036-2.613,3.815-9.447,4.769-13.576,3.526A6.815,6.815,0,0,1,127.4,125.6Z" transform="translate(53.47 47.351)" fill="#ef9181"/>
    <path id="패스_40" data-name="패스 40" d="M89.218,125.6c.471-4.97-6.511-5.019-9.821-4.775-3.921.287-12.284,1.251-8.322,7.036,2.613,3.815,9.447,4.769,13.576,3.526A6.815,6.815,0,0,0,89.218,125.6Z" transform="translate(21.731 47.351)" fill="#ef9181"/>
    <path id="패스_44" data-name="패스 44" d="M103.059,143.04a6.5,6.5,0,0,0,6.932-.322" transform="translate(40.01 59.51)" fill="none" stroke="#f9b995" stroke-miterlimit="10" stroke-width="1"/>
    <g id="그룹_43" data-name="그룹 43" transform="translate(89.764 135.782)">
      <g id="그룹_33" data-name="그룹 33" transform="translate(88.596)">
        <g id="그룹_28" data-name="그룹 28" transform="translate(5.067)">
          <path id="패스_48" data-name="패스 48" d="M142.452,105.408c-1.981-5.178-9.638-7.833-13.309-2.677-.381.533.351,1.181.87.87,2.034-1.219,3.853-2.277,6.326-1.813a7.2,7.2,0,0,1,5.078,4.055c.283.564,1.265.168,1.035-.435Z" transform="translate(-129.038 -99.947)" fill="#7c3432"/>
        </g>
      </g>
      <g id="그룹_42" data-name="그룹 42">
        <g id="그룹_34" data-name="그룹 34" transform="translate(4.562 11.123)">
          <path id="패스_53" data-name="패스 53" d="M80.381,123.689c-10.649.865-12.01-15.683-1.345-16.549,10.648-.865,12.01,15.683,1.345,16.549Z" transform="translate(-71.683 -107.107)" fill="#7c3432"/>
        </g>
        <g id="그룹_35" data-name="그룹 35" transform="translate(8.106 14.793)">
          <path id="패스_54" data-name="패스 54" d="M78.821,118.726c-5.947.483-6.706-8.756-.752-9.239s6.706,8.756.752,9.239Z" transform="translate(-73.965 -109.469)" fill="#512020"/>
        </g>
        <g id="그룹_36" data-name="그룹 36" transform="translate(11.826 14.792)">
          <path id="패스_55" data-name="패스 55" d="M80.319,117.019c-4.848.395-5.468-7.141-.612-7.536s5.468,7.141.612,7.536Z" transform="translate(-76.359 -109.468)" fill="#fff"/>
        </g>
        <g id="그룹_37" data-name="그룹 37" transform="translate(4.238)">
          <path id="패스_56" data-name="패스 56" d="M71.509,105.408c1.979-5.178,9.636-7.833,13.309-2.677.379.533-.353,1.181-.872.87-2.034-1.219-3.851-2.277-6.326-1.813a7.2,7.2,0,0,0-5.078,4.055c-.283.564-1.265.168-1.033-.435Z" transform="translate(-71.474 -99.947)" fill="#7c3432"/>
        </g>
        <g id="그룹_38" data-name="그룹 38" transform="translate(1.401 9.699)">
          <path id="패스_57" data-name="패스 57" d="M90.575,113.445c-2.451-4.166-7.185-6.8-12.054-5.366-4.746,1.4-6.127,5.843-7.708,10.043a.586.586,0,0,1-1.145-.155c-.343-5.187,3.929-10.711,9.071-11.611,5.054-.884,10.856,1.8,12.252,6.913a.229.229,0,0,1-.416.176Z" transform="translate(-69.649 -106.19)" fill="#7c3432"/>
        </g>
        <g id="그룹_39" data-name="그룹 39" transform="translate(0.633 16.645)">
          <path id="패스_58" data-name="패스 58" d="M69.457,110.7c.312.362.421.873.794,1.185.393.329.856.1,1.232.393a.331.331,0,0,1,.113.437l-.061.134a.473.473,0,0,1-.418.239c-1.1-.023-2.305-1.168-1.874-2.332a.128.128,0,0,1,.213-.056Z" transform="translate(-69.154 -110.661)" fill="#7c3432"/>
        </g>
        <g id="그룹_40" data-name="그룹 40" transform="translate(0 18.665)">
          <path id="패스_59" data-name="패스 59" d="M69.133,112.035a1.63,1.63,0,0,0,1.044.606,1.943,1.943,0,0,1,.946.247.576.576,0,0,1,0,.976c-1.032.785-2.164-.716-2.371-1.608-.048-.2.227-.409.381-.221Z" transform="translate(-68.746 -111.961)" fill="#7c3432"/>
        </g>
        <g id="그룹_41" data-name="그룹 41" transform="translate(1.813 15.877)">
          <path id="패스_60" data-name="패스 60" d="M70.332,110.265a1.7,1.7,0,0,0,1.275.665c.522.106.437.826,0,.976a1.333,1.333,0,0,1-1.658-1.591.212.212,0,0,1,.382-.05Z" transform="translate(-69.914 -110.167)" fill="#7c3432"/>
        </g>
      </g>
    </g>
    <path id="패스_61" data-name="패스 61" d="M82.632,132.311C84.6,123.58,89.371,111.839,88.8,114a125.17,125.17,0,0,0-3.295,18.028c7.308-.7,14.9-1.249,22.718-1.637.934-7.044,2.346-17.4,2.346-15.557v15.45q12.3-.557,25.251-.576c1.53,0,3.045.017,4.564.03.46-7.946,1.532-17.263,1.72-15.252.477,5.086.789,10.175,1,15.269q11.635.149,22.721.763c-.176-8.019-.82-17.513-.154-15.707a55.182,55.182,0,0,1,3.25,15.888c10.061.606,19.722,1.473,28.83,2.588-.233-10.977-1.5-24.548-.8-22.681a67.181,67.181,0,0,1,4.1,23.108c7.311.955,14.264,2.06,20.772,3.309,3.859-15.937.778-41.878-6.487-55.555-5.485-10.328-11.532-21.075-21.392-28.92-16.239-12.92-37.6-22.008-56.022-13.846-24.037-8.749-44.9-.4-64.562,19.838-12.728,13.1-28.076,51.682-24.757,78.725C58.918,135.235,70.35,133.563,82.632,132.311Z" transform="translate(9.616 0.023)" fill="#7c3432"/>
    <path id="패스_67" data-name="패스 67" d="M162.62,155.5s2.51,10.379-21.188,10.379S120.243,155.5,120.243,155.5c-50.416,7.084-72.277,153.189-76.749,173.619,21.709,12.955,35.191,8.237,51.157,8.319,11.968.061,14.32,10.214,46.781,10.214s34.812-10.154,46.781-10.214c15.965-.082,29.448,4.636,51.157-8.319C231.744,298.349,213.035,162.589,162.62,155.5Z" transform="translate(4.378 66.587)" fill="#dd4583"/>
    <path id="패스_68" data-name="패스 68" d="M124.233,154.239A26.738,26.738,0,0,1,104.9,166.6a6.594,6.594,0,0,0,1.255,5.005c1.174,1.324,3.5,1.692,4.69.382a6.192,6.192,0,0,0,3.393,1.672,8.193,8.193,0,0,0,4.525.011,3.627,3.627,0,0,0,2.554-3.419,7.037,7.037,0,0,0,5.821.3,4.757,4.757,0,0,0,2.545-1.833,2.431,2.431,0,0,0-.207-2.95,5.643,5.643,0,0,0,4.376-3.913,4.824,4.824,0,0,0,.009-3.362,7.251,7.251,0,0,0-2.576-2.757c-1.456-1.089-5.245-1.675-7.054-1.494" transform="translate(41.006 65.869)" fill="#ff6183"/>
    <path id="패스_69" data-name="패스 69" d="M95.854,154.239A26.738,26.738,0,0,0,115.185,166.6a6.588,6.588,0,0,1-1.255,5.005c-1.174,1.324-3.5,1.692-4.69.382a6.192,6.192,0,0,1-3.393,1.672,8.188,8.188,0,0,1-4.524.011,3.628,3.628,0,0,1-2.555-3.419,7.037,7.037,0,0,1-5.821.3,4.763,4.763,0,0,1-2.545-1.833,2.433,2.433,0,0,1,.207-2.95,5.643,5.643,0,0,1-4.376-3.913,4.824,4.824,0,0,1-.009-3.362,7.263,7.263,0,0,1,2.576-2.757c1.457-1.089,5.245-1.675,7.054-1.494" transform="translate(30.526 65.869)" fill="#ff6183"/>
    <g id="그룹_50" data-name="그룹 50" transform="translate(120.459 249.281)">
      <g id="그룹_48" data-name="그룹 48">
        <path id="패스_70" data-name="패스 70" d="M92.282,201.658c2.573,1.766,5.942,1.945,9.013,1.4.238-.042.5-.065.76-.089a13.2,13.2,0,0,0-2.877,1.024,9.542,9.542,0,0,0-5.325,7.252,9.643,9.643,0,0,0,3.287,7.733c3.5,3.245,9.374,4.089,13.068,1.07,2.332-1.906,3.444-4.94,3.823-7.938.1.657.224,1.316.351,1.975a9.544,9.544,0,0,0,5.468,7.143,9.657,9.657,0,0,0,8.345-.99c4.093-2.448,6.551-7.856,4.687-12.246-1.218-2.871-3.963-4.833-6.845-6.026a2.49,2.49,0,0,1-.384-.207,13.135,13.135,0,0,0,2.672.555,9.54,9.54,0,0,0,8.389-3.25,9.647,9.647,0,0,0,1.387-8.288c-1.2-4.615-5.706-8.488-10.443-7.929a12.9,12.9,0,0,0-6.27,4.107c2.7-2.9,3.031-7.12,2.052-9.027a9.649,9.649,0,0,0-6.93-4.754c-4.692-.854-10.1,1.6-11.594,6.125a11.766,11.766,0,0,0,.873,8.37,13.642,13.642,0,0,1-1.185-1.1,9.54,9.54,0,0,0-8.453-3.082,9.648,9.648,0,0,0-6.5,5.322C87.514,193.078,88.351,198.958,92.282,201.658Z" transform="translate(-88.505 -173.007)" fill="#ff6183"/>
      </g>
      <g id="그룹_49" data-name="그룹 49" transform="translate(17.81 17.958)">
        <path id="패스_71" data-name="패스 71" d="M107.564,200.291c-10.118,0-10.135-15.725,0-15.725,10.116,0,10.133,15.725,0,15.725Z" transform="translate(-99.969 -184.566)" fill="#f9c941"/>
      </g>
    </g>
    <path id="패스_72" data-name="패스 72" d="M76.232,181.727c-7.94,16.991-11.748,49.215-15.88,66.51" transform="translate(16.372 81.101)" fill="none" stroke="#b72a71" stroke-miterlimit="10" stroke-width="1"/>
    <path id="패스_73" data-name="패스 73" d="M139.238,181.727c7.941,16.991,11.749,49.215,15.881,66.51" transform="translate(60.035 81.101)" fill="none" stroke="#b72a71" stroke-miterlimit="10" stroke-width="1"/>
    <path id="패스_74" data-name="패스 74" d="M107.918,214.375a2.281,2.281,0,1,1-2.282-2.282A2.281,2.281,0,0,1,107.918,214.375Z" transform="translate(40.174 97.909)" fill="#b72a71"/>
    <path id="패스_75" data-name="패스 75" d="M107.918,228.455a2.281,2.281,0,1,1-2.282-2.282A2.281,2.281,0,0,1,107.918,228.455Z" transform="translate(40.174 105.702)" fill="#b72a71"/>
    <path id="패스_76" data-name="패스 76" d="M107.918,242.535a2.281,2.281,0,1,1-2.282-2.281A2.283,2.283,0,0,1,107.918,242.535Z" transform="translate(40.174 113.496)" fill="#b72a71"/>
    <path id="패스_77" data-name="패스 77" d="M107.918,256.614a2.281,2.281,0,1,1-2.282-2.281A2.283,2.283,0,0,1,107.918,256.614Z" transform="translate(40.174 121.289)" fill="#b72a71"/>
    <path id="패스_78" data-name="패스 78" d="M107.918,270.694a2.281,2.281,0,1,1-2.282-2.281A2.283,2.283,0,0,1,107.918,270.694Z" transform="translate(40.174 129.083)" fill="#b72a71"/>
    <g id="그룹_53" data-name="그룹 53" transform="translate(75.876 347.32)">
      <g id="그룹_51" data-name="그룹 51">
        <path id="패스_79" data-name="패스 79" d="M85.486,242.079a22.064,22.064,0,0,1-1.265,10.3,14.941,14.941,0,0,1-6.531,8.058,12.946,12.946,0,0,1-3.175,1.156c-5.1,1.174-10.979.536-13.936-3.977.393.6.53,1.468.9,2.116a12.518,12.518,0,0,0,1.319,1.856,16.931,16.931,0,0,0,7.552,5.125A17.661,17.661,0,0,0,87.2,263.29a18.7,18.7,0,0,0,6.711-13.071c.236-3.391-.141-7.516-1.982-10.315" transform="translate(-59.379 -234.018)" fill="#cc3a7c"/>
        <path id="패스_80" data-name="패스 80" d="M93.264,240.574a44.568,44.568,0,0,1-28.786-4.459l-1.064,3.234a16.715,16.715,0,0,0,6.863,3.906,43.2,43.2,0,0,0,17.374,2.176,12.653,12.653,0,0,0,5.167-1.378A8.33,8.33,0,0,0,93.264,240.574Z" transform="translate(-57.81 -236.115)" fill="#b72a71"/>
        <path id="패스_81" data-name="패스 81" d="M61.588,260.4A17.207,17.207,0,0,0,76.9,266.983a18.647,18.647,0,0,0,13.981-9.288,20.36,20.36,0,0,0,1.255-16.846" transform="translate(-58.82 -233.495)" fill="none" stroke="#b72a71" stroke-miterlimit="10" stroke-width="1"/>
        <path id="패스_82" data-name="패스 82" d="M60.621,257.681a17.2,17.2,0,0,1,1.8-14.331,33.867,33.867,0,0,1,5.078-5.824" transform="translate(-59.806 -235.334)" fill="none" stroke="#b72a71" stroke-miterlimit="10" stroke-width="1"/>
      </g>
      <g id="그룹_52" data-name="그룹 52" transform="translate(104.353)">
        <path id="패스_83" data-name="패스 83" d="M136.059,242.079a22.062,22.062,0,0,0,1.263,10.3,14.941,14.941,0,0,0,6.531,8.058,12.947,12.947,0,0,0,3.175,1.156c5.1,1.174,10.979.536,13.936-3.977-.393.6-.53,1.468-.9,2.116a12.406,12.406,0,0,1-1.319,1.856,16.935,16.935,0,0,1-7.55,5.125,17.663,17.663,0,0,1-16.851-3.424,18.7,18.7,0,0,1-6.711-13.071c-.236-3.391.141-7.516,1.982-10.315" transform="translate(-126.651 -234.018)" fill="#cc3a7c"/>
        <path id="패스_84" data-name="패스 84" d="M127.039,240.574a44.568,44.568,0,0,0,28.786-4.459l1.064,3.234a16.715,16.715,0,0,1-6.863,3.906,43.2,43.2,0,0,1-17.374,2.176,12.661,12.661,0,0,1-5.167-1.378A8.356,8.356,0,0,1,127.039,240.574Z" transform="translate(-126.979 -236.115)" fill="#b72a71"/>
        <path id="패스_85" data-name="패스 85" d="M159.39,260.4a17.207,17.207,0,0,1-15.314,6.587,18.647,18.647,0,0,1-13.982-9.288,20.36,20.36,0,0,1-1.255-16.846" transform="translate(-126.644 -233.495)" fill="none" stroke="#b72a71" stroke-miterlimit="10" stroke-width="1"/>
        <path id="패스_86" data-name="패스 86" d="M151.764,257.681a17.2,17.2,0,0,0-1.8-14.331,33.927,33.927,0,0,0-5.077-5.824" transform="translate(-117.065 -235.334)" fill="none" stroke="#b72a71" stroke-miterlimit="10" stroke-width="1"/>
      </g>
    </g>
    <g id="그룹_54" data-name="그룹 54" transform="translate(75.368 87.071)">
      <path id="패스_87" data-name="패스 87" d="M123.721,108.23A61.611,61.611,0,0,0,120.782,87.2c-1.3-4.024-3.028-7.917-4.011-12.03a114.59,114.59,0,0,1,2.756,32.872C120.933,108.1,122.328,108.165,123.721,108.23Z" transform="translate(-27.768 -64.948)" fill="#632a2a"/>
      <path id="패스_88" data-name="패스 88" d="M142.589,108.379a70.911,70.911,0,0,0-9.655-29.8,106.744,106.744,0,0,1,4.594,29.308C139.232,108.041,140.916,108.207,142.589,108.379Z" transform="translate(-18.822 -63.064)" fill="#632a2a"/>
      <path id="패스_89" data-name="패스 89" d="M158.116,113.942a65.228,65.228,0,0,0-1.853-17.076c-2.486-9.636-8.061-18.782-16.579-23.93a62.524,62.524,0,0,1,6.422,16.8c.033-.224.089-.236.177,0a67.181,67.181,0,0,1,4.1,23.108C153.018,113.189,155.582,113.56,158.116,113.942Z" transform="translate(-15.085 -66.186)" fill="#632a2a"/>
      <path id="패스_90" data-name="패스 90" d="M75.964,101.177c2.577-10.28,6.3-20.781,10.749-32.586-9.323,13.927-17.39,29.226-19.59,45.8,1.654-.188,3.32-.368,5.005-.541A115.284,115.284,0,0,1,75.964,101.177Z" transform="translate(-55.248 -68.591)" fill="#632a2a"/>
      <path id="패스_91" data-name="패스 91" d="M59.479,108.926q3.551-.51,7.228-.969a93.955,93.955,0,0,1,3.425-26.734A82.753,82.753,0,0,0,59.479,108.926Z" transform="translate(-59.479 -61.6)" fill="#632a2a"/>
      <path id="패스_92" data-name="패스 92" d="M83.837,108.181l.095.227q1.473-.086,2.958-.163c.02-.241.039-.483.061-.722A259.467,259.467,0,0,1,91.887,75.4C86.7,85.456,85.226,96.954,83.837,108.181Z" transform="translate(-45.997 -64.819)" fill="#632a2a"/>
      <path id="패스_93" data-name="패스 93" d="M104.359,74.933q-1.414,16.428-2.827,32.858c1.585-.014,3.141-.056,4.741-.056.225,0,.449,0,.674,0A148.2,148.2,0,0,0,104.359,74.933Z" transform="translate(-36.203 -65.081)" fill="#632a2a"/>
    </g>
    <path id="패스_94" data-name="패스 94" d="M126.158,71.058a90.713,90.713,0,0,1,9.653,35.379" transform="translate(52.795 19.846)" fill="none" stroke="#632a2a" stroke-miterlimit="10" stroke-width="1"/>
    <path id="패스_95" data-name="패스 95" d="M105.972,44.1a28.368,28.368,0,0,1,21.718-1.915,37.546,37.546,0,0,1,18.053,12.677" transform="translate(41.622 3.144)" fill="none" stroke="#632a2a" stroke-miterlimit="10" stroke-width="1"/>
    <path id="패스_96" data-name="패스 96" d="M106.612,44.93a22.092,22.092,0,0,1,17.076,1.63" transform="translate(41.977 4.824)" fill="none" stroke="#632a2a" stroke-miterlimit="10" stroke-width="1"/>
    <path id="패스_97" data-name="패스 97" d="M82.706,52.325c4.288-3.857,9.117-7.247,14.594-9.055s11.67-1.909,16.866.592" transform="translate(28.745 3.731)" fill="none" stroke="#632a2a" stroke-miterlimit="10" stroke-width="1"/>
    <path id="패스_98" data-name="패스 98" d="M93.769,52.017A16.733,16.733,0,0,1,108.44,45.06" transform="translate(34.868 5.432)" fill="none" stroke="#632a2a" stroke-miterlimit="10" stroke-width="1"/>
  </g>
</svg>
