<svg xmlns="http://www.w3.org/2000/svg" width="90.733" height="94.102" viewBox="0 0 90.733 94.102">
  <g id="그룹_635" data-name="그룹 635" transform="translate(50.241 109.264) rotate(-152)">
    <g id="그룹_426" data-name="그룹 426" transform="translate(48.012 98.221) rotate(-166)">
      <path id="패스_800" data-name="패스 800" d="M4.92,20.137a6.7,6.7,0,0,0-1.157-.773,2.878,2.878,0,0,0-2.11-.338A2.582,2.582,0,0,0,.018,21.3a7.336,7.336,0,0,0,.5,2.909A54.481,54.481,0,0,0,5.4,35.7a24.383,24.383,0,0,0,8.646,8.84c7.979,4.512,23.275,4.112,27.192-5.991,1.364-3.517.846-7.585,2.424-11.009,1.668-3.623,5.565-6.3,5.814-10.283.068-1.109-.429-2.483-1.535-2.586a2.573,2.573,0,0,0-1.6.6,35.532,35.532,0,0,0-8.045,7.463c-.156-4.781,3.344-8.9,4.252-13.6A3.254,3.254,0,0,0,42.4,6.939a2.519,2.519,0,0,0-3.133-.833,6.638,6.638,0,0,0-2.6,2.356,90.487,90.487,0,0,0-6.508,10.621q.873-7.425,1.745-14.848c.157-1.34.219-2.931-.831-3.777a2.74,2.74,0,0,0-3.3.231A7.537,7.537,0,0,0,25.8,3.628a84.359,84.359,0,0,0-5.167,15.1c-2.1-4.805.208-10.629-1.7-15.516a3.571,3.571,0,0,0-1.119-1.649C14.79-.649,12.646,8.123,12.249,9.924a63.566,63.566,0,0,0-1.115,12.55c-.019,1-.36,2.337-1.361,2.317a1.783,1.783,0,0,1-1.124-.615C7.335,22.9,6.311,21.281,4.92,20.137Z" transform="translate(0 0)" fill="#ffd5b8"/>
      <path id="패스_801" data-name="패스 801" d="M0,.307A39.5,39.5,0,0,1,18.881,2.555" transform="translate(18.235 21.111)" fill="none" stroke="#f9b995" stroke-miterlimit="10" stroke-width="1"/>
      <path id="패스_802" data-name="패스 802" d="M6.508,0C2.123,1.83-.213,8.772.015,13.407" transform="translate(30.608 25.552)" fill="none" stroke="#f9b995" stroke-miterlimit="10" stroke-width="1"/>
      <path id="패스_803" data-name="패스 803" d="M0,0A12.983,12.983,0,0,1,6.368,4.629,12.991,12.991,0,0,1,8.858,12.1" transform="translate(12.434 27.04)" fill="none" stroke="#f9b995" stroke-miterlimit="10" stroke-width="1"/>
    </g>
    <g id="그룹_408" data-name="그룹 408" transform="translate(58.889 3.737) rotate(98)">
      <path id="패스_739" data-name="패스 739" d="M0,12.887l2.3.692a.691.691,0,0,0,.809-.327A18.326,18.326,0,0,0,4.723,6.87c.26-2.527-.312-6.233-1.1-6.709S.279.415.279.415" transform="translate(43.163 9.676)" fill="#b72a71"/>
      <path id="패스_740" data-name="패스 740" d="M24.678,3.4C27.165-6.943-6.877,8.469,1.26,20.954c6.053,9.287,34.342,5.851,41.9,1.609,2.882-1.615,3.028-8.355,2.315-11.942C44.717,6.8,30.955,3.887,24.678,3.4Z" transform="translate(0 0)" fill="#dd4583"/>
    </g>
  </g>
</svg>
