<svg xmlns="http://www.w3.org/2000/svg" width="709.563" height="358.047" viewBox="0 0 709.563 358.047">
  <g id="그룹_516" data-name="그룹 516" transform="translate(-77.123 -113.824)">
    <g id="그룹_6" data-name="그룹 6" transform="translate(488.452 162.999)">
      <path id="패스_3" data-name="패스 3" d="M467.893,173.722,542.453,312.3l74.559,138.578H318.777L393.335,312.3Z" transform="translate(-318.777 -173.722)" fill="#f4db74" fill-rule="evenodd"/>
      <path id="패스_4" data-name="패스 4" d="M388.571,265.386,420.494,250.2l17.9,29.831,15.731-27.662,32.6,12.115-48.832-90.759Z" transform="translate(-288.77 -173.722)" fill="#fff" fill-rule="evenodd"/>
    </g>
    <g id="그룹_7" data-name="그룹 7" transform="translate(77.123 205.525)">
      <path id="패스_1" data-name="패스 1" d="M242.88,204.09l62.876,116.866,62.878,116.867H117.123L180,320.955Z" transform="translate(-117.123 -204.09)" fill="#f4db74" fill-rule="evenodd"/>
      <path id="패스_2" data-name="패스 2" d="M175.982,281.393l26.923-12.809L218,293.74l13.268-23.327,27.488,10.216L217.574,204.09Z" transform="translate(-91.817 -204.09)" fill="#fff" fill-rule="evenodd"/>
    </g>
    <g id="그룹_3" data-name="그룹 3" transform="translate(247.791 113.824)">
      <path id="패스_5" data-name="패스 5" d="M363.051,139.333,450.839,302.5l87.789,163.166H187.476L275.263,302.5Z" transform="translate(-187.476 -139.333)" fill="#eccc5a" fill-rule="evenodd"/>
      <path id="패스_6" data-name="패스 6" d="M269.653,247.259l37.587-17.882L328.315,264.5l18.518-32.57,38.382,14.262L327.72,139.333Z" transform="translate(-152.145 -139.333)" fill="#fff" fill-rule="evenodd"/>
    </g>
    <g id="그룹_20" data-name="그룹 20" transform="translate(77.123 340.316)">
      <path id="패스_8" data-name="패스 8" d="M160.547,332.784a45,45,0,0,1,4.9.269,40.728,40.728,0,0,1,28.113-10.729,42.616,42.616,0,0,1,18.843,4.3c10.638-10.9,26.649-17.843,44.563-17.843,32.032,0,57.993,22.183,57.993,49.547S289,407.873,256.97,407.873c-20.7,0-38.859-9.265-49.122-23.2-2.852,9.583-13.013,16.673-25.117,16.673a28.922,28.922,0,0,1-14.888-4.018,44.565,44.565,0,0,1-7.3.6c-21.054,0-38.122-14.583-38.122-32.57s17.069-32.57,38.122-32.57Zm581.919-8.941c15.894,0,28.78,11.009,28.78,24.589s-12.886,24.583-28.78,24.583a30.718,30.718,0,0,1-22.637-9.4c-4.414,9.616-15.37,16.427-28.192,16.427-16.72,0-30.273-11.581-30.273-25.866s13.552-25.863,30.273-25.863c9.979,0,18.828,4.125,24.344,10.489,4.384-8.793,14.59-14.959,26.485-14.959ZM578.394,346.194c19.813,0,35.878,13.725,35.878,30.655S598.207,407.5,578.394,407.5c-18.826,0-34.261-12.388-35.759-28.14a37.856,37.856,0,0,1-12.081,1.956c-18.163,0-32.89-12.582-32.89-28.1s14.727-28.1,32.89-28.1c16.531,0,30.214,10.421,32.537,24a40.86,40.86,0,0,1,15.3-2.923ZM385.542,335.34c26.833,0,48.586,18.585,48.586,41.51s-21.753,41.51-48.586,41.51-48.586-18.585-48.586-41.51S358.708,335.34,385.542,335.34Z" transform="translate(-73.655 -297.792)" fill="#84a316" fill-rule="evenodd"/>
      <path id="패스_9" data-name="패스 9" d="M137.713,361.855c18.313,0,33.153,12.864,33.153,28.738s-14.84,28.739-33.153,28.739-33.153-12.868-33.153-28.739,14.845-28.738,33.153-28.738ZM769.92,342.309c24.413,0,44.2,17.156,44.2,38.318s-19.791,38.317-44.2,38.317a50.366,50.366,0,0,1-14.111-1.995c-8.707,12.162-24.247,20.262-41.97,20.262-20.07,0-37.341-10.384-45.057-25.291A68.462,68.462,0,0,1,646.8,415.5c-33.367,0-60.413-23.445-60.413-52.366s27.046-52.367,60.413-52.367c29.035,0,53.283,17.758,59.087,41.428a57.031,57.031,0,0,1,7.955-.556,55.4,55.4,0,0,1,22.074,4.51c8.108-8.454,20.332-13.838,34.007-13.838Zm-243.949,9.327c24.413,0,44.205,17.154,44.205,38.317s-19.792,38.317-44.205,38.317c-16.729,0-31.285-8.055-38.795-19.936a53.283,53.283,0,0,1-18.669,3.332c-26.043,0-47.152-18.3-47.152-40.872s21.109-40.871,47.152-40.871c19.032,0,35.428,9.777,42.877,23.851a50.259,50.259,0,0,1,14.586-2.138Zm-147.354,6.981c22.593,3.333,39.793,20.381,39.793,40.915,0,22.925-21.44,41.51-47.887,41.51-23.689,0-43.358-14.91-47.2-34.493-.228,0-.455.007-.683.007-20.96,0-39.23-9.984-48.826-24.765-1.922,16.07-17.59,28.6-36.637,28.6-20.345,0-36.836-14.3-36.836-31.931s16.491-31.929,36.836-31.929c12.062,0,22.77,5.023,29.489,12.791-.01-.43-.02-.864-.02-1.3,0-26.8,25.068-48.535,55.994-48.535s55.989,21.731,55.989,48.535C378.623,358.222,378.618,358.418,378.617,358.618Z" transform="translate(-104.56 -309.488)" fill="#99bd14" fill-rule="evenodd"/>
    </g>
  </g>
</svg>
