<svg id="그룹_640" data-name="그룹 640" xmlns="http://www.w3.org/2000/svg" xmlns:xlink="http://www.w3.org/1999/xlink" width="26.896" height="31.554" viewBox="0 0 26.896 31.554">
  <defs>
    <clipPath id="clip-path">
      <path id="패스_43" data-name="패스 43" d="M108.79,125.789c-7.755,0-7.757-5.249-7.757-5.249-5.021.716-11.122,31.3,7.757,31.3,22.018,0,12.711-31.713,8.133-31.553C116.922,120.286,116.545,125.789,108.79,125.789Z" transform="translate(-95.938 -120.286)" fill="none"/>
    </clipPath>
  </defs>
  <path id="패스_41" data-name="패스 41" d="M108.79,125.789c-7.755,0-7.757-5.249-7.757-5.249-5.021.716-11.122,31.3,7.757,31.3,22.018,0,12.711-31.713,8.133-31.553C116.922,120.286,116.545,125.789,108.79,125.789Z" transform="translate(-95.938 -120.286)" fill="#c43d4b"/>
  <g id="그룹_23" data-name="그룹 23" transform="translate(0 0)">
    <g id="그룹_22" data-name="그룹 22" clip-path="url(#clip-path)">
      <path id="패스_42" data-name="패스 42" d="M92.686,136.319a12.488,12.488,0,0,1,8.482-5.919,11.481,11.481,0,0,1,9.551,3.079,8.342,8.342,0,0,1,10.568-3.484c3.674,1.706,6.147,6.172,6.278,10.73a15.544,15.544,0,0,1-5.066,11.817,14.669,14.669,0,0,1-11.205,3.528,20.692,20.692,0,0,1-10.94-4.923c-3.579-2.966-6.685-7.437-6.59-12.51" transform="translate(-97.739 -115.309)" fill="#e04b4b"/>
    </g>
  </g>
</svg>
