<svg xmlns="http://www.w3.org/2000/svg" width="459.692" height="316.971" viewBox="0 0 459.692 316.971">
  <g id="그룹_509" data-name="그룹 509" transform="translate(-407.277 -1550.714)">
    <path id="패스_60" data-name="패스 60" d="M149.363,459.616c-9.6-9.931-5.921-17.716-20.294-21.984-8.145-2.418-10.52-6.034-15.662-12.72-5.3-7.038-16.339-25.339-18.08-33.386-3.829-17.7,8.706-23.965,13.318-39.144,3.964-11.879,8.844-16.61,16.033-26.4,10.654-14.507,26.847-10.189,33.539-19.271,6.438-8.74-23.015-15.563-1.332-32.236C181.2,258.686,192.556,285.494,213,263.735c18.763-19.964,9.01-15.915,36.7-26.2,18.079-6.718,14.509-9.786,35.768-6.118,8.4,1.526,13.564,1.331,21.831-.43,12.871-3.02,17.862-1.615,30.279-2.443,20.1-1.34,16.891-2.214,36.2,4.43,13.787,4.447,23.148,3.558,36.9,4.559,19.745,1.974,26.755,14.21,47.683,17.512,23.238,3.667,20.355,12.109,36.936,23.4,21.393,14.056,21.678,8.663,36.363,32.484,9.668,15.683,19.431,15.608,17.779,36.937-.984,13.484-.552,13.721,3.534,26.077,5.1,15.431-5.753,21.836-11.888,34.488-3.266,7.1-4.637,12.348-8.552,19.532-7.382,13.549-7.387,18.088-24.3,19.088-23.889,2.329-19,10.4-32.424,13.5-18.6,3.15-20.921-10.641-33.7,9.523-12.285,19.38-17.809,25.745-41.642,26.83-13.733.625-19.7-2.943-35.585.893-4.551,1.221-9.065,3.587-13.338,5.588-7.671,3.278-16.163,4.858-24.439,7.919-27.943,9.488-24.792,15.078-46.383,28.2-18.144,11.026-22.461,1.62-39.065-5.109-15.763-6.388-30.626-7.427-46.444-14.784-23.272-11.8-4.966-28.967-11.869-39.72-8.685-13.534-21.038-8.115-32.957-19.3Z" transform="translate(312.667 1323.114)" fill="#ecbb4b" fill-rule="evenodd"/>
    <path id="패스_61" data-name="패스 61" d="M324.082,238.786c116.961,0,211.775,55.191,211.775,123.272-1.752,51.548-35,69.256-80.63,78.957-45.137,9.594-47.415,13.073-87.474,31.843-38.087,17.848-69.832,13.536-110.136,3.565-33.523-8.295-62.4-21.166-92.425-37.963C120.77,413.2,91.121,369.932,141.317,330.647c12.225-9.568,25.4-17.639,37.873-27.4C238.157,255.01,241.75,240.046,324.082,238.786Z" transform="translate(311.787 1322.633)" fill="#dff3f7" fill-rule="evenodd"/>
    <path id="패스_62" data-name="패스 62" d="M529.284,357.652a66.739,66.739,0,0,0-.868-10.578c-5.522-33.906-35.728-59.2-64.389-74.516-41.745-22.308-92.606-31.477-139.593-31.179-79.838.505-82.408,15.321-140.578,62.9l-.116.093c-12.289,9.615-25.6,17.8-37.874,27.4-13.031,10.2-25.063,24.362-23.453,41.982,2.172,23.741,27.318,43.6,46.472,54.423,29.064,16.416,58.2,29.232,90.692,37.271,38.092,9.425,68.79,14.117,105.562-3.115,7.985-3.74,15.909-7.589,23.869-11.378,5.867-2.794,11.764-5.535,17.8-7.935,15.191-6.04,31.34-9.641,47.289-13.03C496.626,420.954,527.6,405.573,529.284,357.652Z" transform="translate(311.479 1322.522)" fill="#4896b3" fill-rule="evenodd"/>
    <path id="패스_65" data-name="패스 65" d="M451.577,332.368a46.178,46.178,0,0,0-.6-7.353c-3.84-23.568-24.837-41.15-44.757-51.8-29.016-15.505-64.371-21.878-97.03-21.672-55.494.351-57.281,10.649-97.715,43.723l-.079.064c-8.542,6.684-17.8,12.371-26.326,19.047-9.059,7.09-17.421,16.935-16.3,29.181,1.509,16.5,18.988,30.307,32.3,37.829,20.2,11.413,40.456,20.319,63.041,25.908,26.476,6.551,47.813,9.813,73.374-2.165,5.549-2.6,11.058-5.275,16.591-7.909,4.078-1.942,8.176-3.847,12.375-5.516,10.561-4.2,21.786-6.7,32.873-9.057C428.877,376.369,450.41,365.677,451.577,332.368Z" transform="translate(309.487 1322.086)" fill="#3b81a5" fill-rule="evenodd"/>
    <g id="그룹_4" data-name="그룹 4" transform="translate(593.757 1791.449)">
      <path id="패스_69" data-name="패스 69" d="M289.8,497.482c3.239-10.553,15.657-22.826,27.058-16.714,3.4,1.825,13.43,10.641,15.324,13.849,4.219,7.152-1.485,20.678-9.852,22.254-4.694.88-9.495-1.232-13.556-3.352a140.765,140.765,0,0,0-12.852-6.06C290.742,505.31,288.547,503.586,289.8,497.482Z" transform="translate(-289.456 -479.136)" fill="#736a67" fill-rule="evenodd"/>
      <path id="패스_70" data-name="패스 70" d="M294.547,492.719c2.779-6.416,8.314-12.647,15.883-12.366,4.257.16,10.317,7.2,13.319,10.27,4.279,4.383,6.328,9.349.386,13.549-5.118,3.619-12.861-.581-18.368-2.071a53.68,53.68,0,0,0-5.362-.993C294.265,500.331,292.507,498.885,294.547,492.719Z" transform="translate(-289.64 -479.188)" fill="#b1aaa2" fill-rule="evenodd"/>
      <path id="패스_71" data-name="패스 71" d="M303.444,495.685c-1.6-.138-5.391-.074-5.831-2.092-.411-9.69,15.168-18.39,19.948-3.354,2.2,6.919-5.191,6.044-10.024,5.784-1.059-.056-2.1-.149-3.148-.247Z" transform="translate(-289.806 -479.265)" fill="#cdc9c1" fill-rule="evenodd"/>
    </g>
    <path id="패스_72" data-name="패스 72" d="M198.015,499.895c7.109-23.153,34.363-50.093,59.385-36.682,7.473,4.007,29.475,23.354,33.628,30.4,9.26,15.695-3.258,45.385-21.622,48.837-10.3,1.936-20.836-2.7-29.748-7.355a308.553,308.553,0,0,0-28.209-13.3C200.079,517.08,195.261,513.293,198.015,499.895Z" transform="translate(308.259 1313.15)" fill="#736a67" fill-rule="evenodd"/>
    <path id="패스_73" data-name="패스 73" d="M208.427,489.444c6.1-14.081,18.248-27.755,34.855-27.137,9.349.346,22.647,15.789,29.236,22.538,9.39,9.619,13.887,20.517.847,29.739-11.236,7.942-28.226-1.28-40.315-4.55a117.74,117.74,0,0,0-11.766-2.177C207.813,506.149,203.949,502.974,208.427,489.444Z" transform="translate(307.856 1313.036)" fill="#b1aaa2" fill-rule="evenodd"/>
    <path id="패스_74" data-name="패스 74" d="M227.957,495.952c-3.521-.3-11.836-.16-12.8-4.588C214.256,470.1,248.446,451,258.939,484c4.828,15.184-11.4,13.264-22,12.7-2.321-.122-4.6-.331-6.908-.545Z" transform="translate(307.491 1312.868)" fill="#cdc9c1" fill-rule="evenodd"/>
    <g id="그룹_6" data-name="그룹 6" transform="translate(463.711 1582.975)">
      <g id="그룹_5" data-name="그룹 5" transform="translate(35.548 7.013)">
        <path id="패스_78" data-name="패스 78" d="M190.849,275.532c1.216-3.965,5.883-8.578,10.167-6.282a26.34,26.34,0,0,1,5.759,5.205c1.586,2.686-.558,7.77-3.7,8.362-1.763.331-3.568-.462-5.093-1.26a52.773,52.773,0,0,0-4.83-2.276C191.2,278.474,190.377,277.825,190.849,275.532Z" transform="translate(-190.719 -268.637)" fill="#736a67" fill-rule="evenodd"/>
        <path id="패스_79" data-name="패스 79" d="M192.631,273.741c1.044-2.411,3.125-4.753,5.968-4.646,1.6.059,3.878,2.7,5.005,3.859,1.608,1.647,2.378,3.513.145,5.092-1.924,1.36-4.832-.219-6.9-.778a19.792,19.792,0,0,0-2.015-.373C192.526,276.6,191.865,276.057,192.631,273.741Z" transform="translate(-190.788 -268.656)" fill="#b1aaa2" fill-rule="evenodd"/>
        <path id="패스_80" data-name="패스 80" d="M195.976,274.855c-.6-.051-2.027-.027-2.191-.786-.155-3.642,5.7-6.911,7.5-1.26.826,2.6-1.951,2.271-3.768,2.174-.4-.022-.787-.056-1.182-.093Z" transform="translate(-190.851 -268.685)" fill="#cdc9c1" fill-rule="evenodd"/>
      </g>
      <path id="패스_81" data-name="패스 81" d="M156.358,276.438c2.67-8.7,12.913-18.824,22.313-13.785,2.81,1.505,11.077,8.776,12.639,11.423,3.48,5.9-1.225,17.055-8.125,18.352-3.87.727-7.83-1.013-11.178-2.764a115.789,115.789,0,0,0-10.6-5C157.132,282.9,155.323,281.472,156.358,276.438Z" transform="translate(-153.684 -261.309)" fill="#736a67" fill-rule="evenodd"/>
      <path id="패스_82" data-name="패스 82" d="M153.706,288.43c1.216-3.965,5.883-8.577,10.167-6.281a26.359,26.359,0,0,1,5.759,5.2c1.585,2.687-.558,7.77-3.7,8.362-1.763.331-3.567-.462-5.094-1.26a52.628,52.628,0,0,0-4.83-2.277C154.059,291.372,153.234,290.723,153.706,288.43Z" transform="translate(-153.576 -262.177)" fill="#736a67" fill-rule="evenodd"/>
      <path id="패스_83" data-name="패스 83" d="M155.487,286.64c1.045-2.412,3.126-4.753,5.968-4.647,1.6.058,3.878,2.7,5.006,3.858,1.608,1.648,2.378,3.513.145,5.092-1.925,1.36-4.833-.22-6.9-.779a20.242,20.242,0,0,0-2.015-.373C155.383,289.5,154.721,288.956,155.487,286.64Z" transform="translate(-153.645 -262.197)" fill="#b1aaa2" fill-rule="evenodd"/>
      <path id="패스_84" data-name="패스 84" d="M158.833,287.754c-.6-.052-2.027-.027-2.192-.787-.154-3.642,5.7-6.91,7.5-1.259.827,2.6-1.951,2.271-3.767,2.174-.4-.022-.787-.057-1.183-.094Z" transform="translate(-153.708 -262.225)" fill="#cdc9c1" fill-rule="evenodd"/>
      <path id="패스_85" data-name="패스 85" d="M160.27,272.511c2.291-5.292,6.857-10.43,13.1-10.2,3.512.13,8.509,5.933,10.985,8.469,3.529,3.616,5.219,7.71.319,11.176-4.222,2.984-10.607-.48-15.149-1.709a44.206,44.206,0,0,0-4.422-.818C160.039,278.789,158.587,277.6,160.27,272.511Z" transform="translate(-153.835 -261.351)" fill="#b1aaa2" fill-rule="evenodd"/>
      <path id="패스_86" data-name="패스 86" d="M167.609,274.956c-1.323-.113-4.447-.06-4.81-1.725-.339-7.991,12.51-15.168,16.453-2.767,1.814,5.706-4.282,4.985-8.269,4.772-.872-.046-1.727-.123-2.595-.2Z" transform="translate(-153.972 -261.415)" fill="#cdc9c1" fill-rule="evenodd"/>
    </g>
    <path id="패스_100" data-name="패스 100" d="M496.557,327.928c8.442,0,15.287,2.074,15.287,4.632s-6.845,4.632-15.287,4.632-15.286-2.074-15.286-4.632,6.844-4.632,15.286-4.632ZM195.476,393.24c2.814,0,5.094,1.348,5.094,3.011s-2.281,3.011-5.094,3.011-5.1-1.348-5.1-3.011,2.282-3.011,5.1-3.011Zm-.926-34.739c3.838,0,6.948,1.451,6.948,3.242s-3.11,3.243-6.948,3.243-6.947-1.452-6.947-3.243,3.11-3.242,6.947-3.242Zm93.1,30.57c4.348,0,7.874,1.453,7.874,3.243s-3.526,3.242-7.874,3.242-7.876-1.451-7.876-3.242,3.527-3.243,7.876-3.243Zm63.458-81.987c3.837,0,6.948,1.659,6.948,3.706s-3.111,3.7-6.948,3.7-6.948-1.659-6.948-3.7,3.11-3.706,6.948-3.706Zm-2.549,119.044c6.779,0,12.275,2.8,12.275,6.253s-5.5,6.252-12.275,6.252-12.273-2.8-12.273-6.252,5.495-6.253,12.273-6.253Zm119.97-39.373c7.545,0,13.663,2.8,13.663,6.253s-6.118,6.254-13.663,6.254-13.665-2.8-13.665-6.254S460.986,386.754,468.534,386.754Z" transform="translate(308.674 1319.701)" fill="#9dd8e0" fill-rule="evenodd"/>
  </g>
</svg>
