<svg xmlns="http://www.w3.org/2000/svg" width="136.692" height="105.878" viewBox="0 0 136.692 105.878">
  <g id="그룹_519" data-name="그룹 519" transform="translate(-788.178 -719.575)">
    <g id="그룹_517" data-name="그룹 517" transform="translate(873.414 709.056) rotate(45)">
      <g id="그룹_405" data-name="그룹 405" transform="translate(0 78.504)">
        <g id="그룹_404" data-name="그룹 404" transform="translate(0 1.65)">
          <path id="패스_729" data-name="패스 729" d="M146.048,385.285c-2.484.685-5.991,1.009-8.074,2.384a29.1,29.1,0,0,0-4.764,3.58,2.735,2.735,0,0,0-1.009,2.358c.236.967,1.089.979,1.828.71,1.05-.384,2.375-1.854,3.527-.666s-6.708,5.24-6.438,6.983c.245,1.582,2.785.671,4.11.068,1.456-.663,4.032-1.665,4.032-1.665s-7.61,3.9-6.971,5.228c1.174,2.438,8.913-2.056,8.913-2.056s-6.346,3.33-5.872,4.336c.977,2.066,8.363-1.937,8.363-1.937s-5.877,3.271-4.455,4.482,7.807-2.056,10.169-4.4c4.056-4.025,8.857-13.708,8.857-13.708" transform="translate(-131.111 -385.285)" fill="#ffd5b8"/>
          <path id="패스_730" data-name="패스 730" d="M138.858,390.338c-.265.231-.53.462-.795.69" transform="translate(-128.602 -378.057)" fill="none"/>
          <path id="패스_731" data-name="패스 731" d="M137.988,391.877a2.183,2.183,0,0,1-.659.372" transform="translate(-125.948 -375.855)" fill="none"/>
          <path id="패스_732" data-name="패스 732" d="M137.5,392.833a2.749,2.749,0,0,1-1.181.736" transform="translate(-123.012 -374.488)" fill="none"/>
        </g>
        <path id="패스_733" data-name="패스 733" d="M144.921,397.349l-1.884,2.406a.873.873,0,0,1-1.079.258,23.29,23.29,0,0,1-6.358-5.444c-2.127-2.43-4.256-6.7-3.792-7.765s3.663-2.2,3.663-2.2" transform="translate(-119.307 -384.606)" fill="#b72a71"/>
      </g>
      <path id="패스_734" data-name="패스 734" d="M130.787,406.615c-3.162-13.144-10.269-24.414-7.078-36.693,7.219-27.8,38.586-18.479,42.244-.958,3.84,18.389,6.122,32.046,2.36,45.982-3.672,13.611-32.075,29.234-46.254,29.2-4.2-.01-8.652-7-9.656-11.686C111.366,427.611,123.741,412.438,130.787,406.615Z" transform="translate(-97.466 -352.306)" fill="#dd4583"/>
    </g>
    <g id="그룹_518" data-name="그룹 518" transform="matrix(-0.208, 0.978, -0.978, -0.208, 827.593, 769.384)">
      <path id="패스_812" data-name="패스 812" d="M27.692,20.3a4.746,4.746,0,0,1-1.539,2.516,2.23,2.23,0,0,1-2.764.025,3.915,3.915,0,0,1-2.733,2.344,3,3,0,0,1-2.635-.976c-1.537,3.347-4.46,1.274-5.574-.85-.205,1.515-.65,4.915-.876,5.937-.442,1.995-.545,5.517-3.007,4.931-2.4-.572-1.976-11.133-2.3-14.077C2.815,22.607.119,18.169.01,15.394-.21,9.821,3.125,5.721,4.686,3.749,8.164-.645,16.338-.778,21.027,1.305,25.41,3.252,27.191,8.192,27.91,12.59A17.163,17.163,0,0,1,27.692,20.3Z" transform="translate(0 0)" fill="#ffd5b8"/>
      <path id="패스_813" data-name="패스 813" d="M1.155,8.892A19.074,19.074,0,0,1,.068,4.482,6.985,6.985,0,0,1,.418,1.04C1.029-.394,2.691-.218,3.591.8A6.876,6.876,0,0,1,5.233,4.422" transform="translate(16.739 14.277)" fill="none" stroke="#f9b995" stroke-miterlimit="10" stroke-width="1"/>
      <path id="패스_814" data-name="패스 814" d="M.436,7.063a22.5,22.5,0,0,1-.428-3.65A4.252,4.252,0,0,1,.64.591a1.584,1.584,0,0,1,.634-.5A1.619,1.619,0,0,1,2.779.353,4.78,4.78,0,0,1,3.838,1.537" transform="translate(21.964 12.931)" fill="none" stroke="#f9b995" stroke-miterlimit="10" stroke-width="1"/>
      <path id="패스_815" data-name="패스 815" d="M.468,2.159Q.287,1.068,0,0" transform="translate(26.168 15.923)" fill="none" stroke="#f9b995" stroke-miterlimit="10" stroke-width="1"/>
      <path id="패스_816" data-name="패스 816" d="M2.426,6.194A5.033,5.033,0,0,1,.4,3.445,10.071,10.071,0,0,1,.009,0" transform="translate(17.246 8.37)" fill="none" stroke="#f9b995" stroke-miterlimit="10" stroke-width="1"/>
      <path id="패스_817" data-name="패스 817" d="M2.062,6.218a11.928,11.928,0,0,0,2.6-1.682,2.525,2.525,0,0,0,.674-2.827A2.656,2.656,0,0,0,4.449.794,4.457,4.457,0,0,0,2.233.006,3.342,3.342,0,0,0,0,.666" transform="translate(4.812 13.369)" fill="none" stroke="#f9b995" stroke-miterlimit="10" stroke-width="1"/>
      <path id="패스_818" data-name="패스 818" d="M0,6.054A8.445,8.445,0,0,0,2.9,3.6,5.213,5.213,0,0,0,3.9,0" transform="translate(9.197 8.044)" fill="none" stroke="#f9b995" stroke-miterlimit="10" stroke-width="1"/>
      <path id="패스_819" data-name="패스 819" d="M.72,7.931A20.056,20.056,0,0,1,.074,4.665,6.348,6.348,0,0,1,.243,1.879,2.717,2.717,0,0,1,2.191.032,2.913,2.913,0,0,1,5.045,1.67" transform="translate(11.614 14.288)" fill="none" stroke="#f9b995" stroke-miterlimit="10" stroke-width="1"/>
      <path id="패스_820" data-name="패스 820" d="M0,0A12.134,12.134,0,0,0,2.653.06" transform="translate(9.139 20.143)" fill="none" stroke="#f9b995" stroke-miterlimit="10" stroke-width="1"/>
    </g>
  </g>
</svg>
