<svg id="그룹_352" data-name="그룹 352" xmlns="http://www.w3.org/2000/svg" width="192.93" height="452.872" viewBox="0 0 192.93 452.872">
  <g id="그룹_339" data-name="그룹 339" transform="translate(64.268 358.235)">
    <g id="그룹_338" data-name="그룹 338" transform="translate(1.377)">
      <path id="패스_571" data-name="패스 571" d="M364.594,378.4c-.422-2.794-1.075-8.829-1.39-13.022-.318-4.242,1.224-65.409,1.426-65.42,0,0-26.46-14.015-25.443,2.177s3.295,23.22,8.584,61.053c.454,3.265,1.415,6.965-1.687,9.006-2.139,1.407-6.6,2.049-8.99,3.031a13.472,13.472,0,0,0-6.182,4.353c-1.355,1.956,9.754,7.469,14.88,6.821a45.858,45.858,0,0,0,8.084-1.524,44.49,44.49,0,0,0,10.209-5.3,1.243,1.243,0,0,0,.454-.408A1.207,1.207,0,0,0,364.594,378.4Z" transform="translate(-330.799 -294.322)" fill="#ffdbbb"/>
    </g>
    <path id="패스_572" data-name="패스 572" d="M334.166,331.834a22.828,22.828,0,0,0,5.793-1.442,4.176,4.176,0,0,0,1.355-.933c.482-1.306.384-6.228.063-7.254-.392-1.254-1.227-3.194-.6-3.73s1.823.607,2.288,1.853a1.448,1.448,0,0,1,1.486-1.692c.89.071,2.253.96,2.174,1.858a2.089,2.089,0,0,1,2.174-1.657,2.552,2.552,0,0,1,2.28,2.022c.218-1.088.966-1.962,2.016-1.853s1.573,1.11,1.665,2.19a2.539,2.539,0,0,1,1.178-2.163c.827-.563,2.168-.389,2.22.667a17.55,17.55,0,0,1-.482,2.182c-.438,1.848.827,10.543,1.023,13.294.082,1.159.43,3,.123,4.073a5.68,5.68,0,0,1-1.279,2.215c-1.725,1.91-4.3,2.792-6.865,3.325a44.842,44.842,0,0,1-18.967-.536c-.367-.084-.735-.172-1.1-.259" transform="translate(-323.588 -252.994)" fill="#ff6183"/>
    <path id="패스_573" data-name="패스 573" d="M365.683,328.142c-.639,2.218-7.7,3.428-11.115,3.368-3.684-1.388-6.168-5.621-6.367-9.085a5.892,5.892,0,0,0-2.174,1.276c-.468,1.8.15,4.522,2.492,7.254-.99.226-3.842-.2-4.432-1.184a10.167,10.167,0,0,1-1.535-5.444,22.969,22.969,0,0,0-5.54,1.107c-1.771.713-3.733,1.605-4.868,3.4a9.751,9.751,0,0,0-1.635,4.321,8.978,8.978,0,0,0,.31,3.271c.677,2.266,7.058,4.242,12.279,4.166,4.8-.071,16.254.166,22.028-4.163C366.861,335.135,367,328.107,365.683,328.142Z" transform="translate(-330.476 -245.961)" fill="#b72a71"/>
  </g>
  <path id="패스_574" data-name="패스 574" d="M358.427,224.4c-1.374,11.893,3.156,15.316,10.511,20.534,0,0,3.687,14.782-17.669,17.31-8.78,1.039-20.028-8.021-22.6-16.088,5.9-1.309,10.859-12.921,7.915-20.7" transform="translate(-263.908 -56.406)" fill="#ffd5b8"/>
  <path id="패스_575" data-name="패스 575" d="M339.255,182.361c-8.206,3.472-12.192,12.712-15.694,21.018-6,14.23-12.867,28.275-15.838,43.468s-1.529,32.12,7.822,44.385c9.678,12.693,29.358,20.183,44.932,22.784,25.9,4.329,57.832-1.067,81.032-15.332,22.216-13.659,32.849-50.717,22.357-82.695q-.959-2.914-2.1-5.763c-3.747-9.327-9.079-18.2-16.679-24.673s-17.675-10.334-27.486-9.02" transform="translate(-301.893 -139.22)" fill="#ffd5b8"/>
  <path id="패스_576" data-name="패스 576" d="M367.055,214.128c1.847,5.031-1.407,11.917-5.042,11.542-3.461-.359-5.618-6.5-4.764-11.289" transform="translate(-339.569 -74.09)" fill="none" stroke="#c43d4b" stroke-miterlimit="10" stroke-width="1"/>
  <path id="패스_577" data-name="패스 577" d="M360.252,199.489a7.3,7.3,0,0,0-12.045-2.471" transform="translate(-308.14 -107.324)" fill="none" stroke="#7c3432" stroke-miterlimit="10" stroke-width="1"/>
  <path id="패스_578" data-name="패스 578" d="M347.2,227.464a30.14,30.14,0,0,1-11.174-.014c.6,2.389,2.487,4.1,4.359,3.956a6.725,6.725,0,0,0,2.1-.65,25.382,25.382,0,0,0,4.712-3.292" transform="translate(-261.935 -51.165)" fill="#f9b995"/>
  <path id="패스_579" data-name="패스 579" d="M362.465,216.437c.465-4.922-6.168-4.963-9.488-4.685-3.722.307-12.263,1.279-8.4,6.914,2.577,3.763,9.316,4.7,13.387,3.477A6.723,6.723,0,0,0,362.465,216.437Z" transform="translate(-297.823 -78.339)" fill="#ef9181"/>
  <path id="패스_580" data-name="패스 580" d="M467.179,295.159c.46,2.68.819,7.319-.754,9.537a7.009,7.009,0,0,1-5.262,2.631,10.731,10.731,0,0,1-6.53-1.687,6.221,6.221,0,0,1-4.489,6.614,7.491,7.491,0,0,1-8.35-3,10.624,10.624,0,0,1-7.477,8.35c-3.8,1.053-9.308-.367-11.852-3.385-1.276,3.8-5.314,7.12-9.327,7.082s-7.912-2.783-10.766-5.6a10.907,10.907,0,0,1-8.212,7.373c-3.782.582-9.15-.675-11.694-5.159a12.371,12.371,0,0,1-21.1-.922,12.59,12.59,0,0,1-22.052-3.154,12.329,12.329,0,0,1-21.821-6.057c-.765,2.933-4.44,4.454-7.319,3.5s-4.827-3.8-5.447-6.761a12.394,12.394,0,0,1,3.262-11.06" transform="translate(-296.49 62.421)" fill="#b72a71"/>
  <path id="패스_581" data-name="패스 581" d="M341.929,278.765c2.563-11.155,4.865-18.121,11.253-31.257,5.676-11.672,8.018-11.925,12.459-15.909,1.382,3.311,11.566,1.641,16.6.438,4.987-1.192,7.831-1.551,9.705-2.8a2.976,2.976,0,0,1,3.553.3c38.666,31.5,38.666,101.89,61.186,148.523,1.075,2.226,11.025,22.455,10.633,29.05-12.986,9.308-49.228,18.409-84.482,18.409s-66.484-10.288-78.281-15.623c3.426-21.312,12.4-32.707,19.046-51.587C327.552,347.08,333.949,313.519,341.929,278.765Z" transform="translate(-296.44 -48.877)" fill="#dd4583"/>
  <path id="패스_582" data-name="패스 582" d="M329.207,239.115l45.544,2.261c8.682,46.072,4.313,83.154-8.99,89.608l.6,2.06a.942.942,0,0,1-.688,1.121l-.016,0a38.958,38.958,0,0,1,1.975,7.9c.441,4.152-1.524,12.957-3.956,13.395s-.9-7.882-.9-7.882-2.043,10.366-4.985,9.694c-1.129-.258-.207-5.79.234-8.119-.552,2.59-2.237,9.2-5.118,9.292-1.483.046.435-10.924.435-10.924s-1.268,3.456-1.652,5.246-2.574,4.78-3.5,3.962c-1.2-1.061.367-11.977-1.815-11.787s-1.779,2.639-2.258,3.967c-.337.933-1.064,1.76-2.256,1.227a3.363,3.363,0,0,1-1.584-2.843,34.515,34.515,0,0,1,.286-7.471c.182-1.747.114-3.8,1.107-5.67-.359-.171-1.423-.21-1.537-.384a2.833,2.833,0,0,1-.071-1.964C320.852,318.939,322.247,257.78,329.207,239.115Z" transform="translate(-262.602 -31.091)" fill="#cc3a7c"/>
  <g id="그룹_340" data-name="그룹 340" transform="translate(79.068 293.439)">
    <path id="패스_583" data-name="패스 583" d="M333.7,277.125c-1.154,2.647-3.338,5.926-3.608,8.707a32.541,32.541,0,0,0-.237,6.669,3.049,3.049,0,0,0,1.341,2.536c1.009.476,1.619-.258,1.9-1.091.406-1.186.057-3.371,1.9-3.54s-.161,9.531,1.546,10.521c1.551.9,2.547-1.951,2.955-3.532.446-1.733,1.388-4.68,1.388-4.68s-1.962,9.368-.356,9.746c2.949.7,4.484-9.2,4.484-9.2s-1.567,7.871-.356,8.165c2.484.6,4.2-8.644,4.2-8.644s-1.29,7.42.767,7.033,3.706-8.241,3.328-11.947c-.645-6.364-5.695-17.356-5.695-17.356" transform="translate(-329.754 -270.508)" fill="#ffd5b8"/>
    <path id="패스_584" data-name="패스 584" d="M334.117,277.615c.014.395.027.786.044,1.178" transform="translate(-322.781 -258.278)" fill="none" stroke="#f9b995" stroke-miterlimit="10" stroke-width="1"/>
    <path id="패스_585" data-name="패스 585" d="M332.616,278.013a2.347,2.347,0,0,1-.141.833" transform="translate(-316.769 -257.593)" fill="none" stroke="#f9b995" stroke-miterlimit="10" stroke-width="1"/>
    <path id="패스_586" data-name="패스 586" d="M331.278,277.83a3.056,3.056,0,0,1-.19,1.545" transform="translate(-311.684 -257.908)" fill="none" stroke="#f9b995" stroke-miterlimit="10" stroke-width="1"/>
  </g>
  <path id="패스_587" data-name="패스 587" d="M348.954,272.9l.77,3.336a.975.975,0,0,1-.536,1.118,26.081,26.081,0,0,1-9.213,1.706c-3.613.139-8.826-1.012-9.43-2.169s.667-4.734.667-4.734" transform="translate(-249.141 25.764)" fill="#b72a71"/>
  <path id="패스_588" data-name="패스 588" d="M347.093,291.236a2.514,2.514,0,0,1-1.26.31c2.139-10.56,4.786-23.737,8.56-40.171.536-2.337,1.091-4.47,1.684-6.516a3.155,3.155,0,0,1,.326-.117c2.492-.449,4.819,2.378,4.849,6.911a21.691,21.691,0,0,1-1.768,8.073c.245-.283.5-.588.77-.969,1.439-2.035,3.284-3.134,4.732-2.307,1.344.767,2.182,3.08,2.422,5.711.394,4.326-.958,9.98-3.363,12.287a3.8,3.8,0,0,1-4.745.623,2.616,2.616,0,0,0-.37-.147,5.256,5.256,0,0,1,1.284,1.233,11.2,11.2,0,0,1,1.521,7.493,14.849,14.849,0,0,1-2.879,7.256c-2.272,2.871-5.357,3.211-6.731-.03-.868-2.046-.944-5.091-.659-8.037q-.237.947-.49,1.891C350.189,287.672,348.736,290.349,347.093,291.236Z" transform="translate(-308.904 -21.487)" fill="#ff6183"/>
  <path id="패스_589" data-name="패스 589" d="M352.025,251.646a2.821,2.821,0,0,1,2.5-.993c5.088.83,2.582,16.132-2.5,15.3-1.271-.207-2.068-1.32-2.471-2.854Q350.695,257.7,352.025,251.646Z" transform="translate(-308.884 -11.291)" fill="#f4ce6e"/>
  <path id="패스_597" data-name="패스 597" d="M305.18,211.5c7.969-18.67,26.4-44.88,62.286-42.548,31.728-16.32,82.186.819,103.373,31.54,14.611,21.187,18.945,53.073,17.065,78.817-.43,5.88-1.888,11.729-1.578,17.65.3,5.806,2.536,11.049,3.012,17.22.493,6.383-3.175,14.97-8.9,15.465-11.708,1.009-4.876,11.33-17.944,13.343-4.114.637-8.122-.424-12.233-.267-4.609.177-8.63,2.65-13.052,3.635-4.865,1.083-9.46-.337-13.822-2.539-7.871-3.97-14.26-12.124-14.567-22.112-.294-9.479,4.857-18,6.321-27.336,1.11-7.055,1.195-19.541-4.2-29.429-2.408-1.268-8.021-2.612-15.531-3.918a81.559,81.559,0,0,0-4.462-24.006c.2,7.752.373,15.52-.049,23.255-7.784-1.222-17.087-2.392-26.817-3.409a159.747,159.747,0,0,0-6.487-31.175l-.076,30.52c-12.568-1.2-25.443-2.122-36.418-2.555-.414-12.894,2.481-21.886,5.034-34.53-5.921,11.768-9.262,21.084-9.692,34.375-8.563-.237-15.629-.128-19.9.454C295.8,239.637,299.754,224.212,305.18,211.5Z" transform="translate(-296.452 -162.659)" fill="#7c3432"/>
  <path id="패스_598" data-name="패스 598" d="M296.985,257.172c-.294-9.479,4.857-18,6.321-27.336,1.11-7.055,1.195-19.541-4.2-29.429-.152-.082-.356-.163-.536-.245q4.865,1.114,9.724,2.226c2.054.471,4.337,1.1,5.379,2.933,1.385,2.427-.18,5.512.351,8.255.748,3.877,5.145,5.67,7.861,8.535,4.394,4.634,4.081,12.249,1.121,17.906a51.56,51.56,0,0,0-3.126,5.926c-1.437,3.9-.637,8.707,2.468,11.471,4.895,4.359,13.67,2.789,17.541,8.078.808,1.1,1.3,2.416,2.114,3.521a7.8,7.8,0,0,0,11.253.909c2.966-2.911,3.51-8.214,7.357-9.79,3.077-1.263,6.631.667,9.879-.052a48.478,48.478,0,0,0,5.638-2.12c-1.412,3.8-4.16,6.859-7.529,7.15-11.708,1.009-4.876,11.33-17.944,13.343-4.114.637-8.122-.424-12.233-.267-4.609.177-8.63,2.65-13.052,3.635-4.865,1.083-9.46-.337-13.822-2.538C303.681,275.314,297.293,267.16,296.985,257.172Z" transform="translate(-184.62 -98.123)" fill="#632a2a"/>
  <g id="그룹_349" data-name="그룹 349" transform="translate(9.736 61.656)">
    <path id="패스_599" data-name="패스 599" d="M336.2,190.544a72.491,72.491,0,0,1,1.619,21.146c-1.23-.177-2.47-.354-3.755-.531A97.608,97.608,0,0,0,336.2,190.544Z" transform="translate(-257.142 -176.33)" fill="#632a2a"/>
    <path id="패스_600" data-name="패스 600" d="M361.449,214.409a58.2,58.2,0,0,1,.5-8.846,82.906,82.906,0,0,1,3.842-14.233q1.008-3.008,2.013-6.01a117.343,117.343,0,0,0-1.907,29.078C364.328,214.384,362.856,214.389,361.449,214.409Z" transform="translate(-361.446 -185.32)" fill="#632a2a"/>
    <path id="패스_601" data-name="패스 601" d="M347.074,211.823a195.981,195.981,0,0,1,1.031-23.908,50.318,50.318,0,0,1,3.126,9.923,50.038,50.038,0,0,1,.468,8.35q0,3.016.005,6.029Q349.383,212.013,347.074,211.823Z" transform="translate(-306.166 -180.854)" fill="#632a2a"/>
  </g>
  <path id="패스_602" data-name="패스 602" d="M321.008,189.084c4.955,9.787,7.27,25.726,7.27,33.349l-5.063-1.088C323.176,221.617,324.643,204.084,321.008,189.084Z" transform="translate(-202.162 -117.187)" fill="#632a2a"/>
  <g id="그룹_350" data-name="그룹 350" transform="translate(106.352 120.991)">
    <path id="패스_603" data-name="패스 603" d="M324.432,211.817c1.812-4.108,7.322-5.689,11.5-4.054s7.006,5.738,8.233,10.059a14.443,14.443,0,0,1,.612,4.182c-.106,5.67-4.737,10.394-9.928,12.676a15.674,15.674,0,0,1-9.2,1.377,9.092,9.092,0,0,1-6.976-5.7" transform="translate(-318.677 -207.127)" fill="#ffd5b8" stroke="#f9b995" stroke-miterlimit="10" stroke-width="1"/>
    <path id="패스_604" data-name="패스 604" d="M333.774,214.273c1.426-5.221-6.99-7.341-7.216-1.363a10.134,10.134,0,0,0,.672,3.578,2.654,2.654,0,0,1,.207,1.143c-.147,1.208-1.7,1.513-2.86,1.886-2.832.914-5.793,6.832-1.135,7.123a5.358,5.358,0,0,0,3.548-1.32" transform="translate(-314.173 -203.402)" fill="none" stroke="#f9b995" stroke-miterlimit="10" stroke-width="1"/>
    <path id="패스_605" data-name="패스 605" d="M323.714,212.656a4.447,4.447,0,0,1-2.623,4.25" transform="translate(-304.184 -197.614)" fill="none" stroke="#f9b995" stroke-miterlimit="10" stroke-width="1"/>
  </g>
  <path id="패스_606" data-name="패스 606" d="M372.989,239.925c7.85,46.072-3.064,88.447-9.743,93.339-3.646,2.672-15.316,4.718-20.57,1.589-18.455-10.995-20.412-78.007-13.991-97.061" transform="translate(-261.435 -33.368)" fill="#dd4583"/>
  <path id="패스_607" data-name="패스 607" d="M359.556,230.254c-2.152,5.553-7.988,13.536-14.937,10.519a2.741,2.741,0,0,1-1.543-3.064c-.482,1.276-1.994,2.9-3.338,2.658s-1.728-1.374-1.219-2.792a1.466,1.466,0,0,1-1.9.854c-1.464-.539-1.665-3.736,6.342-8.614,4.759,1.439,11.683,1.192,16.6.438" transform="translate(-273.757 -47.093)" fill="#ff6183"/>
  <path id="패스_608" data-name="패스 608" d="M357.321,195.907c-3.317-5.986-6.669-12.023-11.169-17.179s-10.3-9.43-16.981-10.911" transform="translate(-253.415 -153.784)" fill="none" stroke="#632a2a" stroke-miterlimit="10" stroke-width="1"/>
  <path id="패스_609" data-name="패스 609" d="M365.518,188.379a56.224,56.224,0,0,0-40.875-21.843" transform="translate(-249.293 -155.988)" fill="none" stroke="#632a2a" stroke-miterlimit="10" stroke-width="1"/>
  <path id="패스_610" data-name="패스 610" d="M342.933,193.922c.857-8.146,6.723-14.82,12.807-20.3,3.167-2.854,6.734-5.665,10.968-6.157" transform="translate(-300.246 -154.395)" fill="none" stroke="#632a2a" stroke-miterlimit="10" stroke-width="1"/>
  <path id="패스_611" data-name="패스 611" d="M341.51,184.429a46.053,46.053,0,0,1,40.162-17.179" transform="translate(-311.339 -155.127)" fill="none" stroke="#632a2a" stroke-miterlimit="10" stroke-width="1"/>
  <path id="패스_612" data-name="패스 612" d="M315.134,252.378c-1.989-3.409-.969-7.8.846-11.311s4.378-6.658,5.575-10.424c2.188-6.889-.637-14.418-4.647-20.434a45.043,45.043,0,0,1,1.507,10.464c.125,4.81-.6,9.839-3.336,13.8-2.008,2.909-4.985,5.08-6.783,8.122s-1.853,7.686,1.224,9.422" transform="translate(-158.235 -80.832)" fill="#632a2a"/>
  <path id="패스_613" data-name="패스 613" d="M314.762,203.882c-.321,5.047-.612,10.3,1.3,14.978,2.13,5.224,5.363,11.4,4.661,17.43-.838,7.191-8.048,10.881-9.953,17.7-.849,3.036-.384,6.639,1.937,8.772" transform="translate(-165.755 -91.722)" fill="none" stroke="#632a2a" stroke-miterlimit="10" stroke-width="1"/>
  <g id="그룹_351" data-name="그룹 351" transform="translate(37.968 310.246)">
    <path id="패스_614" data-name="패스 614" d="M363.454,281a26.174,26.174,0,0,1-1.042,10.249c-1.045,3.336-2.857,6.4-5.382,8.018a9.561,9.561,0,0,1-2.618,1.154c-4.2,1.167-9.049.533-11.487-3.959.327.6.438,1.461.74,2.106a12.814,12.814,0,0,0,1.088,1.847,14.2,14.2,0,0,0,6.223,5.1c4.68,2,10.209.4,13.89-3.409A20.1,20.1,0,0,0,370.4,289.1c.2-3.374-.117-7.48-1.635-10.263" transform="translate(-341.938 -272.978)" fill="#cc3a7c"/>
    <path id="패스_615" data-name="패스 615" d="M367.251,281.123a31.263,31.263,0,0,1-23.728-4.438l-.876,3.221a13.433,13.433,0,0,0,5.657,3.885,29.941,29.941,0,0,0,14.32,2.166,9.116,9.116,0,0,0,4.261-1.371A9.926,9.926,0,0,0,367.251,281.123Z" transform="translate(-338.029 -276.685)" fill="#b72a71"/>
    <path id="패스_616" data-name="패스 616" d="M342.932,298.826c2.865,4.636,7.858,7.153,12.622,6.555s9.164-4.212,11.526-9.243a24.056,24.056,0,0,0,1.034-16.763" transform="translate(-340.652 -272.056)" fill="none" stroke="#b72a71" stroke-miterlimit="10" stroke-width="1"/>
    <path id="패스_617" data-name="패스 617" d="M351.748,297.545a20.213,20.213,0,0,1,1.48-14.263,32.846,32.846,0,0,1,4.185-5.8" transform="translate(-351.076 -275.305)" fill="none" stroke="#b72a71" stroke-miterlimit="10" stroke-width="1"/>
  </g>
  <path id="패스_618" data-name="패스 618" d="M358.175,171.473a43.26,43.26,0,0,0-32.86-4.922" transform="translate(-243.777 -158.204)" fill="none" stroke="#632a2a" stroke-miterlimit="10" stroke-width="1"/>
</svg>
