<svg xmlns="http://www.w3.org/2000/svg" width="206.11" height="421.817" viewBox="0 0 206.11 421.817">
  <g id="그룹_530" data-name="그룹 530" transform="translate(-385.025 -160.779)">
    <g id="그룹_355" data-name="그룹 355" transform="translate(549.188 220.613)">
      <path id="패스_619" data-name="패스 619" d="M465.8,217.149c1.87.135,3.691-1.323,4.661-3.24a12.892,12.892,0,0,0,1.093-6.4,20.536,20.536,0,0,0-5.125-12.783c-3.015-3.258-7.142-10.152-11.324-10.071" transform="translate(-443.653 -184.656)" fill="#7c3432"/>
      <g id="그룹_353" data-name="그룹 353" transform="translate(15.046 24.103)">
        <path id="패스_620" data-name="패스 620" d="M468.548,218.022,465.11,216.4l-4.308-2.842-2.055-2.609-1.085-2.574.213-3.035-.358-2.789.073-2.027,1.012-2.461,6.543-2.421a12.022,12.022,0,0,1,8.956,4.949,13.2,13.2,0,0,1,1.709,10.445,10.682,10.682,0,0,1-2.4,4.889,5.868,5.868,0,0,1-4.867,2.095" transform="translate(-455.064 -192.211)" fill="#7c3432"/>
        <path id="패스_621" data-name="패스 621" d="M465.484,202.869a6.339,6.339,0,0,0-.388-1.97,2.873,2.873,0,0,0-2.16-1.879c-2.784-.336-4.345,2.383-5.135,4.488-1.14,3.04-1.691,5.313-.87,8.558a12.279,12.279,0,0,0,1.363,3.373c2.072,3.413,6.41,5.578,11.131,5.558,3.27-.018-2.383-5.586-2.774-6.3a11.8,11.8,0,0,1-1-5.418l-.133-5.42c-.018-.747-.1-1.478-.143-2.223a.593.593,0,0,1,.078-.4c.115-.143.328-.143.511-.15a2.72,2.72,0,0,0,1.817-.8,14.786,14.786,0,0,1-3.972-5.691c-.048-.125-.108-.266-.236-.306-.2-.065-.366.143-.466.323-.995,1.807-1.857,3.684-2.716,5.558a19.515,19.515,0,0,0-1.233,3.155,9.792,9.792,0,0,0-.266,3.538" transform="translate(-456.538 -194.274)" fill="#632a2a"/>
        <path id="패스_622" data-name="패스 622" d="M460.855,198.765a5.289,5.289,0,0,0,.94,2.5q1.7,2.9,3.4,5.8a5.213,5.213,0,0,0,.89,1.223,3.622,3.622,0,0,0,.393-2.887,4.5,4.5,0,0,0-.6-1.534c-1.153-1.772-3.995-2.446-4.676-4.428" transform="translate(-450.037 -187.511)" fill="#632a2a"/>
        <path id="패스_623" data-name="패스 623" d="M463.076,204.176a3.082,3.082,0,0,1-.985-1.982,7.237,7.237,0,0,1,1.02-3.576,3.547,3.547,0,0,0,.155,1.925,8.5,8.5,0,0,1,.043,4.8" transform="translate(-448.195 -187.732)" fill="#632a2a"/>
      </g>
      <path id="패스_624" data-name="패스 624" d="M451.208,188.759a21.123,21.123,0,0,0,1.661,14.78,19.441,19.441,0,0,0,2.541,4.02,15.9,15.9,0,0,0,13.888,5.478c1.644-.206.742-2.17-.043-2.889a9.559,9.559,0,0,0-2.346-1.378c-6.089-2.982-10.826-9.137-11-15.915" transform="translate(-450.534 -178.476)" fill="#632a2a"/>
      <path id="패스_625" data-name="패스 625" d="M455.33,191.141a8.386,8.386,0,0,0,1.8,2.987q2.759,3.394,5.521,6.786a8,8,0,0,0,1.353,1.406,5.149,5.149,0,0,0-.469-3.644,7.208,7.208,0,0,0-1.13-1.832c-1.812-2.055-5.125-2.529-6.488-4.9" transform="translate(-443.311 -174.889)" fill="#632a2a"/>
      <path id="패스_626" data-name="패스 626" d="M458.934,197.67a4.851,4.851,0,0,1-1.694-2.341,9.641,9.641,0,0,1,0-4.583,5.431,5.431,0,0,0,.769,2.376,12.8,12.8,0,0,1,1.544,5.974" transform="translate(-440.861 -175.484)" fill="#632a2a"/>
      <path id="패스_627" data-name="패스 627" d="M463.252,204.926c-1.055,1.792-2.035,3.769-1.882,5.841a11.254,11.254,0,0,0,1.789,4.606,12.067,12.067,0,0,1,1.869,4.578c.18,1.654-1.659,4.248-3.188,4.9,1.719,1.376,4.536.626,6.345.674a6.413,6.413,0,0,0,4.917-1.872c1.218-1.336,1.306-4.368.844-5.721a2.813,2.813,0,0,0,2.228-2.97,8.163,8.163,0,0,0-1.581-4.982,18.331,18.331,0,0,0-3.734-3.764,9.012,9.012,0,0,0-2.085-1.346,3.451,3.451,0,0,0-2.428-.175" transform="translate(-434.238 -154.699)" fill="#7c3432"/>
      <g id="그룹_354" data-name="그룹 354" transform="translate(27.117 50.215)">
        <path id="패스_628" data-name="패스 628" d="M468.15,214.555a4.863,4.863,0,0,0-.19-.945,2.813,2.813,0,0,0,2.228-2.97,7.319,7.319,0,0,0-.637-3.223l-.158,1.128c-.08.574-.223,1.238-.744,1.486-.571.271-1.225-.123-1.7-.541s-.995-.91-1.621-.86a9.4,9.4,0,0,1,2.7,5.856Z" transform="translate(-455.366 -200.592)" fill="#632a2a"/>
        <path id="패스_629" data-name="패스 629" d="M466.941,220.123a10.159,10.159,0,0,0-.777-4.829,21.819,21.819,0,0,1-1.418-4.726,5.341,5.341,0,0,1,1.373-4.558l-2.679-1.316-.188.013c-1.055,1.792-2.035,3.769-1.882,5.841a11.254,11.254,0,0,0,1.789,4.606,12.067,12.067,0,0,1,1.869,4.578c.133,1.223-.842,2.96-1.975,4.045a3.293,3.293,0,0,0,.94-.058A4.211,4.211,0,0,0,466.941,220.123Z" transform="translate(-461.355 -204.694)" fill="#632a2a"/>
      </g>
      <path id="패스_630" data-name="패스 630" d="M469.81,203.795l-.223-.105a4.547,4.547,0,0,0-1.524-.02,10.464,10.464,0,0,0-1.862.273,15.854,15.854,0,0,0-3.393,1.278c-.917.459-1.875,1.068-1.977,1.91a.335.335,0,0,0,.058.266.553.553,0,0,0,.308.143,4.507,4.507,0,0,0,2.1-.213,32.822,32.822,0,0,0,4.268-1.471C468.207,205.577,471.2,204.452,469.81,203.795Z" transform="translate(-435.032 -156.108)" fill="#ff6183"/>
      <path id="패스_631" data-name="패스 631" d="M470.77,205.233a.456.456,0,0,0-.04-.2,1.149,1.149,0,0,0-.526-.479,4.981,4.981,0,0,0-4.293.1,19.313,19.313,0,0,0-1.772.96c-.727.4-1.556.659-2.255,1.093-.371.231-.759.574-.6.92a1.017,1.017,0,0,0,.724.426,6.774,6.774,0,0,0,2.769-.155,18.784,18.784,0,0,0,5.13-1.712C470.329,205.955,470.768,205.607,470.77,205.233Z" transform="translate(-434.401 -155.359)" fill="#ff6183"/>
    </g>
    <g id="그룹_357" data-name="그룹 357" transform="translate(460.781 494.807)">
      <g id="그룹_356" data-name="그룹 356">
        <path id="패스_632" data-name="패스 632" d="M417.518,372.047c.311-2.586.739-8.164.912-12.036.173-3.914-2.99-60.223-3.175-60.228,0,0,23.98-13.663,23.5,1.28s-2.376,21.486-6.172,56.489c-.326,3.022-1.105,6.458,1.812,8.25,2.01,1.235,6.142,1.7,8.365,2.536a12.434,12.434,0,0,1,5.821,3.834c1.3,1.767.3,4.045.464,6.212a1.167,1.167,0,0,1-.153.839,1.3,1.3,0,0,1-.98.341c-4.764.266-8.107-.233-12.845-.684a42.158,42.158,0,0,1-7.49-1.173,41.037,41.037,0,0,1-9.555-4.593,1.149,1.149,0,0,1-.431-.361A1.111,1.111,0,0,1,417.518,372.047Z" transform="translate(-415.255 -294.072)" fill="#ffdbbb"/>
      </g>
      <path id="패스_633" data-name="패스 633" d="M438.939,331.554a23.269,23.269,0,0,1-5.4-1.819,6.939,6.939,0,0,1-1.556-1.246c-.481-1.243-.256-5.5.01-6.415.328-1.123,1.045-2.839.456-3.386s-1.672.406-2.065,1.514a1.453,1.453,0,1,0-2.872-.03,2.246,2.246,0,0,0-2.057-1.709,2.121,2.121,0,0,0-2.052,1.669,1.644,1.644,0,0,0-1.551-1.992,2.022,2.022,0,0,0-1.839,1.927,2.537,2.537,0,0,0-1.661-2.158,1.639,1.639,0,0,0-2.052,1.4,3.477,3.477,0,0,0,.175.927,15.228,15.228,0,0,1,.068,5.363q-.372,3.759-.526,7.538a9.374,9.374,0,0,0,.243,3.155,6.1,6.1,0,0,0,1.245,2.15,13.29,13.29,0,0,0,6.443,3.646,41.871,41.871,0,0,0,17.524,1.11c.338-.045.674-.1,1.01-.145" transform="translate(-414.142 -258.256)" fill="#ff6183"/>
      <path id="패스_634" data-name="패스 634" d="M416.493,323.969a10.949,10.949,0,0,0,6.41,5.879,14.8,14.8,0,0,1,5.972-7.242,7.126,7.126,0,0,1,3.563-.719,3.927,3.927,0,0,1,1.549,1.777c-3.22.333-7.325,4.749-7.057,7.5a23.552,23.552,0,0,0,3.884.99,4.05,4.05,0,0,0,2.737-.729,10.16,10.16,0,0,0,2-2.576,13.319,13.319,0,0,1,3.285-3.7A15.328,15.328,0,0,1,443,326.41a10.526,10.526,0,0,1,4.6,3.548,10.079,10.079,0,0,1,1.634,4.117,8.023,8.023,0,0,1-.193,2.987c-.561,2.03-6.408,3.31-11.237,2.8-4.443-.471-15.028-1.223-20.489-5.7C415.681,332.818,415.278,323.827,416.493,323.969Z" transform="translate(-414.453 -252.185)" fill="#b72a71"/>
    </g>
    <g id="그룹_359" data-name="그룹 359" transform="translate(506.119 490.838)">
      <g id="그룹_358" data-name="그룹 358">
        <path id="패스_635" data-name="패스 635" d="M435.61,370.463c.311-2.586.739-8.164.91-12.036.173-3.914-2.987-60.223-3.173-60.228,0,0,23.98-13.663,23.5,1.281s-2.376,21.486-6.172,56.489c-.326,3.022-1.105,6.458,1.809,8.25,2.012,1.235,6.145,1.7,8.367,2.536a12.454,12.454,0,0,1,5.821,3.834c1.3,1.767.3,4.045.464,6.212a1.166,1.166,0,0,1-.153.839,1.306,1.306,0,0,1-.982.341c-4.761.266-8.1-.231-12.843-.684a41.894,41.894,0,0,1-7.49-1.173,40.933,40.933,0,0,1-9.555-4.593,1.126,1.126,0,0,1-.431-.361A1.112,1.112,0,0,1,435.61,370.463Z" transform="translate(-433.347 -292.488)" fill="#ffdbbb"/>
      </g>
      <path id="패스_636" data-name="패스 636" d="M457.031,329.973a23.4,23.4,0,0,1-5.4-1.819,7.024,7.024,0,0,1-1.556-1.248c-.481-1.243-.256-5.5.01-6.415.326-1.123,1.045-2.839.454-3.386s-1.669.406-2.062,1.514a1.453,1.453,0,1,0-2.872-.03,2.246,2.246,0,0,0-2.057-1.709,2.121,2.121,0,0,0-2.052,1.669,1.641,1.641,0,0,0-1.551-1.99,2.018,2.018,0,0,0-1.839,1.925,2.541,2.541,0,0,0-1.661-2.158,1.639,1.639,0,0,0-2.052,1.4,3.467,3.467,0,0,0,.175.927,15.225,15.225,0,0,1,.068,5.363q-.372,3.759-.526,7.538a9.393,9.393,0,0,0,.243,3.157,6.082,6.082,0,0,0,1.246,2.148,13.251,13.251,0,0,0,6.443,3.646,41.872,41.872,0,0,0,17.524,1.11c.338-.045.674-.1,1.01-.143" transform="translate(-432.234 -256.672)" fill="#ff6183"/>
      <path id="패스_637" data-name="패스 637" d="M434.585,322.385a10.95,10.95,0,0,0,6.41,5.879,14.815,14.815,0,0,1,5.972-7.242,7.127,7.127,0,0,1,3.563-.719,3.928,3.928,0,0,1,1.549,1.777c-3.22.333-7.325,4.749-7.057,7.5a23.557,23.557,0,0,0,3.884.99,4.049,4.049,0,0,0,2.737-.729,10.115,10.115,0,0,0,2-2.576,13.32,13.32,0,0,1,3.285-3.7,15.325,15.325,0,0,1,4.165,1.266,10.545,10.545,0,0,1,4.6,3.548,10.114,10.114,0,0,1,1.634,4.117,7.977,7.977,0,0,1-.2,2.987c-.559,2.03-6.405,3.31-11.234,2.8-4.443-.474-15.028-1.223-20.489-5.7C433.773,331.234,433.37,322.243,434.585,322.385Z" transform="translate(-432.545 -250.601)" fill="#b72a71"/>
    </g>
    <path id="패스_638" data-name="패스 638" d="M553.322,309.965c-.236,3.789-1.6,9.1-5.323,9.866a11.782,11.782,0,0,1-10.387-3.416,8.934,8.934,0,0,1-16.154-.7c-.529,4.263-3.694,7.42-7.22,7.766-2.962.291-7.626-.659-9.337-3.092-.388,3.511-3.744,6.18-7.245,6.651s-7.024-.86-10.016-2.739a9.417,9.417,0,0,1-15.74,2.363,8.093,8.093,0,0,1-7.137,3.639c-2.794-.163-6.894-2.706-8.117-5.222a7.515,7.515,0,0,1-13.467-2.6,10.78,10.78,0,0,1-9.457,3.568c-3.481-.481-8.445-2.288-9-6.866-1.386,4.3-6.811,4.385-9.986,3.746s-7.17-3.746-7.17-7.358c-2.265,3.057-8.949,2.356-11.7.559-4.035-2.636.291-10.974,2.952-12.9l8.746-2.6,12.778-7.009s-4.924-5.523,9.728-7.222l14.655-1.7,3.611,1.273" transform="translate(13.85 186.616)" fill="#b72a71"/>
    <g id="그룹_361" data-name="그룹 361" transform="translate(385.025 160.962)">
      <g id="그룹_360" data-name="그룹 360">
        <path id="패스_639" data-name="패스 639" d="M582,293.274c-1.97-6.824-7.167-12.6-9.833-19.326-3.867-9.758-1.118-19.935-3.336-29.823-.657-2.93-2.518-5.353-2.947-8.352-.707-4.957.847-10.079.576-15.076-.935-17.2-18.722-28.7-31.911-37.026a207.066,207.066,0,0,0-23.654-12.923c-5.618-2.6-11.75-5.523-17.95-6.38a18.224,18.224,0,0,1-2.822-.088c-38.767-14.6-75.457,21.165-85.689,37.186-10.863,17-19.008,45.355-17.817,66.546.328,5.879,2.326,11.67,1.895,17.6-.381,5.222-4.16,10.041-3.378,15.309a21.354,21.354,0,0,0,9.528,14.254,32.193,32.193,0,0,0,16.569,4.894,8.371,8.371,0,0,1,2.371.3,8.513,8.513,0,0,1,2.6,1.714c7.568,6.28,17.682,10.2,27.433,7.854,3.779-.912,7.543-2.253,11.425-2.075,4.12.188,8.245,2.082,12.239,1.04a9.4,9.4,0,0,0,2.691-1.2,5.467,5.467,0,0,1,5.506-.236c3.511,1.822,8.758,2.98,14.627,2.98s11.114-1.158,14.627-2.98a5.467,5.467,0,0,1,5.506.236,9.4,9.4,0,0,0,2.691,1.2c3.907,1.02,8.049-.406,11.64-1.651,2.962-1.03,5.969-.278,8.9.428a36.537,36.537,0,0,0,6.736.609c5.245.348,10.553,2.082,15.063-1.772,2.506-2.143,3.8-5.523,6.543-7.363,3.453-2.318,8.147-1.526,11.986-3.127,4.348-1.814,6.907-6.413,8.1-10.971a23.159,23.159,0,0,0,.724-8.683A19.926,19.926,0,0,0,582,293.274ZM502.909,315.8a39.026,39.026,0,0,0-25.578,0,24.441,24.441,0,0,0-4.937-20.719l11.284-83.266,24.17,83.266A24.451,24.451,0,0,0,502.909,315.8Z" transform="translate(-385.025 -160.852)" fill="#7c3432"/>
      </g>
    </g>
    <path id="패스_640" data-name="패스 640" d="M514.929,254.966a10.459,10.459,0,0,1-10.515,2.995,6.556,6.556,0,0,1-3.17-1.859c-1.316-1.521-1.4-3.649-1.14-5.578.546-4.085,2.338-7.936,3.3-11.958s.972-8.56-1.689-11.873c-.975-1.21-2.293-2.238-2.857-3.654a8.245,8.245,0,0,1-.283-3.6,126.833,126.833,0,0,0,.06-15.617,33.791,33.791,0,0,0,6.992.669l-.115-11.307-47.891,6.378a123.37,123.37,0,0,0-20.571,23.987l6.628,22.837a24.451,24.451,0,0,0-4.939,20.719,34.7,34.7,0,0,0-11.1-2.087,32.657,32.657,0,0,0,3.115,7.56,38.171,38.171,0,0,0,5.974,7.7,22.362,22.362,0,0,0,3.852-1.511,5.467,5.467,0,0,1,5.506.236,9.4,9.4,0,0,0,2.691,1.2c3.907,1.02,8.049-.406,11.64-1.651,2.962-1.03,5.969-.278,8.9.429a36.54,36.54,0,0,0,6.736.609c5.245.348,10.553,2.082,15.063-1.772,2.506-2.143,3.8-5.523,6.543-7.362,3.453-2.318,8.147-1.526,11.984-3.127,4.35-1.814,6.909-6.413,8.1-10.971a25.891,25.891,0,0,0,.815-5.255C517.124,251.9,516.054,253.65,514.929,254.966Z" transform="translate(64.171 48.804)" fill="#632a2a"/>
    <path id="패스_641" data-name="패스 641" d="M483.935,301.154a32.606,32.606,0,0,0-8.443,1.912,24.792,24.792,0,0,0-3.273-18.487l-.018.005c-.1-.15-.2-.293-.3-.439a21,21,0,0,0-1.346-1.8l6.864-50.656c-1.646-6.059-3.157-12.154-4.483-18.3-3.14-14.535-5.26-29.9-.812-44.087l-33.53,5.869c-9.054,10.37-28.776,79.018-29.776,80.532-3.839,5.824-12.081,12.156-10.655,18.985,1.042,5,4.669,8.984,7.353,13.329a8.177,8.177,0,0,1,1.456,3.8c.11,2.468-1.824,4.616-4.022,5.746-5.215,2.679-11.342,1.017-16.7-1.779.266.411.546.814.842,1.205l.038.05a23.456,23.456,0,0,0,3.015,3.273l-.015,0a23.775,23.775,0,0,0,2.7,2.12,32.193,32.193,0,0,0,16.569,4.894,8.37,8.37,0,0,1,2.371.3,8.512,8.512,0,0,1,2.6,1.714c7.568,6.28,17.682,10.2,27.433,7.854,3.779-.912,7.543-2.253,11.425-2.075,4.12.188,8.245,2.082,12.239,1.04a9.4,9.4,0,0,0,2.691-1.2,5.467,5.467,0,0,1,5.506-.236,29.316,29.316,0,0,0,10.279,2.762Z" transform="translate(1.838 12.844)" fill="#632a2a"/>
    <g id="그룹_365" data-name="그룹 365" transform="translate(401.83 435.117)">
      <path id="패스_642" data-name="패스 642" d="M411.155,277.375a33.265,33.265,0,0,1-.03,6.811,26.441,26.441,0,0,1-.907,5.358c-.231.709-.672,1.6-1.488,1.8-.882.216-1.248-.474-1.338-1.183-.128-1.012.509-2.7-.935-3.135s-2,7.546-2.962,8.137c-.747.454-1.782-1.975-1.777-3.3s-.338-3.959-.338-3.959-.326,8.069-1.318,7.831c-2.4-.576-2.062-8.079-2.062-8.079s-.043,6.536-1.055,6.571c-2.082.073-1.93-7.586-1.93-7.586s.226,6.455-.917,6.5c-3,.118-2.7-8.285-1.541-11.089,1.574-3.827,6.836-9.736,10.888-11.8" transform="translate(-391.731 -270.253)" fill="#ffd5b8"/>
      <g id="그룹_362" data-name="그룹 362" transform="translate(9.429 15.053)">
        <path id="패스_643" data-name="패스 643" d="M395.786,276.393c-.241.416-.4.672-.21,1.133a.233.233,0,0,0,.381.1c.386-.328.366-.566.343-1.093a.278.278,0,0,0-.514-.14Z" transform="translate(-395.493 -276.26)" fill="#f9b995"/>
      </g>
      <g id="그룹_363" data-name="그룹 363" transform="translate(5.839 15.153)">
        <path id="패스_644" data-name="패스 644" d="M394.114,276.513a.9.9,0,0,0,.118.855.175.175,0,0,0,.313-.04,1.4,1.4,0,0,0,.158-.734c.02-.333-.526-.413-.589-.08Z" transform="translate(-394.061 -276.3)" fill="#f9b995"/>
      </g>
      <g id="그룹_364" data-name="그룹 364" transform="translate(2.658 14.091)">
        <path id="패스_645" data-name="패스 645" d="M393.108,276.042a1.665,1.665,0,0,0-.165,1.656.427.427,0,0,0,.772-.1,9.038,9.038,0,0,0,.043-1.378.351.351,0,0,0-.649-.178Z" transform="translate(-392.792 -275.876)" fill="#f9b995"/>
      </g>
    </g>
    <path id="패스_646" data-name="패스 646" d="M394.614,271.6a3.633,3.633,0,0,0-.972.682,1.245,1.245,0,0,0-.348,1.093,1.777,1.777,0,0,0,.694.887,20.918,20.918,0,0,0,13.467,4.629,9.015,9.015,0,0,0,2.418-.318.791.791,0,0,0,.454-.266.857.857,0,0,0,.115-.4,25.85,25.85,0,0,0,.148-2.752" transform="translate(12.414 166.886)" fill="#b72a71"/>
    <g id="그룹_366" data-name="그룹 366" transform="translate(541.202 269.288)">
      <path id="패스_647" data-name="패스 647" d="M452.7,208.439c1.684-3.822,6.8-5.288,10.69-3.769s6.513,5.335,7.653,9.35a13.361,13.361,0,0,1,.569,3.887c-.1,5.27-4.4,9.661-9.227,11.783a14.556,14.556,0,0,1-8.55,1.278,8.453,8.453,0,0,1-6.485-5.3" transform="translate(-447.347 -204.079)" fill="#f9b995"/>
    </g>
    <path id="패스_648" data-name="패스 648" d="M433.9,222.452c1.28,11.054-2.233,15.417-12.55,17.589,0,0-.647,15.234,19.2,17.584,8.162.965,20.875-7.929,23.263-15.424-8.7-1.576-12.349-11.54-9.613-18.77" transform="translate(54.705 92.877)" fill="#ffd5b8"/>
    <path id="패스_649" data-name="패스 649" d="M427.659,225.489a53.239,53.239,0,0,0,14.324.093,5.625,5.625,0,0,1-5.548,3.636,11.192,11.192,0,0,1-2.7-.626,35.744,35.744,0,0,1-6.074-3.1" transform="translate(64.206 97.451)" fill="#f9b995"/>
    <path id="패스_650" data-name="패스 650" d="M541.2,239.474c-2.511-14.119-8.315-27.175-13.382-40.4-2.96-7.721-6.325-16.309-13.259-19.536l-3.183-.261c-5.741-3.982-12.517-6.132-19.168-5.152l-21.922,1.792-21.922-1.792c-6.653-.98-13.427,1.17-19.168,5.152l-3.183.261c-6.934,3.228-10.3,11.816-13.259,19.536-5.067,13.226-10.871,26.283-13.382,40.4s-1.293,29.856,6.608,41.256c8.177,11.8,24.806,18.76,37.963,21.178,17.166,3.155,36.54,3.423,53.67-.188,13.337-2.812,28.435-8.666,36.975-20.99C542.488,269.33,543.709,253.6,541.2,239.474Z" transform="translate(19.837 19.742)" fill="#ffd5b8"/>
    <path id="패스_651" data-name="패스 651" d="M441.476,184.73c-6.46,9.756-12.61,19.96-16.091,31.207-3.325,10.738-4.816,24.027.6,34.339,3.822,7.27,11.309,14.166,9.5,23.145-1.669,8.252-9.8,10.961-17.281,11.254a30.1,30.1,0,0,1-21-7.282,26.137,26.137,0,0,1-8.826-20.2,57.247,57.247,0,0,1,1.965-10.771c2.852-12.059,17.005-19.9,16.888-32.289" transform="translate(5.016 36.069)" fill="#7c3432"/>
    <path id="패스_652" data-name="패스 652" d="M418.941,221.86c1.646,5.866,5.3,10.059,6.468,16.038a14.729,14.729,0,0,1-.008,6.939,7.034,7.034,0,0,1-4.563,4.917c-2.872.792-5.779-.819-8.49-2.055s-6.242-2-8.4.048a9.552,9.552,0,0,1-1.1,1.063,3.5,3.5,0,0,1-2.238.454c-4.085-.293-7.363-3.8-8.673-7.686s-1.063-8.089-.8-12.176c-1.185,1.6-3.543,5.41-2.975,9.936.644,6.435,1.526,8.47,6.378,12.783,5.676,5.045,16.489,7.195,24.077,6.9,4.38-.173,6.7-.451,10.252-3.168,4.405-3.366,5.41-9.879,4.117-15.018-1.488-5.909-6.187-10.282-8.959-15.552-3.566-6.786-4.328-15.722-3.355-23.513C419.152,204.529,415.235,208.666,418.941,221.86Z" transform="translate(4.599 61.726)" fill="#632a2a"/>
    <path id="패스_653" data-name="패스 653" d="M446.065,213.967c-.431-4.553,5.967-4.6,9-4.378,3.594.266,11.259,1.148,7.628,6.45-2.4,3.5-8.658,4.37-12.445,3.23A6.24,6.24,0,0,1,446.065,213.967Z" transform="translate(91.894 73.401)" fill="#ef9181"/>
    <path id="패스_654" data-name="패스 654" d="M430.716,213.967c.431-4.553-5.967-4.6-9-4.378-3.594.266-11.259,1.148-7.628,6.45,2.4,3.5,8.661,4.37,12.445,3.23A6.24,6.24,0,0,0,430.716,213.967Z" transform="translate(42.331 73.401)" fill="#ef9181"/>
    <path id="패스_655" data-name="패스 655" d="M432.193,220.824a5.95,5.95,0,0,0,6.353-.293" transform="translate(71.034 89.984)" fill="none" stroke="#f9b995" stroke-miterlimit="10" stroke-width="1"/>
    <g id="그룹_370" data-name="그룹 370" transform="translate(535.831 253.298)">
      <path id="패스_659" data-name="패스 659" d="M457.5,202.7c-1.817-4.744-8.833-7.177-12.2-2.451-.348.489.323,1.083.8.8,1.864-1.118,3.531-2.088,5.8-1.661a6.6,6.6,0,0,1,4.656,3.716c.258.516,1.158.153.947-.4Z" transform="translate(-445.203 -197.698)" fill="#7c3432"/>
    </g>
    <g id="그룹_384" data-name="그룹 384" transform="translate(449.985 253.298)">
      <g id="그룹_376" data-name="그룹 376" transform="translate(4.182 10.196)">
        <path id="패스_664" data-name="패스 664" d="M420.585,216.963c-9.758.794-11.006-14.372-1.23-15.166,9.758-.794,11.006,14.372,1.23,15.166Z" transform="translate(-412.616 -201.767)" fill="#7c3432"/>
      </g>
      <g id="그룹_377" data-name="그룹 377" transform="translate(7.429 13.557)">
        <path id="패스_665" data-name="패스 665" d="M418.363,211.6c-5.45.444-6.147-8.027-.689-8.47s6.147,8.027.689,8.47Z" transform="translate(-413.912 -203.108)" fill="#512020"/>
      </g>
      <g id="그룹_378" data-name="그룹 378" transform="translate(10.838 13.558)">
        <path id="패스_666" data-name="패스 666" d="M418.9,210.029c-4.443.361-5.012-6.546-.559-6.906s5.012,6.546.559,6.906Z" transform="translate(-415.272 -203.109)" fill="#fff"/>
      </g>
      <g id="그룹_379" data-name="그룹 379" transform="translate(3.883)">
        <path id="패스_667" data-name="패스 667" d="M412.528,202.7c1.817-4.744,8.833-7.177,12.2-2.451.348.489-.323,1.083-.8.8-1.864-1.118-3.531-2.088-5.8-1.661a6.6,6.6,0,0,0-4.656,3.716c-.258.516-1.158.153-.947-.4Z" transform="translate(-412.496 -197.698)" fill="#7c3432"/>
      </g>
      <g id="그룹_380" data-name="그룹 380" transform="translate(1.285 8.888)">
        <path id="패스_668" data-name="패스 668" d="M430.638,207.9c-2.245-3.819-6.586-6.232-11.046-4.917-4.35,1.281-5.618,5.355-7.067,9.2a.536.536,0,0,1-1.048-.143A10.723,10.723,0,0,1,419.79,201.4c4.631-.809,9.951,1.649,11.229,6.338a.209.209,0,0,1-.381.16Z" transform="translate(-411.46 -201.245)" fill="#7c3432"/>
      </g>
      <g id="그룹_381" data-name="그룹 381" transform="translate(0.58 15.254)">
        <path id="패스_669" data-name="패스 669" d="M411.456,203.822c.286.333.386.8.729,1.088.361.3.784.1,1.128.358a.306.306,0,0,1,.105.4l-.055.123a.431.431,0,0,1-.383.218c-1.01-.02-2.113-1.07-1.719-2.135a.118.118,0,0,1,.2-.053Z" transform="translate(-411.178 -203.786)" fill="#7c3432"/>
      </g>
      <g id="그룹_382" data-name="그룹 382" transform="translate(0 17.107)">
        <path id="패스_670" data-name="패스 670" d="M411.3,204.593a1.5,1.5,0,0,0,.957.556,1.755,1.755,0,0,1,.867.226.528.528,0,0,1,0,.895c-.945.719-1.982-.657-2.173-1.473-.045-.185.208-.376.348-.2Z" transform="translate(-410.947 -204.525)" fill="#7c3432"/>
      </g>
      <g id="그룹_383" data-name="그룹 383" transform="translate(1.662 14.551)">
        <path id="패스_671" data-name="패스 671" d="M411.994,203.6a1.555,1.555,0,0,0,1.168.609c.479.1.4.757,0,.895a1.223,1.223,0,0,1-1.519-1.458.2.2,0,0,1,.351-.045Z" transform="translate(-411.61 -203.505)" fill="#7c3432"/>
      </g>
    </g>
    <path id="패스_672" data-name="패스 672" d="M427.052,252.9c1.388-8.092,5.228-19.083,4.809-17.081a112.95,112.95,0,0,0-2.148,16.67c6.764-1.017,13.8-1.915,21.055-2.676.509-6.493,1.3-16.041,1.388-14.357l.787,14.139q11.416-1.146,23.466-1.834c1.423-.08,2.834-.143,4.248-.211.023-7.3.546-15.878.822-14.048.7,4.631,1.253,9.272,1.709,13.923q10.83-.466,21.178-.479c-.571-7.33-1.656-15.986-.942-14.367a49.916,49.916,0,0,1,3.832,14.372c9.392.033,18.424.326,26.957.875-.777-10.031-2.646-22.386-1.9-20.714a60.624,60.624,0,0,1,5,20.935c6.851.5,13.377,1.148,19.494,1.952,5.378-28.6-10.074-56.279-31.485-75.267-8.395-7.445-35.56-20.218-51.585-10.365-22.809-6.761-41.8,1.96-59.058,21.5-11.174,12.648-23.491,48.749-19.023,73.325C405.138,256.8,415.688,254.682,427.052,252.9Z" transform="translate(14.583)" fill="#7c3432"/>
    <g id="그룹_389" data-name="그룹 389" transform="translate(558.982 438.101)">
      <path id="패스_673" data-name="패스 673" d="M454.6,278.568a33.26,33.26,0,0,0,.03,6.811,26.385,26.385,0,0,0,.907,5.355c.231.712.672,1.6,1.489,1.8.882.213,1.248-.474,1.338-1.185.128-1.01-.509-2.7.935-3.135s2,7.548,2.962,8.137c.747.456,1.779-1.972,1.774-3.3s.341-3.962.341-3.962.326,8.069,1.318,7.831c2.4-.574,2.062-8.077,2.062-8.077s.043,6.533,1.055,6.571c2.082.073,1.93-7.585,1.93-7.585s-.226,6.453.917,6.5c3,.115,2.7-8.285,1.541-11.091-1.574-3.824-6.836-9.736-10.888-11.8" transform="translate(-454.442 -271.444)" fill="#ffd5b8"/>
      <g id="그룹_386" data-name="그룹 386" transform="translate(9.339 15.054)">
        <path id="패스_674" data-name="패스 674" d="M458.693,277.586c.241.414.4.669.208,1.133a.23.23,0,0,1-.378.1c-.388-.331-.366-.566-.343-1.1a.278.278,0,0,1,.514-.138Z" transform="translate(-458.169 -277.451)" fill="#f9b995"/>
      </g>
      <g id="그룹_387" data-name="그룹 387" transform="translate(13.1 15.155)">
        <path id="패스_675" data-name="패스 675" d="M460.262,277.706a.892.892,0,0,1-.12.852.171.171,0,0,1-.311-.04,1.413,1.413,0,0,1-.16-.732.3.3,0,0,1,.591-.08Z" transform="translate(-459.67 -277.491)" fill="#f9b995"/>
      </g>
      <g id="그룹_388" data-name="그룹 388" transform="translate(15.954 14.092)">
        <path id="패스_676" data-name="패스 676" d="M461.464,277.234a1.66,1.66,0,0,1,.165,1.654.426.426,0,0,1-.772-.1,8.726,8.726,0,0,1-.043-1.378.351.351,0,0,1,.649-.175Z" transform="translate(-460.809 -277.067)" fill="#f9b995"/>
      </g>
    </g>
    <path id="패스_677" data-name="패스 677" d="M469.784,272.787a3.734,3.734,0,0,1,.972.682,1.248,1.248,0,0,1,.348,1.093,1.767,1.767,0,0,1-.694.887,20.9,20.9,0,0,1-13.467,4.629,8.913,8.913,0,0,1-2.418-.316.81.81,0,0,1-.454-.266.865.865,0,0,1-.115-.4,25.886,25.886,0,0,1-.148-2.752" transform="translate(103.585 168.68)" fill="#b72a71"/>
    <path id="패스_678" data-name="패스 678" d="M504.413,230.5s1.812,7.876-19.907,7.876-20.92-8.844-20.92-8.844c-46.207,6.493-81.845,91.074-68.355,105.466,3.233,4.591,12.961,6.305,17,5.375a26.177,26.177,0,0,0,6.12-4.122c-4.12,9.415-14.018,32.322-18.118,51.047,10.157,9.194,18.948,8.242,33.582,8.317,10.969.055,13.124,9.362,42.874,9.362s31.908-9.307,42.877-9.362c11.933-.06,22.351,2.8,36.579-2.576-3.13-24.649-16.086-65.834-16.086-65.834s.5,13.1,6.055,16.156c4.042.93,13.77-.784,17-5.375C576.61,323.594,541.035,237.339,504.413,230.5Z" transform="translate(11.023 103.541)" fill="#dd4583"/>
    <path id="패스_679" data-name="패스 679" d="M443.91,229.837c-2.927,6.182-6.921,7.5-12.094,8.54a7.443,7.443,0,0,0,.885,4.586c.832,1.213,2.473,1.551,3.315.351a4.1,4.1,0,0,0,2.4,1.534,4.512,4.512,0,0,0,3.2.008,3.343,3.343,0,0,0,1.8-3.132,3.965,3.965,0,0,0,4.112.273,3.586,3.586,0,0,0,1.8-1.682,2.769,2.769,0,0,0-.145-2.7,4.258,4.258,0,0,0,3.09-3.586C452.881,230.225,445.649,228.862,443.91,229.837Z" transform="translate(70.419 103.541)" fill="#ff6183"/>
    <path id="패스_680" data-name="패스 680" d="M429.735,228.558c1.707,9.036,13.7,10.816,21.925,11.332a6.448,6.448,0,0,1-1.624,5.1c-1.323,1.213-4.37,1.669-5.237-.165a7.222,7.222,0,0,1-3.579,1.834,12.342,12.342,0,0,1-5.33-.291c-1.621-.471-3-1.737-2.874-3.135a9.58,9.58,0,0,1-6.551.273,5.464,5.464,0,0,1-2.862-1.681,1.916,1.916,0,0,1,.23-2.7,6.069,6.069,0,0,1-4.924-3.586,3.661,3.661,0,0,1-.01-3.082,7.413,7.413,0,0,1,2.9-2.526c1.639-1,5.9-1.536,7.936-1.371" transform="translate(50.507 102.028)" fill="#ff6183"/>
    <g id="그룹_392" data-name="그룹 392" transform="translate(477.983 357.301)">
      <g id="그룹_390" data-name="그룹 390">
        <path id="패스_681" data-name="패스 681" d="M425.782,266.01c2.4,1.554,5.491,1.634,8.29,1.06.218-.045.456-.073.694-.1a12.044,12.044,0,0,0-2.609,1.01,8.739,8.739,0,0,0-4.7,6.776,8.849,8.849,0,0,0,3.2,7c3.285,2.884,8.691,3.511,12,.654a11.009,11.009,0,0,0,3.305-7.367c.11.6.238,1.2.371,1.8a8.737,8.737,0,0,0,5.187,6.408,8.844,8.844,0,0,0,7.621-1.113c3.691-2.346,5.806-7.36,3.99-11.337-1.188-2.6-3.751-4.33-6.42-5.353a2.277,2.277,0,0,1-.358-.178,12.238,12.238,0,0,0,2.463.444,8.747,8.747,0,0,0,7.606-3.188,8.854,8.854,0,0,0,1.065-7.628c-1.218-4.2-5.441-7.636-9.766-7a11.807,11.807,0,0,0-5.641,3.919c2.4-2.721,2.6-6.6,1.654-8.322a8.845,8.845,0,0,0-6.468-4.182c-4.32-.667-9.214,1.712-10.47,5.9a10.786,10.786,0,0,0,1.007,7.646,12.481,12.481,0,0,1-1.113-.975,8.747,8.747,0,0,0-7.819-2.614,8.846,8.846,0,0,0-5.826,5.039C421.2,258.267,422.111,263.635,425.782,266.01Z" transform="translate(-422.12 -239.201)" fill="#ff6183"/>
      </g>
      <g id="그룹_391" data-name="그룹 391" transform="translate(17.912 15.327)">
        <path id="패스_682" data-name="패스 682" d="M436.424,259.727c-9.27.251-9.676-14.154-.391-14.407,9.269-.251,9.675,14.154.391,14.407Z" transform="translate(-429.267 -245.317)" fill="#f9c941"/>
      </g>
    </g>
    <path id="패스_683" data-name="패스 683" d="M444.277,244.863c7.277,15.572,13.976,43.356,17.765,59.208" transform="translate(89.232 126.627)" fill="none" stroke="#b72a71" stroke-miterlimit="10" stroke-width="1"/>
    <g id="그룹_393" data-name="그룹 393" transform="translate(502.856 412.142)">
      <path id="패스_684" data-name="패스 684" d="M436.556,263.175a2.091,2.091,0,1,1-2.092-2.09A2.093,2.093,0,0,1,436.556,263.175Z" transform="translate(-431.55 -261.085)" fill="#b72a71"/>
      <path id="패스_685" data-name="패스 685" d="M437.061,271.51a2.091,2.091,0,1,1-2.09-2.092A2.092,2.092,0,0,1,437.061,271.51Z" transform="translate(-430.789 -248.536)" fill="#b72a71"/>
      <path id="패스_686" data-name="패스 686" d="M437.061,279.781a2.091,2.091,0,1,1-2.09-2.093A2.092,2.092,0,0,1,437.061,279.781Z" transform="translate(-430.789 -236.081)" fill="#b72a71"/>
      <path id="패스_687" data-name="패스 687" d="M437.061,287.51a2.091,2.091,0,1,1-2.09-2.093A2.09,2.09,0,0,1,437.061,287.51Z" transform="translate(-430.789 -224.44)" fill="#b72a71"/>
      <path id="패스_688" data-name="패스 688" d="M436.227,295.51a2.091,2.091,0,1,1-2.093-2.093A2.091,2.091,0,0,1,436.227,295.51Z" transform="translate(-432.045 -212.393)" fill="#b72a71"/>
    </g>
    <g id="그룹_394" data-name="그룹 394" transform="translate(446.921 451.122)">
      <path id="패스_689" data-name="패스 689" d="M430.667,280.327a20.234,20.234,0,0,1,.5,9.5,13.694,13.694,0,0,1-4.611,8.315,11.928,11.928,0,0,1-2.681,1.549c-4.41,1.872-9.823,2.235-13.211-1.368.451.481.712,1.24,1.148,1.767a11.252,11.252,0,0,0,1.486,1.466,15.505,15.505,0,0,0,7.633,3.421,16.181,16.181,0,0,0,14.662-5.776,17.133,17.133,0,0,0,3.972-12.866c-.326-3.1-1.326-6.764-3.433-8.994" transform="translate(-408.309 -275.586)" fill="#cc3a7c"/>
      <path id="패스_690" data-name="패스 690" d="M438.091,276.64a40.837,40.837,0,0,1-26.693.566l-.444,3.09a15.329,15.329,0,0,0,6.816,2.428,39.548,39.548,0,0,0,16.028-.8,11.581,11.581,0,0,0,4.445-2.067A7.634,7.634,0,0,0,438.091,276.64Z" transform="translate(-407.872 -276.64)" fill="#b72a71"/>
      <path id="패스_691" data-name="패스 691" d="M411.439,300.334a15.76,15.76,0,0,0,14.87,3.5,17.084,17.084,0,0,0,11.139-10.61,18.661,18.661,0,0,0-1.554-15.407" transform="translate(-407.142 -274.866)" fill="none" stroke="#b72a71" stroke-miterlimit="10" stroke-width="1"/>
      <path id="패스_692" data-name="패스 692" d="M411.53,296.877a15.778,15.778,0,0,1-.664-13.221,31.046,31.046,0,0,1,3.656-6.064" transform="translate(-409.724 -275.208)" fill="none" stroke="#b72a71" stroke-miterlimit="10" stroke-width="1"/>
    </g>
    <g id="그룹_395" data-name="그룹 395" transform="translate(532.922 447.18)">
      <path id="패스_693" data-name="패스 693" d="M449.564,279.212a29.135,29.135,0,0,0,.787,9.44c.792,3.072,2.163,5.894,4.075,7.388a6.672,6.672,0,0,0,1.98,1.06c3.178,1.075,6.846.491,8.691-3.646-.246.549-.331,1.346-.559,1.94a12.569,12.569,0,0,1-.824,1.7,11.469,11.469,0,0,1-4.709,4.7c-3.541,1.839-7.721.368-10.508-3.137a20.67,20.67,0,0,1-4.185-11.979c-.148-3.11.088-6.891,1.235-9.455" transform="translate(-443.697 -271.825)" fill="#cc3a7c"/>
      <path id="패스_694" data-name="패스 694" d="M444.081,279.154c6.067,1.644,12.507.178,17.953-4.087l.662,2.965a10.354,10.354,0,0,1-4.28,3.579,19.03,19.03,0,0,1-10.833,1.995,6.1,6.1,0,0,1-3.223-1.263A10.957,10.957,0,0,1,444.081,279.154Z" transform="translate(-444.043 -275.067)" fill="#b72a71"/>
      <path id="패스_695" data-name="패스 695" d="M464.112,295.674c-2.168,4.27-5.947,6.586-9.55,6.034s-6.932-3.879-8.721-8.513a26.652,26.652,0,0,1-.782-15.439" transform="translate(-443.69 -271.017)" fill="none" stroke="#b72a71" stroke-miterlimit="10" stroke-width="1"/>
      <path id="패스_696" data-name="패스 696" d="M455.255,294.34a22.315,22.315,0,0,0-1.12-13.136,30.751,30.751,0,0,0-3.168-5.335" transform="translate(-433.615 -273.859)" fill="none" stroke="#b72a71" stroke-miterlimit="10" stroke-width="1"/>
    </g>
    <g id="그룹_396" data-name="그룹 396" transform="translate(426.033 210.723)">
      <path id="패스_697" data-name="패스 697" d="M441.83,213.146a55.629,55.629,0,0,0-3.8-19.09c-1.421-3.614-3.223-7.089-4.345-10.8a103.323,103.323,0,0,1,4.238,29.939C439.229,213.171,440.53,213.159,441.83,213.146Z" transform="translate(-352.758 -176.875)" fill="#632a2a"/>
      <path id="패스_698" data-name="패스 698" d="M453.611,211.441a64.229,64.229,0,0,0-10.5-26.774,96.353,96.353,0,0,1,5.766,26.583Q451.268,211.333,453.611,211.441Z" transform="translate(-338.557 -174.748)" fill="#632a2a"/>
      <path id="패스_699" data-name="패스 699" d="M466.064,217.82a58.842,58.842,0,0,0-2.594-15.529c-2.8-8.688-8.458-16.77-16.645-21.04a56.728,56.728,0,0,1,6.831,15.041c.018-.2.07-.221.163-.008a60.625,60.625,0,0,1,5,20.935C461.283,217.4,463.689,217.6,466.064,217.82Z" transform="translate(-332.963 -179.894)" fill="#632a2a"/>
      <path id="패스_700" data-name="패스 700" d="M413.318,211.089c1.874-9.54,4.806-19.346,8.342-30.38-7.964,13.229-14.69,27.648-15.893,42.932q2.293-.387,4.628-.754A104.607,104.607,0,0,1,413.318,211.089Z" transform="translate(-394.794 -180.709)" fill="#632a2a"/>
      <path id="패스_701" data-name="패스 701" d="M401.389,214.209q3.282-.65,6.678-1.26a84.771,84.771,0,0,1,1.824-24.644A75.186,75.186,0,0,0,401.389,214.209Z" transform="translate(-401.389 -169.27)" fill="#632a2a"/>
      <path id="패스_702" data-name="패스 702" d="M415.358,214.689l.1.2q1.368-.154,2.744-.3c.008-.223.012-.444.02-.664a234.43,234.43,0,0,1,2.957-29.648C416.862,193.745,416.08,204.342,415.358,214.689Z" transform="translate(-380.352 -175.336)" fill="#632a2a"/>
      <path id="패스_703" data-name="패스 703" d="M426.508,183.549q-.478,15.107-.957,30.217c1.476-.1,2.922-.213,4.411-.3.208-.013.416-.02.626-.033A133.6,133.6,0,0,0,426.508,183.549Z" transform="translate(-365.002 -176.432)" fill="#632a2a"/>
    </g>
    <path id="패스_704" data-name="패스 704" d="M438.965,180.619a82.071,82.071,0,0,1,10.783,31.876" transform="translate(81.232 29.878)" fill="none" stroke="#632a2a" stroke-miterlimit="10" stroke-width="1"/>
    <path id="패스_705" data-name="패스 705" d="M427.751,167.09a25.988,25.988,0,0,1,19.9-1.757A34.418,34.418,0,0,1,464.2,176.951" transform="translate(64.344 5.061)" fill="none" stroke="#632a2a" stroke-miterlimit="10" stroke-width="1"/>
    <path id="패스_706" data-name="패스 706" d="M428.115,166.791a20.25,20.25,0,0,1,15.65,1.494" transform="translate(64.893 7.658)" fill="none" stroke="#632a2a" stroke-miterlimit="10" stroke-width="1"/>
    <path id="패스_707" data-name="패스 707" d="M414.532,174.256a38.458,38.458,0,0,1,13.374-8.3c5.019-1.656,10.7-1.749,15.459.541" transform="translate(44.437 5.969)" fill="none" stroke="#632a2a" stroke-miterlimit="10" stroke-width="1"/>
    <path id="패스_708" data-name="패스 708" d="M420.817,172.905a15.338,15.338,0,0,1,13.447-6.378" transform="translate(53.902 8.598)" fill="none" stroke="#632a2a" stroke-miterlimit="10" stroke-width="1"/>
    <path id="패스_709" data-name="패스 709" d="M431.266,213.6c-2.591,4.631,1.97,10.976,7.067,10.628,4.849-.331,7.874-5.984,6.676-10.395" transform="translate(68.51 79.543)" fill="none" stroke="#c43d4b" stroke-miterlimit="10" stroke-width="1"/>
    <path id="패스_710" data-name="패스 710" d="M412.374,214.726c-.429-4.533,5.681-4.571,8.736-4.318,3.428.286,11.3,1.18,7.743,6.368-2.373,3.466-8.58,4.333-12.332,3.2A6.187,6.187,0,0,1,412.374,214.726Z" transform="translate(41.155 74.614)" fill="#ef9181"/>
    <path id="패스_711" data-name="패스 711" d="M445.645,213.535c-.426-4.513,5.914-4.558,8.921-4.338,3.561.263,11.157,1.138,7.558,6.39-2.373,3.466-8.581,4.333-12.329,3.2A6.189,6.189,0,0,1,445.645,213.535Z" transform="translate(91.262 72.813)" fill="#ef9181"/>
    <g id="그룹_397" data-name="그룹 397" transform="translate(415.868 273.531)">
      <path id="패스_712" data-name="패스 712" d="M417.692,211.623c-.9-4.037-5.6-6.45-9.666-5.721s-7.357,3.932-9.24,7.616a13.238,13.238,0,0,0-1.3,3.669c-.92,5.14,2.418,10.237,6.7,13.229a14.44,14.44,0,0,0,8.064,2.889,8.387,8.387,0,0,0,7.325-3.9" transform="translate(-397.333 -205.772)" fill="#ffd5b8"/>
      <path id="패스_713" data-name="패스 713" d="M400.031,211.677c-.353-4.972,7.628-5.383,6.764.058a9.389,9.389,0,0,1-1.248,3.115,2.469,2.469,0,0,0-.393.995c-.08,1.118,1.268,1.672,2.248,2.215,2.4,1.333,4.012,7.207-.248,6.641a4.936,4.936,0,0,1-2.97-1.829" transform="translate(-393.287 -202.719)" fill="none" stroke="#f9b995" stroke-miterlimit="10" stroke-width="1"/>
      <path id="패스_714" data-name="패스 714" d="M399.825,210.856a4.09,4.09,0,0,0,1.609,4.308" transform="translate(-393.763 -198.117)" fill="none" stroke="#f9b995" stroke-miterlimit="10" stroke-width="1"/>
    </g>
    <path id="패스_715" data-name="패스 715" d="M404.792,266.531" transform="translate(29.769 159.259)" fill="none" stroke="#b72a71" stroke-miterlimit="10" stroke-width="1"/>
    <path id="패스_716" data-name="패스 716" d="M436.45,247.663c-2.734,9.548-10.49,22.737-15.981,31.011-3.974,5.992-6.262,12.623-8.891,19.293-1.809,4.588-4.508,9.224-8.989,11.279" transform="translate(26.451 130.844)" fill="none" stroke="#b72a71" stroke-miterlimit="10" stroke-width="1"/>
  </g>
</svg>
