<svg xmlns="http://www.w3.org/2000/svg" width="1411.495" height="676.728" viewBox="0 0 1411.495 676.728">
  <path id="패스_31" data-name="패스 31" d="M66.923,182.154c71.31-13.807,131.251-8.766,192.7-1.609l.927,89.493,33.087-85.45c35.3,4.168,71.819,8.035,111.891,8.576,103.169.981,176.688-16.994,271.346-19.961,30.649.013,60.992,1.308,91.517,2.779h-.021l2.6,61.218L802.4,177.638c32.4,1.531,65.189,2.808,98.876,2.52,85.444-.723,166.782-3.828,251.669-5.893l5.671,80.319,21.708-80.345c35.644.723,72.215,4.082,107.082,6.994,53.648,4.5,107.023,10.727,160.731,14.693,33.323,59.282,10.28,90.1,8.914,150.273l-194.9,26.241,195.984,11.734c2.616,44.624,9.45,84.156,14.376,130.47,4.186,47.85-6.77,107.02-20.443,162.23l-96.019-1.106,89.657,25.923c-4.717,17.9-9.547,35.1-14,51.037-11.513,36.9-27.92,62.246-42.162,97.184-128.287.193-217.5-.9-329.052-13.359l-22.26-60.315-11.1,56.332c-19.468-2.469-39.707-5.282-61.04-8.49-169.913-22.22-285.973.292-451,9.2-45.421,2.06-91.04.968-136.841-1.441l-11.76-72.986-26.613,70.71c-81.7-5.329-163.915-13.187-246.475-13.178C76.565,719.145,99.887,642.374,98.059,548.3h.016l157.654-1.983L97.32,519.254c-.343-32.172,1.351-60.96,1.6-93.975C99.608,332.284,45.558,283.252,66.923,182.154Z" transform="translate(-61.922 -173.203)" fill="#ba7c3d" fill-rule="evenodd"/>
</svg>
