<svg xmlns="http://www.w3.org/2000/svg" width="629.737" height="358.201" viewBox="0 0 629.737 358.201">
  <g id="그룹_585" data-name="그룹 585" transform="translate(-661.734 -386.496)">
    <path id="패스_31" data-name="패스 31" d="M64.153,177.941c31.815-7.308,58.557-4.64,85.972-.852l.414,47.37,14.762-45.23c15.747,2.206,32.042,4.253,49.92,4.54,46.029.519,78.829-8.995,121.061-10.566,13.674.007,27.211.692,40.83,1.471h-.01l1.16,32.4,14.025-31.527c14.456.81,29.084,1.487,44.114,1.334,38.121-.382,74.41-2.026,112.282-3.119l2.53,42.514,9.685-42.528c15.9.382,32.219,2.16,47.775,3.7,23.935,2.384,47.748,5.678,71.71,7.777,14.867,31.379,4.587,47.691,3.977,79.541L597.4,278.662l87.438,6.211c1.167,23.62,4.216,44.545,6.414,69.06,1.868,25.328-3.02,56.647-9.121,85.87l-42.839-.585,40,13.721c-2.1,9.473-4.259,18.58-6.246,27.015-5.137,19.529-12.456,32.948-18.81,51.441-57.235.1-97.039-.478-146.806-7.071L497.5,492.4l-4.953,29.817c-8.685-1.307-17.715-2.8-27.233-4.494-75.806-11.761-127.587.155-201.214,4.868a526.269,526.269,0,0,1-61.052-.763L197.8,483.193l-11.873,37.428c-36.449-2.821-73.13-6.98-109.965-6.976-7.511-51.468,2.894-92.1,2.078-141.9h.007l70.337-1.05L77.715,356.372c-.153-17.029.6-32.267.713-49.742C78.736,257.407,54.621,231.453,64.153,177.941Z" transform="translate(599.812 213.293)" fill="#ba7c3d" fill-rule="evenodd"/>
    <circle id="타원_16" data-name="타원 16" cx="9.5" cy="9.5" r="9.5" transform="translate(973 422)" fill="#7e725c"/>
    <circle id="타원_23" data-name="타원 23" cx="9.5" cy="9.5" r="9.5" transform="translate(986 694)" fill="#7e725c"/>
  </g>
</svg>
