<svg xmlns="http://www.w3.org/2000/svg" width="293.512" height="602.09" viewBox="0 0 293.512 602.09">
  <g id="그룹_586" data-name="그룹 586" transform="translate(-850.573 -358.269)">
    <g id="그룹_478" data-name="그룹 478" transform="translate(233.676 -391.356)">
      <path id="패스_27" data-name="패스 27" d="M225.118,540.292a445.727,445.727,0,0,1-1.779,89.645c-24.356,5.4-28.438,4.237-50.22-7.352,3.049-63.352-3.475-156.305-9.031-220.515-7.573-85.838-9.482-115.728.82-201.847,2.687-22.449,3.754-38.669,2.983-61.346,18.829-3.873,25.151-4.188,44.012-.057,2,68.178-11.788,120.735-6.663,193.676C210.039,400.8,219.88,470.877,225.118,540.292Z" transform="translate(555.562 613.78)" fill="#6e3105" fill-rule="evenodd"/>
    </g>
    <g id="그룹_22" data-name="그룹 22" transform="translate(831.785 260.226)">
      <path id="패스_15" data-name="패스 15" d="M33.051,626.567l43.538-43.539,91.582-14.262L198.2,542.492l57.051,21.018,13.51,59.3L312.3,648.34l-25.521,30.773-130.618,2.254L73.587,700.133l-54.8-22.519Z" transform="translate(0)" fill="#6d554e" fill-rule="evenodd"/>
      <path id="패스_16" data-name="패스 16" d="M255.25,556.965l.75,75.816-15.014,10.514-92.332,3.753-53.3,21.767-76.568,2.254,54.8,22.519,82.574-18.766,130.618-2.254L312.3,641.794l-43.54-25.526Z" transform="translate(0 6.546)" fill="#59423e" fill-rule="evenodd"/>
    </g>
  </g>
</svg>
