<svg xmlns="http://www.w3.org/2000/svg" width="426.366" height="528.512" viewBox="0 0 426.366 528.512">
  <g id="그룹_643" data-name="그룹 643" transform="translate(-1239.819 -82.722)">
    <g id="그룹_15" data-name="그룹 15" transform="translate(1134.025 56.663)">
      <circle id="타원_1" data-name="타원 1" cx="189.273" cy="189.273" r="189.273" transform="translate(108.996 73.685) rotate(-7.228)" fill="#82970a"/>
      <path id="패스_26" data-name="패스 26" d="M314.884,410.236c91.671,0,170.972,24.868,209.087,61.03-23.817,16.651-108.4,28.966-209.087,28.966s-185.27-12.315-209.09-28.966C143.911,435.1,223.213,410.236,314.884,410.236Z" transform="translate(0 54.34)" fill="#a7bf1c" fill-rule="evenodd"/>
      <path id="패스_27" data-name="패스 27" d="M288.974,410.236c91.671,0,170.972,24.868,209.088,61.03-23.817,16.651-108.4,28.966-209.088,28.966,60.707,0,111.7-12.315,126.057-28.966C392.051,435.1,344.242,410.236,288.974,410.236Z" transform="translate(25.91 54.34)" fill="#94ab13" fill-rule="evenodd"/>
      <path id="패스_28" data-name="패스 28" d="M288.126,462.985c7.045-124.847-14.35-226.35-65.3-308.8-10.6-17.157,5.163-36.7,17.724-17.727,30.07,45.421,55.56,93.989,72.639,146.87,10.708-40.287,29.126-76.728,51.467-110.474,8.089-12.225,18.248.368,11.418,11.419C343.245,237.39,326.338,303.021,334,383.206a476.958,476.958,0,0,1,.774,81.645C333.611,480.367,287.25,478.521,288.126,462.985Z" transform="translate(16.059 14.514)" fill="#ab8235" fill-rule="evenodd"/>
      <path id="패스_29" data-name="패스 29" d="M316.9,198.355a18.307,18.307,0,1,1-27,24.734c-15.566-16.988,6.384-36.519,20.625-44.1C308.713,186.972,311.984,192.986,316.9,198.355Z" transform="translate(25.284 21.631)" fill="#bad526" fill-rule="evenodd"/>
      <path id="패스_30" data-name="패스 30" d="M300.138,159.328a18.306,18.306,0,1,1-27,24.733c-15.565-16.989,6.384-36.518,20.625-44.1C291.957,147.946,295.228,153.959,300.138,159.328Z" transform="translate(22.914 16.11)" fill="#bad526" fill-rule="evenodd"/>
      <path id="패스_31" data-name="패스 31" d="M277.255,126.431a18.307,18.307,0,1,1-27,24.732c-15.566-16.988,6.385-36.518,20.622-44.1C269.07,115.046,272.342,121.062,277.255,126.431Z" transform="translate(19.677 11.457)" fill="#bad526" fill-rule="evenodd"/>
      <path id="패스_32" data-name="패스 32" d="M248.238,97.823a18.306,18.306,0,1,1-27,24.733c-15.566-16.987,6.385-36.517,20.624-44.1C240.055,86.44,243.329,92.454,248.238,97.823Z" transform="translate(15.573 7.411)" fill="#bad526" fill-rule="evenodd"/>
      <path id="패스_33" data-name="패스 33" d="M230.043,258.574a18.307,18.307,0,0,0,36-6.669c-4.2-22.657-33.007-16.884-47.632-10.079C225.877,245.188,228.711,251.419,230.043,258.574Z" transform="translate(15.929 29.66)" fill="#bad526" fill-rule="evenodd"/>
      <path id="패스_34" data-name="패스 34" d="M217.783,222.2a18.307,18.307,0,0,0,36-6.668c-4.2-22.657-33.007-16.884-47.634-10.079C213.617,208.817,216.451,215.048,217.783,222.2Z" transform="translate(14.195 24.516)" fill="#94ab13" fill-rule="evenodd"/>
      <path id="패스_35" data-name="패스 35" d="M181,145.782a18.307,18.307,0,0,0,36-6.668c-4.2-22.655-33.006-16.884-47.631-10.08C176.838,132.4,179.671,138.629,181,145.782Z" transform="translate(8.993 13.707)" fill="#94ab13" fill-rule="evenodd"/>
      <path id="패스_36" data-name="패스 36" d="M179.083,98.337a18.306,18.306,0,1,0,34.173,13.143c8.27-21.506-19.3-31.652-35.329-33.5C182.533,84.75,181.688,91.543,179.083,98.337Z" transform="translate(10.194 7.344)" fill="#bad526" fill-rule="evenodd"/>
      <path id="패스_37" data-name="패스 37" d="M230.328,67.209a15.249,15.249,0,0,1-28.465,10.946c-6.89-17.913,16.078-26.363,29.426-27.9C227.453,55.893,228.157,61.55,230.328,67.209Z" transform="translate(13.41 3.422)" fill="#bad526" fill-rule="evenodd"/>
      <path id="패스_38" data-name="패스 38" d="M344.011,131.79a18.307,18.307,0,0,0,29.455,21.748c13.687-18.536-10.2-35.642-25.157-41.682C350.947,119.608,348.331,125.931,344.011,131.79Z" transform="translate(33.189 12.135)" fill="#bad526" fill-rule="evenodd"/>
      <path id="패스_39" data-name="패스 39" d="M395.857,181.712a18.307,18.307,0,0,1-26.871-24.872c15.653-16.908,36.922,3.362,45.651,16.928C406.528,172.622,400.8,176.377,395.857,181.712Z" transform="translate(36.538 17.589)" fill="#bad526" fill-rule="evenodd"/>
      <path id="패스_40" data-name="패스 40" d="M364.39,257.723a18.307,18.307,0,1,1-26.87-24.872c15.651-16.908,36.919,3.362,45.646,16.928C375.063,248.632,369.337,252.386,364.39,257.723Z" transform="translate(32.087 28.34)" fill="#bad526" fill-rule="evenodd"/>
      <path id="패스_41" data-name="패스 41" d="M355.674,297.962a18.307,18.307,0,1,1-26.867-24.873c15.653-16.908,36.92,3.363,45.647,16.929C366.349,288.872,360.621,292.626,355.674,297.962Z" transform="translate(30.855 34.032)" fill="#bad526" fill-rule="evenodd"/>
      <path id="패스_42" data-name="패스 42" d="M354.086,374.274a18.307,18.307,0,1,1-26.87-24.872c15.653-16.909,36.92,3.362,45.647,16.928C364.758,365.182,359.03,368.939,354.086,374.274Z" transform="translate(30.63 44.826)" fill="#bad526" fill-rule="evenodd"/>
      <path id="패스_43" data-name="패스 43" d="M394.19,248.413a15.248,15.248,0,0,1-3.858-30.252c19.037-2.43,21.78,21.889,20.1,35.222C405.868,248.313,400.2,247.65,394.19,248.413Z" transform="translate(38.362 27.148)" fill="#94ab13" fill-rule="evenodd"/>
      <path id="패스_44" data-name="패스 44" d="M409.311,209.59a15.248,15.248,0,0,1-3.859-30.252c19.037-2.43,21.783,21.891,20.1,35.219C420.988,209.492,415.324,208.827,409.311,209.59Z" transform="translate(40.501 21.656)" fill="#bad526" fill-rule="evenodd"/>
      <path id="패스_45" data-name="패스 45" d="M383.567,283.558a15.25,15.25,0,1,1-3.859-30.254c19.035-2.429,21.781,21.889,20.1,35.222C395.242,283.461,389.577,282.8,383.567,283.558Z" transform="translate(36.859 32.118)" fill="#94ab13" fill-rule="evenodd"/>
      <path id="패스_46" data-name="패스 46" d="M392.821,360.263a15.247,15.247,0,0,1-24.7-17.878c11.251-15.549,30.867-.914,39.443,9.433C400.739,351.677,396.38,355.355,392.821,360.263Z" transform="translate(36.695 43.783)" fill="#bad526" fill-rule="evenodd"/>
      <path id="패스_47" data-name="패스 47" d="M419.147,338.475a15.249,15.249,0,0,1-19.293-23.62c14.863-12.142,30.069,7.038,35.7,19.236C429,332.207,423.846,334.646,419.147,338.475Z" transform="translate(40.801 40.3)" fill="#bad526" fill-rule="evenodd"/>
      <path id="패스_48" data-name="패스 48" d="M422.824,307.825a15.249,15.249,0,1,1-19.293-23.62c14.865-12.142,30.069,7.039,35.7,19.236C432.679,301.557,427.522,304,422.824,307.825Z" transform="translate(41.321 35.965)" fill="#bad526" fill-rule="evenodd"/>
      <path id="패스_49" data-name="패스 49" d="M433.092,320.926a8.376,8.376,0,0,1-.572-16.743c10.532-.362,10.8,13.08,9.2,20.282C439.484,321.467,436.421,320.814,433.092,320.926Z" transform="translate(45.069 39.338)" fill="#bad526" fill-rule="evenodd"/>
      <path id="패스_50" data-name="패스 50" d="M435.494,244.484a15.249,15.249,0,1,1-19.293-23.62c14.862-12.14,30.068,7.036,35.7,19.236C445.346,238.218,440.189,240.653,435.494,244.484Z" transform="translate(43.113 27.006)" fill="#bad526" fill-rule="evenodd"/>
      <path id="패스_51" data-name="패스 51" d="M455.846,216.305a15.25,15.25,0,0,1-25.616-16.553c10.417-16.119,30.776-2.541,39.883,7.338C463.3,207.314,459.138,211.217,455.846,216.305Z" transform="translate(45.544 23.513)" fill="#bad526" fill-rule="evenodd"/>
      <path id="패스_52" data-name="패스 52" d="M446.446,182.8a15.249,15.249,0,0,1-25.616-16.552c10.417-16.121,30.776-2.541,39.884,7.338C453.9,173.8,449.738,177.707,446.446,182.8Z" transform="translate(44.215 18.773)" fill="#94ab13" fill-rule="evenodd"/>
      <path id="패스_53" data-name="패스 53" d="M407.474,142.266a15.248,15.248,0,0,1-25.613-16.551c10.413-16.121,30.773-2.541,39.88,7.337C414.926,133.276,410.769,137.178,407.474,142.266Z" transform="translate(38.702 13.041)" fill="#94ab13" fill-rule="evenodd"/>
      <path id="패스_54" data-name="패스 54" d="M362.825,105.172a15.248,15.248,0,1,0,29.922,5.888c3.706-18.83-20.37-23.207-33.788-22.428C363.709,93.528,363.988,99.224,362.825,105.172Z" transform="translate(35.809 8.838)" fill="#bad526" fill-rule="evenodd"/>
      <path id="패스_55" data-name="패스 55" d="M423.318,159.3a11.3,11.3,0,1,1-14.292-17.5c11.012-8.992,22.272,5.212,26.446,14.247C430.616,154.656,426.8,156.463,423.318,159.3Z" transform="translate(42.303 15.966)" fill="#bad526" fill-rule="evenodd"/>
      <path id="패스_56" data-name="패스 56" d="M437.536,128.787a11.3,11.3,0,0,1-14.29-17.5c11.009-8.992,22.271,5.212,26.443,14.249C444.833,124.144,441.016,125.949,437.536,128.787Z" transform="translate(44.315 11.65)" fill="#bad526" fill-rule="evenodd"/>
      <path id="패스_57" data-name="패스 57" d="M453.065,153.716a11.295,11.295,0,1,1-14.291-17.495c11.012-8.992,22.272,5.211,26.445,14.246C460.363,149.072,456.543,150.878,453.065,153.716Z" transform="translate(46.511 15.176)" fill="#bad526" fill-rule="evenodd"/>
      <path id="패스_58" data-name="패스 58" d="M458.075,262.788a11.3,11.3,0,0,1-14.292-17.495c11.013-8.992,22.273,5.211,26.445,14.245C465.373,258.145,461.555,259.952,458.075,262.788Z" transform="translate(47.22 30.603)" fill="#bad526" fill-rule="evenodd"/>
      <path id="패스_59" data-name="패스 59" d="M466.9,233.7a8.377,8.377,0,0,1-14.31-8.711c5.482-9,16.861-1.848,22.009,3.443C470.859,228.658,468.635,230.862,466.9,233.7Z" transform="translate(48.88 27.531)" fill="#bad526" fill-rule="evenodd"/>
      <path id="패스_60" data-name="패스 60" d="M466.085,190.794a8.376,8.376,0,1,1-14.309-8.709c5.481-9,16.86-1.849,22,3.441C470.042,185.749,467.82,187.952,466.085,190.794Z" transform="translate(48.764 21.462)" fill="#bad526" fill-rule="evenodd"/>
      <path id="패스_61" data-name="패스 61" d="M381.445,72.187a11.295,11.295,0,0,0,16.805,15.1c9.5-10.574-4.159-22.491-12.991-27.083C386.423,65.116,384.443,68.845,381.445,72.187Z" transform="translate(38.581 4.829)" fill="#bad526" fill-rule="evenodd"/>
      <path id="패스_62" data-name="패스 62" d="M304.478,108.434a15.248,15.248,0,1,1-29.923,5.886c-3.705-18.83,20.371-23.2,33.788-22.426C303.594,96.79,303.314,102.486,304.478,108.434Z" transform="translate(23.816 9.3)" fill="#bad526" fill-rule="evenodd"/>
      <path id="패스_63" data-name="패스 63" d="M309.3,73.649a15.249,15.249,0,0,1-29.925,5.888c-3.705-18.829,20.375-23.2,33.788-22.426C308.418,62.006,308.135,67.7,309.3,73.649Z" transform="translate(24.498 4.38)" fill="#bad526" fill-rule="evenodd"/>
      <path id="패스_64" data-name="패스 64" d="M288.3,49.2a11.295,11.295,0,0,1-22.56,1.157c-.726-14.2,17.389-14.863,27.14-12.875C288.882,40.567,288.075,44.711,288.3,49.2Z" transform="translate(22.62 1.499)" fill="#bad526" fill-rule="evenodd"/>
      <path id="패스_65" data-name="패스 65" d="M340.769,88.77a15.25,15.25,0,1,1-29.926,5.886c-3.7-18.83,20.374-23.2,33.788-22.426C339.884,77.127,339.6,82.822,340.769,88.77Z" transform="translate(28.949 6.519)" fill="#94ab13" fill-rule="evenodd"/>
      <path id="패스_66" data-name="패스 66" d="M344.74,91.847a8.375,8.375,0,0,0,9.94,13.482c8.485-6.256.353-16.957-5.373-21.617C349.416,87.457,347.419,89.869,344.74,91.847Z" transform="translate(33.316 8.155)" fill="#bad526" fill-rule="evenodd"/>
      <path id="패스_67" data-name="패스 67" d="M374.277,67.928a15.248,15.248,0,1,1-29.922,5.886c-3.706-18.829,20.37-23.206,33.788-22.425C373.394,56.285,373.114,61.98,374.277,67.928Z" transform="translate(33.689 3.571)" fill="#bad526" fill-rule="evenodd"/>
      <path id="패스_68" data-name="패스 68" d="M316.236,52.863a15.25,15.25,0,0,0,29.926,5.886c3.7-18.83-20.375-23.2-33.789-22.427C317.123,41.219,317.4,46.915,316.236,52.863Z" transform="translate(29.219 1.44)" fill="#bad526" fill-rule="evenodd"/>
      <path id="패스_69" data-name="패스 69" d="M246.885,340.041a18.308,18.308,0,0,0,34.239-12.976c-8.167-21.542-35.487-10.733-48.668-1.431C240.4,327.611,244.3,333.238,246.885,340.041Z" transform="translate(17.916 40.802)" fill="#bad526" fill-rule="evenodd"/>
      <path id="패스_70" data-name="패스 70" d="M249.337,376.412a18.307,18.307,0,1,0,34.238-12.977c-8.166-21.544-35.486-10.733-48.667-1.43C242.854,363.981,246.752,369.612,249.337,376.412Z" transform="translate(18.262 45.947)" fill="#bad526" fill-rule="evenodd"/>
      <path id="패스_71" data-name="패스 71" d="M214.946,350.242a15.248,15.248,0,1,0,28.6-10.587c-6.661-18-29.487-9.173-40.525-1.507C209.626,339.847,212.836,344.56,214.946,350.242Z" transform="translate(13.752 42.862)" fill="#94ab13" fill-rule="evenodd"/>
      <path id="패스_72" data-name="패스 72" d="M208.889,313.506a15.248,15.248,0,1,0,28.6-10.59c-6.661-18-29.487-9.168-40.525-1.5C203.569,303.11,206.779,307.821,208.889,313.506Z" transform="translate(12.895 37.666)" fill="#bad526" fill-rule="evenodd"/>
      <path id="패스_73" data-name="패스 73" d="M191.051,243.693a15.249,15.249,0,0,0,22.068-21.051c-13.249-13.888-30.708,3.262-37.808,14.67C182.049,236.256,186.865,239.312,191.051,243.693Z" transform="translate(9.833 27.072)" fill="#bad526" fill-rule="evenodd"/>
      <path id="패스_74" data-name="패스 74" d="M177.566,212.225a15.248,15.248,0,1,0,22.065-21.049c-13.246-13.887-30.707,3.261-37.806,14.669C168.562,204.789,173.378,207.844,177.566,212.225Z" transform="translate(7.925 22.621)" fill="#94ab13" fill-rule="evenodd"/>
      <path id="패스_75" data-name="패스 75" d="M163.384,176.493a15.248,15.248,0,1,0,22.066-21.051c-13.248-13.887-30.708,3.262-37.807,14.67C154.38,169.057,159.2,172.112,163.384,176.493Z" transform="translate(5.919 17.567)" fill="#bad526" fill-rule="evenodd"/>
      <path id="패스_76" data-name="패스 76" d="M144.994,150.747a15.25,15.25,0,0,0,22.068-21.053c-13.248-13.886-30.707,3.262-37.808,14.672C135.992,143.31,140.808,146.364,144.994,150.747Z" transform="translate(3.318 13.925)" fill="#bad526" fill-rule="evenodd"/>
      <path id="패스_77" data-name="패스 77" d="M127.877,217.447a18.307,18.307,0,0,0,36-6.668c-4.2-22.655-33.007-16.885-47.632-10.079,7.465,3.362,10.3,9.593,11.63,16.747ZM415.058,241.4a18.307,18.307,0,1,1-26.871-24.872c15.653-16.908,36.923,3.362,45.647,16.928-8.105-1.145-13.83,2.61-18.777,7.944Zm-78.409-66.523a18.307,18.307,0,0,0,35.556,8.735c5.5-22.377-23.135-28.97-39.263-28.786,5.421,6.136,5.437,12.983,3.707,20.051Zm3.6-43.489a15.248,15.248,0,1,0,29.922,5.886c3.705-18.83-20.375-23.2-33.788-22.426,4.751,4.9,5.029,10.591,3.866,16.54ZM296.535,86.63a15.249,15.249,0,0,1-28.466,10.945c-6.889-17.913,16.08-26.364,29.425-27.9-3.832,5.639-3.13,11.3-.959,16.957ZM210.442,203.452a18.307,18.307,0,1,0,36-6.667c-4.2-22.655-33.006-16.885-47.634-10.079,7.466,3.363,10.3,9.594,11.631,16.746Zm3.285,103.111a15.248,15.248,0,1,0,28.6-10.586c-6.664-18-29.488-9.171-40.525-1.507,6.606,1.7,9.816,6.411,11.926,12.092Zm41.2,28.22c-2.584-6.8-6.482-12.434-14.429-14.411,13.181-9.3,40.5-20.112,48.665,1.43a18.307,18.307,0,1,1-34.236,12.98Zm127.328,41.641a18.307,18.307,0,0,1-26.871-24.872c15.653-16.909,36.923,3.359,45.647,16.928-8.105-1.148-13.83,2.608-18.777,7.944Zm30.882-16.32c6.013-.763,11.677-.1,16.24,4.968,1.684-13.33-1.062-37.649-20.1-35.22a15.249,15.249,0,1,0,3.857,30.253Zm57.928-55.381a15.248,15.248,0,1,1-19.294-23.616c14.864-12.143,30.069,7.036,35.7,19.234-6.556-1.882-11.71.556-16.408,4.382Zm23.864,18.994c3.48-2.838,7.3-4.641,12.153-3.247-4.172-9.035-15.432-23.24-26.442-14.246a11.294,11.294,0,1,0,14.289,17.494ZM461.984,108.637a15.248,15.248,0,1,1-29.922,5.888c-3.705-18.83,20.37-23.206,33.784-22.426-4.746,4.9-5.026,10.591-3.863,16.538Zm-129.6-57.2a8.376,8.376,0,1,1-14.31-8.709c5.481-9,16.86-1.849,22.008,3.44-3.743.224-5.965,2.427-7.7,5.269Zm-51.874.648c-2.17-5.658-2.874-11.317.963-16.956-13.349,1.539-36.316,9.99-29.428,27.9a15.248,15.248,0,0,0,28.464-10.948ZM162.926,114.917a11.294,11.294,0,1,0,16.8,15.094c9.5-10.574-4.162-22.491-12.991-27.083C167.9,107.845,165.922,111.574,162.926,114.917Z" transform="translate(1.479 1.283)" fill="#ddf266" fill-rule="evenodd"/>
      <path id="패스_78" data-name="패스 78" d="M126.848,156.782a11.294,11.294,0,0,0,16.8,15.094c9.5-10.575-4.159-22.492-12.99-27.084C131.827,149.709,129.846,153.438,126.848,156.782Z" transform="translate(2.569 16.794)" fill="#bad526" fill-rule="evenodd"/>
      <path id="패스_79" data-name="패스 79" d="M148.525,241.376A18.307,18.307,0,1,0,172.835,214c-17.231-15.3-36.415,6.956-43.776,21.311C137.016,233.375,143.081,236.553,148.525,241.376Z" transform="translate(3.291 25.854)" fill="#bad526" fill-rule="evenodd"/>
      <path id="패스_80" data-name="패스 80" d="M162.668,266.153a15.248,15.248,0,0,0,28.6-10.59c-6.663-18-29.488-9.17-40.526-1.507C157.347,255.754,160.559,260.468,162.668,266.153Z" transform="translate(6.357 30.968)" fill="#bad526" fill-rule="evenodd"/>
      <path id="패스_81" data-name="패스 81" d="M180.21,306.08a15.248,15.248,0,0,0,10.967-28.456c-17.909-6.9-26.376,16.06-27.925,29.409C168.893,303.2,174.552,303.906,180.21,306.08Z" transform="translate(8.127 35.403)" fill="#94ab13" fill-rule="evenodd"/>
      <path id="패스_82" data-name="패스 82" d="M189.2,339.182a15.247,15.247,0,0,0,10.966-28.455c-17.908-6.9-26.375,16.059-27.924,29.406C177.884,336.3,183.544,337.007,189.2,339.182Z" transform="translate(9.399 40.086)" fill="#bad526" fill-rule="evenodd"/>
      <path id="패스_83" data-name="패스 83" d="M197.511,356.883a8.376,8.376,0,0,0,.574-16.743c-10.536-.358-10.8,13.08-9.2,20.287C191.119,357.422,194.182,356.77,197.511,356.883Z" transform="translate(11.65 44.424)" fill="#bad526" fill-rule="evenodd"/>
      <path id="패스_84" data-name="패스 84" d="M166.656,324.8a8.377,8.377,0,1,0,.572-16.744c-10.533-.36-10.8,13.082-9.2,20.286C160.265,325.341,163.328,324.693,166.656,324.8Z" transform="translate(7.286 39.886)" fill="#94ab13" fill-rule="evenodd"/>
      <path id="패스_85" data-name="패스 85" d="M139.783,288.629a15.248,15.248,0,0,0,28.6-10.589c-6.663-18-29.488-9.168-40.526-1.507C134.463,278.231,137.674,282.945,139.783,288.629Z" transform="translate(3.121 34.147)" fill="#bad526" fill-rule="evenodd"/>
      <path id="패스_86" data-name="패스 86" d="M130.967,261.056a11.294,11.294,0,1,0,14.29-17.494c-11.01-8.992-22.271,5.211-26.443,14.246C123.669,256.415,127.488,258.219,130.967,261.056Z" transform="translate(1.842 30.359)" fill="#bad526" fill-rule="evenodd"/>
      <path id="패스_87" data-name="패스 87" d="M124.563,223.045a8.376,8.376,0,1,0,.573-16.742c-10.536-.36-10.8,13.08-9.2,20.285C118.172,223.585,121.237,222.936,124.563,223.045Z" transform="translate(1.332 25.494)" fill="#bad526" fill-rule="evenodd"/>
    </g>
    <g id="그룹_13" data-name="그룹 13" transform="translate(1133 123.079)">
      <path id="패스_49-2" data-name="패스 49" d="M440.135,264.624c15.933,0,28.85,7.78,28.85,22.232s-12.917,30.107-28.85,30.107-28.85-15.653-28.85-30.107S424.2,264.624,440.135,264.624Z" fill="#eb1b20" fill-rule="evenodd"/>
      <path id="패스_50-2" data-name="패스 50" d="M419.932,236.314c13.271,3.845,22.023,11.624,21.685,27.323,4.129-11.742,16.158-11.961,28.271-13.415-.895,16.6-9.055,21.237-29.71,17.2C423.435,266.6,417.144,255.792,419.932,236.314Z" fill="#5e631f" fill-rule="evenodd"/>
    </g>
    <g id="그룹_18" data-name="그룹 18" transform="translate(788.235 99.3)">
      <path id="패스_63-2" data-name="패스 63" d="M569.716,299.417c10.112,0,18.311,4.938,18.311,14.111s-8.2,19.11-18.311,19.11S551.4,322.7,551.4,313.528,559.6,299.417,569.716,299.417Z" fill="#eb1b20" fill-rule="evenodd"/>
      <path id="패스_64-2" data-name="패스 64" d="M556.892,281.447c8.422,2.441,13.979,7.379,13.763,17.343,2.621-7.453,10.257-7.592,17.946-8.515-.569,10.537-5.749,13.48-18.859,10.918C559.114,300.669,555.122,293.81,556.892,281.447Z" fill="#5e631f" fill-rule="evenodd"/>
    </g>
    <g id="그룹_17" data-name="그룹 17" transform="translate(975 55.147)">
      <path id="패스_57-2" data-name="패스 57" d="M525.644,117.293c13.634,0,24.688,6.657,24.688,19.024s-11.054,25.763-24.688,25.763-24.687-13.4-24.687-25.763S512.009,117.293,525.644,117.293Z" fill="#eb1b20" fill-rule="evenodd"/>
      <path id="패스_58-2" data-name="패스 58" d="M508.356,93.067c11.356,3.29,18.846,9.948,18.556,23.381,3.533-10.048,13.826-10.235,24.192-11.479-.766,14.205-7.75,18.174-25.423,14.718C511.352,118.982,505.97,109.735,508.356,93.067Z" fill="#5e631f" fill-rule="evenodd"/>
    </g>
    <g id="그룹_15-2" data-name="그룹 15" transform="translate(1234.066 68.817)">
      <path id="패스_53-2" data-name="패스 53" d="M358.982,195.407c10.748,0,19.463,5.247,19.463,15s-8.715,20.31-19.463,20.31-19.462-10.56-19.462-20.31S348.234,195.407,358.982,195.407Z" fill="#eb1b20" fill-rule="evenodd"/>
      <path id="패스_54-2" data-name="패스 54" d="M345.354,176.309c8.953,2.593,14.857,7.842,14.627,18.432,2.787-7.921,10.9-8.069,19.073-9.05-.6,11.2-6.11,14.328-20.042,11.6C347.716,196.738,343.473,189.449,345.354,176.309Z" fill="#5e631f" fill-rule="evenodd"/>
    </g>
    <g id="그룹_15-3" data-name="그룹 15" transform="translate(1037.316 -64.105)">
      <path id="패스_53-3" data-name="패스 53" d="M358.982,195.407c10.748,0,19.463,5.247,19.463,15s-8.715,20.31-19.463,20.31-19.462-10.56-19.462-20.31S348.234,195.407,358.982,195.407Z" fill="#eb1b20" fill-rule="evenodd"/>
      <path id="패스_54-3" data-name="패스 54" d="M345.354,176.309c8.953,2.593,14.857,7.842,14.627,18.432,2.787-7.921,10.9-8.069,19.073-9.05-.6,11.2-6.11,14.328-20.042,11.6C347.716,196.738,343.473,189.449,345.354,176.309Z" fill="#5e631f" fill-rule="evenodd"/>
    </g>
    <g id="그룹_14" data-name="그룹 14" transform="translate(1007.651 43.809)">
      <path id="패스_51-2" data-name="패스 51" d="M307.733,241.378c12.989,0,23.519,6.342,23.519,18.124s-10.53,24.541-23.519,24.541-23.518-12.76-23.518-24.541S294.745,241.378,307.733,241.378Z" fill="#eb1b20" fill-rule="evenodd"/>
      <path id="패스_52-2" data-name="패스 52" d="M291.265,218.3c10.818,3.135,17.953,9.476,17.676,22.274,3.366-9.572,13.172-9.75,23.046-10.936-.729,13.532-7.381,17.313-24.218,14.021C294.12,242.988,288.991,234.179,291.265,218.3Z" fill="#5e631f" fill-rule="evenodd"/>
    </g>
  </g>
</svg>
