<svg xmlns="http://www.w3.org/2000/svg" xmlns:xlink="http://www.w3.org/1999/xlink" width="1920" height="940" viewBox="0 0 1920 940">
  <defs>
    <clipPath id="clip-path">
      <rect id="사각형_91" data-name="사각형 91" width="1920" height="940" transform="translate(5 434)" fill="#fff" stroke="#707070" stroke-width="1"/>
    </clipPath>
  </defs>
  <g id="마스크_그룹_9" data-name="마스크 그룹 9" transform="translate(-5 -434)" clip-path="url(#clip-path)">
    <g id="그룹_637" data-name="그룹 637" transform="translate(-111.572 421.904)">
      <rect id="사각형_3" data-name="사각형 3" width="1925.873" height="964.844" transform="translate(110.7)" fill="#bed9ea"/>
      <g id="그룹_18" data-name="그룹 18" transform="translate(111.559 243.828)">
        <path id="패스_8" data-name="패스 8" d="M.976,447.4V393.7q139.3-4.642,282.675-4.728c548.7,0,1057.68,52.421,1477.65,141.882C1174.528,440.291,527.071,409.067.976,447.4Z" transform="translate(1.029 -388.973)" fill="#add912" fill-rule="evenodd"/>
        <path id="패스_7" data-name="패스 7" d="M1925.989,526.035v572.6H.976v-705.1q152.333-4.484,309.121-4.568C910.126,388.973,1466.728,439.613,1925.989,526.035Z" transform="translate(-0.976 -358.041)" fill="#84a316" fill-rule="evenodd"/>
      </g>
      <g id="그룹_19" data-name="그룹 19" transform="translate(1375.109 299.554)">
        <path id="패스_11" data-name="패스 11" d="M577.317,507.643V640.2H.976V610.891C184.129,515.108,391.017,488.834,577.317,507.643Z" transform="translate(82.142 -501.962)" fill="#add912" fill-rule="evenodd"/>
        <path id="패스_95" data-name="패스 95" d="M662.44,507.643V640.2H.976V610.891C211.18,515.108,448.624,488.834,662.44,507.643Z" transform="translate(-0.976 -489.867)" fill="#84a316" fill-rule="evenodd"/>
      </g>
      <path id="패스_44" data-name="패스 44" d="M33.848,4.689,31.57,7.448a36.911,36.911,0,0,0-8.428,24.488c.212,9,3.54,15.874,9.458,19.532L56.18,66.032c4.373,2.7,6.582,8.28,5.964,15.076s-3.879,12.87-8.818,16.419L27.52,116.06C12.107,127.131,1.965,146.175.2,167.364s5.345,38.457,19.163,46.515l27.9,16.271c8.573,5,13.473,14.728,13.895,27.576A52.417,52.417,0,0,1,49.3,292.816L36.474,308.462l112.673-2.415,1.009-1.587c12.685-19.949,17.938-42.586,15.069-64.945S152.172,201.308,136,194.051L70.43,164.634c-3.314-1.487-5.224-5.157-5.177-9.949a16.733,16.733,0,0,1,5.4-12.317l15.436-13.7c12.329-10.946,19.664-27.581,19.931-45.193S99.4,52.283,87.324,46.6L54.533,31.159C50.889,29.444,48.7,25.6,48.4,20.4A20.671,20.671,0,0,1,53.081,6.056L58.087-.023A131.991,131.991,0,0,0,33.848,4.689Z" transform="translate(305.126 264.633) rotate(9)" fill="#fbaf50" fill-rule="evenodd"/>
      <path id="패스_51" data-name="패스 51" d="M128.741,3.737l99.767-3.9,81.4,535.191L-.4,547.166Z" transform="translate(160.358 551.536) rotate(17)" fill="#fbaf50" fill-rule="evenodd"/>
      <path id="빼기_2" data-name="빼기 2" d="M107.632,49.077H0A101.222,101.222,0,0,1,8.57,24.042,107.95,107.95,0,0,1,23.623,1.456L24.881,0,136.738,15.155,121.5,29.056a54.151,54.151,0,0,0-13.865,20.021Z" transform="translate(270.414 572.823)" fill="#fbaf50" stroke="rgba(0,0,0,0)" stroke-miterlimit="10" stroke-width="1"/>
      <path id="패스_46" data-name="패스 46" d="M98.75,429.38c6.3,0,11.417,1.467,11.417,3.28s-5.112,3.279-11.417,3.279-11.419-1.468-11.419-3.279,5.111-3.28,11.419-3.28Zm48.067,26.238c5.294,0,9.586,1.414,9.586,3.159s-4.292,3.157-9.586,3.157-9.584-1.414-9.584-3.157,4.291-3.159,9.584-3.159Zm252.61-48.589c5.606,0,10.148,1.633,10.148,3.644s-4.543,3.644-10.148,3.644-10.15-1.632-10.15-3.644,4.545-3.644,10.15-3.644Zm-80.075-34.5c6.232,0,11.284,1.416,11.284,3.162s-5.052,3.16-11.284,3.16-11.284-1.416-11.284-3.16,5.052-3.162,11.284-3.162Zm-179.019.007c3.738,0,6.768,1.032,6.768,2.308s-3.03,2.308-6.768,2.308-6.766-1.034-6.766-2.308,3.029-2.308,6.766-2.308ZM66.327,407.515c3.659,0,6.625.979,6.625,2.186s-2.967,2.188-6.625,2.188S59.7,410.909,59.7,409.7,62.669,407.515,66.327,407.515Z" transform="translate(773.306 290.594)" fill="#99bd14" fill-rule="evenodd"/>
      <path id="패스_97" data-name="패스 97" d="M182.092,363.912l11.655,50.914L205.4,465.743H158.784l11.654-50.916Z" transform="translate(1737.423 -111.121)" fill="#21340e" fill-rule="evenodd"/>
      <path id="패스_98" data-name="패스 98" d="M219.534,317.709l16.222,70.874,16.222,70.874H187.09l16.221-70.874Z" transform="translate(1737.496 -104.836)" fill="#2c5a18" fill-rule="evenodd"/>
      <path id="패스_99" data-name="패스 99" d="M98.75,429.38c6.3,0,11.417,1.467,11.417,3.28s-5.112,3.279-11.417,3.279-11.419-1.468-11.419-3.279,5.111-3.28,11.419-3.28Zm48.067,26.238c5.294,0,9.586,1.414,9.586,3.159s-4.292,3.157-9.586,3.157-9.584-1.414-9.584-3.157,4.291-3.159,9.584-3.159Zm252.61-48.589c5.606,0,10.148,1.633,10.148,3.644s-4.543,3.644-10.148,3.644-10.15-1.632-10.15-3.644,4.545-3.644,10.15-3.644Zm-80.075-34.5c6.232,0,11.284,1.416,11.284,3.162s-5.052,3.16-11.284,3.16-11.284-1.416-11.284-3.16,5.052-3.162,11.284-3.162Zm-179.019.007c3.738,0,6.768,1.032,6.768,2.308s-3.03,2.308-6.768,2.308-6.766-1.034-6.766-2.308,3.029-2.308,6.766-2.308ZM66.327,407.515c3.659,0,6.625.979,6.625,2.186s-2.967,2.188-6.625,2.188S59.7,410.909,59.7,409.7,62.669,407.515,66.327,407.515Z" transform="translate(1547.456 52.473)" fill="#99bd14" fill-rule="evenodd"/>
      <path id="패스_100" data-name="패스 100" d="M98.75,429.38c6.3,0,11.417,1.467,11.417,3.28s-5.112,3.279-11.417,3.279-11.419-1.468-11.419-3.279,5.111-3.28,11.419-3.28Zm48.067,26.238c5.294,0,9.586,1.414,9.586,3.159s-4.292,3.157-9.586,3.157-9.584-1.414-9.584-3.157,4.291-3.159,9.584-3.159Zm252.61-48.589c5.606,0,10.148,1.633,10.148,3.644s-4.543,3.644-10.148,3.644-10.15-1.632-10.15-3.644,4.545-3.644,10.15-3.644Zm-80.075-34.5c6.232,0,11.284,1.416,11.284,3.162s-5.052,3.16-11.284,3.16-11.284-1.416-11.284-3.16,5.052-3.162,11.284-3.162Zm-179.019.007c3.738,0,6.768,1.032,6.768,2.308s-3.03,2.308-6.768,2.308-6.766-1.034-6.766-2.308,3.029-2.308,6.766-2.308ZM66.327,407.515c3.659,0,6.625.979,6.625,2.186s-2.967,2.188-6.625,2.188S59.7,410.909,59.7,409.7,62.669,407.515,66.327,407.515Z" transform="translate(855.864 -17.904)" fill="#99bd14" fill-rule="evenodd"/>
      <path id="패스_101" data-name="패스 101" d="M38.989,57.379c6.3-.015,11.412,1.44,11.407,3.253s-5.121,3.291-11.425,3.306S27.557,62.5,27.562,60.687s5.12-3.293,11.427-3.308ZM86.981,83.5c5.294-.013,9.582,1.391,9.577,3.136s-4.3,3.167-9.594,3.18-9.58-1.391-9.575-3.134,4.3-3.169,9.592-3.182ZM339.716,34.3c5.605-.014,10.143,1.608,10.138,3.62S345.3,41.576,339.7,41.59s-10.145-1.608-10.14-3.62,4.555-3.655,10.16-3.669ZM259.742-.012c6.232-.015,11.28,1.389,11.275,3.135S265.956,6.3,259.724,6.311s-11.28-1.389-11.275-3.133S253.51,0,259.742-.012ZM80.73.427c3.738-.009,6.764,1.016,6.761,2.291s-3.036,2.315-6.774,2.324-6.762-1.018-6.759-2.291S76.993.436,80.73.427ZM6.629,35.591c3.658-.009,6.622.963,6.619,2.17s-2.973,2.195-6.631,2.2S-.005,39,0,37.792,2.971,35.6,6.629,35.591Z" transform="matrix(1, 0.017, -0.017, 1, 174.103, 279.446)" fill="#99bd14" fill-rule="evenodd"/>
      <g id="그룹_641" data-name="그룹 641" transform="translate(1437.82 108.305)">
        <g id="그룹_15" data-name="그룹 15">
          <circle id="타원_1" data-name="타원 1" cx="139.956" cy="139.956" r="139.956" transform="translate(2.367 35.216) rotate(-7.228)" fill="#82970a"/>
          <path id="패스_26" data-name="패스 26" d="M260.4,410.236c67.785,0,126.424,18.388,154.608,45.128C397.4,467.676,334.857,476.783,260.4,476.783s-137-9.106-154.609-21.419C133.98,428.624,192.618,410.236,260.4,410.236Z" transform="translate(-105.794 -85.98)" fill="#a7bf1c" fill-rule="evenodd"/>
          <path id="패스_27" data-name="패스 27" d="M288.974,410.236c67.785,0,126.424,18.388,154.608,45.128-17.612,12.313-80.154,21.419-154.608,21.419,44.889,0,82.594-9.106,93.211-21.419C365.193,428.624,329.841,410.236,288.974,410.236Z" transform="translate(-134.365 -85.98)" fill="#94ab13" fill-rule="evenodd"/>
          <path id="패스_28" data-name="패스 28" d="M270.2,375.876c5.209-92.317-10.611-167.372-48.289-228.338-7.84-12.687,3.818-27.139,13.106-13.108,22.235,33.586,41.083,69.5,53.712,108.6,7.918-29.79,21.537-56.736,38.056-81.689,5.982-9.04,13.493.272,8.443,8.444-24.272,39.275-36.774,87.805-31.108,147.1a352.684,352.684,0,0,1,.572,60.372C303.834,388.729,269.553,387.365,270.2,375.876Z" transform="translate(-123.502 -42.064)" fill="#ab8235" fill-rule="evenodd"/>
          <path id="패스_29" data-name="패스 29" d="M308.467,193.308A13.537,13.537,0,1,1,288.5,211.6c-11.51-12.562,4.721-27,15.251-32.612C302.417,184.891,304.835,189.338,308.467,193.308Z" transform="translate(-133.674 -49.912)" fill="#bad526" fill-rule="evenodd"/>
          <path id="패스_30" data-name="패스 30" d="M291.71,154.281a13.536,13.536,0,1,1-19.961,18.288c-11.509-12.562,4.721-27,15.251-32.611C285.661,145.865,288.079,150.311,291.71,154.281Z" transform="translate(-131.061 -43.825)" fill="#bad526" fill-rule="evenodd"/>
          <path id="패스_31" data-name="패스 31" d="M268.827,121.384a13.537,13.537,0,1,1-19.963,18.288c-11.51-12.562,4.721-27,15.249-32.612C262.774,112.965,265.193,117.414,268.827,121.384Z" transform="translate(-127.492 -38.693)" fill="#bad526" fill-rule="evenodd"/>
          <path id="패스_32" data-name="패스 32" d="M239.81,92.776a13.536,13.536,0,1,1-19.961,18.288c-11.51-12.561,4.722-27,15.25-32.611C233.759,84.359,236.18,88.806,239.81,92.776Z" transform="translate(-122.966 -34.232)" fill="#bad526" fill-rule="evenodd"/>
          <path id="패스_33" data-name="패스 33" d="M227.013,252.629a13.537,13.537,0,0,0,26.622-4.932c-3.1-16.753-24.407-12.485-35.221-7.453C223.932,242.73,226.028,247.338,227.013,252.629Z" transform="translate(-123.359 -58.766)" fill="#bad526" fill-rule="evenodd"/>
          <path id="패스_34" data-name="패스 34" d="M214.753,216.257a13.537,13.537,0,0,0,26.622-4.931c-3.1-16.753-24.407-12.485-35.222-7.453C211.672,206.359,213.768,210.967,214.753,216.257Z" transform="translate(-121.447 -53.093)" fill="#94ab13" fill-rule="evenodd"/>
          <path id="패스_35" data-name="패스 35" d="M177.972,139.837a13.537,13.537,0,0,0,26.622-4.931c-3.1-16.752-24.406-12.485-35.221-7.454C174.893,129.94,176.988,134.548,177.972,139.837Z" transform="translate(-115.71 -41.174)" fill="#94ab13" fill-rule="evenodd"/>
          <path id="패스_36" data-name="패스 36" d="M178.765,93.032a13.536,13.536,0,1,0,25.269,9.718c6.115-15.9-14.273-23.4-26.124-24.771C181.316,82.986,180.691,88.009,178.765,93.032Z" transform="translate(-117.034 -34.158)" fill="#bad526" fill-rule="evenodd"/>
          <path id="패스_37" data-name="패스 37" d="M222.582,62.791a11.276,11.276,0,0,1-21.048,8.094c-5.095-13.245,11.889-19.494,21.759-20.632C220.457,54.423,220.977,58.606,222.582,62.791Z" transform="translate(-120.581 -29.833)" fill="#bad526" fill-rule="evenodd"/>
          <path id="패스_38" data-name="패스 38" d="M343.079,126.6a13.537,13.537,0,0,0,21.78,16.081c10.121-13.706-7.544-26.355-18.6-30.821C348.208,117.588,346.273,122.264,343.079,126.6Z" transform="translate(-142.391 -39.441)" fill="#bad526" fill-rule="evenodd"/>
          <path id="패스_39" data-name="패스 39" d="M387.587,173.556a13.537,13.537,0,0,1-19.869-18.391c11.574-12.5,27.3,2.486,33.756,12.517C395.477,166.835,391.245,169.611,387.587,173.556Z" transform="translate(-146.085 -45.455)" fill="#bad526" fill-rule="evenodd"/>
          <path id="패스_40" data-name="패스 40" d="M356.12,249.567a13.537,13.537,0,1,1-19.868-18.391c11.573-12.5,27.3,2.486,33.753,12.517C364.011,242.845,359.778,245.621,356.12,249.567Z" transform="translate(-141.176 -57.31)" fill="#bad526" fill-rule="evenodd"/>
          <path id="패스_41" data-name="패스 41" d="M347.4,289.806a13.537,13.537,0,1,1-19.867-18.392c11.574-12.5,27.3,2.487,33.754,12.518C355.3,283.085,351.062,285.86,347.4,289.806Z" transform="translate(-139.817 -63.586)" fill="#bad526" fill-rule="evenodd"/>
          <path id="패스_42" data-name="패스 42" d="M345.814,366.118a13.537,13.537,0,1,1-19.868-18.391c11.574-12.5,27.3,2.486,33.754,12.517C353.706,359.4,349.471,362.173,345.814,366.118Z" transform="translate(-139.569 -75.489)" fill="#bad526" fill-rule="evenodd"/>
          <path id="패스_43" data-name="패스 43" d="M389.714,240.486a11.275,11.275,0,0,1-2.853-22.369c14.077-1.8,16.1,16.186,14.863,26.044C398.349,240.413,394.161,239.922,389.714,240.486Z" transform="translate(-148.096 -55.995)" fill="#94ab13" fill-rule="evenodd"/>
          <path id="패스_44-2" data-name="패스 44" d="M404.835,201.663a11.275,11.275,0,0,1-2.854-22.369c14.077-1.8,16.107,16.187,14.862,26.043C413.469,201.591,409.281,201.1,404.835,201.663Z" transform="translate(-150.454 -49.94)" fill="#bad526" fill-rule="evenodd"/>
          <path id="패스_45" data-name="패스 45" d="M379.09,275.631a11.276,11.276,0,1,1-2.854-22.371c14.075-1.8,16.106,16.186,14.861,26.044C387.723,275.559,383.534,275.067,379.09,275.631Z" transform="translate(-146.439 -61.477)" fill="#94ab13" fill-rule="evenodd"/>
          <path id="패스_46-2" data-name="패스 46" d="M385.63,353.837a11.275,11.275,0,0,1-18.267-13.22c8.32-11.5,22.824-.676,29.165,6.975C391.485,347.488,388.261,350.207,385.63,353.837Z" transform="translate(-146.257 -74.339)" fill="#bad526" fill-rule="evenodd"/>
          <path id="패스_47" data-name="패스 47" d="M412.66,331.311a11.276,11.276,0,0,1-14.266-17.466c10.99-8.978,22.234,5.2,26.4,14.224C419.945,326.676,416.135,328.479,412.66,331.311Z" transform="translate(-150.785 -70.499)" fill="#bad526" fill-rule="evenodd"/>
          <path id="패스_48" data-name="패스 48" d="M416.337,300.661A11.276,11.276,0,1,1,402.072,283.2c10.992-8.978,22.234,5.205,26.4,14.224C423.625,296.026,419.811,297.831,416.337,300.661Z" transform="translate(-151.359 -65.718)" fill="#bad526" fill-rule="evenodd"/>
          <path id="패스_49" data-name="패스 49" d="M430.835,316.561a6.194,6.194,0,0,1-.423-12.38c7.788-.268,7.985,9.672,6.8,15C435.562,316.961,433.3,316.479,430.835,316.561Z" transform="translate(-155.492 -69.438)" fill="#bad526" fill-rule="evenodd"/>
          <path id="패스_50" data-name="패스 50" d="M429.007,237.32a11.276,11.276,0,1,1-14.266-17.465c10.989-8.977,22.233,5.2,26.4,14.224C436.292,232.686,432.478,234.487,429.007,237.32Z" transform="translate(-153.334 -55.839)" fill="#bad526" fill-rule="evenodd"/>
          <path id="패스_51-2" data-name="패스 51" d="M448.535,210.049a11.276,11.276,0,0,1-18.942-12.24c7.7-11.919,22.757-1.879,29.491,5.426C454.043,203.4,450.969,206.286,448.535,210.049Z" transform="translate(-156.015 -51.987)" fill="#bad526" fill-rule="evenodd"/>
          <path id="패스_52" data-name="패스 52" d="M439.135,176.539A11.276,11.276,0,0,1,420.193,164.3c7.7-11.92,22.757-1.879,29.492,5.426C444.646,169.891,441.569,172.777,439.135,176.539Z" transform="translate(-154.549 -46.761)" fill="#94ab13" fill-rule="evenodd"/>
          <path id="패스_53" data-name="패스 53" d="M400.163,136.01a11.275,11.275,0,0,1-18.939-12.238c7.7-11.92,22.755-1.879,29.489,5.425C405.674,129.363,402.6,132.248,400.163,136.01Z" transform="translate(-148.471 -40.44)" fill="#94ab13" fill-rule="evenodd"/>
          <path id="패스_54" data-name="패스 54" d="M361.818,100.84a11.275,11.275,0,1,0,22.125,4.354c2.741-13.924-15.063-17.16-24.984-16.584C362.471,92.23,362.678,96.442,361.818,100.84Z" transform="translate(-145.28 -35.806)" fill="#bad526" fill-rule="evenodd"/>
          <path id="패스_55" data-name="패스 55" d="M418.513,153.994a8.352,8.352,0,1,1-10.568-12.937c8.142-6.649,16.469,3.854,19.555,10.535C423.909,150.56,421.084,151.9,418.513,153.994Z" transform="translate(-152.442 -43.665)" fill="#bad526" fill-rule="evenodd"/>
          <path id="패스_56" data-name="패스 56" d="M432.731,123.48a8.352,8.352,0,0,1-10.566-12.937c8.141-6.649,16.468,3.854,19.553,10.536C438.127,120.047,435.3,121.382,432.731,123.48Z" transform="translate(-154.66 -38.906)" fill="#bad526" fill-rule="evenodd"/>
          <path id="패스_57" data-name="패스 57" d="M448.26,148.409a8.352,8.352,0,1,1-10.567-12.936c8.142-6.649,16.469,3.853,19.555,10.534C453.657,144.976,450.832,146.311,448.26,148.409Z" transform="translate(-157.082 -42.794)" fill="#bad526" fill-rule="evenodd"/>
          <path id="패스_58" data-name="패스 58" d="M453.27,257.481A8.352,8.352,0,0,1,442.7,244.545c8.143-6.649,16.47,3.853,19.554,10.533C458.667,254.049,455.844,255.385,453.27,257.481Z" transform="translate(-157.863 -59.806)" fill="#bad526" fill-rule="evenodd"/>
          <path id="패스_59" data-name="패스 59" d="M462.855,230.317a6.194,6.194,0,0,1-10.582-6.442c4.054-6.657,12.468-1.367,16.275,2.546C465.781,226.585,464.137,228.215,462.855,230.317Z" transform="translate(-159.694 -56.418)" fill="#bad526" fill-rule="evenodd"/>
          <path id="패스_60" data-name="패스 60" d="M462.038,187.407a6.193,6.193,0,1,1-10.581-6.44c4.053-6.658,12.467-1.367,16.271,2.545C464.964,183.676,463.321,185.305,462.038,187.407Z" transform="translate(-159.566 -49.726)" fill="#bad526" fill-rule="evenodd"/>
          <path id="패스_61" data-name="패스 61" d="M380.692,69.064a8.352,8.352,0,0,0,12.427,11.162c7.025-7.819-3.076-16.631-9.606-20.026C384.373,63.835,382.909,66.593,380.692,69.064Z" transform="translate(-148.337 -31.385)" fill="#bad526" fill-rule="evenodd"/>
          <path id="패스_62" data-name="패스 62" d="M296.582,104.1a11.275,11.275,0,1,1-22.126,4.353c-2.74-13.924,15.063-17.158,24.984-16.583C295.928,95.492,295.721,99.7,296.582,104.1Z" transform="translate(-132.056 -36.315)" fill="#bad526" fill-rule="evenodd"/>
          <path id="패스_63" data-name="패스 63" d="M301.4,69.318a11.276,11.276,0,0,1-22.128,4.354c-2.74-13.923,15.066-17.158,24.984-16.583C300.751,60.708,300.542,64.92,301.4,69.318Z" transform="translate(-132.808 -30.889)" fill="#bad526" fill-rule="evenodd"/>
          <path id="패스_64" data-name="패스 64" d="M282.415,45.928a8.352,8.352,0,0,1-16.681.856c-.537-10.5,12.858-10.99,20.068-9.521C282.847,39.547,282.25,42.612,282.415,45.928Z" transform="translate(-130.738 -27.712)" fill="#bad526" fill-rule="evenodd"/>
          <path id="패스_65" data-name="패스 65" d="M332.871,84.438a11.276,11.276,0,1,1-22.129,4.353C308,74.867,325.808,71.633,335.727,72.208,332.217,75.829,332.011,80.04,332.871,84.438Z" transform="translate(-137.716 -33.248)" fill="#94ab13" fill-rule="evenodd"/>
          <path id="패스_66" data-name="패스 66" d="M343.853,89.727A6.193,6.193,0,0,0,351.2,99.7c6.275-4.626.261-12.539-3.973-15.984C347.311,86.481,345.834,88.265,343.853,89.727Z" transform="translate(-142.532 -35.052)" fill="#bad526" fill-rule="evenodd"/>
          <path id="패스_67" data-name="패스 67" d="M366.381,63.6a11.275,11.275,0,1,1-22.125,4.353c-2.741-13.923,15.063-17.159,24.984-16.582C365.728,54.987,365.521,59.2,366.381,63.6Z" transform="translate(-142.943 -29.997)" fill="#bad526" fill-rule="evenodd"/>
          <path id="패스_68" data-name="패스 68" d="M315.229,48.531a11.276,11.276,0,0,0,22.129,4.353C340.1,38.96,322.292,35.726,312.373,36.3,315.885,39.921,316.092,44.133,315.229,48.531Z" transform="translate(-138.014 -27.647)" fill="#bad526" fill-rule="evenodd"/>
          <path id="패스_69" data-name="패스 69" d="M243.125,333.394a13.537,13.537,0,0,0,25.318-9.595c-6.039-15.929-26.241-7.936-35.987-1.058C238.332,324.2,241.214,328.363,243.125,333.394Z" transform="translate(-125.55 -71.052)" fill="#bad526" fill-rule="evenodd"/>
          <path id="패스_70" data-name="패스 70" d="M245.577,369.764a13.537,13.537,0,1,0,25.317-9.6c-6.038-15.93-26.24-7.936-35.986-1.058C240.783,360.572,243.666,364.736,245.577,369.764Z" transform="translate(-125.932 -76.725)" fill="#bad526" fill-rule="evenodd"/>
          <path id="패스_71" data-name="패스 71" d="M211.838,344.731a11.275,11.275,0,1,0,21.147-7.828c-4.926-13.309-21.8-6.783-29.966-1.114C207.9,337.044,210.279,340.529,211.838,344.731Z" transform="translate(-120.958 -73.324)" fill="#94ab13" fill-rule="evenodd"/>
          <path id="패스_72" data-name="패스 72" d="M205.781,307.995a11.275,11.275,0,1,0,21.147-7.831c-4.926-13.31-21.8-6.779-29.966-1.112C201.847,300.307,204.222,303.79,205.781,307.995Z" transform="translate(-120.014 -67.594)" fill="#bad526" fill-rule="evenodd"/>
          <path id="패스_73" data-name="패스 73" d="M186.949,236.857a11.276,11.276,0,0,0,16.318-15.566c-9.8-10.269-22.707,2.412-27.957,10.847C180.293,231.357,183.854,233.618,186.949,236.857Z" transform="translate(-116.636 -55.912)" fill="#bad526" fill-rule="evenodd"/>
          <path id="패스_74" data-name="패스 74" d="M173.464,205.389a11.275,11.275,0,1,0,16.316-15.565c-9.795-10.268-22.706,2.411-27.955,10.847C166.806,199.89,170.367,202.15,173.464,205.389Z" transform="translate(-114.533 -51.004)" fill="#94ab13" fill-rule="evenodd"/>
          <path id="패스_75" data-name="패스 75" d="M159.282,169.657A11.275,11.275,0,1,0,175.6,154.091c-9.8-10.268-22.707,2.412-27.956,10.847C152.624,164.158,156.185,166.418,159.282,169.657Z" transform="translate(-112.321 -45.431)" fill="#bad526" fill-rule="evenodd"/>
          <path id="패스_76" data-name="패스 76" d="M140.892,143.911a11.276,11.276,0,0,0,16.318-15.567c-9.8-10.268-22.706,2.412-27.957,10.849C134.236,138.411,137.8,140.67,140.892,143.911Z" transform="translate(-109.453 -41.415)" fill="#bad526" fill-rule="evenodd"/>
          <path id="패스_77" data-name="패스 77" d="M124.847,169.943a13.537,13.537,0,0,0,26.622-4.931c-3.1-16.752-24.407-12.486-35.221-7.453,5.52,2.486,7.615,7.093,8.6,12.384ZM337.2,187.654a13.537,13.537,0,1,1-19.869-18.391c11.574-12.5,27.3,2.486,33.754,12.517-5.993-.847-10.226,1.93-13.884,5.874Zm-57.979-49.19a13.537,13.537,0,0,0,26.291,6.459c4.065-16.546-17.107-21.421-29.033-21.286,4.008,4.538,4.02,9.6,2.741,14.826Zm2.661-32.158a11.275,11.275,0,1,0,22.125,4.353c2.74-13.924-15.066-17.158-24.984-16.583,3.513,3.62,3.719,7.832,2.859,12.23ZM249.559,73.212a11.276,11.276,0,0,1-21.049,8.093c-5.094-13.245,11.89-19.495,21.758-20.632-2.833,4.17-2.314,8.355-.709,12.539ZM185.9,159.594a13.537,13.537,0,1,0,26.622-4.93c-3.1-16.752-24.406-12.486-35.222-7.453,5.521,2.487,7.617,7.094,8.6,12.383Zm2.429,76.245a11.275,11.275,0,1,0,21.147-7.828c-4.927-13.309-21.8-6.782-29.966-1.114,4.884,1.256,7.259,4.741,8.818,8.942Zm30.464,20.867c-1.911-5.03-4.793-9.194-10.669-10.656,9.747-6.878,29.947-14.872,35.985,1.058a13.537,13.537,0,1,1-25.316,9.6ZM312.943,287.5a13.537,13.537,0,0,1-19.869-18.391c11.574-12.5,27.3,2.484,33.754,12.517-5.993-.849-10.226,1.929-13.884,5.874Zm22.835-12.068c4.446-.564,8.634-.071,12.009,3.673,1.245-9.857-.785-27.839-14.861-26.043a11.276,11.276,0,1,0,2.852,22.37Zm42.835-40.951a11.275,11.275,0,1,1-14.267-17.463c10.991-8.979,22.234,5.2,26.4,14.223-4.848-1.392-8.659.411-12.133,3.24Zm17.646,14.045c2.573-2.1,5.4-3.432,8.986-2.4-3.085-6.68-11.411-17.184-19.552-10.534a8.351,8.351,0,1,0,10.566,12.936ZM371.9,89.485a11.275,11.275,0,1,1-22.125,4.354c-2.74-13.924,15.063-17.159,24.982-16.583-3.509,3.62-3.716,7.832-2.856,12.229ZM276.066,47.192a6.194,6.194,0,1,1-10.582-6.44c4.053-6.659,12.467-1.367,16.274,2.544-2.768.165-4.411,1.794-5.692,3.9Zm-38.358.479c-1.6-4.184-2.125-8.369.712-12.538-9.871,1.138-26.854,7.387-21.76,20.633a11.275,11.275,0,0,0,21.048-8.1ZM150.764,94.128a8.351,8.351,0,1,0,12.425,11.161c7.024-7.819-3.077-16.631-9.606-20.026C154.444,88.9,152.978,91.657,150.764,94.128Z" transform="translate(-107.424 -27.475)" fill="#ddf266" fill-rule="evenodd"/>
          <path id="패스_78" data-name="패스 78" d="M126.095,153.658a8.351,8.351,0,0,0,12.426,11.161c7.026-7.82-3.076-16.632-9.605-20.027C129.777,148.428,128.311,151.186,126.095,153.658Z" transform="translate(-108.627 -44.578)" fill="#bad526" fill-rule="evenodd"/>
          <path id="패스_79" data-name="패스 79" d="M143.453,232.9a13.537,13.537,0,1,0,17.975-20.245c-12.741-11.311-26.927,5.144-32.369,15.758C134.943,226.983,139.427,229.333,143.453,232.9Z" transform="translate(-109.423 -54.569)" fill="#bad526" fill-rule="evenodd"/>
          <path id="패스_80" data-name="패스 80" d="M159.56,260.641a11.275,11.275,0,0,0,21.147-7.831c-4.927-13.31-21.8-6.781-29.966-1.114C155.625,252.951,158,256.437,159.56,260.641Z" transform="translate(-112.804 -60.208)" fill="#bad526" fill-rule="evenodd"/>
          <path id="패스_81" data-name="패스 81" d="M175.792,298.336a11.275,11.275,0,0,0,8.109-21.042c-13.243-5.1-19.5,11.875-20.649,21.746C167.423,296.206,171.608,296.728,175.792,298.336Z" transform="translate(-114.756 -65.099)" fill="#94ab13" fill-rule="evenodd"/>
          <path id="패스_82" data-name="패스 82" d="M184.784,331.438a11.275,11.275,0,0,0,8.109-21.041c-13.242-5.1-19.5,11.875-20.648,21.744C176.414,329.309,180.6,329.83,184.784,331.438Z" transform="translate(-116.158 -70.262)" fill="#bad526" fill-rule="evenodd"/>
          <path id="패스_83" data-name="패스 83" d="M195.074,352.518a6.194,6.194,0,0,0,.425-12.38c-7.79-.265-7.985,9.672-6.806,15C190.348,352.917,192.613,352.435,195.074,352.518Z" transform="translate(-118.641 -75.046)" fill="#bad526" fill-rule="evenodd"/>
          <path id="패스_84" data-name="패스 84" d="M164.219,320.439a6.194,6.194,0,1,0,.423-12.381c-7.789-.266-7.985,9.673-6.8,15C159.494,320.837,161.759,320.357,164.219,320.439Z" transform="translate(-113.828 -70.042)" fill="#94ab13" fill-rule="evenodd"/>
          <path id="패스_85" data-name="패스 85" d="M136.675,283.118a11.275,11.275,0,0,0,21.147-7.83c-4.927-13.31-21.8-6.779-29.966-1.114C132.741,275.429,135.115,278.914,136.675,283.118Z" transform="translate(-109.235 -63.714)" fill="#bad526" fill-rule="evenodd"/>
          <path id="패스_86" data-name="패스 86" d="M127.8,255.75a8.351,8.351,0,1,0,10.566-12.936c-8.141-6.649-16.468,3.853-19.553,10.534C122.4,252.319,125.228,253.652,127.8,255.75Z" transform="translate(-107.825 -59.536)" fill="#bad526" fill-rule="evenodd"/>
          <path id="패스_87" data-name="패스 87" d="M122.126,218.681a6.193,6.193,0,1,0,.424-12.379c-7.79-.266-7.985,9.672-6.805,15C117.4,219.081,119.667,218.6,122.126,218.681Z" transform="translate(-107.263 -54.171)" fill="#bad526" fill-rule="evenodd"/>
        </g>
        <g id="그룹_13" data-name="그룹 13" transform="translate(225.134 204.581)">
          <path id="패스_49-2" data-name="패스 49" d="M432.618,264.624c11.781,0,21.333,5.753,21.333,16.439s-9.551,22.262-21.333,22.262-21.333-11.574-21.333-22.262S420.836,264.624,432.618,264.624Z" transform="translate(-411.285 -243.69)" fill="#eb1b20" fill-rule="evenodd"/>
          <path id="패스_50-2" data-name="패스 50" d="M419.766,236.314c9.813,2.843,16.285,8.6,16.035,20.2,3.053-8.682,11.948-8.844,20.9-9.92-.662,12.275-6.7,15.7-21.969,12.718C422.356,258.708,417.7,250.717,419.766,236.314Z" transform="translate(-413.372 -236.314)" fill="#5e631f" fill-rule="evenodd"/>
        </g>
        <g id="그룹_18-2" data-name="그룹 18" transform="translate(73.811 220.371)">
          <path id="패스_63-2" data-name="패스 63" d="M564.944,299.417c7.477,0,13.54,3.651,13.54,10.434s-6.063,14.131-13.54,14.131S551.4,316.634,551.4,309.851,557.466,299.417,564.944,299.417Z" transform="translate(-551.403 -286.129)" fill="#eb1b20" fill-rule="evenodd"/>
          <path id="패스_64-2" data-name="패스 64" d="M556.787,281.447c6.228,1.8,10.337,5.456,10.177,12.824,1.938-5.511,7.584-5.614,13.27-6.3-.421,7.792-4.251,9.968-13.945,8.073C558.43,295.66,555.478,290.589,556.787,281.447Z" transform="translate(-552.728 -281.447)" fill="#5e631f" fill-rule="evenodd"/>
        </g>
        <g id="그룹_17" data-name="그룹 17" transform="translate(174.61 48.426)">
          <path id="패스_57-2" data-name="패스 57" d="M519.211,117.293c10.082,0,18.255,4.922,18.255,14.067s-8.174,19.05-18.255,19.05-18.255-9.9-18.255-19.05S509.129,117.293,519.211,117.293Z" transform="translate(-500.957 -99.379)" fill="#eb1b20" fill-rule="evenodd"/>
          <path id="패스_58-2" data-name="패스 58" d="M508.214,93.067c8.4,2.433,13.935,7.356,13.721,17.289,2.612-7.43,10.223-7.568,17.889-8.488-.566,10.5-5.731,13.439-18.8,10.883C510.429,112.23,506.45,105.392,508.214,93.067Z" transform="translate(-502.743 -93.067)" fill="#5e631f" fill-rule="evenodd"/>
        </g>
        <g id="그룹_15-2" data-name="그룹 15" transform="translate(246.801 120.087)">
          <path id="패스_53-2" data-name="패스 53" d="M353.911,195.407c7.948,0,14.392,3.88,14.392,11.089s-6.444,15.018-14.392,15.018S339.52,213.706,339.52,206.5,345.963,195.407,353.911,195.407Z" transform="translate(-339.52 -181.285)" fill="#eb1b20" fill-rule="evenodd"/>
          <path id="패스_54-2" data-name="패스 54" d="M345.242,176.309c6.62,1.917,10.986,5.8,10.816,13.629,2.061-5.857,8.061-5.967,14.1-6.692-.447,8.28-4.518,10.595-14.82,8.58C346.988,191.415,343.851,186.025,345.242,176.309Z" transform="translate(-340.928 -176.309)" fill="#5e631f" fill-rule="evenodd"/>
        </g>
        <g id="그룹_15-3" data-name="그룹 15" transform="translate(101.316 21.799)">
          <path id="패스_53-3" data-name="패스 53" d="M353.911,195.407c7.948,0,14.392,3.88,14.392,11.089s-6.444,15.018-14.392,15.018S339.52,213.706,339.52,206.5,345.963,195.407,353.911,195.407Z" transform="translate(-339.52 -181.285)" fill="#eb1b20" fill-rule="evenodd"/>
          <path id="패스_54-3" data-name="패스 54" d="M345.242,176.309c6.62,1.917,10.986,5.8,10.816,13.629,2.061-5.857,8.061-5.967,14.1-6.692-.447,8.28-4.518,10.595-14.82,8.58C346.988,191.415,343.851,186.025,345.242,176.309Z" transform="translate(-340.928 -176.309)" fill="#5e631f" fill-rule="evenodd"/>
        </g>
        <g id="그룹_14" data-name="그룹 14" transform="translate(38.486 132.645)">
          <path id="패스_51-3" data-name="패스 51" d="M301.605,241.378c9.6,0,17.391,4.69,17.391,13.4s-7.786,18.147-17.391,18.147-17.39-9.435-17.39-18.147S292,241.378,301.605,241.378Z" transform="translate(-284.215 -224.313)" fill="#eb1b20" fill-rule="evenodd"/>
          <path id="패스_52-2" data-name="패스 52" d="M291.13,218.3c8,2.318,13.275,7.007,13.07,16.47,2.489-7.078,9.74-7.21,17.041-8.087-.539,10.006-5.458,12.8-17.908,10.368C293.241,236.555,289.448,230.042,291.13,218.3Z" transform="translate(-285.916 -218.3)" fill="#5e631f" fill-rule="evenodd"/>
        </g>
      </g>
      <path id="패스_852" data-name="패스 852" d="M0,240.111" transform="translate(730.957 589.238)" fill="#fff" stroke="#4c2007" stroke-linecap="round" stroke-width="4"/>
      <g id="그룹_446" data-name="그룹 446" transform="translate(1184.664 694.5)">
        <path id="패스_27-2" data-name="패스 27" d="M152.4,224.327a22.768,22.768,0,0,1,21.089,31.154A22.763,22.763,0,0,1,152.4,224.327Z" transform="translate(-116.983 -224.327)" fill="#99bd14" fill-rule="evenodd"/>
        <path id="패스_28-2" data-name="패스 28" d="M167.339,253.947l7.378-26.688,5.661,6.975-11.018,21.531Z" transform="translate(-112.377 -223.51)" fill="#92410c" fill-rule="evenodd"/>
        <path id="패스_29-2" data-name="패스 29" d="M165.316,245.917a31.565,31.565,0,0,1,12.827,2.779,31.533,31.533,0,0,1,12.823-2.779c19.2,0,33.468,18.288,31.855,40.842S204.336,327.6,185.131,327.6a29.192,29.192,0,0,1-6.988-.84,29.263,29.263,0,0,1-6.992.84c-19.2,0-36.081-18.287-37.692-40.841S146.111,245.917,165.316,245.917Z" transform="translate(-121.848 -218.314)" fill="#fe350b" fill-rule="evenodd"/>
        <path id="패스_30-2" data-name="패스 30" d="M161.829,249.24c12.9,0,22.741,12.129,21.984,27.092s-11.826,27.093-24.723,27.093-22.737-12.129-21.983-27.093S148.934,249.24,161.829,249.24Z" transform="translate(-120.808 -217.388)" fill="#fd471d" fill-rule="evenodd"/>
        <path id="패스_31-2" data-name="패스 31" d="M186.861,243.9a22.767,22.767,0,0,1,21.089,31.154A22.766,22.766,0,0,1,186.861,243.9Z" transform="translate(-107.386 -218.875)" fill="#99bd14" fill-rule="evenodd"/>
        <path id="패스_32-2" data-name="패스 32" d="M201.8,273.52l7.381-26.686,5.661,6.973-11.02,21.534Z" transform="translate(-102.78 -218.059)" fill="#92410c" fill-rule="evenodd"/>
        <path id="패스_33-2" data-name="패스 33" d="M199.775,265.491a31.553,31.553,0,0,1,12.825,2.78,31.542,31.542,0,0,1,12.823-2.78c19.2,0,33.468,18.287,31.857,40.841s-18.485,40.842-37.692,40.842a29.162,29.162,0,0,1-6.988-.84,29.186,29.186,0,0,1-6.992.84c-19.2,0-36.08-18.285-37.692-40.842S180.571,265.491,199.775,265.491Z" transform="translate(-112.251 -212.862)" fill="#df1901" fill-rule="evenodd"/>
        <path id="패스_34-2" data-name="패스 34" d="M196.287,268.814c12.9,0,22.74,12.129,21.983,27.093S206.446,323,193.547,323s-22.735-12.129-21.98-27.093S183.391,268.814,196.287,268.814Z" transform="translate(-111.211 -211.937)" fill="#fd471d" fill-rule="evenodd"/>
        <path id="패스_35-2" data-name="패스 35" d="M162.192,293.4a22.765,22.765,0,0,1,21.09,31.152,22.764,22.764,0,0,1-21.09-31.152Z" transform="translate(-114.257 -205.089)" fill="#99bd14" fill-rule="evenodd"/>
        <path id="패스_36-2" data-name="패스 36" d="M177.128,323.022l7.378-26.69,5.662,6.978-11.019,21.529Z" transform="translate(-109.651 -204.273)" fill="#92410c" fill-rule="evenodd"/>
        <path id="패스_37-2" data-name="패스 37" d="M175.1,314.993a31.54,31.54,0,0,1,12.825,2.776,31.549,31.549,0,0,1,12.825-2.776c19.2,0,33.468,18.284,31.857,40.838s-18.487,40.841-37.692,40.841a29.187,29.187,0,0,1-6.99-.841,29.163,29.163,0,0,1-6.99.841c-19.2,0-36.081-18.284-37.692-40.841S155.9,314.993,175.1,314.993Z" transform="translate(-119.121 -199.075)" fill="#e92001" fill-rule="evenodd"/>
        <path id="패스_38-2" data-name="패스 38" d="M171.62,318.314c12.894,0,22.737,12.131,21.983,27.092s-11.825,27.09-24.724,27.09-22.737-12.128-21.983-27.09S158.723,318.314,171.62,318.314Z" transform="translate(-118.082 -198.15)" fill="#fd471d" fill-rule="evenodd"/>
        <path id="패스_39-2" data-name="패스 39" d="M304.2,228.242A22.767,22.767,0,0,1,325.289,259.4,22.762,22.762,0,0,1,304.2,228.242Z" transform="translate(-74.706 -223.237)" fill="#99bd14" fill-rule="evenodd"/>
        <path id="패스_40-2" data-name="패스 40" d="M319.135,257.863l7.379-26.688,5.662,6.975-11.02,21.532Z" transform="translate(-70.1 -222.42)" fill="#92410c" fill-rule="evenodd"/>
        <path id="패스_41-2" data-name="패스 41" d="M317.112,249.834a31.561,31.561,0,0,1,12.825,2.776,31.571,31.571,0,0,1,12.825-2.776c19.2,0,33.47,18.285,31.858,40.841s-18.487,40.84-37.692,40.84a29.174,29.174,0,0,1-6.991-.84,29.147,29.147,0,0,1-6.99.84c-19.206,0-36.081-18.283-37.692-40.84S297.907,249.834,317.112,249.834Z" transform="translate(-79.57 -217.223)" fill="#fe350b" fill-rule="evenodd"/>
        <path id="패스_42-2" data-name="패스 42" d="M313.625,253.157c12.9,0,22.738,12.129,21.984,27.094s-11.826,27.09-24.723,27.09-22.737-12.131-21.984-27.09S300.728,253.157,313.625,253.157Z" transform="translate(-78.531 -216.297)" fill="#fd471d" fill-rule="evenodd"/>
        <path id="패스_43-2" data-name="패스 43" d="M260.87,241.842A22.771,22.771,0,0,1,281.96,273a22.763,22.763,0,0,1-21.09-31.154Z" transform="translate(-86.773 -219.449)" fill="#99bd14" fill-rule="evenodd"/>
        <path id="패스_44-3" data-name="패스 44" d="M275.806,271.464l7.378-26.688,5.662,6.973-11.018,21.534Z" transform="translate(-82.167 -218.632)" fill="#92410c" fill-rule="evenodd"/>
        <path id="패스_45-2" data-name="패스 45" d="M273.781,263.435a31.546,31.546,0,0,1,12.826,2.776,31.538,31.538,0,0,1,12.822-2.776c19.208,0,33.47,18.284,31.859,40.838S312.8,345.114,293.6,345.114a29.085,29.085,0,0,1-6.99-.84,29.117,29.117,0,0,1-6.991.84c-19.2,0-36.08-18.284-37.691-40.841S254.577,263.435,273.781,263.435Z" transform="translate(-91.638 -213.435)" fill="#df1901" fill-rule="evenodd"/>
        <path id="패스_46-3" data-name="패스 46" d="M270.3,266.755c12.9,0,22.737,12.131,21.984,27.093s-11.827,27.094-24.723,27.094-22.737-12.131-21.984-27.094S257.4,266.755,270.3,266.755Z" transform="translate(-90.599 -212.51)" fill="#fd471d" fill-rule="evenodd"/>
        <path id="패스_47-2" data-name="패스 47" d="M239.952,288.6A22.761,22.761,0,0,1,253.239,323.8,22.768,22.768,0,0,1,239.952,288.6Z" transform="translate(-93.303 -206.425)" fill="#99bd14" fill-rule="evenodd"/>
        <path id="패스_48-2" data-name="패스 48" d="M248.4,320.586l13.37-24.246,3.887,8.1-15.713,18.389Z" transform="translate(-89.801 -204.271)" fill="#92410c" fill-rule="evenodd"/>
        <path id="패스_49-3" data-name="패스 49" d="M249.126,311.238a31.628,31.628,0,0,1,11.831,5.675,31.567,31.567,0,0,1,13.115.276c18.682,4.46,28.313,25.554,21.512,47.118s-27.459,35.435-46.142,30.981a29.348,29.348,0,0,1-6.6-2.441,29.428,29.428,0,0,1-6.995-.8c-18.68-4.457-30.853-26.158-27.185-48.472S230.444,306.783,249.126,311.238Z" transform="translate(-101.05 -200.345)" fill="#fe350b" fill-rule="evenodd"/>
        <path id="패스_50-3" data-name="패스 50" d="M244.415,313.974c12.545,2.993,19.3,17.076,15.1,31.453s-17.788,23.609-30.331,20.616-19.3-17.073-15.1-31.453S231.869,310.981,244.415,313.974Z" transform="translate(-99.706 -199.516)" fill="#fd471d" fill-rule="evenodd"/>
        <path id="패스_51-4" data-name="패스 51" d="M284.588,291.169a22.767,22.767,0,0,1,25.036,28.083,22.768,22.768,0,0,1-25.036-28.083Z" transform="translate(-79.909 -205.763)" fill="#99bd14" fill-rule="evenodd"/>
        <path id="패스_52-3" data-name="패스 52" d="M302.749,318.672l3.777-27.428,6.536,6.162-8.069,22.8Z" transform="translate(-74.663 -205.69)" fill="#92410c" fill-rule="evenodd"/>
        <path id="패스_53-4" data-name="패스 53" d="M299.463,312.493a31.518,31.518,0,0,1,13.075,1.052,31.55,31.55,0,0,1,12.345-4.453c19.033-2.547,35.6,13.686,36.99,36.256s-12.908,42.931-31.942,45.477a29.215,29.215,0,0,1-7.039.092,29.143,29.143,0,0,1-6.817,1.76c-19.037,2.547-38.185-13.34-42.775-35.481S280.423,315.039,299.463,312.493Z" transform="translate(-83.142 -200.792)" fill="#e92001" fill-rule="evenodd"/>
        <path id="패스_54-4" data-name="패스 54" d="M296.666,315.28c12.784-1.709,24.147,9.01,25.382,23.939s-8.128,28.421-20.909,30.13-24.146-9.007-25.382-23.935S283.883,316.989,296.666,315.28Z" transform="translate(-82.211 -199.045)" fill="#fd471d" fill-rule="evenodd"/>
        <path id="패스_55-2" data-name="패스 55" d="M222.917,227.3a22.768,22.768,0,0,1,21.092,31.154A22.765,22.765,0,0,1,222.917,227.3Z" transform="translate(-97.344 -223.5)" fill="#99bd14" fill-rule="evenodd"/>
        <path id="패스_56-2" data-name="패스 56" d="M237.855,256.914l7.378-26.688,5.66,6.975-11.019,21.534Z" transform="translate(-92.737 -222.684)" fill="#92410c" fill-rule="evenodd"/>
        <path id="패스_57-3" data-name="패스 57" d="M235.831,248.885a31.541,31.541,0,0,1,12.822,2.78,31.558,31.558,0,0,1,12.826-2.78c19.2,0,33.468,18.287,31.858,40.841s-18.486,40.842-37.692,40.842a29.324,29.324,0,0,1-6.992-.84,29.282,29.282,0,0,1-6.987.84c-19.207,0-36.081-18.285-37.692-40.842S216.625,248.885,235.831,248.885Z" transform="translate(-102.208 -217.487)" fill="#fe350b" fill-rule="evenodd"/>
        <path id="패스_58-3" data-name="패스 58" d="M232.342,252.208c12.9,0,22.738,12.129,21.982,27.093s-11.822,27.093-24.718,27.093-22.741-12.131-21.983-27.093S219.444,252.208,232.342,252.208Z" transform="translate(-101.169 -216.562)" fill="#fd471d" fill-rule="evenodd"/>
        <path id="패스_853" data-name="패스 853" d="M160.53,27.835h0Z" transform="translate(76.826 209.087)" fill="#90786d"/>
        <path id="패스_63-3" data-name="패스 63" d="M417.917,329.332H129.765l4.044,38.009h280.07l4.039-38.009ZM412.5,380.281H135.183l4.04,38.01h269.24l4.04-38.01Zm10.833-101.9H124.35l4.04,38.009H419.3Z" transform="translate(-124.35 -209.272)" fill="#92410c" fill-rule="evenodd"/>
        <path id="패스_64-3" data-name="패스 64" d="M372.359,329.332H304.837L324.2,367.341h67.521l-19.363-38.009Zm-128.034,0H141.133l19.361,38.009H263.685l-19.361-38.009ZM346.4,278.383l19.364,38.009h-67.52l-19.363-38.009Zm51.909,101.9,11.741,23.048-1.589,14.962H350.156l-19.364-38.01Zm-179.939-101.9,19.361,38.009H134.54l-7.77-15.257-2.42-22.752Zm51.905,101.9,19.366,38.01H186.451l-19.363-38.01Z" transform="translate(-124.35 -209.272)" fill="#ae4f10" fill-rule="evenodd"/>
      </g>
      <g id="그룹_447" data-name="그룹 447" transform="translate(1580.306 694.5)">
        <path id="패스_27-3" data-name="패스 27" d="M152.4,224.327a22.768,22.768,0,0,1,21.089,31.154A22.763,22.763,0,0,1,152.4,224.327Z" transform="translate(-116.983 -224.327)" fill="#99bd14" fill-rule="evenodd"/>
        <path id="패스_28-3" data-name="패스 28" d="M167.339,253.947l7.378-26.688,5.661,6.975-11.018,21.531Z" transform="translate(-112.377 -223.51)" fill="#92410c" fill-rule="evenodd"/>
        <path id="패스_29-3" data-name="패스 29" d="M165.316,245.917a31.565,31.565,0,0,1,12.827,2.779,31.533,31.533,0,0,1,12.823-2.779c19.2,0,33.468,18.288,31.855,40.842S204.336,327.6,185.131,327.6a29.192,29.192,0,0,1-6.988-.84,29.263,29.263,0,0,1-6.992.84c-19.2,0-36.081-18.287-37.692-40.841S146.111,245.917,165.316,245.917Z" transform="translate(-121.848 -218.314)" fill="#fe350b" fill-rule="evenodd"/>
        <path id="패스_30-3" data-name="패스 30" d="M161.829,249.24c12.9,0,22.741,12.129,21.984,27.092s-11.826,27.093-24.723,27.093-22.737-12.129-21.983-27.093S148.934,249.24,161.829,249.24Z" transform="translate(-120.808 -217.388)" fill="#fd471d" fill-rule="evenodd"/>
        <path id="패스_31-3" data-name="패스 31" d="M186.861,243.9a22.767,22.767,0,0,1,21.089,31.154A22.766,22.766,0,0,1,186.861,243.9Z" transform="translate(-107.386 -218.875)" fill="#99bd14" fill-rule="evenodd"/>
        <path id="패스_32-3" data-name="패스 32" d="M201.8,273.52l7.381-26.686,5.661,6.973-11.02,21.534Z" transform="translate(-102.78 -218.059)" fill="#92410c" fill-rule="evenodd"/>
        <path id="패스_33-3" data-name="패스 33" d="M199.775,265.491a31.553,31.553,0,0,1,12.825,2.78,31.542,31.542,0,0,1,12.823-2.78c19.2,0,33.468,18.287,31.857,40.841s-18.485,40.842-37.692,40.842a29.162,29.162,0,0,1-6.988-.84,29.186,29.186,0,0,1-6.992.84c-19.2,0-36.08-18.285-37.692-40.842S180.571,265.491,199.775,265.491Z" transform="translate(-112.251 -212.862)" fill="#df1901" fill-rule="evenodd"/>
        <path id="패스_34-3" data-name="패스 34" d="M196.287,268.814c12.9,0,22.74,12.129,21.983,27.093S206.446,323,193.547,323s-22.735-12.129-21.98-27.093S183.391,268.814,196.287,268.814Z" transform="translate(-111.211 -211.937)" fill="#fd471d" fill-rule="evenodd"/>
        <path id="패스_35-3" data-name="패스 35" d="M162.192,293.4a22.765,22.765,0,0,1,21.09,31.152,22.764,22.764,0,0,1-21.09-31.152Z" transform="translate(-114.257 -205.089)" fill="#99bd14" fill-rule="evenodd"/>
        <path id="패스_36-3" data-name="패스 36" d="M177.128,323.022l7.378-26.69,5.662,6.978-11.019,21.529Z" transform="translate(-109.651 -204.273)" fill="#92410c" fill-rule="evenodd"/>
        <path id="패스_37-3" data-name="패스 37" d="M175.1,314.993a31.54,31.54,0,0,1,12.825,2.776,31.549,31.549,0,0,1,12.825-2.776c19.2,0,33.468,18.284,31.857,40.838s-18.487,40.841-37.692,40.841a29.187,29.187,0,0,1-6.99-.841,29.163,29.163,0,0,1-6.99.841c-19.2,0-36.081-18.284-37.692-40.841S155.9,314.993,175.1,314.993Z" transform="translate(-119.121 -199.075)" fill="#e92001" fill-rule="evenodd"/>
        <path id="패스_38-3" data-name="패스 38" d="M171.62,318.314c12.894,0,22.737,12.131,21.983,27.092s-11.825,27.09-24.724,27.09-22.737-12.128-21.983-27.09S158.723,318.314,171.62,318.314Z" transform="translate(-118.082 -198.15)" fill="#fd471d" fill-rule="evenodd"/>
        <path id="패스_39-3" data-name="패스 39" d="M304.2,228.242A22.767,22.767,0,0,1,325.289,259.4,22.762,22.762,0,0,1,304.2,228.242Z" transform="translate(-74.706 -223.237)" fill="#99bd14" fill-rule="evenodd"/>
        <path id="패스_40-3" data-name="패스 40" d="M319.135,257.863l7.379-26.688,5.662,6.975-11.02,21.532Z" transform="translate(-70.1 -222.42)" fill="#92410c" fill-rule="evenodd"/>
        <path id="패스_41-3" data-name="패스 41" d="M317.112,249.834a31.561,31.561,0,0,1,12.825,2.776,31.571,31.571,0,0,1,12.825-2.776c19.2,0,33.47,18.285,31.858,40.841s-18.487,40.84-37.692,40.84a29.174,29.174,0,0,1-6.991-.84,29.147,29.147,0,0,1-6.99.84c-19.206,0-36.081-18.283-37.692-40.84S297.907,249.834,317.112,249.834Z" transform="translate(-79.57 -217.223)" fill="#fe350b" fill-rule="evenodd"/>
        <path id="패스_42-3" data-name="패스 42" d="M313.625,253.157c12.9,0,22.738,12.129,21.984,27.094s-11.826,27.09-24.723,27.09-22.737-12.131-21.984-27.09S300.728,253.157,313.625,253.157Z" transform="translate(-78.531 -216.297)" fill="#fd471d" fill-rule="evenodd"/>
        <path id="패스_43-3" data-name="패스 43" d="M260.87,241.842A22.771,22.771,0,0,1,281.96,273a22.763,22.763,0,0,1-21.09-31.154Z" transform="translate(-86.773 -219.449)" fill="#99bd14" fill-rule="evenodd"/>
        <path id="패스_44-4" data-name="패스 44" d="M275.806,271.464l7.378-26.688,5.662,6.973-11.018,21.534Z" transform="translate(-82.167 -218.632)" fill="#92410c" fill-rule="evenodd"/>
        <path id="패스_45-3" data-name="패스 45" d="M273.781,263.435a31.546,31.546,0,0,1,12.826,2.776,31.538,31.538,0,0,1,12.822-2.776c19.208,0,33.47,18.284,31.859,40.838S312.8,345.114,293.6,345.114a29.085,29.085,0,0,1-6.99-.84,29.117,29.117,0,0,1-6.991.84c-19.2,0-36.08-18.284-37.691-40.841S254.577,263.435,273.781,263.435Z" transform="translate(-91.638 -213.435)" fill="#df1901" fill-rule="evenodd"/>
        <path id="패스_46-4" data-name="패스 46" d="M270.3,266.755c12.9,0,22.737,12.131,21.984,27.093s-11.827,27.094-24.723,27.094-22.737-12.131-21.984-27.094S257.4,266.755,270.3,266.755Z" transform="translate(-90.599 -212.51)" fill="#fd471d" fill-rule="evenodd"/>
        <path id="패스_47-3" data-name="패스 47" d="M239.952,288.6A22.761,22.761,0,0,1,253.239,323.8,22.768,22.768,0,0,1,239.952,288.6Z" transform="translate(-93.303 -206.425)" fill="#99bd14" fill-rule="evenodd"/>
        <path id="패스_48-3" data-name="패스 48" d="M248.4,320.586l13.37-24.246,3.887,8.1-15.713,18.389Z" transform="translate(-89.801 -204.271)" fill="#92410c" fill-rule="evenodd"/>
        <path id="패스_49-4" data-name="패스 49" d="M249.126,311.238a31.628,31.628,0,0,1,11.831,5.675,31.567,31.567,0,0,1,13.115.276c18.682,4.46,28.313,25.554,21.512,47.118s-27.459,35.435-46.142,30.981a29.348,29.348,0,0,1-6.6-2.441,29.428,29.428,0,0,1-6.995-.8c-18.68-4.457-30.853-26.158-27.185-48.472S230.444,306.783,249.126,311.238Z" transform="translate(-101.05 -200.345)" fill="#fe350b" fill-rule="evenodd"/>
        <path id="패스_50-4" data-name="패스 50" d="M244.415,313.974c12.545,2.993,19.3,17.076,15.1,31.453s-17.788,23.609-30.331,20.616-19.3-17.073-15.1-31.453S231.869,310.981,244.415,313.974Z" transform="translate(-99.706 -199.516)" fill="#fd471d" fill-rule="evenodd"/>
        <path id="패스_51-5" data-name="패스 51" d="M284.588,291.169a22.767,22.767,0,0,1,25.036,28.083,22.768,22.768,0,0,1-25.036-28.083Z" transform="translate(-79.909 -205.763)" fill="#99bd14" fill-rule="evenodd"/>
        <path id="패스_52-4" data-name="패스 52" d="M302.749,318.672l3.777-27.428,6.536,6.162-8.069,22.8Z" transform="translate(-74.663 -205.69)" fill="#92410c" fill-rule="evenodd"/>
        <path id="패스_53-5" data-name="패스 53" d="M299.463,312.493a31.518,31.518,0,0,1,13.075,1.052,31.55,31.55,0,0,1,12.345-4.453c19.033-2.547,35.6,13.686,36.99,36.256s-12.908,42.931-31.942,45.477a29.215,29.215,0,0,1-7.039.092,29.143,29.143,0,0,1-6.817,1.76c-19.037,2.547-38.185-13.34-42.775-35.481S280.423,315.039,299.463,312.493Z" transform="translate(-83.142 -200.792)" fill="#e92001" fill-rule="evenodd"/>
        <path id="패스_54-5" data-name="패스 54" d="M296.666,315.28c12.784-1.709,24.147,9.01,25.382,23.939s-8.128,28.421-20.909,30.13-24.146-9.007-25.382-23.935S283.883,316.989,296.666,315.28Z" transform="translate(-82.211 -199.045)" fill="#fd471d" fill-rule="evenodd"/>
        <path id="패스_55-3" data-name="패스 55" d="M222.917,227.3a22.768,22.768,0,0,1,21.092,31.154A22.765,22.765,0,0,1,222.917,227.3Z" transform="translate(-97.344 -223.5)" fill="#99bd14" fill-rule="evenodd"/>
        <path id="패스_56-3" data-name="패스 56" d="M237.855,256.914l7.378-26.688,5.66,6.975-11.019,21.534Z" transform="translate(-92.737 -222.684)" fill="#92410c" fill-rule="evenodd"/>
        <path id="패스_57-4" data-name="패스 57" d="M235.831,248.885a31.541,31.541,0,0,1,12.822,2.78,31.558,31.558,0,0,1,12.826-2.78c19.2,0,33.468,18.287,31.858,40.841s-18.486,40.842-37.692,40.842a29.324,29.324,0,0,1-6.992-.84,29.282,29.282,0,0,1-6.987.84c-19.207,0-36.081-18.285-37.692-40.842S216.625,248.885,235.831,248.885Z" transform="translate(-102.208 -217.487)" fill="#fe350b" fill-rule="evenodd"/>
        <path id="패스_58-4" data-name="패스 58" d="M232.342,252.208c12.9,0,22.738,12.129,21.982,27.093s-11.822,27.093-24.718,27.093-22.741-12.131-21.983-27.093S219.444,252.208,232.342,252.208Z" transform="translate(-101.169 -216.562)" fill="#fd471d" fill-rule="evenodd"/>
        <path id="패스_853-2" data-name="패스 853" d="M160.53,27.835h0Z" transform="translate(76.826 209.087)" fill="#90786d"/>
        <path id="패스_63-4" data-name="패스 63" d="M417.917,329.332H129.765l4.044,38.009h280.07l4.039-38.009ZM412.5,380.281H135.183l4.04,38.01h269.24l4.04-38.01Zm10.833-101.9H124.35l4.04,38.009H419.3Z" transform="translate(-124.35 -209.272)" fill="#92410c" fill-rule="evenodd"/>
        <path id="패스_64-4" data-name="패스 64" d="M372.359,329.332H304.837L324.2,367.341h67.521l-19.363-38.009Zm-128.034,0H141.133l19.361,38.009H263.685l-19.361-38.009ZM346.4,278.383l19.364,38.009h-67.52l-19.363-38.009Zm51.909,101.9,11.741,23.048-1.589,14.962H350.156l-19.364-38.01Zm-179.939-101.9,19.361,38.009H134.54l-7.77-15.257-2.42-22.752Zm51.905,101.9,19.366,38.01H186.451l-19.363-38.01Z" transform="translate(-124.35 -209.272)" fill="#ae4f10" fill-rule="evenodd"/>
      </g>
      <g id="그룹_478" data-name="그룹 478" transform="translate(514.627 577.454)">
        <path id="패스_27-4" data-name="패스 27" d="M193.928,352.935a239.247,239.247,0,0,1-.955,48.118c-13.073,2.9-15.264,2.274-26.956-3.946,1.637-34-1.865-83.9-4.847-118.363-4.065-46.074-5.089-62.118.44-108.343a195.13,195.13,0,0,0,1.6-32.928c10.106-2.079,13.5-2.248,23.624-.031,1.073,36.595-6.327,64.806-3.576,103.957C185.834,278.064,191.117,315.676,193.928,352.935Z" transform="translate(-26.663 -135.845)" fill="#6e3105" fill-rule="evenodd"/>
        <path id="패스_31-4" data-name="패스 31" d="M62.983,175.569c15.125-3.649,27.839-2.317,40.873-.425l.2,23.656,7.018-22.587a180.418,180.418,0,0,0,23.733,2.267c21.883.259,37.477-4.492,57.555-5.276,6.5,0,12.937.346,19.412.734h0l.551,16.182,6.668-15.744c6.873.4,13.827.742,20.973.666,18.123-.191,35.376-1.012,53.381-1.558l1.2,21.231,4.6-21.237c7.56.191,15.318,1.079,22.713,1.849,11.379,1.19,22.7,2.835,34.092,3.884,7.068,15.67,2.181,23.816,1.891,39.721l-41.34,6.936,41.57,3.1c.555,11.8,2,22.245,3.049,34.487.888,12.648-1.436,28.288-4.336,42.882l-20.367-.292,19.017,6.852c-1,4.731-2.025,9.278-2.97,13.491-2.442,9.752-5.922,16.453-8.943,25.688-27.211.051-46.135-.239-69.795-3.531L269.007,332.6l-2.355,14.89c-4.129-.653-8.422-1.4-12.947-2.244-36.04-5.873-60.657.077-95.662,2.431a238.235,238.235,0,0,1-29.025-.381l-2.494-19.292L120.879,346.7c-17.329-1.409-34.768-3.486-52.28-3.483-3.571-25.7,1.376-45.995.988-70.86h0l33.44-.524-33.6-7.155c-.073-8.5.286-16.113.339-24.84C69.916,215.253,58.451,202.292,62.983,175.569Z" transform="translate(-61.922 -153.591)" fill="#ba7c3d" fill-rule="evenodd"/>
      </g>
      <g id="그룹_22" data-name="그룹 22" transform="translate(577.24 812.961)">
        <path id="패스_15" data-name="패스 15" d="M28.635,592.508l30.057-25.9,63.225-8.484,20.73-15.63L182.033,555l9.327,35.279,30.058,15.185L203.8,623.768l-90.174,1.341L56.62,636.273l-37.831-13.4Z" transform="translate(-18.789 -542.492)" fill="#6d554e" fill-rule="evenodd"/>
        <path id="패스_16" data-name="패스 16" d="M182.033,556.965l.518,45.1-10.365,6.255-63.743,2.232L71.648,623.5l-52.86,1.341,37.831,13.4,57.006-11.164,90.174-1.341,17.619-18.307L191.36,592.244Z" transform="translate(-18.789 -544.461)" fill="#59423e" fill-rule="evenodd"/>
      </g>
      <path id="패스_2475" data-name="패스 2475" d="M168.462-.074c93.026,0,144.078-3.341,162.369,7.785,4.095,3.217,19.905,16.689-2.152,20.726-28.336,4.9-107.936,0-160.217,0-56.281,0-143.235,3.327-173.332-2.183-11.3-8.345,4.7-17.436,8.654-19.708C13.391.7,75.436-.074,168.462-.074Z" transform="translate(1463.536 526.622)" fill="#602f0e"/>
      <path id="패스_2500" data-name="패스 2500" d="M168.462-.074c93.026,0,144.078-3.341,162.369,7.785,4.095,3.217,19.905,16.689-2.152,20.726-28.336,4.9-107.936,0-160.217,0-56.281,0-143.235,3.327-173.332-2.183-11.3-8.345,4.7-17.436,8.654-19.708C13.391.7,75.436-.074,168.462-.074Z" transform="translate(1463.536 597.468)" fill="#602f0e"/>
      <g id="그룹_509" data-name="그룹 509" transform="translate(410.79 327.391)">
        <path id="패스_60-2" data-name="패스 60" d="M127.442,366.726c-5.757-5.955-3.551-10.623-12.169-13.182-4.884-1.45-6.308-3.618-9.392-7.628-3.176-4.22-9.8-15.194-10.841-20.02-2.3-10.614,5.221-14.37,7.986-23.472,2.377-7.123,5.3-9.96,9.614-15.829,6.389-8.7,16.1-6.11,20.111-11.556,3.861-5.241-13.8-9.332-.8-19.33,14.583-9.469,21.389,6.606,33.65-6.441,11.251-11.971,5.4-9.543,22-15.713,10.841-4.028,8.7-5.868,21.448-3.668a29.339,29.339,0,0,0,13.09-.258c7.718-1.811,10.711-.968,18.157-1.465,12.051-.8,10.129-1.327,21.708,2.657,8.267,2.666,13.88,2.134,22.129,2.733,11.84,1.184,16.043,8.521,28.592,10.5,13.935,2.2,12.205,7.261,22.148,14.033,12.828,8.429,13,5.195,21.8,19.478,5.8,9.4,11.652,9.359,10.661,22.149-.59,8.086-.331,8.228,2.119,15.637,3.059,9.253-3.45,13.094-7.128,20.68-1.959,4.257-2.781,7.4-5.128,11.712-4.426,8.125-4.429,10.846-14.569,11.446-14.325,1.4-11.392,6.238-19.443,8.1-11.155,1.889-12.545-6.38-20.207,5.71-7.366,11.621-10.679,15.438-24.97,16.088-8.235.375-11.812-1.765-21.338.535a50.636,50.636,0,0,0-8,3.351c-4.6,1.966-9.692,2.913-14.655,4.748-16.756,5.69-14.866,9.042-27.813,16.907-10.88,6.612-13.469.972-23.425-3.063-9.452-3.831-18.364-4.453-27.85-8.865-13.955-7.077-2.978-17.37-7.117-23.818-5.208-8.115-12.615-4.866-19.762-11.575Z" transform="translate(-94.61 -227.601)" fill="#ecbb4b" fill-rule="evenodd"/>
        <path id="패스_61-2" data-name="패스 61" d="M240.411,238.786c70.134,0,126.989,33.095,126.989,73.919-1.051,30.91-20.986,41.528-48.349,47.346-27.066,5.753-28.432,7.839-52.453,19.094-22.839,10.7-41.874,8.117-66.042,2.138-20.1-4.974-37.415-12.692-55.422-22.764-26.636-15.149-44.416-41.093-14.316-64.65,7.33-5.737,15.229-10.577,22.71-16.431C188.888,248.515,191.043,239.541,240.411,238.786Z" transform="translate(-103.339 -232.367)" fill="#dff3f7" fill-rule="evenodd"/>
        <path id="패스_62-2" data-name="패스 62" d="M366.33,311.1a40.026,40.026,0,0,0-.52-6.343c-3.311-20.331-21.424-35.5-38.61-44.682-25.032-13.377-55.53-18.875-83.705-18.7-47.874.3-49.415,9.187-84.3,37.719l-.069.056c-7.369,5.765-15.352,10.671-22.711,16.431-7.814,6.115-15.029,14.608-14.063,25.174,1.3,14.236,16.381,26.145,27.866,32.634,17.428,9.844,34.9,17.529,54.382,22.349,22.841,5.652,41.249,8.465,63.3-1.868,4.788-2.243,9.54-4.55,14.313-6.823,3.518-1.675,7.054-3.319,10.676-4.758,9.109-3.622,18.793-5.781,28.356-7.814C346.747,349.056,365.323,339.833,366.33,311.1Z" transform="translate(-106.395 -233.469)" fill="#4896b3" fill-rule="evenodd"/>
        <path id="패스_65-2" data-name="패스 65" d="M338.31,300.008a27.69,27.69,0,0,0-.361-4.409c-2.3-14.132-14.893-24.675-26.838-31.058-17.4-9.3-38.6-13.119-58.183-13-33.276.211-34.348,6.386-58.594,26.218l-.048.038c-5.122,4.008-10.671,7.418-15.786,11.421-5.432,4.251-10.447,10.155-9.775,17.5.905,9.9,11.386,18.173,19.369,22.684,12.114,6.844,24.259,12.184,37.8,15.535,15.876,3.928,28.67,5.884,44-1.3,3.327-1.559,6.631-3.163,9.948-4.743,2.445-1.164,4.9-2.307,7.42-3.308a121.566,121.566,0,0,1,19.712-5.431C324.7,326.393,337.61,319.982,338.31,300.008Z" transform="translate(-126.166 -237.803)" fill="#3b81a5" fill-rule="evenodd"/>
        <g id="그룹_4" data-name="그룹 4" transform="translate(111.82 144.353)">
          <path id="패스_69-2" data-name="패스 69" d="M289.663,490.137c1.942-6.328,9.389-13.687,16.225-10.022,2.041,1.094,8.053,6.38,9.189,8.3,2.53,4.289-.891,12.4-5.908,13.344-2.815.528-5.694-.739-8.129-2.01a84.421,84.421,0,0,0-7.707-3.634C290.227,494.831,288.911,493.8,289.663,490.137Z" transform="translate(-289.456 -479.136)" fill="#736a67" fill-rule="evenodd"/>
          <path id="패스_70-2" data-name="패스 70" d="M294.222,487.764c1.667-3.847,4.985-7.583,9.524-7.415,2.553.1,6.187,4.315,7.987,6.158,2.566,2.628,3.795,5.606.231,8.125-3.069,2.17-7.712-.348-11.014-1.242a32.2,32.2,0,0,0-3.215-.6C294.053,492.329,293,491.462,294.222,487.764Z" transform="translate(-291.28 -479.651)" fill="#b1aaa2" fill-rule="evenodd"/>
          <path id="패스_71-2" data-name="패스 71" d="M301.106,490.257c-.962-.083-3.233-.044-3.5-1.255-.246-5.811,9.1-11.027,11.962-2.011,1.32,4.149-3.113,3.624-6.011,3.469-.635-.033-1.257-.09-1.888-.148Z" transform="translate(-292.929 -480.411)" fill="#cdc9c1" fill-rule="evenodd"/>
        </g>
        <path id="패스_72-2" data-name="패스 72" d="M197.712,483.775c4.263-13.884,20.605-30.037,35.609-22,4.481,2.4,17.674,14,20.165,18.227,5.552,9.411-1.954,27.214-12.965,29.284-6.176,1.161-12.494-1.617-17.838-4.41a185.045,185.045,0,0,0-16.915-7.972C198.95,494.08,196.06,491.81,197.712,483.775Z" transform="translate(-138.349 -326.472)" fill="#736a67" fill-rule="evenodd"/>
        <path id="패스_73-2" data-name="패스 73" d="M207.715,478.571c3.657-8.444,10.942-16.643,20.9-16.273,5.606.208,13.58,9.467,17.531,13.514,5.63,5.768,8.327,12.3.508,17.832-6.737,4.762-16.925-.767-24.175-2.728a70.6,70.6,0,0,0-7.055-1.306C207.346,488.588,205.03,486.684,207.715,478.571Z" transform="translate(-142.35 -327.603)" fill="#b1aaa2" fill-rule="evenodd"/>
        <path id="패스_74-2" data-name="패스 74" d="M222.825,484.041c-2.111-.181-7.1-.1-7.675-2.751-.541-12.753,19.961-24.2,26.253-4.415,2.9,9.1-6.833,7.954-13.194,7.614-1.392-.073-2.756-.2-4.142-.327Z" transform="translate(-145.969 -329.271)" fill="#cdc9c1" fill-rule="evenodd"/>
        <g id="그룹_6" data-name="그룹 6" transform="translate(33.84 19.344)">
          <g id="그룹_5" data-name="그룹 5" transform="translate(21.316 4.206)">
            <path id="패스_78-2" data-name="패스 78" d="M190.8,272.771c.729-2.378,3.528-5.144,6.1-3.767a15.794,15.794,0,0,1,3.453,3.121c.951,1.611-.335,4.659-2.22,5.014a4.9,4.9,0,0,1-3.054-.756,31.652,31.652,0,0,0-2.9-1.365C191.009,274.535,190.514,274.146,190.8,272.771Z" transform="translate(-190.719 -268.637)" fill="#736a67" fill-rule="evenodd"/>
            <path id="패스_79-2" data-name="패스 79" d="M192.509,271.88c.626-1.446,1.874-2.85,3.579-2.786.96.036,2.325,1.621,3,2.314.964.988,1.426,2.107.087,3.053-1.154.815-2.9-.131-4.139-.467a11.851,11.851,0,0,0-1.208-.224C192.446,273.6,192.05,273.268,192.509,271.88Z" transform="translate(-191.404 -268.831)" fill="#b1aaa2" fill-rule="evenodd"/>
            <path id="패스_80-2" data-name="패스 80" d="M195.1,272.816c-.362-.03-1.215-.016-1.314-.471-.093-2.184,3.418-4.144,4.495-.756.5,1.559-1.17,1.362-2.259,1.3-.238-.013-.472-.034-.709-.056Z" transform="translate(-192.024 -269.116)" fill="#cdc9c1" fill-rule="evenodd"/>
          </g>
          <path id="패스_81-2" data-name="패스 81" d="M156.244,270.381c1.6-5.218,7.743-11.287,13.38-8.266,1.685.9,6.642,5.263,7.579,6.849,2.087,3.536-.735,10.227-4.872,11-2.321.436-4.695-.608-6.7-1.657a69.431,69.431,0,0,0-6.357-3C156.708,274.253,155.623,273.4,156.244,270.381Z" transform="translate(-154.64 -261.309)" fill="#736a67" fill-rule="evenodd"/>
          <path id="패스_82-2" data-name="패스 82" d="M153.654,285.67c.729-2.378,3.528-5.143,6.1-3.766a15.806,15.806,0,0,1,3.453,3.121c.95,1.611-.335,4.659-2.22,5.014a4.906,4.906,0,0,1-3.054-.755,31.563,31.563,0,0,0-2.9-1.365C153.866,287.434,153.371,287.045,153.654,285.67Z" transform="translate(-153.576 -269.928)" fill="#736a67" fill-rule="evenodd"/>
          <path id="패스_83-2" data-name="패스 83" d="M155.365,284.779c.627-1.446,1.874-2.85,3.579-2.786.96.035,2.325,1.621,3,2.313.964.988,1.426,2.107.087,3.054-1.154.815-2.9-.132-4.139-.467a12.129,12.129,0,0,0-1.208-.224C155.3,286.493,154.906,286.168,155.365,284.779Z" transform="translate(-154.261 -270.121)" fill="#b1aaa2" fill-rule="evenodd"/>
          <path id="패스_84-2" data-name="패스 84" d="M157.954,285.715c-.362-.031-1.215-.016-1.314-.472-.092-2.184,3.418-4.143,4.495-.755.5,1.559-1.17,1.362-2.259,1.3-.238-.013-.472-.034-.709-.056Z" transform="translate(-154.881 -270.407)" fill="#cdc9c1" fill-rule="evenodd"/>
          <path id="패스_85-2" data-name="패스 85" d="M160,268.425c1.374-3.173,4.112-6.254,7.854-6.115,2.106.078,5.1,3.558,6.587,5.078,2.116,2.168,3.129,4.623.191,6.7-2.531,1.789-6.36-.288-9.084-1.025a26.5,26.5,0,0,0-2.651-.491C159.864,272.189,158.993,271.474,160,268.425Z" transform="translate(-156.144 -261.733)" fill="#b1aaa2" fill-rule="evenodd"/>
          <path id="패스_86-2" data-name="패스 86" d="M165.68,270.48c-.793-.068-2.667-.036-2.884-1.034-.2-4.792,7.5-9.1,9.866-1.659,1.088,3.422-2.568,2.989-4.958,2.861-.523-.028-1.035-.074-1.556-.122Z" transform="translate(-157.503 -262.36)" fill="#cdc9c1" fill-rule="evenodd"/>
        </g>
        <path id="패스_100-2" data-name="패스 100" d="M372.863,319.583c5.062,0,9.167,1.244,9.167,2.778s-4.1,2.778-9.167,2.778-9.166-1.244-9.166-2.778,4.1-2.778,9.166-2.778Zm-180.54,39.163c1.687,0,3.055.809,3.055,1.805s-1.368,1.805-3.055,1.805-3.055-.809-3.055-1.805,1.368-1.805,3.055-1.805Zm-.556-20.831c2.3,0,4.166.87,4.166,1.944s-1.865,1.944-4.166,1.944-4.166-.871-4.166-1.944,1.865-1.944,4.166-1.944ZM247.6,356.246c2.607,0,4.721.871,4.721,1.944s-2.114,1.944-4.721,1.944-4.723-.87-4.723-1.944,2.115-1.944,4.723-1.944Zm38.052-49.162c2.3,0,4.166.995,4.166,2.222s-1.866,2.221-4.166,2.221-4.166-.995-4.166-2.221,1.865-2.222,4.166-2.222Zm-1.528,71.383c4.065,0,7.361,1.679,7.361,3.749s-3.3,3.749-7.361,3.749-7.36-1.679-7.36-3.749,3.295-3.749,7.36-3.749Zm71.939-23.61c4.525,0,8.193,1.679,8.193,3.749s-3.668,3.75-8.193,3.75-8.194-1.679-8.194-3.75S351.533,354.857,356.059,354.857Z" transform="translate(-134.235 -261.47)" fill="#9dd8e0" fill-rule="evenodd"/>
      </g>
      <circle id="타원_16" data-name="타원 16" cx="8.208" cy="8.208" r="8.208" transform="translate(656.114 616.011)" fill="#7e725c"/>
      <circle id="타원_20" data-name="타원 20" cx="8.208" cy="8.208" r="8.208" transform="translate(656.115 742.151)" fill="#7e725c"/>
      <path id="패스_32-4" data-name="패스 32" d="M182.092,363.912l11.655,50.914L205.4,465.743H158.784l11.654-50.916Z" transform="translate(22.969 -151.04)" fill="#21340e" fill-rule="evenodd"/>
      <path id="패스_33-4" data-name="패스 33" d="M219.534,317.709l16.222,70.874,16.222,70.874H187.09l16.221-70.874Z" transform="translate(23.043 -144.755)" fill="#2c5a18" fill-rule="evenodd"/>
    </g>
  </g>
</svg>
