<svg xmlns="http://www.w3.org/2000/svg" xmlns:xlink="http://www.w3.org/1999/xlink" width="1920" height="1180" viewBox="0 0 1920 1180">
  <defs>
    <clipPath id="clip-bg">
      <rect width="1920" height="1180"/>
    </clipPath>
  </defs>
  <g id="bg" clip-path="url(#clip-bg)">
    <rect width="1920" height="1180" fill="#fff"/>
    <rect id="사각형_3" data-name="사각형 3" width="1920.857" height="1169.756" transform="translate(-0.857)" fill="#bed9ea"/>
    <g id="그룹_18" data-name="그룹 18" transform="translate(2 107.367)">
      <path id="패스_8" data-name="패스 8" d="M.976,456.6V394.446q138.938-5.373,281.939-5.473c547.266,0,1054.925,60.675,1473.8,164.22C1171.472,448.371,525.7,412.231.976,456.6Z" transform="translate(-0.976 -161.121)" fill="#add912" fill-rule="evenodd"/>
      <path id="패스_7" data-name="패스 7" d="M1920.976,547.411v661.908H.976V394.253q151.936-5.184,308.316-5.28C907.758,388.973,1462.911,447.511,1920.976,547.411Z" transform="translate(-2.976 -125.319)" fill="#84a316" fill-rule="evenodd"/>
    </g>
    <path id="패스_32" data-name="패스 32" d="M182.031,363.912l11.624,58.931,11.622,58.933H158.784l11.624-58.933Z" transform="translate(-158.784 -64.524)" fill="#21340e" fill-rule="evenodd"/>
    <path id="패스_33" data-name="패스 33" d="M219.45,317.709l16.18,82.033,16.18,82.033H187.09l16.179-82.033Z" transform="translate(-158.784 -64.524)" fill="#2c5a18" fill-rule="evenodd"/>
    <g id="그룹_19" data-name="그룹 19" transform="translate(0 89.756)">
      <path id="패스_11" data-name="패스 11" d="M575.816,508.537V661.962H.976V628.041C183.653,517.178,390,486.767,575.816,508.537Z" transform="translate(1342.184 -192)" fill="#add912" fill-rule="evenodd"/>
      <path id="패스_95" data-name="패스 95" d="M660.717,508.537V661.962H.976V628.041C210.633,517.178,447.458,486.767,660.717,508.537Z" transform="translate(1259.283 -178)" fill="#84a316" fill-rule="evenodd"/>
    </g>
    <path id="패스_46" data-name="패스 46" d="M98.648,438.332c6.288,0,11.387,1.7,11.387,3.8s-5.1,3.8-11.387,3.8-11.389-1.7-11.389-3.8,5.1-3.8,11.389-3.8ZM146.59,468.7c5.28,0,9.561,1.637,9.561,3.656s-4.281,3.654-9.561,3.654-9.559-1.637-9.559-3.654,4.28-3.656,9.559-3.656Zm251.952-56.239c5.591,0,10.122,1.89,10.122,4.218s-4.531,4.218-10.122,4.218-10.124-1.889-10.124-4.218,4.533-4.218,10.124-4.218Zm-79.866-39.937c6.216,0,11.255,1.639,11.255,3.66s-5.039,3.658-11.255,3.658-11.255-1.639-11.255-3.658,5.039-3.66,11.255-3.66Zm-178.553.008c3.728,0,6.75,1.2,6.75,2.671s-3.022,2.671-6.75,2.671-6.748-1.2-6.748-2.671,3.021-2.671,6.748-2.671ZM66.31,413.024c3.649,0,6.608,1.133,6.608,2.53s-2.959,2.532-6.608,2.532-6.608-1.133-6.608-2.532S62.661,413.024,66.31,413.024Z" transform="translate(659.868 448)" fill="#99bd14" fill-rule="evenodd"/>
    <path id="패스_97" data-name="패스 97" d="M182.031,363.912l11.624,58.931,11.622,58.933H158.784l11.624-58.933Z" transform="translate(1621.216 -18.321)" fill="#21340e" fill-rule="evenodd"/>
    <path id="패스_98" data-name="패스 98" d="M219.45,317.709l16.18,82.033,16.18,82.033H187.09l16.179-82.033Z" transform="translate(1621.216 -18.321)" fill="#2c5a18" fill-rule="evenodd"/>
    <path id="패스_99" data-name="패스 99" d="M98.648,438.332c6.288,0,11.387,1.7,11.387,3.8s-5.1,3.8-11.387,3.8-11.389-1.7-11.389-3.8,5.1-3.8,11.389-3.8ZM146.59,468.7c5.28,0,9.561,1.637,9.561,3.656s-4.281,3.654-9.561,3.654-9.559-1.637-9.559-3.654,4.28-3.656,9.559-3.656Zm251.952-56.239c5.591,0,10.122,1.89,10.122,4.218s-4.531,4.218-10.122,4.218-10.124-1.889-10.124-4.218,4.533-4.218,10.124-4.218Zm-79.866-39.937c6.216,0,11.255,1.639,11.255,3.66s-5.039,3.658-11.255,3.658-11.255-1.639-11.255-3.658,5.039-3.66,11.255-3.66Zm-178.553.008c3.728,0,6.75,1.2,6.75,2.671s-3.022,2.671-6.75,2.671-6.748-1.2-6.748-2.671,3.021-2.671,6.748-2.671ZM66.31,413.024c3.649,0,6.608,1.133,6.608,2.53s-2.959,2.532-6.608,2.532-6.608-1.133-6.608-2.532S62.661,413.024,66.31,413.024Z" transform="translate(1432.002 172.387)" fill="#99bd14" fill-rule="evenodd"/>
    <path id="패스_100" data-name="패스 100" d="M98.648,438.332c6.288,0,11.387,1.7,11.387,3.8s-5.1,3.8-11.387,3.8-11.389-1.7-11.389-3.8,5.1-3.8,11.389-3.8ZM146.59,468.7c5.28,0,9.561,1.637,9.561,3.656s-4.281,3.654-9.561,3.654-9.559-1.637-9.559-3.654,4.28-3.656,9.559-3.656Zm251.952-56.239c5.591,0,10.122,1.89,10.122,4.218s-4.531,4.218-10.122,4.218-10.124-1.889-10.124-4.218,4.533-4.218,10.124-4.218Zm-79.866-39.937c6.216,0,11.255,1.639,11.255,3.66s-5.039,3.658-11.255,3.658-11.255-1.639-11.255-3.658,5.039-3.66,11.255-3.66Zm-178.553.008c3.728,0,6.75,1.2,6.75,2.671s-3.022,2.671-6.75,2.671-6.748-1.2-6.748-2.671,3.021-2.671,6.748-2.671ZM66.31,413.024c3.649,0,6.608,1.133,6.608,2.53s-2.959,2.532-6.608,2.532-6.608-1.133-6.608-2.532S62.661,413.024,66.31,413.024Z" transform="translate(742.211 90.93)" fill="#99bd14" fill-rule="evenodd"/>
    <path id="패스_101" data-name="패스 101" d="M98.648,438.332c6.288,0,11.387,1.7,11.387,3.8s-5.1,3.8-11.387,3.8-11.389-1.7-11.389-3.8,5.1-3.8,11.389-3.8ZM146.59,468.7c5.28,0,9.561,1.637,9.561,3.656s-4.281,3.654-9.561,3.654-9.559-1.637-9.559-3.654,4.28-3.656,9.559-3.656Zm251.952-56.239c5.591,0,10.122,1.89,10.122,4.218s-4.531,4.218-10.122,4.218-10.124-1.889-10.124-4.218,4.533-4.218,10.124-4.218Zm-79.866-39.937c6.216,0,11.255,1.639,11.255,3.66s-5.039,3.658-11.255,3.658-11.255-1.639-11.255-3.658,5.039-3.66,11.255-3.66Zm-178.553.008c3.728,0,6.75,1.2,6.75,2.671s-3.022,2.671-6.75,2.671-6.748-1.2-6.748-2.671,3.021-2.671,6.748-2.671ZM66.31,413.024c3.649,0,6.608,1.133,6.608,2.53s-2.959,2.532-6.608,2.532-6.608-1.133-6.608-2.532S62.661,413.024,66.31,413.024Z" transform="matrix(1, 0.017, -0.017, 1, 9.28, 3.647)" fill="#99bd14" fill-rule="evenodd"/>
    <g id="그룹_15" data-name="그룹 15" transform="translate(1134.025 56.663)">
      <circle id="타원_1" data-name="타원 1" cx="189.273" cy="189.273" r="189.273" transform="translate(108.996 73.685) rotate(-7.228)" fill="#82970a"/>
      <path id="패스_26" data-name="패스 26" d="M314.884,410.236c91.671,0,170.972,24.868,209.087,61.03-23.817,16.651-108.4,28.966-209.087,28.966s-185.27-12.315-209.09-28.966C143.911,435.1,223.213,410.236,314.884,410.236Z" transform="translate(0 54.34)" fill="#a7bf1c" fill-rule="evenodd"/>
      <path id="패스_27" data-name="패스 27" d="M288.974,410.236c91.671,0,170.972,24.868,209.088,61.03-23.817,16.651-108.4,28.966-209.088,28.966,60.707,0,111.7-12.315,126.057-28.966C392.051,435.1,344.242,410.236,288.974,410.236Z" transform="translate(25.91 54.34)" fill="#94ab13" fill-rule="evenodd"/>
      <path id="패스_28" data-name="패스 28" d="M288.126,462.985c7.045-124.847-14.35-226.35-65.3-308.8-10.6-17.157,5.163-36.7,17.724-17.727,30.07,45.421,55.56,93.989,72.639,146.87,10.708-40.287,29.126-76.728,51.467-110.474,8.089-12.225,18.248.368,11.418,11.419C343.245,237.39,326.338,303.021,334,383.206a476.958,476.958,0,0,1,.774,81.645C333.611,480.367,287.25,478.521,288.126,462.985Z" transform="translate(16.059 14.514)" fill="#ab8235" fill-rule="evenodd"/>
      <path id="패스_29" data-name="패스 29" d="M316.9,198.355a18.307,18.307,0,1,1-27,24.734c-15.566-16.988,6.384-36.519,20.625-44.1C308.713,186.972,311.984,192.986,316.9,198.355Z" transform="translate(25.284 21.631)" fill="#bad526" fill-rule="evenodd"/>
      <path id="패스_30" data-name="패스 30" d="M300.138,159.328a18.306,18.306,0,1,1-27,24.733c-15.565-16.989,6.384-36.518,20.625-44.1C291.957,147.946,295.228,153.959,300.138,159.328Z" transform="translate(22.914 16.11)" fill="#bad526" fill-rule="evenodd"/>
      <path id="패스_31" data-name="패스 31" d="M277.255,126.431a18.307,18.307,0,1,1-27,24.732c-15.566-16.988,6.385-36.518,20.622-44.1C269.07,115.046,272.342,121.062,277.255,126.431Z" transform="translate(19.677 11.457)" fill="#bad526" fill-rule="evenodd"/>
      <path id="패스_32-2" data-name="패스 32" d="M248.238,97.823a18.306,18.306,0,1,1-27,24.733c-15.566-16.987,6.385-36.517,20.624-44.1C240.055,86.44,243.329,92.454,248.238,97.823Z" transform="translate(15.573 7.411)" fill="#bad526" fill-rule="evenodd"/>
      <path id="패스_33-2" data-name="패스 33" d="M230.043,258.574a18.307,18.307,0,0,0,36-6.669c-4.2-22.657-33.007-16.884-47.632-10.079C225.877,245.188,228.711,251.419,230.043,258.574Z" transform="translate(15.929 29.66)" fill="#bad526" fill-rule="evenodd"/>
      <path id="패스_34" data-name="패스 34" d="M217.783,222.2a18.307,18.307,0,0,0,36-6.668c-4.2-22.657-33.007-16.884-47.634-10.079C213.617,208.817,216.451,215.048,217.783,222.2Z" transform="translate(14.195 24.516)" fill="#94ab13" fill-rule="evenodd"/>
      <path id="패스_35" data-name="패스 35" d="M181,145.782a18.307,18.307,0,0,0,36-6.668c-4.2-22.655-33.006-16.884-47.631-10.08C176.838,132.4,179.671,138.629,181,145.782Z" transform="translate(8.993 13.707)" fill="#94ab13" fill-rule="evenodd"/>
      <path id="패스_36" data-name="패스 36" d="M179.083,98.337a18.306,18.306,0,1,0,34.173,13.143c8.27-21.506-19.3-31.652-35.329-33.5C182.533,84.75,181.688,91.543,179.083,98.337Z" transform="translate(10.194 7.344)" fill="#bad526" fill-rule="evenodd"/>
      <path id="패스_37" data-name="패스 37" d="M230.328,67.209a15.249,15.249,0,0,1-28.465,10.946c-6.89-17.913,16.078-26.363,29.426-27.9C227.453,55.893,228.157,61.55,230.328,67.209Z" transform="translate(13.41 3.422)" fill="#bad526" fill-rule="evenodd"/>
      <path id="패스_38" data-name="패스 38" d="M344.011,131.79a18.307,18.307,0,0,0,29.455,21.748c13.687-18.536-10.2-35.642-25.157-41.682C350.947,119.608,348.331,125.931,344.011,131.79Z" transform="translate(33.189 12.135)" fill="#bad526" fill-rule="evenodd"/>
      <path id="패스_39" data-name="패스 39" d="M395.857,181.712a18.307,18.307,0,0,1-26.871-24.872c15.653-16.908,36.922,3.362,45.651,16.928C406.528,172.622,400.8,176.377,395.857,181.712Z" transform="translate(36.538 17.589)" fill="#bad526" fill-rule="evenodd"/>
      <path id="패스_40" data-name="패스 40" d="M364.39,257.723a18.307,18.307,0,1,1-26.87-24.872c15.651-16.908,36.919,3.362,45.646,16.928C375.063,248.632,369.337,252.386,364.39,257.723Z" transform="translate(32.087 28.34)" fill="#bad526" fill-rule="evenodd"/>
      <path id="패스_41" data-name="패스 41" d="M355.674,297.962a18.307,18.307,0,1,1-26.867-24.873c15.653-16.908,36.92,3.363,45.647,16.929C366.349,288.872,360.621,292.626,355.674,297.962Z" transform="translate(30.855 34.032)" fill="#bad526" fill-rule="evenodd"/>
      <path id="패스_42" data-name="패스 42" d="M354.086,374.274a18.307,18.307,0,1,1-26.87-24.872c15.653-16.909,36.92,3.362,45.647,16.928C364.758,365.182,359.03,368.939,354.086,374.274Z" transform="translate(30.63 44.826)" fill="#bad526" fill-rule="evenodd"/>
      <path id="패스_43" data-name="패스 43" d="M394.19,248.413a15.248,15.248,0,0,1-3.858-30.252c19.037-2.43,21.78,21.889,20.1,35.222C405.868,248.313,400.2,247.65,394.19,248.413Z" transform="translate(38.362 27.148)" fill="#94ab13" fill-rule="evenodd"/>
      <path id="패스_44" data-name="패스 44" d="M409.311,209.59a15.248,15.248,0,0,1-3.859-30.252c19.037-2.43,21.783,21.891,20.1,35.219C420.988,209.492,415.324,208.827,409.311,209.59Z" transform="translate(40.501 21.656)" fill="#bad526" fill-rule="evenodd"/>
      <path id="패스_45" data-name="패스 45" d="M383.567,283.558a15.25,15.25,0,1,1-3.859-30.254c19.035-2.429,21.781,21.889,20.1,35.222C395.242,283.461,389.577,282.8,383.567,283.558Z" transform="translate(36.859 32.118)" fill="#94ab13" fill-rule="evenodd"/>
      <path id="패스_46-2" data-name="패스 46" d="M392.821,360.263a15.247,15.247,0,0,1-24.7-17.878c11.251-15.549,30.867-.914,39.443,9.433C400.739,351.677,396.38,355.355,392.821,360.263Z" transform="translate(36.695 43.783)" fill="#bad526" fill-rule="evenodd"/>
      <path id="패스_47" data-name="패스 47" d="M419.147,338.475a15.249,15.249,0,0,1-19.293-23.62c14.863-12.142,30.069,7.038,35.7,19.236C429,332.207,423.846,334.646,419.147,338.475Z" transform="translate(40.801 40.3)" fill="#bad526" fill-rule="evenodd"/>
      <path id="패스_48" data-name="패스 48" d="M422.824,307.825a15.249,15.249,0,1,1-19.293-23.62c14.865-12.142,30.069,7.039,35.7,19.236C432.679,301.557,427.522,304,422.824,307.825Z" transform="translate(41.321 35.965)" fill="#bad526" fill-rule="evenodd"/>
      <path id="패스_49" data-name="패스 49" d="M433.092,320.926a8.376,8.376,0,0,1-.572-16.743c10.532-.362,10.8,13.08,9.2,20.282C439.484,321.467,436.421,320.814,433.092,320.926Z" transform="translate(45.069 39.338)" fill="#bad526" fill-rule="evenodd"/>
      <path id="패스_50" data-name="패스 50" d="M435.494,244.484a15.249,15.249,0,1,1-19.293-23.62c14.862-12.14,30.068,7.036,35.7,19.236C445.346,238.218,440.189,240.653,435.494,244.484Z" transform="translate(43.113 27.006)" fill="#bad526" fill-rule="evenodd"/>
      <path id="패스_51" data-name="패스 51" d="M455.846,216.305a15.25,15.25,0,0,1-25.616-16.553c10.417-16.119,30.776-2.541,39.883,7.338C463.3,207.314,459.138,211.217,455.846,216.305Z" transform="translate(45.544 23.513)" fill="#bad526" fill-rule="evenodd"/>
      <path id="패스_52" data-name="패스 52" d="M446.446,182.8a15.249,15.249,0,0,1-25.616-16.552c10.417-16.121,30.776-2.541,39.884,7.338C453.9,173.8,449.738,177.707,446.446,182.8Z" transform="translate(44.215 18.773)" fill="#94ab13" fill-rule="evenodd"/>
      <path id="패스_53" data-name="패스 53" d="M407.474,142.266a15.248,15.248,0,0,1-25.613-16.551c10.413-16.121,30.773-2.541,39.88,7.337C414.926,133.276,410.769,137.178,407.474,142.266Z" transform="translate(38.702 13.041)" fill="#94ab13" fill-rule="evenodd"/>
      <path id="패스_54" data-name="패스 54" d="M362.825,105.172a15.248,15.248,0,1,0,29.922,5.888c3.706-18.83-20.37-23.207-33.788-22.428C363.709,93.528,363.988,99.224,362.825,105.172Z" transform="translate(35.809 8.838)" fill="#bad526" fill-rule="evenodd"/>
      <path id="패스_55" data-name="패스 55" d="M423.318,159.3a11.3,11.3,0,1,1-14.292-17.5c11.012-8.992,22.272,5.212,26.446,14.247C430.616,154.656,426.8,156.463,423.318,159.3Z" transform="translate(42.303 15.966)" fill="#bad526" fill-rule="evenodd"/>
      <path id="패스_56" data-name="패스 56" d="M437.536,128.787a11.3,11.3,0,0,1-14.29-17.5c11.009-8.992,22.271,5.212,26.443,14.249C444.833,124.144,441.016,125.949,437.536,128.787Z" transform="translate(44.315 11.65)" fill="#bad526" fill-rule="evenodd"/>
      <path id="패스_57" data-name="패스 57" d="M453.065,153.716a11.295,11.295,0,1,1-14.291-17.495c11.012-8.992,22.272,5.211,26.445,14.246C460.363,149.072,456.543,150.878,453.065,153.716Z" transform="translate(46.511 15.176)" fill="#bad526" fill-rule="evenodd"/>
      <path id="패스_58" data-name="패스 58" d="M458.075,262.788a11.3,11.3,0,0,1-14.292-17.495c11.013-8.992,22.273,5.211,26.445,14.245C465.373,258.145,461.555,259.952,458.075,262.788Z" transform="translate(47.22 30.603)" fill="#bad526" fill-rule="evenodd"/>
      <path id="패스_59" data-name="패스 59" d="M466.9,233.7a8.377,8.377,0,0,1-14.31-8.711c5.482-9,16.861-1.848,22.009,3.443C470.859,228.658,468.635,230.862,466.9,233.7Z" transform="translate(48.88 27.531)" fill="#bad526" fill-rule="evenodd"/>
      <path id="패스_60" data-name="패스 60" d="M466.085,190.794a8.376,8.376,0,1,1-14.309-8.709c5.481-9,16.86-1.849,22,3.441C470.042,185.749,467.82,187.952,466.085,190.794Z" transform="translate(48.764 21.462)" fill="#bad526" fill-rule="evenodd"/>
      <path id="패스_61" data-name="패스 61" d="M381.445,72.187a11.295,11.295,0,0,0,16.805,15.1c9.5-10.574-4.159-22.491-12.991-27.083C386.423,65.116,384.443,68.845,381.445,72.187Z" transform="translate(38.581 4.829)" fill="#bad526" fill-rule="evenodd"/>
      <path id="패스_62" data-name="패스 62" d="M304.478,108.434a15.248,15.248,0,1,1-29.923,5.886c-3.705-18.83,20.371-23.2,33.788-22.426C303.594,96.79,303.314,102.486,304.478,108.434Z" transform="translate(23.816 9.3)" fill="#bad526" fill-rule="evenodd"/>
      <path id="패스_63" data-name="패스 63" d="M309.3,73.649a15.249,15.249,0,0,1-29.925,5.888c-3.705-18.829,20.375-23.2,33.788-22.426C308.418,62.006,308.135,67.7,309.3,73.649Z" transform="translate(24.498 4.38)" fill="#bad526" fill-rule="evenodd"/>
      <path id="패스_64" data-name="패스 64" d="M288.3,49.2a11.295,11.295,0,0,1-22.56,1.157c-.726-14.2,17.389-14.863,27.14-12.875C288.882,40.567,288.075,44.711,288.3,49.2Z" transform="translate(22.62 1.499)" fill="#bad526" fill-rule="evenodd"/>
      <path id="패스_65" data-name="패스 65" d="M340.769,88.77a15.25,15.25,0,1,1-29.926,5.886c-3.7-18.83,20.374-23.2,33.788-22.426C339.884,77.127,339.6,82.822,340.769,88.77Z" transform="translate(28.949 6.519)" fill="#94ab13" fill-rule="evenodd"/>
      <path id="패스_66" data-name="패스 66" d="M344.74,91.847a8.375,8.375,0,0,0,9.94,13.482c8.485-6.256.353-16.957-5.373-21.617C349.416,87.457,347.419,89.869,344.74,91.847Z" transform="translate(33.316 8.155)" fill="#bad526" fill-rule="evenodd"/>
      <path id="패스_67" data-name="패스 67" d="M374.277,67.928a15.248,15.248,0,1,1-29.922,5.886c-3.706-18.829,20.37-23.206,33.788-22.425C373.394,56.285,373.114,61.98,374.277,67.928Z" transform="translate(33.689 3.571)" fill="#bad526" fill-rule="evenodd"/>
      <path id="패스_68" data-name="패스 68" d="M316.236,52.863a15.25,15.25,0,0,0,29.926,5.886c3.7-18.83-20.375-23.2-33.789-22.427C317.123,41.219,317.4,46.915,316.236,52.863Z" transform="translate(29.219 1.44)" fill="#bad526" fill-rule="evenodd"/>
      <path id="패스_69" data-name="패스 69" d="M246.885,340.041a18.308,18.308,0,0,0,34.239-12.976c-8.167-21.542-35.487-10.733-48.668-1.431C240.4,327.611,244.3,333.238,246.885,340.041Z" transform="translate(17.916 40.802)" fill="#bad526" fill-rule="evenodd"/>
      <path id="패스_70" data-name="패스 70" d="M249.337,376.412a18.307,18.307,0,1,0,34.238-12.977c-8.166-21.544-35.486-10.733-48.667-1.43C242.854,363.981,246.752,369.612,249.337,376.412Z" transform="translate(18.262 45.947)" fill="#bad526" fill-rule="evenodd"/>
      <path id="패스_71" data-name="패스 71" d="M214.946,350.242a15.248,15.248,0,1,0,28.6-10.587c-6.661-18-29.487-9.173-40.525-1.507C209.626,339.847,212.836,344.56,214.946,350.242Z" transform="translate(13.752 42.862)" fill="#94ab13" fill-rule="evenodd"/>
      <path id="패스_72" data-name="패스 72" d="M208.889,313.506a15.248,15.248,0,1,0,28.6-10.59c-6.661-18-29.487-9.168-40.525-1.5C203.569,303.11,206.779,307.821,208.889,313.506Z" transform="translate(12.895 37.666)" fill="#bad526" fill-rule="evenodd"/>
      <path id="패스_73" data-name="패스 73" d="M191.051,243.693a15.249,15.249,0,0,0,22.068-21.051c-13.249-13.888-30.708,3.262-37.808,14.67C182.049,236.256,186.865,239.312,191.051,243.693Z" transform="translate(9.833 27.072)" fill="#bad526" fill-rule="evenodd"/>
      <path id="패스_74" data-name="패스 74" d="M177.566,212.225a15.248,15.248,0,1,0,22.065-21.049c-13.246-13.887-30.707,3.261-37.806,14.669C168.562,204.789,173.378,207.844,177.566,212.225Z" transform="translate(7.925 22.621)" fill="#94ab13" fill-rule="evenodd"/>
      <path id="패스_75" data-name="패스 75" d="M163.384,176.493a15.248,15.248,0,1,0,22.066-21.051c-13.248-13.887-30.708,3.262-37.807,14.67C154.38,169.057,159.2,172.112,163.384,176.493Z" transform="translate(5.919 17.567)" fill="#bad526" fill-rule="evenodd"/>
      <path id="패스_76" data-name="패스 76" d="M144.994,150.747a15.25,15.25,0,0,0,22.068-21.053c-13.248-13.886-30.707,3.262-37.808,14.672C135.992,143.31,140.808,146.364,144.994,150.747Z" transform="translate(3.318 13.925)" fill="#bad526" fill-rule="evenodd"/>
      <path id="패스_77" data-name="패스 77" d="M127.877,217.447a18.307,18.307,0,0,0,36-6.668c-4.2-22.655-33.007-16.885-47.632-10.079,7.465,3.362,10.3,9.593,11.63,16.747ZM415.058,241.4a18.307,18.307,0,1,1-26.871-24.872c15.653-16.908,36.923,3.362,45.647,16.928-8.105-1.145-13.83,2.61-18.777,7.944Zm-78.409-66.523a18.307,18.307,0,0,0,35.556,8.735c5.5-22.377-23.135-28.97-39.263-28.786,5.421,6.136,5.437,12.983,3.707,20.051Zm3.6-43.489a15.248,15.248,0,1,0,29.922,5.886c3.705-18.83-20.375-23.2-33.788-22.426,4.751,4.9,5.029,10.591,3.866,16.54ZM296.535,86.63a15.249,15.249,0,0,1-28.466,10.945c-6.889-17.913,16.08-26.364,29.425-27.9-3.832,5.639-3.13,11.3-.959,16.957ZM210.442,203.452a18.307,18.307,0,1,0,36-6.667c-4.2-22.655-33.006-16.885-47.634-10.079,7.466,3.363,10.3,9.594,11.631,16.746Zm3.285,103.111a15.248,15.248,0,1,0,28.6-10.586c-6.664-18-29.488-9.171-40.525-1.507,6.606,1.7,9.816,6.411,11.926,12.092Zm41.2,28.22c-2.584-6.8-6.482-12.434-14.429-14.411,13.181-9.3,40.5-20.112,48.665,1.43a18.307,18.307,0,1,1-34.236,12.98Zm127.328,41.641a18.307,18.307,0,0,1-26.871-24.872c15.653-16.909,36.923,3.359,45.647,16.928-8.105-1.148-13.83,2.608-18.777,7.944Zm30.882-16.32c6.013-.763,11.677-.1,16.24,4.968,1.684-13.33-1.062-37.649-20.1-35.22a15.249,15.249,0,1,0,3.857,30.253Zm57.928-55.381a15.248,15.248,0,1,1-19.294-23.616c14.864-12.143,30.069,7.036,35.7,19.234-6.556-1.882-11.71.556-16.408,4.382Zm23.864,18.994c3.48-2.838,7.3-4.641,12.153-3.247-4.172-9.035-15.432-23.24-26.442-14.246a11.294,11.294,0,1,0,14.289,17.494ZM461.984,108.637a15.248,15.248,0,1,1-29.922,5.888c-3.705-18.83,20.37-23.206,33.784-22.426-4.746,4.9-5.026,10.591-3.863,16.538Zm-129.6-57.2a8.376,8.376,0,1,1-14.31-8.709c5.481-9,16.86-1.849,22.008,3.44-3.743.224-5.965,2.427-7.7,5.269Zm-51.874.648c-2.17-5.658-2.874-11.317.963-16.956-13.349,1.539-36.316,9.99-29.428,27.9a15.248,15.248,0,0,0,28.464-10.948ZM162.926,114.917a11.294,11.294,0,1,0,16.8,15.094c9.5-10.574-4.162-22.491-12.991-27.083C167.9,107.845,165.922,111.574,162.926,114.917Z" transform="translate(1.479 1.283)" fill="#ddf266" fill-rule="evenodd"/>
      <path id="패스_78" data-name="패스 78" d="M126.848,156.782a11.294,11.294,0,0,0,16.8,15.094c9.5-10.575-4.159-22.492-12.99-27.084C131.827,149.709,129.846,153.438,126.848,156.782Z" transform="translate(2.569 16.794)" fill="#bad526" fill-rule="evenodd"/>
      <path id="패스_79" data-name="패스 79" d="M148.525,241.376A18.307,18.307,0,1,0,172.835,214c-17.231-15.3-36.415,6.956-43.776,21.311C137.016,233.375,143.081,236.553,148.525,241.376Z" transform="translate(3.291 25.854)" fill="#bad526" fill-rule="evenodd"/>
      <path id="패스_80" data-name="패스 80" d="M162.668,266.153a15.248,15.248,0,0,0,28.6-10.59c-6.663-18-29.488-9.17-40.526-1.507C157.347,255.754,160.559,260.468,162.668,266.153Z" transform="translate(6.357 30.968)" fill="#bad526" fill-rule="evenodd"/>
      <path id="패스_81" data-name="패스 81" d="M180.21,306.08a15.248,15.248,0,0,0,10.967-28.456c-17.909-6.9-26.376,16.06-27.925,29.409C168.893,303.2,174.552,303.906,180.21,306.08Z" transform="translate(8.127 35.403)" fill="#94ab13" fill-rule="evenodd"/>
      <path id="패스_82" data-name="패스 82" d="M189.2,339.182a15.247,15.247,0,0,0,10.966-28.455c-17.908-6.9-26.375,16.059-27.924,29.406C177.884,336.3,183.544,337.007,189.2,339.182Z" transform="translate(9.399 40.086)" fill="#bad526" fill-rule="evenodd"/>
      <path id="패스_83" data-name="패스 83" d="M197.511,356.883a8.376,8.376,0,0,0,.574-16.743c-10.536-.358-10.8,13.08-9.2,20.287C191.119,357.422,194.182,356.77,197.511,356.883Z" transform="translate(11.65 44.424)" fill="#bad526" fill-rule="evenodd"/>
      <path id="패스_84" data-name="패스 84" d="M166.656,324.8a8.377,8.377,0,1,0,.572-16.744c-10.533-.36-10.8,13.082-9.2,20.286C160.265,325.341,163.328,324.693,166.656,324.8Z" transform="translate(7.286 39.886)" fill="#94ab13" fill-rule="evenodd"/>
      <path id="패스_85" data-name="패스 85" d="M139.783,288.629a15.248,15.248,0,0,0,28.6-10.589c-6.663-18-29.488-9.168-40.526-1.507C134.463,278.231,137.674,282.945,139.783,288.629Z" transform="translate(3.121 34.147)" fill="#bad526" fill-rule="evenodd"/>
      <path id="패스_86" data-name="패스 86" d="M130.967,261.056a11.294,11.294,0,1,0,14.29-17.494c-11.01-8.992-22.271,5.211-26.443,14.246C123.669,256.415,127.488,258.219,130.967,261.056Z" transform="translate(1.842 30.359)" fill="#bad526" fill-rule="evenodd"/>
      <path id="패스_87" data-name="패스 87" d="M124.563,223.045a8.376,8.376,0,1,0,.573-16.742c-10.536-.36-10.8,13.08-9.2,20.285C118.172,223.585,121.237,222.936,124.563,223.045Z" transform="translate(1.332 25.494)" fill="#bad526" fill-rule="evenodd"/>
    </g>
    <g id="그룹_13" data-name="그룹 13" transform="translate(1133 123.079)">
      <path id="패스_49-2" data-name="패스 49" d="M440.135,264.624c15.933,0,28.85,7.78,28.85,22.232s-12.917,30.107-28.85,30.107-28.85-15.653-28.85-30.107S424.2,264.624,440.135,264.624Z" fill="#eb1b20" fill-rule="evenodd"/>
      <path id="패스_50-2" data-name="패스 50" d="M419.932,236.314c13.271,3.845,22.023,11.624,21.685,27.323,4.129-11.742,16.158-11.961,28.271-13.415-.895,16.6-9.055,21.237-29.71,17.2C423.435,266.6,417.144,255.792,419.932,236.314Z" fill="#5e631f" fill-rule="evenodd"/>
    </g>
    <g id="그룹_18-2" data-name="그룹 18" transform="translate(788.235 99.3)">
      <path id="패스_63-2" data-name="패스 63" d="M569.716,299.417c10.112,0,18.311,4.938,18.311,14.111s-8.2,19.11-18.311,19.11S551.4,322.7,551.4,313.528,559.6,299.417,569.716,299.417Z" fill="#eb1b20" fill-rule="evenodd"/>
      <path id="패스_64-2" data-name="패스 64" d="M556.892,281.447c8.422,2.441,13.979,7.379,13.763,17.343,2.621-7.453,10.257-7.592,17.946-8.515-.569,10.537-5.749,13.48-18.859,10.918C559.114,300.669,555.122,293.81,556.892,281.447Z" fill="#5e631f" fill-rule="evenodd"/>
    </g>
    <g id="그룹_17" data-name="그룹 17" transform="translate(975 55.147)">
      <path id="패스_57-2" data-name="패스 57" d="M525.644,117.293c13.634,0,24.688,6.657,24.688,19.024s-11.054,25.763-24.688,25.763-24.687-13.4-24.687-25.763S512.009,117.293,525.644,117.293Z" fill="#eb1b20" fill-rule="evenodd"/>
      <path id="패스_58-2" data-name="패스 58" d="M508.356,93.067c11.356,3.29,18.846,9.948,18.556,23.381,3.533-10.048,13.826-10.235,24.192-11.479-.766,14.205-7.75,18.174-25.423,14.718C511.352,118.982,505.97,109.735,508.356,93.067Z" fill="#5e631f" fill-rule="evenodd"/>
    </g>
    <g id="그룹_15-2" data-name="그룹 15" transform="translate(1234.066 68.817)">
      <path id="패스_53-2" data-name="패스 53" d="M358.982,195.407c10.748,0,19.463,5.247,19.463,15s-8.715,20.31-19.463,20.31-19.462-10.56-19.462-20.31S348.234,195.407,358.982,195.407Z" fill="#eb1b20" fill-rule="evenodd"/>
      <path id="패스_54-2" data-name="패스 54" d="M345.354,176.309c8.953,2.593,14.857,7.842,14.627,18.432,2.787-7.921,10.9-8.069,19.073-9.05-.6,11.2-6.11,14.328-20.042,11.6C347.716,196.738,343.473,189.449,345.354,176.309Z" fill="#5e631f" fill-rule="evenodd"/>
    </g>
    <g id="그룹_15-3" data-name="그룹 15" transform="translate(1037.316 -64.105)">
      <path id="패스_53-3" data-name="패스 53" d="M358.982,195.407c10.748,0,19.463,5.247,19.463,15s-8.715,20.31-19.463,20.31-19.462-10.56-19.462-20.31S348.234,195.407,358.982,195.407Z" fill="#eb1b20" fill-rule="evenodd"/>
      <path id="패스_54-3" data-name="패스 54" d="M345.354,176.309c8.953,2.593,14.857,7.842,14.627,18.432,2.787-7.921,10.9-8.069,19.073-9.05-.6,11.2-6.11,14.328-20.042,11.6C347.716,196.738,343.473,189.449,345.354,176.309Z" fill="#5e631f" fill-rule="evenodd"/>
    </g>
    <g id="그룹_14" data-name="그룹 14" transform="translate(1007.651 43.809)">
      <path id="패스_51-2" data-name="패스 51" d="M307.733,241.378c12.989,0,23.519,6.342,23.519,18.124s-10.53,24.541-23.519,24.541-23.518-12.76-23.518-24.541S294.745,241.378,307.733,241.378Z" fill="#eb1b20" fill-rule="evenodd"/>
      <path id="패스_52-2" data-name="패스 52" d="M291.265,218.3c10.818,3.135,17.953,9.476,17.676,22.274,3.366-9.572,13.172-9.75,23.046-10.936-.729,13.532-7.381,17.313-24.218,14.021C294.12,242.988,288.991,234.179,291.265,218.3Z" fill="#5e631f" fill-rule="evenodd"/>
    </g>
    <path id="패스_852" data-name="패스 852" d="M0,240.111" transform="translate(617.785 772.816)" fill="#fff" stroke="#4c2007" stroke-linecap="round" stroke-width="4"/>
    <g id="그룹_446" data-name="그룹 446" transform="translate(-693.638 -1291.453)">
      <path id="패스_27-2" data-name="패스 27" d="M152.656,224.327a26.353,26.353,0,0,1,24.41,36.059,26.347,26.347,0,0,1-24.41-36.059Z" transform="translate(1652.29 1923.973)" fill="#99bd14" fill-rule="evenodd"/>
      <path id="패스_28-2" data-name="패스 28" d="M167.339,258.148l8.54-30.89,6.553,8.073L169.68,260.253Z" transform="translate(1660.225 1925.38)" fill="#92410c" fill-rule="evenodd"/>
      <path id="패스_29-2" data-name="패스 29" d="M170.351,245.917a36.534,36.534,0,0,1,14.847,3.217,36.5,36.5,0,0,1,14.842-3.217c22.228,0,38.737,21.167,36.871,47.273s-21.4,47.271-43.625,47.271a33.789,33.789,0,0,1-8.089-.972,33.872,33.872,0,0,1-8.093.972c-22.228,0-41.762-21.166-43.626-47.271S148.123,245.917,170.351,245.917Z" transform="translate(1643.909 1934.332)" fill="#fe350b" fill-rule="evenodd"/>
      <path id="패스_30-2" data-name="패스 30" d="M165.728,249.24c14.927,0,26.321,14.039,25.445,31.357s-13.688,31.359-28.615,31.359-26.317-14.039-25.444-31.359S150.8,249.24,165.728,249.24Z" transform="translate(1645.7 1935.926)" fill="#fd471d" fill-rule="evenodd"/>
      <path id="패스_31-2" data-name="패스 31" d="M187.113,243.9a26.351,26.351,0,0,1,24.41,36.059,26.351,26.351,0,0,1-24.41-36.059Z" transform="translate(1668.823 1933.365)" fill="#99bd14" fill-rule="evenodd"/>
      <path id="패스_32-3" data-name="패스 32" d="M201.8,277.721l8.543-30.887,6.552,8.071-12.756,24.924Z" transform="translate(1676.758 1934.772)" fill="#92410c" fill-rule="evenodd"/>
      <path id="패스_33-3" data-name="패스 33" d="M204.811,265.491a36.521,36.521,0,0,1,14.844,3.217,36.508,36.508,0,0,1,14.842-3.217c22.228,0,38.737,21.166,36.872,47.271s-21.4,47.273-43.626,47.273a33.753,33.753,0,0,1-8.089-.972,33.781,33.781,0,0,1-8.093.972c-22.228,0-41.76-21.164-43.626-47.273S182.583,265.491,204.811,265.491Z" transform="translate(1660.442 1943.724)" fill="#df1901" fill-rule="evenodd"/>
      <path id="패스_34-2" data-name="패스 34" d="M200.185,268.814c14.925,0,26.32,14.039,25.444,31.359s-13.685,31.359-28.615,31.359-26.314-14.039-25.441-31.359S185.259,268.814,200.185,268.814Z" transform="translate(1662.234 1945.318)" fill="#fd471d" fill-rule="evenodd"/>
      <path id="패스_35-2" data-name="패스 35" d="M162.444,293.4a26.349,26.349,0,0,1,24.411,36.057A26.348,26.348,0,0,1,162.444,293.4Z" transform="translate(1656.986 1957.115)" fill="#99bd14" fill-rule="evenodd"/>
      <path id="패스_36-2" data-name="패스 36" d="M177.128,327.224l8.54-30.893,6.554,8.077-12.754,24.918Z" transform="translate(1664.921 1958.521)" fill="#92410c" fill-rule="evenodd"/>
      <path id="패스_37-2" data-name="패스 37" d="M180.14,314.993a36.506,36.506,0,0,1,14.844,3.213,36.516,36.516,0,0,1,14.844-3.213c22.228,0,38.737,21.163,36.872,47.268s-21.4,47.271-43.626,47.271a33.782,33.782,0,0,1-8.09-.974,33.755,33.755,0,0,1-8.09.974c-22.228,0-41.762-21.163-43.626-47.271S157.912,314.993,180.14,314.993Z" transform="translate(1648.606 1967.475)" fill="#e92001" fill-rule="evenodd"/>
      <path id="패스_38-2" data-name="패스 38" d="M175.519,318.314c14.924,0,26.317,14.04,25.444,31.357s-13.687,31.356-28.617,31.356S146.029,366.99,146.9,349.671,160.592,318.314,175.519,318.314Z" transform="translate(1650.396 1969.069)" fill="#fd471d" fill-rule="evenodd"/>
      <path id="패스_39-2" data-name="패스 39" d="M304.453,228.242A26.351,26.351,0,0,1,328.862,264.3a26.346,26.346,0,0,1-24.409-36.059Z" transform="translate(1725.123 1925.851)" fill="#99bd14" fill-rule="evenodd"/>
      <path id="패스_40-2" data-name="패스 40" d="M319.135,262.065l8.541-30.89,6.554,8.073-12.755,24.922Z" transform="translate(1733.058 1927.259)" fill="#92410c" fill-rule="evenodd"/>
      <path id="패스_41-2" data-name="패스 41" d="M322.147,249.834a36.53,36.53,0,0,1,14.844,3.213,36.541,36.541,0,0,1,14.844-3.213c22.228,0,38.74,21.164,36.874,47.271s-21.4,47.27-43.626,47.27a33.769,33.769,0,0,1-8.092-.972,33.737,33.737,0,0,1-8.09.972c-22.23,0-41.762-21.161-43.626-47.27S299.919,249.834,322.147,249.834Z" transform="translate(1716.742 1936.211)" fill="#fe350b" fill-rule="evenodd"/>
      <path id="패스_42-2" data-name="패스 42" d="M317.524,253.157c14.927,0,26.318,14.039,25.445,31.36s-13.688,31.356-28.615,31.356-26.317-14.04-25.445-31.356S302.6,253.157,317.524,253.157Z" transform="translate(1718.533 1937.806)" fill="#fd471d" fill-rule="evenodd"/>
      <path id="패스_43-2" data-name="패스 43" d="M261.122,241.842A26.356,26.356,0,0,1,285.533,277.9a26.347,26.347,0,0,1-24.411-36.059Z" transform="translate(1704.333 1932.377)" fill="#99bd14" fill-rule="evenodd"/>
      <path id="패스_44-2" data-name="패스 44" d="M275.806,275.665l8.54-30.89,6.553,8.07-12.753,24.925Z" transform="translate(1712.268 1933.784)" fill="#92410c" fill-rule="evenodd"/>
      <path id="패스_45-2" data-name="패스 45" d="M278.817,263.435a36.513,36.513,0,0,1,14.845,3.213,36.5,36.5,0,0,1,14.841-3.213c22.233,0,38.74,21.163,36.875,47.268s-21.4,47.271-43.626,47.271a33.663,33.663,0,0,1-8.09-.972,33.7,33.7,0,0,1-8.092.972c-22.228,0-41.76-21.163-43.625-47.271S256.588,263.435,278.817,263.435Z" transform="translate(1695.953 1942.737)" fill="#df1901" fill-rule="evenodd"/>
      <path id="패스_46-3" data-name="패스 46" d="M274.2,266.755c14.927,0,26.317,14.04,25.445,31.359s-13.69,31.36-28.615,31.36-26.317-14.04-25.445-31.36S259.266,266.755,274.2,266.755Z" transform="translate(1697.743 1944.33)" fill="#fd471d" fill-rule="evenodd"/>
      <path id="패스_47-2" data-name="패스 47" d="M240.6,288.6a26.345,26.345,0,0,1,15.378,40.735A26.352,26.352,0,0,1,240.6,288.6Z" transform="translate(1693.084 1954.813)" fill="#99bd14" fill-rule="evenodd"/>
      <path id="패스_48-2" data-name="패스 48" d="M248.4,324.4l15.475-28.064,4.5,9.371-18.187,21.285Z" transform="translate(1699.118 1958.525)" fill="#92410c" fill-rule="evenodd"/>
      <path id="패스_49-3" data-name="패스 49" d="M255.6,311.365a36.608,36.608,0,0,1,13.694,6.569,36.536,36.536,0,0,1,15.18.32c21.623,5.162,32.77,29.577,24.9,54.537s-31.782,41.015-53.406,35.859a33.968,33.968,0,0,1-7.642-2.825,34.06,34.06,0,0,1-8.1-.931c-21.622-5.159-35.711-30.277-31.465-56.1S233.977,306.208,255.6,311.365Z" transform="translate(1679.738 1965.287)" fill="#fe350b" fill-rule="evenodd"/>
      <path id="패스_50-3" data-name="패스 50" d="M249.387,314.063c14.52,3.464,22.342,19.764,17.472,36.4s-20.589,27.326-35.107,23.862-22.342-19.761-17.474-36.4S234.866,310.6,249.387,314.063Z" transform="translate(1682.053 1966.716)" fill="#fd471d" fill-rule="evenodd"/>
      <path id="패스_51-3" data-name="패스 51" d="M284.694,291.2a26.351,26.351,0,0,1,28.978,32.5,26.353,26.353,0,0,1-28.978-32.5Z" transform="translate(1716.159 1955.953)" fill="#99bd14" fill-rule="evenodd"/>
      <path id="패스_52-3" data-name="패스 52" d="M302.749,322.991l4.372-31.746,7.565,7.133-9.339,26.391Z" transform="translate(1725.196 1956.081)" fill="#92410c" fill-rule="evenodd"/>
      <path id="패스_53-4" data-name="패스 53" d="M303.739,313.07a36.481,36.481,0,0,1,15.134,1.218,36.518,36.518,0,0,1,14.289-5.154c22.03-2.948,41.2,15.841,42.814,41.965S361.036,400.789,339,403.735a33.815,33.815,0,0,1-8.148.107,33.732,33.732,0,0,1-7.89,2.038c-22.034,2.948-44.2-15.44-49.51-41.068S281.7,316.016,303.739,313.07Z" transform="translate(1710.589 1964.518)" fill="#e92001" fill-rule="evenodd"/>
      <path id="패스_54-4" data-name="패스 54" d="M299.975,315.308c14.8-1.979,27.949,10.428,29.379,27.708s-9.407,32.9-24.2,34.873-27.948-10.425-29.379-27.7S285.18,317.287,299.975,315.308Z" transform="translate(1712.192 1967.527)" fill="#fd471d" fill-rule="evenodd"/>
      <path id="패스_55-2" data-name="패스 55" d="M223.169,227.3a26.352,26.352,0,0,1,24.412,36.059A26.349,26.349,0,0,1,223.169,227.3Z" transform="translate(1686.123 1925.397)" fill="#99bd14" fill-rule="evenodd"/>
      <path id="패스_56-2" data-name="패스 56" d="M237.855,261.116l8.539-30.89,6.551,8.073-12.754,24.924Z" transform="translate(1694.059 1926.803)" fill="#92410c" fill-rule="evenodd"/>
      <path id="패스_57-3" data-name="패스 57" d="M240.866,248.885a36.507,36.507,0,0,1,14.841,3.217,36.527,36.527,0,0,1,14.845-3.217c22.227,0,38.737,21.166,36.874,47.271s-21.4,47.273-43.626,47.273a33.942,33.942,0,0,1-8.093-.972,33.893,33.893,0,0,1-8.087.972c-22.231,0-41.762-21.164-43.626-47.273S218.636,248.885,240.866,248.885Z" transform="translate(1677.743 1935.756)" fill="#fe350b" fill-rule="evenodd"/>
      <path id="패스_58-3" data-name="패스 58" d="M236.24,252.208c14.93,0,26.318,14.039,25.442,31.359S248,314.925,233.073,314.925s-26.321-14.04-25.444-31.359S221.312,252.208,236.24,252.208Z" transform="translate(1679.533 1937.35)" fill="#fd471d" fill-rule="evenodd"/>
      <path id="패스_853" data-name="패스 853" d="M185.805,27.835h0Z" transform="translate(1852.87 2394.69)" fill="#90786d"/>
      <path id="패스_63-3" data-name="패스 63" d="M464.139,337.354H130.617l4.681,43.993H459.464l4.675-43.993Zm-6.267,58.971H136.888l4.676,43.995H453.2l4.676-43.995ZM470.41,278.383H124.35l4.676,43.993H465.734Z" transform="translate(1639.598 1949.91)" fill="#92410c" fill-rule="evenodd"/>
      <path id="패스_64-3" data-name="패스 64" d="M411.407,337.354H333.254l22.413,43.993h78.152l-22.412-43.993Zm-148.193,0H143.776l22.409,43.993H285.623l-22.409-43.993Zm118.15-58.971,22.413,43.993h-78.15l-22.412-43.993Zm60.082,117.941L455.035,423,453.2,440.319H385.708L363.3,396.324ZM233.175,278.383l22.409,43.993H136.144l-8.993-17.659-2.8-26.335Zm60.077,117.941,22.415,43.995H196.229l-22.412-43.995Z" transform="translate(1639.598 1949.91)" fill="#ae4f10" fill-rule="evenodd"/>
    </g>
    <g id="그룹_447" data-name="그룹 447" transform="translate(-299.025 -1291.453)">
      <path id="패스_27-3" data-name="패스 27" d="M152.656,224.327a26.353,26.353,0,0,1,24.41,36.059,26.347,26.347,0,0,1-24.41-36.059Z" transform="translate(1652.29 1923.973)" fill="#99bd14" fill-rule="evenodd"/>
      <path id="패스_28-3" data-name="패스 28" d="M167.339,258.148l8.54-30.89,6.553,8.073L169.68,260.253Z" transform="translate(1660.225 1925.38)" fill="#92410c" fill-rule="evenodd"/>
      <path id="패스_29-3" data-name="패스 29" d="M170.351,245.917a36.534,36.534,0,0,1,14.847,3.217,36.5,36.5,0,0,1,14.842-3.217c22.228,0,38.737,21.167,36.871,47.273s-21.4,47.271-43.625,47.271a33.789,33.789,0,0,1-8.089-.972,33.872,33.872,0,0,1-8.093.972c-22.228,0-41.762-21.166-43.626-47.271S148.123,245.917,170.351,245.917Z" transform="translate(1643.909 1934.332)" fill="#fe350b" fill-rule="evenodd"/>
      <path id="패스_30-3" data-name="패스 30" d="M165.728,249.24c14.927,0,26.321,14.039,25.445,31.357s-13.688,31.359-28.615,31.359-26.317-14.039-25.444-31.359S150.8,249.24,165.728,249.24Z" transform="translate(1645.7 1935.926)" fill="#fd471d" fill-rule="evenodd"/>
      <path id="패스_31-3" data-name="패스 31" d="M187.113,243.9a26.351,26.351,0,0,1,24.41,36.059,26.351,26.351,0,0,1-24.41-36.059Z" transform="translate(1668.823 1933.365)" fill="#99bd14" fill-rule="evenodd"/>
      <path id="패스_32-4" data-name="패스 32" d="M201.8,277.721l8.543-30.887,6.552,8.071-12.756,24.924Z" transform="translate(1676.758 1934.772)" fill="#92410c" fill-rule="evenodd"/>
      <path id="패스_33-4" data-name="패스 33" d="M204.811,265.491a36.521,36.521,0,0,1,14.844,3.217,36.508,36.508,0,0,1,14.842-3.217c22.228,0,38.737,21.166,36.872,47.271s-21.4,47.273-43.626,47.273a33.753,33.753,0,0,1-8.089-.972,33.781,33.781,0,0,1-8.093.972c-22.228,0-41.76-21.164-43.626-47.273S182.583,265.491,204.811,265.491Z" transform="translate(1660.442 1943.724)" fill="#df1901" fill-rule="evenodd"/>
      <path id="패스_34-3" data-name="패스 34" d="M200.185,268.814c14.925,0,26.32,14.039,25.444,31.359s-13.685,31.359-28.615,31.359-26.314-14.039-25.441-31.359S185.259,268.814,200.185,268.814Z" transform="translate(1662.234 1945.318)" fill="#fd471d" fill-rule="evenodd"/>
      <path id="패스_35-3" data-name="패스 35" d="M162.444,293.4a26.349,26.349,0,0,1,24.411,36.057A26.348,26.348,0,0,1,162.444,293.4Z" transform="translate(1656.986 1957.115)" fill="#99bd14" fill-rule="evenodd"/>
      <path id="패스_36-3" data-name="패스 36" d="M177.128,327.224l8.54-30.893,6.554,8.077-12.754,24.918Z" transform="translate(1664.921 1958.521)" fill="#92410c" fill-rule="evenodd"/>
      <path id="패스_37-3" data-name="패스 37" d="M180.14,314.993a36.506,36.506,0,0,1,14.844,3.213,36.516,36.516,0,0,1,14.844-3.213c22.228,0,38.737,21.163,36.872,47.268s-21.4,47.271-43.626,47.271a33.782,33.782,0,0,1-8.09-.974,33.755,33.755,0,0,1-8.09.974c-22.228,0-41.762-21.163-43.626-47.271S157.912,314.993,180.14,314.993Z" transform="translate(1648.606 1967.475)" fill="#e92001" fill-rule="evenodd"/>
      <path id="패스_38-3" data-name="패스 38" d="M175.519,318.314c14.924,0,26.317,14.04,25.444,31.357s-13.687,31.356-28.617,31.356S146.029,366.99,146.9,349.671,160.592,318.314,175.519,318.314Z" transform="translate(1650.396 1969.069)" fill="#fd471d" fill-rule="evenodd"/>
      <path id="패스_39-3" data-name="패스 39" d="M304.453,228.242A26.351,26.351,0,0,1,328.862,264.3a26.346,26.346,0,0,1-24.409-36.059Z" transform="translate(1725.123 1925.851)" fill="#99bd14" fill-rule="evenodd"/>
      <path id="패스_40-3" data-name="패스 40" d="M319.135,262.065l8.541-30.89,6.554,8.073-12.755,24.922Z" transform="translate(1733.058 1927.259)" fill="#92410c" fill-rule="evenodd"/>
      <path id="패스_41-3" data-name="패스 41" d="M322.147,249.834a36.53,36.53,0,0,1,14.844,3.213,36.541,36.541,0,0,1,14.844-3.213c22.228,0,38.74,21.164,36.874,47.271s-21.4,47.27-43.626,47.27a33.769,33.769,0,0,1-8.092-.972,33.737,33.737,0,0,1-8.09.972c-22.23,0-41.762-21.161-43.626-47.27S299.919,249.834,322.147,249.834Z" transform="translate(1716.742 1936.211)" fill="#fe350b" fill-rule="evenodd"/>
      <path id="패스_42-3" data-name="패스 42" d="M317.524,253.157c14.927,0,26.318,14.039,25.445,31.36s-13.688,31.356-28.615,31.356-26.317-14.04-25.445-31.356S302.6,253.157,317.524,253.157Z" transform="translate(1718.533 1937.806)" fill="#fd471d" fill-rule="evenodd"/>
      <path id="패스_43-3" data-name="패스 43" d="M261.122,241.842A26.356,26.356,0,0,1,285.533,277.9a26.347,26.347,0,0,1-24.411-36.059Z" transform="translate(1704.333 1932.377)" fill="#99bd14" fill-rule="evenodd"/>
      <path id="패스_44-3" data-name="패스 44" d="M275.806,275.665l8.54-30.89,6.553,8.07-12.753,24.925Z" transform="translate(1712.268 1933.784)" fill="#92410c" fill-rule="evenodd"/>
      <path id="패스_45-3" data-name="패스 45" d="M278.817,263.435a36.513,36.513,0,0,1,14.845,3.213,36.5,36.5,0,0,1,14.841-3.213c22.233,0,38.74,21.163,36.875,47.268s-21.4,47.271-43.626,47.271a33.663,33.663,0,0,1-8.09-.972,33.7,33.7,0,0,1-8.092.972c-22.228,0-41.76-21.163-43.625-47.271S256.588,263.435,278.817,263.435Z" transform="translate(1695.953 1942.737)" fill="#df1901" fill-rule="evenodd"/>
      <path id="패스_46-4" data-name="패스 46" d="M274.2,266.755c14.927,0,26.317,14.04,25.445,31.359s-13.69,31.36-28.615,31.36-26.317-14.04-25.445-31.36S259.266,266.755,274.2,266.755Z" transform="translate(1697.743 1944.33)" fill="#fd471d" fill-rule="evenodd"/>
      <path id="패스_47-3" data-name="패스 47" d="M240.6,288.6a26.345,26.345,0,0,1,15.378,40.735A26.352,26.352,0,0,1,240.6,288.6Z" transform="translate(1693.084 1954.813)" fill="#99bd14" fill-rule="evenodd"/>
      <path id="패스_48-3" data-name="패스 48" d="M248.4,324.4l15.475-28.064,4.5,9.371-18.187,21.285Z" transform="translate(1699.118 1958.525)" fill="#92410c" fill-rule="evenodd"/>
      <path id="패스_49-4" data-name="패스 49" d="M255.6,311.365a36.608,36.608,0,0,1,13.694,6.569,36.536,36.536,0,0,1,15.18.32c21.623,5.162,32.77,29.577,24.9,54.537s-31.782,41.015-53.406,35.859a33.968,33.968,0,0,1-7.642-2.825,34.06,34.06,0,0,1-8.1-.931c-21.622-5.159-35.711-30.277-31.465-56.1S233.977,306.208,255.6,311.365Z" transform="translate(1679.738 1965.287)" fill="#fe350b" fill-rule="evenodd"/>
      <path id="패스_50-4" data-name="패스 50" d="M249.387,314.063c14.52,3.464,22.342,19.764,17.472,36.4s-20.589,27.326-35.107,23.862-22.342-19.761-17.474-36.4S234.866,310.6,249.387,314.063Z" transform="translate(1682.053 1966.716)" fill="#fd471d" fill-rule="evenodd"/>
      <path id="패스_51-4" data-name="패스 51" d="M284.694,291.2a26.351,26.351,0,0,1,28.978,32.5,26.353,26.353,0,0,1-28.978-32.5Z" transform="translate(1716.159 1955.953)" fill="#99bd14" fill-rule="evenodd"/>
      <path id="패스_52-4" data-name="패스 52" d="M302.749,322.991l4.372-31.746,7.565,7.133-9.339,26.391Z" transform="translate(1725.196 1956.081)" fill="#92410c" fill-rule="evenodd"/>
      <path id="패스_53-5" data-name="패스 53" d="M303.739,313.07a36.481,36.481,0,0,1,15.134,1.218,36.518,36.518,0,0,1,14.289-5.154c22.03-2.948,41.2,15.841,42.814,41.965S361.036,400.789,339,403.735a33.815,33.815,0,0,1-8.148.107,33.732,33.732,0,0,1-7.89,2.038c-22.034,2.948-44.2-15.44-49.51-41.068S281.7,316.016,303.739,313.07Z" transform="translate(1710.589 1964.518)" fill="#e92001" fill-rule="evenodd"/>
      <path id="패스_54-5" data-name="패스 54" d="M299.975,315.308c14.8-1.979,27.949,10.428,29.379,27.708s-9.407,32.9-24.2,34.873-27.948-10.425-29.379-27.7S285.18,317.287,299.975,315.308Z" transform="translate(1712.192 1967.527)" fill="#fd471d" fill-rule="evenodd"/>
      <path id="패스_55-3" data-name="패스 55" d="M223.169,227.3a26.352,26.352,0,0,1,24.412,36.059A26.349,26.349,0,0,1,223.169,227.3Z" transform="translate(1686.123 1925.397)" fill="#99bd14" fill-rule="evenodd"/>
      <path id="패스_56-3" data-name="패스 56" d="M237.855,261.116l8.539-30.89,6.551,8.073-12.754,24.924Z" transform="translate(1694.059 1926.803)" fill="#92410c" fill-rule="evenodd"/>
      <path id="패스_57-4" data-name="패스 57" d="M240.866,248.885a36.507,36.507,0,0,1,14.841,3.217,36.527,36.527,0,0,1,14.845-3.217c22.227,0,38.737,21.166,36.874,47.271s-21.4,47.273-43.626,47.273a33.942,33.942,0,0,1-8.093-.972,33.893,33.893,0,0,1-8.087.972c-22.231,0-41.762-21.164-43.626-47.273S218.636,248.885,240.866,248.885Z" transform="translate(1677.743 1935.756)" fill="#fe350b" fill-rule="evenodd"/>
      <path id="패스_58-4" data-name="패스 58" d="M236.24,252.208c14.93,0,26.318,14.039,25.442,31.359S248,314.925,233.073,314.925s-26.321-14.04-25.444-31.359S221.312,252.208,236.24,252.208Z" transform="translate(1679.533 1937.35)" fill="#fd471d" fill-rule="evenodd"/>
      <path id="패스_853-2" data-name="패스 853" d="M185.805,27.835h0Z" transform="translate(1852.87 2394.69)" fill="#90786d"/>
      <path id="패스_63-4" data-name="패스 63" d="M464.139,337.354H130.617l4.681,43.993H459.464l4.675-43.993Zm-6.267,58.971H136.888l4.676,43.995H453.2l4.676-43.995ZM470.41,278.383H124.35l4.676,43.993H465.734Z" transform="translate(1639.598 1949.91)" fill="#92410c" fill-rule="evenodd"/>
      <path id="패스_64-4" data-name="패스 64" d="M411.407,337.354H333.254l22.413,43.993h78.152l-22.412-43.993Zm-148.193,0H143.776l22.409,43.993H285.623l-22.409-43.993Zm118.15-58.971,22.413,43.993h-78.15l-22.412-43.993Zm60.082,117.941L455.035,423,453.2,440.319H385.708L363.3,396.324ZM233.175,278.383l22.409,43.993H136.144l-8.993-17.659-2.8-26.335Zm60.077,117.941,22.415,43.995H196.229l-22.412-43.995Z" transform="translate(1639.598 1949.91)" fill="#ae4f10" fill-rule="evenodd"/>
    </g>
    <g id="그룹_448" data-name="그룹 448" transform="translate(686.581 897.979) rotate(-59)">
      <path id="패스_63-5" data-name="패스 63" d="M569.716,299.417c10.112,0,18.311,4.938,18.311,14.111s-8.2,19.11-18.311,19.11S551.4,322.7,551.4,313.528,559.6,299.417,569.716,299.417Z" fill="#eb1b20" fill-rule="evenodd"/>
      <path id="패스_64-5" data-name="패스 64" d="M556.892,281.447c8.422,2.441,13.979,7.379,13.763,17.343,2.621-7.453,10.257-7.592,17.946-8.515-.569,10.537-5.749,13.48-18.859,10.918C559.114,300.669,555.122,293.81,556.892,281.447Z" fill="#5e631f" fill-rule="evenodd"/>
    </g>
    <g id="그룹_449" data-name="그룹 449" transform="translate(1355.373 -28.179) rotate(31)">
      <path id="패스_63-6" data-name="패스 63" d="M569.716,299.417c10.112,0,18.311,4.938,18.311,14.111s-8.2,19.11-18.311,19.11S551.4,322.7,551.4,313.528,559.6,299.417,569.716,299.417Z" fill="#eb1b20" fill-rule="evenodd"/>
      <path id="패스_64-6" data-name="패스 64" d="M556.892,281.447c8.422,2.441,13.979,7.379,13.763,17.343,2.621-7.453,10.257-7.592,17.946-8.515-.569,10.537-5.749,13.48-18.859,10.918C559.114,300.669,555.122,293.81,556.892,281.447Z" fill="#5e631f" fill-rule="evenodd"/>
    </g>
    <g id="그룹_478" data-name="그룹 478" transform="translate(-83 -28.254)">
      <path id="패스_27-4" data-name="패스 27" d="M199.618,387.115a276.916,276.916,0,0,1-1.106,55.694c-15.132,3.352-17.668,2.632-31.2-4.568,1.894-39.359-2.159-97.107-5.61-137-4.705-53.328-5.891-71.9.509-125.4a225.852,225.852,0,0,0,1.853-38.112c11.7-2.406,15.625-2.6,27.343-.036,1.242,42.357-7.323,75.009-4.139,120.325C190.25,300.456,196.364,343.99,199.618,387.115Z" transform="translate(463.042 613.78)" fill="#6e3105" fill-rule="evenodd"/>
      <path id="패스_31-4" data-name="패스 31" d="M63.15,175.941c17.507-4.224,32.223-2.682,47.308-.492l.228,27.38,8.123-26.143a208.826,208.826,0,0,0,27.47,2.624c25.329.3,43.378-5.2,66.617-6.107,7.524,0,14.974.4,22.468.85h-.005L236,192.782l7.718-18.223c7.955.468,16,.859,24.275.771,20.977-.221,40.946-1.171,61.786-1.8l1.392,24.573L336.5,173.52c8.751.221,17.729,1.249,26.289,2.14,13.171,1.378,26.275,3.282,39.46,4.5,8.181,18.137,2.524,27.566,2.188,45.975l-47.849,8.028,48.115,3.59c.642,13.653,2.32,25.747,3.529,39.917,1.028,14.639-1.662,32.742-5.019,49.634l-23.573-.338,22.011,7.931c-1.158,5.475-2.344,10.739-3.437,15.615-2.827,11.288-6.854,19.044-10.351,29.733-31.495.059-53.4-.276-80.784-4.087L301.611,357.7l-2.725,17.234c-4.779-.755-9.748-1.616-14.986-2.6-41.714-6.8-70.208.089-110.723,2.813a275.739,275.739,0,0,1-33.6-.441l-2.887-22.33-6.534,21.634c-20.057-1.63-40.242-4.035-60.511-4.032-4.133-29.749,1.592-53.237,1.144-82.017h0l38.7-.607-38.89-8.281c-.084-9.843.332-18.65.392-28.751C71.174,221.873,57.9,206.872,63.15,175.941Z" transform="translate(407.138 599.123)" fill="#ba7c3d" fill-rule="evenodd"/>
    </g>
    <g id="그룹_22" data-name="그룹 22" transform="translate(445.68 451.467)">
      <path id="패스_15" data-name="패스 15" d="M28.609,600.383,58.588,570.4l63.06-9.82,20.676-18.091,39.283,14.473,9.3,40.834,29.98,17.576-17.573,21.189-89.939,1.552L56.521,651.038,18.789,635.532Z" fill="#6d554e" fill-rule="evenodd"/>
      <path id="패스_16" data-name="패스 16" d="M181.607,556.965l.517,52.2-10.338,7.239-63.577,2.584-36.7,14.988-52.722,1.552,37.732,15.506,56.857-12.922,89.939-1.552,17.573-21.189L190.91,597.8Z" fill="#59423e" fill-rule="evenodd"/>
    </g>
    <path id="패스_2475" data-name="패스 2475" d="M168,0c92.784,0,143.7-3.867,161.946,9.01C334.03,12.734,349.8,28.328,327.8,33c-28.262,5.677-107.655,0-159.8,0C111.866,33,25.138,36.851-4.881,30.474-16.149,20.815-.194,10.293,3.751,7.663,13.333.9,75.216,0,168,0Z" transform="translate(1348.479 662.451)" fill="#602f0e"/>
    <path id="빼기_12" data-name="빼기 12" d="M51.136,189.744h0a55.563,55.563,0,0,1,.048-12.842,16.374,16.374,0,0,1-6.606-1.861,16.165,16.165,0,0,1-5.4-4.613,16.292,16.292,0,0,1-2.478-14.85c.18-.006.359-.009.533-.009a16.468,16.468,0,0,1,7.179,1.655,16.343,16.343,0,0,1,8.765,11.135,37.236,37.236,0,0,0,1.127-6.2,40.509,40.509,0,0,0-1.456-15.729c-.324-.94-.61-1.926-.848-2.932h2.44c.191.641.4,1.269.635,1.867l.254.656.006.014c1.419,3.659,3.028,7.805,3.1,12.906a16.384,16.384,0,0,1,2.428-3.239,16.265,16.265,0,0,1,11.749-4.992,16.464,16.464,0,0,1,2.523.2,16.458,16.458,0,0,1-.329,7.618,16.3,16.3,0,0,1-15.686,11.813,16.47,16.47,0,0,1-1.837-.1,61.793,61.793,0,0,0,.739,14.263l.931,5.221Z" transform="translate(1340.933 489.87)" fill="#109512" stroke="rgba(0,0,0,0)" stroke-miterlimit="10" stroke-width="1"/>
    <path id="빼기_13" data-name="빼기 13" d="M51.136,189.744h0a55.563,55.563,0,0,1,.048-12.842,16.374,16.374,0,0,1-6.606-1.861,16.165,16.165,0,0,1-5.4-4.613,16.292,16.292,0,0,1-2.478-14.85c.18-.006.359-.009.533-.009a16.468,16.468,0,0,1,7.179,1.655,16.343,16.343,0,0,1,8.765,11.135,37.236,37.236,0,0,0,1.127-6.2,40.509,40.509,0,0,0-1.456-15.729c-.324-.94-.61-1.926-.848-2.932h2.44c.191.641.4,1.269.635,1.867l.254.656.006.014c1.419,3.659,3.028,7.805,3.1,12.906a16.384,16.384,0,0,1,2.428-3.239,16.265,16.265,0,0,1,11.749-4.992,16.464,16.464,0,0,1,2.523.2,16.458,16.458,0,0,1-.329,7.618,16.3,16.3,0,0,1-15.686,11.813,16.47,16.47,0,0,1-1.837-.1,61.793,61.793,0,0,0,.739,14.263l.931,5.221Z" transform="translate(1416.267 489.87)" fill="#2e682f" stroke="rgba(0,0,0,0)" stroke-miterlimit="10" stroke-width="1"/>
    <path id="빼기_14" data-name="빼기 14" d="M51.136,189.744h0a55.563,55.563,0,0,1,.048-12.842,16.374,16.374,0,0,1-6.606-1.861,16.165,16.165,0,0,1-5.4-4.613,16.292,16.292,0,0,1-2.478-14.85c.18-.006.359-.009.533-.009a16.468,16.468,0,0,1,7.179,1.655,16.343,16.343,0,0,1,8.765,11.135,37.236,37.236,0,0,0,1.127-6.2,40.509,40.509,0,0,0-1.456-15.729c-.324-.94-.61-1.926-.848-2.932h2.44c.191.641.4,1.269.635,1.867l.254.656.006.014c1.419,3.659,3.028,7.805,3.1,12.906a16.384,16.384,0,0,1,2.428-3.239,16.265,16.265,0,0,1,11.749-4.992,16.464,16.464,0,0,1,2.523.2,16.458,16.458,0,0,1-.329,7.618,16.3,16.3,0,0,1-15.686,11.813,16.47,16.47,0,0,1-1.837-.1,61.793,61.793,0,0,0,.739,14.263l.931,5.221Z" transform="translate(1488.615 489.87)" fill="#109512" stroke="rgba(0,0,0,0)" stroke-miterlimit="10" stroke-width="1"/>
    <path id="빼기_15" data-name="빼기 15" d="M51.136,189.744h0a55.563,55.563,0,0,1,.048-12.842,16.374,16.374,0,0,1-6.606-1.861,16.165,16.165,0,0,1-5.4-4.613,16.292,16.292,0,0,1-2.478-14.85c.18-.006.359-.009.533-.009a16.468,16.468,0,0,1,7.179,1.655,16.343,16.343,0,0,1,8.765,11.135,37.236,37.236,0,0,0,1.127-6.2,40.509,40.509,0,0,0-1.456-15.729c-.324-.94-.61-1.926-.848-2.932h2.44c.191.641.4,1.269.635,1.867l.254.656.006.014c1.419,3.659,3.028,7.805,3.1,12.906a16.384,16.384,0,0,1,2.428-3.239,16.265,16.265,0,0,1,11.749-4.992,16.464,16.464,0,0,1,2.523.2,16.458,16.458,0,0,1-.329,7.618,16.3,16.3,0,0,1-15.686,11.813,16.47,16.47,0,0,1-1.837-.1,61.793,61.793,0,0,0,.739,14.263l.931,5.221Z" transform="translate(1564.622 490.081)" fill="#2e682f" stroke="rgba(0,0,0,0)" stroke-miterlimit="10" stroke-width="1"/>
    <path id="패스_2500" data-name="패스 2500" d="M168,0c92.784,0,143.7-3.867,161.946,9.01C334.03,12.734,349.8,28.328,327.8,33c-28.262,5.677-107.655,0-159.8,0C111.866,33,25.138,36.851-4.881,30.474-16.149,20.815-.194,10.293,3.751,7.663,13.333.9,75.216,0,168,0Z" transform="translate(1348.479 744.451)" fill="#602f0e"/>
    <path id="빼기_16" data-name="빼기 16" d="M51.136,189.744h0a55.563,55.563,0,0,1,.048-12.842,16.374,16.374,0,0,1-6.606-1.861,16.165,16.165,0,0,1-5.4-4.613,16.292,16.292,0,0,1-2.478-14.85c.18-.006.359-.009.533-.009a16.468,16.468,0,0,1,7.179,1.655,16.343,16.343,0,0,1,8.765,11.135,37.236,37.236,0,0,0,1.127-6.2,40.509,40.509,0,0,0-1.456-15.729c-.324-.94-.61-1.926-.848-2.932h2.44c.191.641.4,1.269.635,1.867l.254.656.006.014c1.419,3.659,3.028,7.805,3.1,12.906a16.384,16.384,0,0,1,2.428-3.239,16.265,16.265,0,0,1,11.749-4.992,16.464,16.464,0,0,1,2.523.2,16.458,16.458,0,0,1-.329,7.618,16.3,16.3,0,0,1-15.686,11.813,16.47,16.47,0,0,1-1.837-.1,61.793,61.793,0,0,0,.739,14.263l.931,5.221Z" transform="translate(1340.933 571.87)" fill="#2e682f" stroke="rgba(0,0,0,0)" stroke-miterlimit="10" stroke-width="1"/>
    <path id="빼기_17" data-name="빼기 17" d="M51.136,189.744h0a55.563,55.563,0,0,1,.048-12.842,16.374,16.374,0,0,1-6.606-1.861,16.165,16.165,0,0,1-5.4-4.613,16.292,16.292,0,0,1-2.478-14.85c.18-.006.359-.009.533-.009a16.468,16.468,0,0,1,7.179,1.655,16.343,16.343,0,0,1,8.765,11.135,37.236,37.236,0,0,0,1.127-6.2,40.509,40.509,0,0,0-1.456-15.729c-.324-.94-.61-1.926-.848-2.932h2.44c.191.641.4,1.269.635,1.867l.254.656.006.014c1.419,3.659,3.028,7.805,3.1,12.906a16.384,16.384,0,0,1,2.428-3.239,16.265,16.265,0,0,1,11.749-4.992,16.464,16.464,0,0,1,2.523.2,16.458,16.458,0,0,1-.329,7.618,16.3,16.3,0,0,1-15.686,11.813,16.47,16.47,0,0,1-1.837-.1,61.793,61.793,0,0,0,.739,14.263l.931,5.221Z" transform="translate(1416.267 571.87)" fill="#109512" stroke="rgba(0,0,0,0)" stroke-miterlimit="10" stroke-width="1"/>
    <path id="빼기_18" data-name="빼기 18" d="M51.136,189.744h0a55.563,55.563,0,0,1,.048-12.842,16.374,16.374,0,0,1-6.606-1.861,16.165,16.165,0,0,1-5.4-4.613,16.292,16.292,0,0,1-2.478-14.85c.18-.006.359-.009.533-.009a16.468,16.468,0,0,1,7.179,1.655,16.343,16.343,0,0,1,8.765,11.135,37.236,37.236,0,0,0,1.127-6.2,40.509,40.509,0,0,0-1.456-15.729c-.324-.94-.61-1.926-.848-2.932h2.44c.191.641.4,1.269.635,1.867l.254.656.006.014c1.419,3.659,3.028,7.805,3.1,12.906a16.384,16.384,0,0,1,2.428-3.239,16.265,16.265,0,0,1,11.749-4.992,16.464,16.464,0,0,1,2.523.2,16.458,16.458,0,0,1-.329,7.618,16.3,16.3,0,0,1-15.686,11.813,16.47,16.47,0,0,1-1.837-.1,61.793,61.793,0,0,0,.739,14.263l.931,5.221Z" transform="translate(1488.615 571.87)" fill="#2e682f" stroke="rgba(0,0,0,0)" stroke-miterlimit="10" stroke-width="1"/>
    <path id="빼기_19" data-name="빼기 19" d="M51.136,189.744h0a55.563,55.563,0,0,1,.048-12.842,16.374,16.374,0,0,1-6.606-1.861,16.165,16.165,0,0,1-5.4-4.613,16.292,16.292,0,0,1-2.478-14.85c.18-.006.359-.009.533-.009a16.468,16.468,0,0,1,7.179,1.655,16.343,16.343,0,0,1,8.765,11.135,37.236,37.236,0,0,0,1.127-6.2,40.509,40.509,0,0,0-1.456-15.729c-.324-.94-.61-1.926-.848-2.932h2.44c.191.641.4,1.269.635,1.867l.254.656.006.014c1.419,3.659,3.028,7.805,3.1,12.906a16.384,16.384,0,0,1,2.428-3.239,16.265,16.265,0,0,1,11.749-4.992,16.464,16.464,0,0,1,2.523.2,16.458,16.458,0,0,1-.329,7.618,16.3,16.3,0,0,1-15.686,11.813,16.47,16.47,0,0,1-1.837-.1,61.793,61.793,0,0,0,.739,14.263l.931,5.221Z" transform="translate(1564.622 572.081)" fill="#109512" stroke="rgba(0,0,0,0)" stroke-miterlimit="10" stroke-width="1"/>
    <g id="그룹_509" data-name="그룹 509" transform="translate(-108.825 -1118.777)">
      <path id="패스_60-2" data-name="패스 60" d="M132.611,388.63c-6.663-6.892-4.11-12.3-14.085-15.258-5.653-1.678-7.3-4.188-10.87-8.828-3.677-4.885-11.34-17.587-12.548-23.172-2.658-12.285,6.043-16.633,9.244-27.168,2.751-8.245,6.138-11.528,11.127-18.321,7.394-10.069,18.633-7.072,23.278-13.375,4.468-6.066-15.974-10.8-.925-22.373,16.878-10.959,24.757,7.646,38.948-7.456,13.023-13.856,6.253-11.046,25.469-18.187,12.548-4.662,10.07-6.792,24.825-4.246a33.958,33.958,0,0,0,15.151-.3c8.933-2.1,12.4-1.121,21.015-1.7,13.949-.93,11.723-1.536,25.126,3.075,9.569,3.086,16.066,2.47,25.613,3.164,13.7,1.37,18.569,9.863,33.094,12.154,16.129,2.545,14.127,8.4,25.635,16.242,14.848,9.756,15.046,6.013,25.237,22.545,6.71,10.885,13.486,10.833,12.34,25.636-.683,9.359-.383,9.523,2.453,18.1,3.541,10.71-3.993,15.155-8.251,23.936-2.267,4.927-3.218,8.57-5.936,13.556-5.123,9.4-5.127,12.554-16.863,13.248-16.58,1.616-13.186,7.22-22.5,9.371-12.912,2.186-14.52-7.385-23.389,6.609-8.526,13.451-12.36,17.868-28.9,18.621-9.531.434-13.672-2.043-24.7.62a58.606,58.606,0,0,0-9.257,3.879c-5.324,2.275-11.218,3.372-16.962,5.5-19.394,6.585-17.207,10.465-32.192,19.569-12.593,7.653-15.589,1.125-27.113-3.546-10.94-4.434-21.256-5.155-32.235-10.261-16.152-8.191-3.447-20.1-8.237-27.568-6.028-9.393-14.6-5.632-22.874-13.4Z" transform="translate(312.667 1323.114)" fill="#ecbb4b" fill-rule="evenodd"/>
      <path id="패스_61-2" data-name="패스 61" d="M260.142,238.786c81.177,0,146.982,38.305,146.982,85.557-1.216,35.777-24.29,48.067-55.961,54.8-31.327,6.658-32.908,9.073-60.711,22.1-26.434,12.388-48.467,9.394-76.44,2.474-23.267-5.757-43.306-14.69-64.148-26.348-30.83-17.534-51.409-47.563-16.57-74.829,8.484-6.64,17.626-12.242,26.286-19.018C200.506,250.046,203,239.66,260.142,238.786Z" transform="translate(305.789 1319.358)" fill="#dff3f7" fill-rule="evenodd"/>
      <path id="패스_62-2" data-name="패스 62" d="M404.757,322.076a46.323,46.323,0,0,0-.6-7.342c-3.833-23.532-24.8-41.089-44.689-51.718-28.973-15.483-64.273-21.846-96.884-21.64-55.411.351-57.195,10.633-97.568,43.658l-.08.064c-8.529,6.673-17.769,12.352-26.286,19.018-9.044,7.078-17.4,16.908-16.277,29.137,1.507,16.477,18.96,30.261,32.254,37.772,20.172,11.394,40.395,20.289,62.945,25.868,26.438,6.541,47.743,9.8,73.265-2.162,5.542-2.6,11.042-5.267,16.566-7.9,4.072-1.939,8.165-3.841,12.357-5.507,10.544-4.192,21.751-6.692,32.821-9.044C382.091,366.01,403.591,355.335,404.757,322.076Z" transform="translate(303.381 1318.49)" fill="#4896b3" fill-rule="evenodd"/>
      <path id="패스_65-2" data-name="패스 65" d="M365.02,307.639a32.049,32.049,0,0,0-.418-5.1c-2.665-16.357-17.238-28.56-31.063-35.948C313.4,255.826,288.862,251.4,266.2,251.546c-38.516.244-39.756,7.391-67.819,30.346l-.055.044c-5.928,4.639-12.352,8.586-18.271,13.219-6.287,4.921-12.091,11.754-11.314,20.253,1.048,11.454,13.179,21.035,22.419,26.255,14.021,7.921,28.078,14.1,43.753,17.981,18.376,4.547,33.184,6.811,50.925-1.5,3.851-1.8,7.675-3.661,11.515-5.489,2.83-1.348,5.675-2.67,8.589-3.829,7.33-2.913,15.12-4.65,22.816-6.286C349.265,338.178,364.21,330.758,365.02,307.639Z" transform="translate(287.803 1315.075)" fill="#3b81a5" fill-rule="evenodd"/>
      <g id="그룹_4" data-name="그룹 4" transform="translate(536.703 1717.796)">
        <path id="패스_69-2" data-name="패스 69" d="M289.7,491.869c2.248-7.324,10.867-15.842,18.78-11.6,2.363,1.267,9.321,7.385,10.636,9.612,2.928,4.964-1.031,14.352-6.838,15.445-3.258.611-6.59-.855-9.408-2.326a97.714,97.714,0,0,0-8.92-4.206C290.349,497.3,288.825,496.105,289.7,491.869Z" transform="translate(-289.456 -479.136)" fill="#736a67" fill-rule="evenodd"/>
        <path id="패스_70-2" data-name="패스 70" d="M294.3,488.932c1.929-4.453,5.77-8.777,11.023-8.583,2.955.111,7.161,4.995,9.244,7.128,2.97,3.042,4.392,6.489.268,9.4-3.552,2.511-8.926-.4-12.748-1.437a37.254,37.254,0,0,0-3.721-.689C294.1,494.216,292.883,493.212,294.3,488.932Z" transform="translate(-290.893 -479.541)" fill="#b1aaa2" fill-rule="evenodd"/>
        <path id="패스_71-2" data-name="패스 71" d="M301.657,491.537c-1.113-.1-3.742-.051-4.047-1.452-.285-6.725,10.528-12.763,13.845-2.328,1.528,4.8-3.6,4.195-6.957,4.015-.735-.039-1.455-.1-2.185-.171Z" transform="translate(-292.192 -480.141)" fill="#cdc9c1" fill-rule="evenodd"/>
      </g>
      <path id="패스_72-2" data-name="패스 72" d="M197.783,487.577c4.934-16.069,23.85-34.767,41.216-25.459,5.186,2.781,20.457,16.209,23.34,21.1,6.427,10.893-2.261,31.5-15.007,33.9-7.149,1.344-14.461-1.872-20.647-5.1a214.17,214.17,0,0,0-19.579-9.228C199.216,499.5,195.872,496.876,197.783,487.577Z" transform="translate(278.203 1245.208)" fill="#736a67" fill-rule="evenodd"/>
      <path id="패스_73-2" data-name="패스 73" d="M207.883,481.135c4.233-9.773,12.665-19.263,24.191-18.835,6.488.24,15.718,10.958,20.291,15.642,6.517,6.676,9.638,14.24.588,20.64-7.8,5.512-19.59-.888-27.981-3.158a81.711,81.711,0,0,0-8.166-1.511C207.456,492.729,204.775,490.525,207.883,481.135Z" transform="translate(275.05 1244.317)" fill="#b1aaa2" fill-rule="evenodd"/>
      <path id="패스_74-2" data-name="패스 74" d="M224.035,486.85c-2.444-.209-8.215-.111-8.884-3.184-.626-14.761,23.1-28.014,30.387-5.11,3.351,10.538-7.909,9.206-15.271,8.813-1.611-.085-3.19-.23-4.795-.379Z" transform="translate(272.199 1243.003)" fill="#cdc9c1" fill-rule="evenodd"/>
      <g id="그룹_6" data-name="그룹 6" transform="translate(446.445 1573.105)">
        <g id="그룹_5" data-name="그룹 5" transform="translate(24.672 4.868)">
          <path id="패스_78-2" data-name="패스 78" d="M190.809,273.422c.844-2.752,4.083-5.954,7.056-4.36a18.281,18.281,0,0,1,4,3.613c1.1,1.865-.387,5.393-2.569,5.8a5.673,5.673,0,0,1-3.535-.875,36.627,36.627,0,0,0-3.352-1.58C191.055,275.464,190.482,275.014,190.809,273.422Z" transform="translate(-190.719 -268.637)" fill="#736a67" fill-rule="evenodd"/>
          <path id="패스_79-2" data-name="패스 79" d="M192.538,272.319c.725-1.673,2.169-3.3,4.142-3.225,1.111.041,2.692,1.876,3.474,2.678,1.116,1.143,1.651,2.438.1,3.534-1.335.944-3.354-.152-4.791-.54a13.719,13.719,0,0,0-1.4-.259C192.465,274.3,192.006,273.926,192.538,272.319Z" transform="translate(-191.259 -268.789)" fill="#b1aaa2" fill-rule="evenodd"/>
          <path id="패스_80-2" data-name="패스 80" d="M195.3,273.3c-.418-.035-1.407-.019-1.52-.545-.108-2.527,3.956-4.8,5.2-.875.573,1.8-1.354,1.576-2.615,1.509-.275-.015-.546-.039-.82-.064Z" transform="translate(-191.748 -269.014)" fill="#cdc9c1" fill-rule="evenodd"/>
        </g>
        <path id="패스_81-2" data-name="패스 81" d="M156.271,271.809c1.853-6.039,8.962-13.064,15.486-9.567,1.95,1.045,7.688,6.091,8.772,7.928,2.415,4.093-.85,11.837-5.639,12.737-2.686.5-5.434-.7-7.758-1.918a80.366,80.366,0,0,0-7.358-3.467C156.808,276.291,155.552,275.3,156.271,271.809Z" transform="translate(-154.415 -261.309)" fill="#736a67" fill-rule="evenodd"/>
        <path id="패스_82-2" data-name="패스 82" d="M153.666,286.32c.844-2.752,4.083-5.953,7.056-4.359a18.294,18.294,0,0,1,4,3.612c1.1,1.865-.387,5.393-2.57,5.8a5.678,5.678,0,0,1-3.535-.874,36.527,36.527,0,0,0-3.352-1.58C153.912,288.362,153.339,287.912,153.666,286.32Z" transform="translate(-153.576 -268.1)" fill="#736a67" fill-rule="evenodd"/>
        <path id="패스_83-2" data-name="패스 83" d="M155.394,285.218c.725-1.674,2.169-3.3,4.142-3.225,1.111.04,2.692,1.876,3.475,2.678,1.116,1.144,1.651,2.438.1,3.534-1.336.944-3.354-.153-4.791-.541a14.045,14.045,0,0,0-1.4-.259C155.322,287.2,154.862,286.825,155.394,285.218Z" transform="translate(-154.116 -268.253)" fill="#b1aaa2" fill-rule="evenodd"/>
        <path id="패스_84-2" data-name="패스 84" d="M158.161,286.2c-.418-.036-1.407-.019-1.521-.546-.107-2.527,3.956-4.8,5.2-.874.574,1.8-1.354,1.576-2.614,1.509-.275-.015-.546-.04-.821-.065Z" transform="translate(-154.604 -268.477)" fill="#cdc9c1" fill-rule="evenodd"/>
        <path id="패스_85-2" data-name="패스 85" d="M160.065,269.389c1.59-3.673,4.759-7.239,9.091-7.078,2.438.09,5.906,4.118,7.624,5.878,2.449,2.509,3.622,5.351.221,7.756-2.93,2.071-7.362-.333-10.514-1.186a30.681,30.681,0,0,0-3.069-.568C159.905,273.745,158.9,272.917,160.065,269.389Z" transform="translate(-155.599 -261.643)" fill="#b1aaa2" fill-rule="evenodd"/>
        <path id="패스_86-2" data-name="패스 86" d="M166.135,271.536c-.918-.078-3.087-.042-3.339-1.2-.235-5.546,8.682-10.527,11.419-1.92,1.259,3.96-2.972,3.46-5.739,3.312-.605-.032-1.2-.086-1.8-.141Z" transform="translate(-156.671 -262.137)" fill="#cdc9c1" fill-rule="evenodd"/>
      </g>
      <path id="패스_100-2" data-name="패스 100" d="M402.032,321.551c5.859,0,10.61,1.439,10.61,3.215s-4.751,3.215-10.61,3.215-10.609-1.439-10.609-3.215,4.75-3.215,10.609-3.215ZM193.067,366.88c1.953,0,3.536.936,3.536,2.09s-1.583,2.09-3.536,2.09-3.536-.936-3.536-2.09,1.584-2.09,3.536-2.09Zm-.643-24.111c2.664,0,4.822,1.007,4.822,2.25s-2.159,2.25-4.822,2.25-4.822-1.008-4.822-2.25,2.159-2.25,4.822-2.25Zm64.619,21.217c3.018,0,5.465,1.008,5.465,2.25s-2.447,2.25-5.465,2.25-5.466-1.007-5.466-2.25,2.448-2.25,5.466-2.25Zm44.043-56.9c2.663,0,4.822,1.151,4.822,2.572s-2.159,2.571-4.822,2.571-4.822-1.151-4.822-2.571,2.159-2.572,4.822-2.572Zm-1.769,82.622c4.7,0,8.52,1.944,8.52,4.34s-3.815,4.339-8.52,4.339-8.518-1.944-8.518-4.339,3.813-4.34,8.518-4.34Zm83.265-27.327c5.237,0,9.483,1.944,9.483,4.34s-4.246,4.341-9.483,4.341-9.484-1.943-9.484-4.341S377.344,362.379,382.582,362.379Z" transform="translate(281.444 1296.427)" fill="#9dd8e0" fill-rule="evenodd"/>
    </g>
    <circle id="타원_16" data-name="타원 16" cx="9.5" cy="9.5" r="9.5" transform="translate(550 766)" fill="#7e725c"/>
    <circle id="타원_20" data-name="타원 20" cx="9.5" cy="9.5" r="9.5" transform="translate(550 912)" fill="#7e725c"/>
  </g>
</svg>
