<svg xmlns="http://www.w3.org/2000/svg" width="215.21" height="402.748" viewBox="0 0 215.21 402.748">
  <g id="그룹_642" data-name="그룹 642" transform="translate(-30.773 -35.203)">
    <g id="그룹_5" data-name="그룹 5" transform="translate(94.375 353.228)">
      <g id="그룹_2" data-name="그룹 2">
        <g id="그룹_1" data-name="그룹 1" transform="translate(0.737)">
          <path id="패스_1" data-name="패스 1" d="M108.187,341.856c-.374-2.479-.952-7.83-1.232-11.551-.282-3.762,1.087-58.022,1.265-58.032,0,0-23.474-12.432-22.571,1.929s2.924,20.6,7.615,54.159c.406,2.9,1.255,6.178-1.5,7.989-1.9,1.248-5.86,1.818-7.974,2.687A11.977,11.977,0,0,0,78.31,342.9c-1.2,1.738-.169,3.9-.262,5.991a1.116,1.116,0,0,0,.171.8,1.253,1.253,0,0,0,.954.3c4.591.114,7.789-.463,12.336-1.04a40.577,40.577,0,0,0,7.171-1.35,39.547,39.547,0,0,0,9.055-4.7,1.119,1.119,0,0,0,.4-.36A1.062,1.062,0,0,0,108.187,341.856Z" transform="translate(-77.724 -267.279)" fill="#ffdbbb"/>
        </g>
        <path id="패스_2" data-name="패스 2" d="M84.864,322.638A22.4,22.4,0,0,0,90,320.728a6.661,6.661,0,0,0,1.461-1.246c.425-1.21.082-5.3-.2-6.171-.347-1.07-1.088-2.7-.537-3.244s1.62.341,2.031,1.4a1.4,1.4,0,1,1,2.76-.115,2.164,2.164,0,0,1,1.929-1.7,2.04,2.04,0,0,1,2.023,1.544,1.582,1.582,0,0,1,1.436-1.961,1.944,1.944,0,0,1,1.825,1.8,2.445,2.445,0,0,1,1.533-2.125,1.578,1.578,0,0,1,2.016,1.281,3.307,3.307,0,0,1-.141.9,14.693,14.693,0,0,0,.095,5.161q.471,3.605.73,7.235a8.992,8.992,0,0,1-.141,3.044,5.855,5.855,0,0,1-1.135,2.1,12.754,12.754,0,0,1-6.087,3.7,40.289,40.289,0,0,1-16.827,1.59q-.487-.051-.974-.11" transform="translate(-75.479 -251.888)" fill="#ff6183"/>
        <path id="패스_3" data-name="패스 3" d="M108.419,317.768a10.544,10.544,0,0,1-5.993,5.845,14.258,14.258,0,0,0-5.958-6.789,6.861,6.861,0,0,0-3.451-.585,3.767,3.767,0,0,0-1.437,1.754c3.108.225,7.187,4.351,7.011,7a22.433,22.433,0,0,1-3.707,1.068,3.888,3.888,0,0,1-2.654-.619,9.777,9.777,0,0,1-2-2.419,12.814,12.814,0,0,0-3.271-3.463,14.817,14.817,0,0,0-3.969,1.34,10.152,10.152,0,0,0-4.321,3.551,9.752,9.752,0,0,0-1.45,4.011,7.672,7.672,0,0,0,.277,2.867c.6,1.936,6.26,2.994,10.892,2.357,4.259-.585,14.419-1.622,19.54-6.09C109.463,326.256,109.584,317.594,108.419,317.768Z" transform="translate(-77.186 -249.151)" fill="#b72a71"/>
      </g>
      <g id="그룹_4" data-name="그룹 4" transform="translate(43.731)">
        <g id="그룹_3" data-name="그룹 3" transform="translate(0.78)">
          <path id="패스_4" data-name="패스 4" d="M109.7,341.856c.374-2.479.954-7.83,1.232-11.551.284-3.762-1.087-58.022-1.265-58.032,0,0,23.474-12.432,22.571,1.929s-2.924,20.6-7.615,54.159c-.4,2.9-1.255,6.178,1.5,7.989,1.9,1.248,5.86,1.818,7.974,2.687a11.97,11.97,0,0,1,5.484,3.862c1.2,1.738.169,3.9.263,5.991a1.123,1.123,0,0,1-.173.8,1.253,1.253,0,0,1-.954.3c-4.591.114-7.789-.463-12.336-1.04a40.578,40.578,0,0,1-7.171-1.35,39.547,39.547,0,0,1-9.055-4.7,1.119,1.119,0,0,1-.4-.36A1.062,1.062,0,0,1,109.7,341.856Z" transform="translate(-109.668 -267.279)" fill="#ffdbbb"/>
        </g>
        <path id="패스_5" data-name="패스 5" d="M131.6,322.638a22.4,22.4,0,0,1-5.136-1.91A6.661,6.661,0,0,1,125,319.482c-.425-1.21-.082-5.3.2-6.171.347-1.07,1.088-2.7.537-3.244s-1.618.341-2.031,1.4a1.4,1.4,0,1,0-2.76-.115,2.163,2.163,0,0,0-1.929-1.7A2.04,2.04,0,0,0,117,311.188a1.581,1.581,0,0,0-1.435-1.961,1.945,1.945,0,0,0-1.827,1.8A2.445,2.445,0,0,0,112.2,308.9a1.578,1.578,0,0,0-2.016,1.281,3.308,3.308,0,0,0,.141.9,14.692,14.692,0,0,1-.095,5.161q-.471,3.605-.73,7.235a8.992,8.992,0,0,0,.141,3.044,5.855,5.855,0,0,0,1.135,2.1,12.758,12.758,0,0,0,6.088,3.7,40.283,40.283,0,0,0,16.825,1.59c.325-.034.651-.071.976-.11" transform="translate(-108.972 -251.888)" fill="#ff6183"/>
        <path id="패스_6" data-name="패스 6" d="M109.879,317.768a10.544,10.544,0,0,0,5.993,5.845,14.259,14.259,0,0,1,5.96-6.789,6.859,6.859,0,0,1,3.451-.585,3.764,3.764,0,0,1,1.436,1.754c-3.108.225-7.186,4.351-7.011,7a22.41,22.41,0,0,0,3.708,1.068,3.886,3.886,0,0,0,2.653-.619,9.718,9.718,0,0,0,2-2.419,12.814,12.814,0,0,1,3.271-3.463,14.817,14.817,0,0,1,3.969,1.34,10.136,10.136,0,0,1,4.321,3.551,9.732,9.732,0,0,1,1.45,4.011,7.7,7.7,0,0,1-.275,2.867c-.6,1.936-6.261,2.994-10.893,2.357-4.259-.585-14.419-1.622-19.54-6.09C108.835,326.256,108.714,317.594,109.879,317.768Z" transform="translate(-109.099 -249.151)" fill="#b72a71"/>
      </g>
    </g>
    <path id="패스_7" data-name="패스 7" d="M214.895,272.525c2.89,2.886,2.905,7.319-.323,8.6-2.306.913-7.44.848-9.4-.674-.227,3.646-1.742,5.7-5.321,6.43a11.333,11.333,0,0,1-10-3.287,8.6,8.6,0,0,1-15.548-.676c-.508,4.1-3.553,7.144-6.948,7.475-2.85.28-7.34-.634-8.987-2.976-.374,3.379-3.6,5.949-6.972,6.4s-6.761-.828-9.639-2.637a9.064,9.064,0,0,1-15.151,2.276,7.786,7.786,0,0,1-6.868,3.5c-2.689-.156-6.634-2.605-7.812-5.028a7.231,7.231,0,0,1-12.961-2.5,10.376,10.376,0,0,1-9.1,3.433c-3.349-.463-6.4-4.081-7.83-7.142a8.113,8.113,0,0,1-14.733-1.242,8.866,8.866,0,0,1-15.126-3.045c-3,1-6.556,1.118-9.08-.785s-3.134-6.284-.574-8.139l12.521-4.115,12.3-6.746s4.906-5.314,19.011-6.949l14.1-1.636,3.475,1.226" transform="translate(3.743 80.684)" fill="#b72a71"/>
    <g id="그룹_7" data-name="그룹 7" transform="translate(30.773 35.203)">
      <g id="그룹_6" data-name="그룹 6">
        <path id="패스_8" data-name="패스 8" d="M229.713,155.128c-.415-5.7,1.507-11.277,1.825-16.936,1.144-20.395-11.464-45.563-21.919-61.927-9.849-15.418-40.39-51.955-77.7-37.908-37.311-14.047-67.85,22.49-77.7,37.908C43.768,92.629,31.158,117.8,32.3,138.192c.318,5.66,2.241,11.233,1.825,16.936-.366,5.028-4,9.664-3.252,14.734a20.56,20.56,0,0,0,9.17,13.719,30.982,30.982,0,0,0,15.945,4.709,8.134,8.134,0,0,1,2.283.288,8.235,8.235,0,0,1,2.5,1.65c7.282,6.045,17.017,9.821,26.4,7.557,3.636-.877,7.261-2.167,10.994-2,3.964.181,7.937,2,11.781,1a8.949,8.949,0,0,0,2.589-1.152,5.262,5.262,0,0,1,5.3-.225c3.381,1.753,8.43,2.868,14.079,2.868s10.7-1.115,14.078-2.868a5.262,5.262,0,0,1,5.3.225,8.949,8.949,0,0,0,2.589,1.152c3.845,1,7.816-.822,11.781-1,3.734-.17,7.359,1.12,10.994,2,9.386,2.264,19.119-1.513,26.4-7.557a8.218,8.218,0,0,1,2.5-1.65,8.118,8.118,0,0,1,2.282-.288,30.982,30.982,0,0,0,15.945-4.709,20.562,20.562,0,0,0,9.172-13.719C233.719,164.791,230.081,160.156,229.713,155.128Zm-110.1,29.058a23.528,23.528,0,0,0-4.751-19.943l10.86-80.137,23.262,80.137a23.529,23.529,0,0,0-4.752,19.943,37.529,37.529,0,0,0-24.618,0Z" transform="translate(-30.773 -35.203)" fill="#7c3432"/>
      </g>
    </g>
    <g id="그룹_11" data-name="그룹 11" transform="translate(205.613 85.512)">
      <g id="그룹_8" data-name="그룹 8" transform="translate(14.376 25.021)">
        <path id="패스_9" data-name="패스 9" d="M181.267,111.712l-3.308-1.561-4.148-2.734-1.976-2.51-1.043-2.479.2-2.92-.347-2.685.071-1.951.973-2.367,6.3-2.331a11.57,11.57,0,0,1,8.619,4.765,12.714,12.714,0,0,1,1.644,10.052,10.273,10.273,0,0,1-2.306,4.7,5.639,5.639,0,0,1-4.684,2.017" transform="translate(-168.186 -90.174)" fill="#7c3432"/>
        <path id="패스_10" data-name="패스 10" d="M170.956,93.467c-2.228,3.537-2.538,5.857-1.621,9.479a11.774,11.774,0,0,0,1.313,3.245c2,3.285,6.168,5.368,10.712,5.348,1.45-.007,1.1-1.562.582-2.172a6.786,6.786,0,0,0-1.712-1.244c-4.571-2.78-9.825-10.012-8.518-15.115" transform="translate(-168.852 -89.124)" fill="#632a2a"/>
        <path id="패스_11" data-name="패스 11" d="M176.526,95.667a5.087,5.087,0,0,0,.9,2.4l3.271,5.586a4.95,4.95,0,0,0,.856,1.177,3.488,3.488,0,0,0,.38-2.778,4.364,4.364,0,0,0-.574-1.476c-1.11-1.7-3.844-2.354-4.5-4.26" transform="translate(-166.01 -88.14)" fill="#632a2a"/>
        <path id="패스_12" data-name="패스 12" d="M179.638,100.756a2.965,2.965,0,0,1-.948-1.906,6.976,6.976,0,0,1,.984-3.442,3.4,3.4,0,0,0,.149,1.853,8.181,8.181,0,0,1,.04,4.622" transform="translate(-165.213 -88.236)" fill="#632a2a"/>
      </g>
      <g id="그룹_9" data-name="그룹 9">
        <path id="패스_13" data-name="패스 13" d="M174.817,103.186c1.8.132,3.553-1.272,4.487-3.118a12.421,12.421,0,0,0,1.05-6.158,19.744,19.744,0,0,0-4.931-12.3c-2.9-3.137-6.875-9.772-10.9-9.694" transform="translate(-156.078 -71.915)" fill="#7c3432"/>
        <path id="패스_14" data-name="패스 14" d="M159.011,78.057a20.325,20.325,0,0,0,1.6,14.224,18.807,18.807,0,0,0,2.446,3.87,15.3,15.3,0,0,0,13.366,5.27c1.581-.2.714-2.087-.041-2.78a9.184,9.184,0,0,0-2.257-1.325C168.262,94.445,163.7,88.521,163.538,82" transform="translate(-158.361 -69.641)" fill="#632a2a"/>
        <path id="패스_15" data-name="패스 15" d="M166.8,82.248a8.071,8.071,0,0,0,1.736,2.876l5.314,6.531a7.616,7.616,0,0,0,1.3,1.354A4.961,4.961,0,0,0,174.7,89.5a7.019,7.019,0,0,0-1.088-1.762c-1.744-1.979-4.932-2.432-6.245-4.721" transform="translate(-155.235 -68.089)" fill="#632a2a"/>
        <path id="패스_16" data-name="패스 16" d="M171.568,88.217a4.649,4.649,0,0,1-1.631-2.251,9.3,9.3,0,0,1,0-4.411,5.245,5.245,0,0,0,.74,2.286,12.291,12.291,0,0,1,1.485,5.75" transform="translate(-154.174 -68.346)" fill="#632a2a"/>
      </g>
      <path id="패스_17" data-name="패스 17" d="M179.231,106.211a10,10,0,0,0-1.81,5.621,10.754,10.754,0,0,0,1.723,4.432,11.654,11.654,0,0,1,1.8,4.408c.173,1.59-1.6,4.088-3.07,4.713,1.657,1.325,4.369.6,6.108.65a6.175,6.175,0,0,0,4.732-1.8c1.172-1.287,1.257-4.206.813-5.506a2.711,2.711,0,0,0,2.146-2.859,7.87,7.87,0,0,0-1.522-4.795,17.659,17.659,0,0,0-3.594-3.623,8.724,8.724,0,0,0-2-1.295,3.332,3.332,0,0,0-2.336-.17" transform="translate(-151.308 -59.35)" fill="#7c3432"/>
      <g id="그룹_10" data-name="그룹 10" transform="translate(26.098 46.847)">
        <path id="패스_18" data-name="패스 18" d="M187.118,117.764a4.689,4.689,0,0,0-.185-.907A2.711,2.711,0,0,0,189.079,114a7.067,7.067,0,0,0-.614-3.1c-.051.362-.1.724-.151,1.085-.077.552-.215,1.192-.718,1.431-.548.26-1.178-.119-1.632-.521a2.305,2.305,0,0,0-1.561-.826A9.044,9.044,0,0,1,187,117.7Z" transform="translate(-174.814 -104.327)" fill="#632a2a"/>
        <path id="패스_19" data-name="패스 19" d="M182.782,120.952a9.766,9.766,0,0,0-.748-4.65,21.018,21.018,0,0,1-1.363-4.545,5.136,5.136,0,0,1,1.321-4.389l-2.58-1.266-.18.014a10,10,0,0,0-1.81,5.621,10.754,10.754,0,0,0,1.723,4.432,11.654,11.654,0,0,1,1.8,4.408c.129,1.176-.81,2.846-1.9,3.89a3.092,3.092,0,0,0,.9-.056A4.047,4.047,0,0,0,182.782,120.952Z" transform="translate(-177.406 -106.102)" fill="#632a2a"/>
      </g>
      <path id="패스_20" data-name="패스 20" d="M185.124,104.373c-.075-.036-.151-.069-.215-.1a4.407,4.407,0,0,0-1.468-.021,10.03,10.03,0,0,0-1.792.264,15.2,15.2,0,0,0-3.266,1.229c-.882.44-1.8,1.028-1.9,1.838a.319.319,0,0,0,.055.255.543.543,0,0,0,.3.138,4.33,4.33,0,0,0,2.02-.206,31.6,31.6,0,0,0,4.107-1.414C183.578,106.089,186.464,105.006,185.124,104.373Z" transform="translate(-151.652 -59.96)" fill="#ff6183"/>
      <path id="패스_21" data-name="패스 21" d="M186.381,106.154a.444.444,0,0,0-.038-.188,1.13,1.13,0,0,0-.507-.46,4.8,4.8,0,0,0-4.132.093,17.6,17.6,0,0,0-1.7.924c-.7.381-1.5.634-2.172,1.051-.356.221-.73.552-.58.884a.968.968,0,0,0,.7.41,6.457,6.457,0,0,0,2.665-.149,18.119,18.119,0,0,0,4.936-1.646C185.956,106.85,186.38,106.514,186.381,106.154Z" transform="translate(-151.378 -59.635)" fill="#ff6183"/>
    </g>
    <path id="패스_22" data-name="패스 22" d="M213.252,174.081c-2.116-1.088-3.977-3.155-3.87-5.531a7.825,7.825,0,0,1,1.4-3.653c2.582-4.184,6.072-8.017,7.076-12.828,1.372-6.572-.861-13.074-4.556-18.679a16.275,16.275,0,0,1-2.4-4.626c-.733-2.76.077-5.66.665-8.455,2.734-12.965-.758-26.652-5.776-38.915s-12.818-23.216-21.534-33.2l-37.578,2.447c4.28,13.656,2.239,28.443-.781,42.431-2.228,10.32-4.976,20.513-8.091,30.6l10.382,35.762a23.529,23.529,0,0,0-4.752,19.943,37.529,37.529,0,0,0-24.618,0,23.872,23.872,0,0,0-3.15-17.793l-.016,0c-.093-.144-.195-.281-.291-.422a20.388,20.388,0,0,0-1.294-1.732l6.606-48.752c-1.585-5.831-3.041-11.7-4.317-17.608-3.02-13.989-5.061-28.776-.781-42.431L78,48.194c-8.714,9.983-16.514,20.936-21.532,33.2s-8.511,25.95-5.777,38.915c.589,2.8,1.4,5.7.665,8.455a16.305,16.305,0,0,1-2.4,4.626c-3.7,5.6-5.929,12.107-4.558,18.679,1.006,4.811,4.495,8.644,7.076,12.828a7.825,7.825,0,0,1,1.4,3.653c.107,2.376-1.754,4.443-3.87,5.531-5.018,2.578-10.915.977-16.077-1.713.255.4.526.782.81,1.159l.037.049a22.954,22.954,0,0,0,2.9,3.149h-.014a22.722,22.722,0,0,0,2.6,2.042A30.982,30.982,0,0,0,55.2,183.478a8.134,8.134,0,0,1,2.283.288,8.235,8.235,0,0,1,2.5,1.65c7.282,6.045,17.017,9.821,26.4,7.557,3.636-.877,7.261-2.167,10.994-2,3.964.181,7.937,2,11.781,1a8.95,8.95,0,0,0,2.589-1.152,5.262,5.262,0,0,1,5.3-.225c3.381,1.753,8.43,2.868,14.079,2.868s10.7-1.115,14.078-2.868a5.262,5.262,0,0,1,5.3.225,8.95,8.95,0,0,0,2.589,1.152c3.845,1,7.816-.822,11.781-1,3.734-.17,7.359,1.12,10.994,2,9.386,2.264,19.119-1.513,26.4-7.557a8.218,8.218,0,0,1,2.5-1.65,8.118,8.118,0,0,1,2.282-.288,34.76,34.76,0,0,0,10.069-1.831c.323-.114.64-.241.959-.366.275-.107.552-.214.824-.33s.558-.247.833-.374q.508-.238,1-.5c.215-.111.43-.219.641-.337.548-.306,1.089-.625,1.616-.973a22.071,22.071,0,0,0,1.788-1.324c.07-.058.133-.122.2-.181.513-.43,1.014-.878,1.487-1.355.021-.021.038-.043.058-.063a21.909,21.909,0,0,0,2.794-3.477h0C224.167,175.06,218.27,176.659,213.252,174.081Z" transform="translate(0.795 4.811)" fill="#632a2a"/>
    <g id="그룹_18" data-name="그룹 18" transform="translate(47.863 141.576)">
      <path id="패스_28" data-name="패스 28" d="M61.449,117.021c-1.621-3.675-6.549-5.088-10.29-3.625s-6.268,5.132-7.364,9a12.845,12.845,0,0,0-.548,3.741c.095,5.072,4.237,9.3,8.88,11.341a14.023,14.023,0,0,0,8.229,1.231,8.139,8.139,0,0,0,6.242-5.1" transform="translate(-43.245 -112.828)" fill="#ffd5b8"/>
      <g id="그룹_16" data-name="그룹 16" transform="translate(5.471 4.819)">
        <path id="패스_29" data-name="패스 29" d="M47.789,121.194c-.4-2.327,1.792-4.8,4.236-3.731,3.133,1.377.264,4.777.707,6.935.344,1.683,2.332,1.635,3.508,2.39a4.807,4.807,0,0,1,2.025,2.927c.451,2.872-2.964,1.78-4.4,1.055-.41-.207-.862.312-.507.658,1.839,1.787,6.464,2.417,6.289-1.277a5.826,5.826,0,0,0-2-3.741,5.193,5.193,0,0,0-1.318-.874,10.237,10.237,0,0,1-1.462-.471c-1.533-1.047-.7-2.071-.473-3.272.5-2.575-.456-5.665-3.586-5.435a3.834,3.834,0,0,0-3.426,4.951c.069.271.458.152.411-.114Z" transform="translate(-47.237 -116.344)" fill="#f9b995"/>
      </g>
      <g id="그룹_17" data-name="그룹 17" transform="translate(5.592 13.198)">
        <path id="패스_30" data-name="패스 30" d="M47.348,122.717c-.178,1.61.7,3.881,2.506,4.188.359.06.717-.378.391-.67-1.183-1.057-2.228-1.772-2.361-3.518a.268.268,0,0,0-.536,0Z" transform="translate(-47.326 -122.459)" fill="#f9b995"/>
      </g>
      <path id="패스_31" data-name="패스 31" d="M65.423,133.492l-5.148-16.585a7.068,7.068,0,0,0-4.474-3.77c-.693,6.517.948,18.446,1.881,22.638-2.234,1.566-8.894-.46-11.267-1.311a17.646,17.646,0,0,0,4.537,2.9,14.023,14.023,0,0,0,8.229,1.231A8.138,8.138,0,0,0,65.423,133.492Z" transform="translate(-42.071 -112.713)" fill="#f9b995" opacity="0.55" style="mix-blend-mode: multiply;isolation: isolate"/>
    </g>
    <g id="그룹_21" data-name="그룹 21" transform="translate(192.904 141.576)">
      <path id="패스_32" data-name="패스 32" d="M154.237,117.021c1.62-3.675,6.548-5.088,10.289-3.625s6.268,5.132,7.364,9a12.892,12.892,0,0,1,.55,3.741c-.1,5.072-4.237,9.3-8.881,11.341a14.023,14.023,0,0,1-8.229,1.231,8.138,8.138,0,0,1-6.242-5.1" transform="translate(-149.087 -112.828)" fill="#ffd5b8"/>
      <g id="그룹_19" data-name="그룹 19" transform="translate(5.468 4.819)">
        <path id="패스_33" data-name="패스 33" d="M164.939,121.194c.4-2.327-1.792-4.8-4.236-3.731-3.133,1.377-.264,4.777-.707,6.935-.344,1.683-2.332,1.635-3.507,2.39a4.8,4.8,0,0,0-2.027,2.927c-.449,2.872,2.964,1.78,4.4,1.055.41-.207.863.312.507.658-1.839,1.787-6.463,2.417-6.289-1.277a5.827,5.827,0,0,1,2-3.741,5.146,5.146,0,0,1,1.318-.874,10.164,10.164,0,0,0,1.461-.471c1.535-1.047.7-2.071.473-3.272-.495-2.575.456-5.665,3.586-5.435a3.835,3.835,0,0,1,3.427,4.951c-.07.271-.458.152-.412-.114Z" transform="translate(-153.077 -116.344)" fill="#f9b995"/>
      </g>
      <g id="그룹_20" data-name="그룹 20" transform="translate(14.713 13.198)">
        <path id="패스_34" data-name="패스 34" d="M162.848,122.717c.178,1.61-.7,3.881-2.506,4.188-.359.06-.717-.378-.389-.67,1.183-1.057,2.227-1.772,2.361-3.518a.267.267,0,0,1,.534,0Z" transform="translate(-159.824 -122.459)" fill="#f9b995"/>
      </g>
      <path id="패스_35" data-name="패스 35" d="M149.087,133.492l5.15-16.585a7.066,7.066,0,0,1,4.473-3.77c.693,6.517,1.011,15-1.228,21.745,2.234,1.566,8.241.433,10.613-.418a17.623,17.623,0,0,1-4.537,2.9,14.023,14.023,0,0,1-8.229,1.231A8.138,8.138,0,0,1,149.087,133.492Z" transform="translate(-149.087 -112.713)" fill="#f9b995" opacity="0.55" style="mix-blend-mode: multiply;isolation: isolate"/>
    </g>
    <path id="패스_36" data-name="패스 36" d="M101.752,143.512c1.231,10.639-2.149,14.84-12.078,16.929,0,0-.622,14.663,18.482,16.924,7.855.93,20.091-7.63,22.389-14.845-8.373-1.516-11.886-11.105-9.254-18.064" transform="translate(21.813 40.112)" fill="#ffd5b8"/>
    <path id="패스_37" data-name="패스 37" d="M99.555,148.857a51.137,51.137,0,0,0,13.784.09,5.413,5.413,0,0,1-5.339,3.5,10.963,10.963,0,0,1-2.6-.6,34.335,34.335,0,0,1-5.845-2.989" transform="translate(25.473 42.092)" fill="#f9b995"/>
    <path id="패스_38" data-name="패스 38" d="M191.584,121.164c-2.417-13.591-8-26.154-12.88-38.884-2.848-7.431-6.087-15.7-12.761-18.8l-3.061-.251c-5.527-3.833-12.047-5.9-18.449-4.959l-21.1,1.725-21.1-1.725c-6.4-.944-12.922,1.126-18.45,4.959l-3.061.251c-6.674,3.107-9.913,11.371-12.761,18.8-4.878,12.729-10.463,25.293-12.88,38.884s-1.243,28.733,6.361,39.7c7.869,11.353,23.873,18.054,36.536,20.383,16.521,3.035,35.167,3.294,51.654-.182,12.836-2.705,27.366-8.339,35.587-20.2C192.827,149.9,194,134.753,191.584,121.164Z" transform="translate(8.586 8.458)" fill="#ffd5b8"/>
    <path id="패스_39" data-name="패스 39" d="M127.4,125.032c-.415-4.384,5.743-4.428,8.663-4.212,3.459.254,10.835,1.1,7.341,6.206-2.3,3.366-8.333,4.207-11.975,3.111A6.012,6.012,0,0,1,127.4,125.032Z" transform="translate(35.777 31.683)" fill="#ef9181"/>
    <path id="패스_40" data-name="패스 40" d="M86.956,125.032c.415-4.384-5.743-4.428-8.663-4.212-3.459.254-10.835,1.1-7.341,6.206,2.3,3.366,8.333,4.207,11.975,3.111A6.012,6.012,0,0,0,86.956,125.032Z" transform="translate(14.54 31.683)" fill="#ef9181"/>
    <path id="패스_44" data-name="패스 44" d="M103.059,143a5.733,5.733,0,0,0,6.115-.284" transform="translate(26.771 39.818)" fill="none" stroke="#f9b995" stroke-miterlimit="10" stroke-width="1"/>
    <g id="그룹_43" data-name="그룹 43" transform="translate(82.81 123.924)">
      <g id="그룹_33" data-name="그룹 33" transform="translate(78.151)">
        <g id="그룹_25" data-name="그룹 25" transform="translate(1.889 9.812)">
          <path id="패스_45" data-name="패스 45" d="M133.641,121.734c9.392.763,10.594-13.834,1.185-14.6-9.392-.763-10.594,13.834-1.185,14.6Z" transform="translate(-127.155 -107.107)" fill="#7c3432"/>
        </g>
        <g id="그룹_26" data-name="그룹 26" transform="translate(5.015 13.049)">
          <path id="패스_46" data-name="패스 46" d="M133.058,117.635c5.244.426,5.916-7.723.662-8.149s-5.916,7.723-.662,8.149Z" transform="translate(-129.436 -109.469)" fill="#512020"/>
        </g>
        <g id="그룹_27" data-name="그룹 27" transform="translate(3.192 13.048)">
          <path id="패스_47" data-name="패스 47" d="M131.059,116.129c4.277.348,4.825-6.3.54-6.648s-4.824,6.3-.54,6.648Z" transform="translate(-128.106 -109.468)" fill="#fff"/>
        </g>
        <g id="그룹_28" data-name="그룹 28" transform="translate(4.469)">
          <path id="패스_48" data-name="패스 48" d="M140.871,104.764c-1.747-4.567-8.5-6.909-11.74-2.361-.336.47.31,1.041.767.767,1.794-1.076,3.4-2.009,5.58-1.6a6.356,6.356,0,0,1,4.48,3.577c.249.5,1.115.148.913-.384Z" transform="translate(-129.038 -99.947)" fill="#7c3432"/>
        </g>
        <g id="그룹_29" data-name="그룹 29" transform="translate(0 8.555)">
          <path id="패스_49" data-name="패스 49" d="M126.151,112.59c2.162-3.675,6.338-6,10.633-4.733,4.186,1.235,5.406,5.154,6.8,8.859a.517.517,0,0,0,1.01-.137,10.319,10.319,0,0,0-8-10.242c-4.458-.78-9.576,1.586-10.808,6.1a.2.2,0,0,0,.367.155Z" transform="translate(-125.777 -106.19)" fill="#7c3432"/>
        </g>
        <g id="그룹_30" data-name="그룹 30" transform="translate(17.324 14.682)">
          <path id="패스_50" data-name="패스 50" d="M140.339,110.7c-.275.319-.371.77-.7,1.046-.347.291-.755.092-1.087.347a.3.3,0,0,0-.1.385l.053.118a.417.417,0,0,0,.369.211c.972-.021,2.034-1.03,1.653-2.057a.113.113,0,0,0-.188-.049Z" transform="translate(-138.418 -110.661)" fill="#7c3432"/>
        </g>
        <g id="그룹_31" data-name="그룹 31" transform="translate(17.736 16.464)">
          <path id="패스_51" data-name="패스 51" d="M140.714,112.027a1.441,1.441,0,0,1-.922.534,1.718,1.718,0,0,0-.835.218.508.508,0,0,0,0,.861c.91.692,1.909-.632,2.091-1.418.042-.178-.2-.36-.334-.195Z" transform="translate(-138.719 -111.961)" fill="#7c3432"/>
        </g>
        <g id="그룹_32" data-name="그룹 32" transform="translate(16.66 14.005)">
          <path id="패스_52" data-name="패스 52" d="M139.376,110.253a1.5,1.5,0,0,1-1.124.587c-.46.093-.386.729,0,.861a1.177,1.177,0,0,0,1.462-1.4.188.188,0,0,0-.338-.044Z" transform="translate(-137.934 -110.167)" fill="#7c3432"/>
        </g>
      </g>
      <g id="그룹_42" data-name="그룹 42">
        <g id="그룹_34" data-name="그룹 34" transform="translate(4.025 9.812)">
          <path id="패스_53" data-name="패스 53" d="M79.355,121.734c-9.394.763-10.594-13.834-1.187-14.6,9.392-.763,10.594,13.834,1.187,14.6Z" transform="translate(-71.683 -107.107)" fill="#7c3432"/>
        </g>
        <g id="그룹_35" data-name="그룹 35" transform="translate(7.151 13.049)">
          <path id="패스_54" data-name="패스 54" d="M78.249,117.635c-5.246.426-5.916-7.723-.663-8.149s5.916,7.723.663,8.149Z" transform="translate(-73.965 -109.469)" fill="#512020"/>
        </g>
        <g id="그룹_36" data-name="그룹 36" transform="translate(10.432 13.048)">
          <path id="패스_55" data-name="패스 55" d="M79.852,116.129c-4.277.348-4.824-6.3-.54-6.648s4.824,6.3.54,6.648Z" transform="translate(-76.359 -109.468)" fill="#fff"/>
        </g>
        <g id="그룹_37" data-name="그룹 37" transform="translate(3.738)">
          <path id="패스_56" data-name="패스 56" d="M71.505,104.764c1.746-4.567,8.5-6.909,11.74-2.361.334.47-.311,1.041-.769.767-1.794-1.076-3.4-2.009-5.58-1.6a6.355,6.355,0,0,0-4.48,3.577c-.249.5-1.115.148-.911-.384Z" transform="translate(-71.474 -99.947)" fill="#7c3432"/>
        </g>
        <g id="그룹_38" data-name="그룹 38" transform="translate(1.236 8.555)">
          <path id="패스_57" data-name="패스 57" d="M88.108,112.59c-2.162-3.675-6.338-6-10.633-4.733-4.186,1.235-5.4,5.154-6.8,8.859a.517.517,0,0,1-1.01-.137,10.32,10.32,0,0,1,8-10.242c4.458-.78,9.576,1.586,10.808,6.1a.2.2,0,0,1-.367.155Z" transform="translate(-69.649 -106.19)" fill="#7c3432"/>
        </g>
        <g id="그룹_39" data-name="그룹 39" transform="translate(0.559 14.682)">
          <path id="패스_58" data-name="패스 58" d="M69.421,110.7c.275.319.371.77.7,1.046.347.291.755.092,1.087.347a.292.292,0,0,1,.1.385l-.053.118a.417.417,0,0,1-.369.211c-.972-.021-2.034-1.03-1.653-2.057a.113.113,0,0,1,.188-.049Z" transform="translate(-69.154 -110.661)" fill="#7c3432"/>
        </g>
        <g id="그룹_40" data-name="그룹 40" transform="translate(0 16.464)">
          <path id="패스_59" data-name="패스 59" d="M69.087,112.027a1.438,1.438,0,0,0,.921.534,1.714,1.714,0,0,1,.835.218.508.508,0,0,1,0,.861c-.91.692-1.909-.632-2.091-1.418-.042-.178.2-.36.336-.195Z" transform="translate(-68.746 -111.961)" fill="#7c3432"/>
        </g>
        <g id="그룹_41" data-name="그룹 41" transform="translate(1.6 14.005)">
          <path id="패스_60" data-name="패스 60" d="M70.283,110.253a1.5,1.5,0,0,0,1.125.587c.46.093.385.729,0,.861a1.176,1.176,0,0,1-1.462-1.4.187.187,0,0,1,.337-.044Z" transform="translate(-69.914 -110.167)" fill="#7c3432"/>
        </g>
      </g>
    </g>
    <path id="패스_61" data-name="패스 61" d="M78.566,120.867c1.738-7.7,5.945-18.058,5.443-16.156a110.412,110.412,0,0,0-2.907,15.9c6.446-.617,13.14-1.1,20.04-1.444.824-6.213,2.069-15.345,2.069-13.723v13.628q10.849-.491,22.274-.508c1.35,0,2.686.015,4.026.026.406-7.009,1.351-15.227,1.517-13.454.421,4.487.7,8.976.881,13.469q10.263.132,20.043.673c-.155-7.074-.724-15.448-.136-13.856a48.676,48.676,0,0,1,2.867,14.015c8.874.534,17.4,1.3,25.431,2.283-.206-9.683-1.322-21.654-.708-20.007a59.261,59.261,0,0,1,3.62,20.384c6.449.843,12.583,1.817,18.323,2.919,3.4-14.058.687-36.94-5.723-49.005-4.839-9.11-10.172-18.59-18.87-25.51-14.324-11.4-33.171-19.414-49.418-12.214-21.2-7.718-39.609-.352-56.95,17.5-11.227,11.558-24.766,45.589-21.838,69.444C57.648,123.446,67.732,121.972,78.566,120.867Z" transform="translate(6.434 0.016)" fill="#7c3432"/>
    <g id="그룹_47" data-name="그룹 47" transform="translate(205.706 298.912)">
      <path id="패스_62" data-name="패스 62" d="M158.583,234.5a32.041,32.041,0,0,0,.029,6.554,25.459,25.459,0,0,0,.873,5.155c.222.685.645,1.544,1.432,1.736.848.206,1.2-.455,1.288-1.139.123-.974-.489-2.6.9-3.019s1.921,7.264,2.85,7.832c.718.438,1.713-1.9,1.709-3.176s.326-3.812.326-3.812.314,7.766,1.268,7.537c2.309-.554,1.986-7.775,1.986-7.775s.041,6.29,1.017,6.324c2,.07,1.857-7.3,1.857-7.3s-.217,6.212.881,6.253c2.893.112,2.6-7.974,1.485-10.672-1.516-3.682-6.58-9.37-10.48-11.353" transform="translate(-158.429 -227.642)" fill="#ffd5b8"/>
      <g id="그룹_44" data-name="그룹 44" transform="translate(8.988 14.488)">
        <path id="패스_63" data-name="패스 63" d="M165.491,238.344c.233.4.382.644.2,1.089a.222.222,0,0,1-.365.1c-.373-.317-.354-.545-.33-1.052a.267.267,0,0,1,.493-.133Z" transform="translate(-164.987 -238.215)" fill="#f9b995"/>
      </g>
      <g id="그룹_45" data-name="그룹 45" transform="translate(12.609 14.585)">
        <path id="패스_64" data-name="패스 64" d="M168.2,238.491a.863.863,0,0,1-.114.822.167.167,0,0,1-.3-.04,1.354,1.354,0,0,1-.153-.706c-.019-.321.507-.4.567-.077Z" transform="translate(-167.63 -238.285)" fill="#f9b995"/>
      </g>
      <g id="그룹_46" data-name="그룹 46" transform="translate(15.354 13.563)">
        <path id="패스_65" data-name="패스 65" d="M170.265,237.7a1.6,1.6,0,0,1,.158,1.592.409.409,0,0,1-.741-.1,8.4,8.4,0,0,1-.042-1.327.339.339,0,0,1,.626-.17Z" transform="translate(-169.633 -237.539)" fill="#f9b995"/>
      </g>
    </g>
    <path id="패스_66" data-name="패스 66" d="M172.687,230.006a3.567,3.567,0,0,1,.936.656,1.2,1.2,0,0,1,.334,1.051,1.7,1.7,0,0,1-.666.854,20.125,20.125,0,0,1-12.964,4.455,8.693,8.693,0,0,1-2.327-.306.774.774,0,0,1-.436-.256.817.817,0,0,1-.111-.388,24.761,24.761,0,0,1-.143-2.648" transform="translate(46.863 72.145)" fill="#b72a71"/>
    <path id="패스_67" data-name="패스 67" d="M148.008,155.5s2.214,9.155-18.69,9.155-18.69-9.155-18.69-9.155c-44.472,6.249-63.755,135.129-67.7,153.15,19.149,11.427,31.043,7.266,45.126,7.338,10.557.053,12.632,9.01,41.265,9.01s30.708-8.957,41.265-9.01c14.083-.073,25.976,4.089,45.126-7.338-6.726-27.147-18.565-29.463-25.4-58.5,2.93,8.252,5.354,9.731,10.7,12.673,3.889.895,13.251-.755,16.362-5.173C230.35,243.8,192.48,161.754,148.008,155.5Z" transform="translate(2.929 44.554)" fill="#dd4583"/>
    <path id="패스_68" data-name="패스 68" d="M121.949,154.236A23.586,23.586,0,0,1,104.9,165.141,5.817,5.817,0,0,0,106,169.556c1.036,1.168,3.087,1.492,4.137.337a5.462,5.462,0,0,0,2.993,1.474,7.227,7.227,0,0,0,3.992.01,3.2,3.2,0,0,0,2.253-3.016,6.207,6.207,0,0,0,5.135.262,4.2,4.2,0,0,0,2.245-1.617,2.144,2.144,0,0,0-.182-2.6,4.978,4.978,0,0,0,3.86-3.452,4.255,4.255,0,0,0,.008-2.965,6.4,6.4,0,0,0-2.272-2.432c-1.284-.961-4.626-1.477-6.223-1.318" transform="translate(27.437 44.073)" fill="#ff6183"/>
    <path id="패스_69" data-name="패스 69" d="M94.683,154.236a23.586,23.586,0,0,0,17.053,10.905,5.811,5.811,0,0,1-1.107,4.415c-1.036,1.168-3.087,1.492-4.137.337a5.462,5.462,0,0,1-2.993,1.474,7.222,7.222,0,0,1-3.99.01,3.2,3.2,0,0,1-2.254-3.016,6.207,6.207,0,0,1-5.135.262,4.2,4.2,0,0,1-2.245-1.617,2.146,2.146,0,0,1,.182-2.6,4.978,4.978,0,0,1-3.86-3.452,4.255,4.255,0,0,1-.008-2.965,6.406,6.406,0,0,1,2.272-2.432c1.285-.961,4.626-1.477,6.223-1.318" transform="translate(20.425 44.073)" fill="#ff6183"/>
    <g id="그룹_50" data-name="그룹 50" transform="translate(109.885 224.042)">
      <g id="그룹_48" data-name="그룹 48">
        <path id="패스_70" data-name="패스 70" d="M91.836,198.281c2.269,1.558,5.242,1.716,7.951,1.236.21-.037.44-.058.67-.078a11.643,11.643,0,0,0-2.538.9,8.417,8.417,0,0,0-4.7,6.4,8.506,8.506,0,0,0,2.9,6.822c3.083,2.863,8.269,3.607,11.527.944a10.59,10.59,0,0,0,3.372-7c.092.58.2,1.161.31,1.742a8.419,8.419,0,0,0,4.824,6.3,8.519,8.519,0,0,0,7.362-.873c3.611-2.16,5.779-6.93,4.134-10.8-1.074-2.532-3.5-4.263-6.038-5.316a2.2,2.2,0,0,1-.338-.182,11.587,11.587,0,0,0,2.357.489,8.416,8.416,0,0,0,7.4-2.867,8.509,8.509,0,0,0,1.224-7.311c-1.061-4.071-5.033-7.488-9.212-6.994a11.38,11.38,0,0,0-5.531,3.623c2.383-2.556,2.674-6.28,1.81-7.963a8.512,8.512,0,0,0-6.113-4.193c-4.138-.754-8.911,1.407-10.227,5.4a10.379,10.379,0,0,0,.77,7.383,12.034,12.034,0,0,1-1.046-.967,8.416,8.416,0,0,0-7.456-2.719,8.511,8.511,0,0,0-5.736,4.695C87.631,190.712,88.369,195.9,91.836,198.281Z" transform="translate(-88.505 -173.007)" fill="#ff6183"/>
      </g>
      <g id="그룹_49" data-name="그룹 49" transform="translate(15.71 15.84)">
        <path id="패스_71" data-name="패스 71" d="M106.669,198.437c-8.925,0-8.94-13.871,0-13.871,8.924,0,8.939,13.871,0,13.871Z" transform="translate(-99.969 -184.566)" fill="#f9c941"/>
      </g>
    </g>
    <path id="패스_73" data-name="패스 73" d="M139.238,181.727c7.005,14.988,10.364,43.413,14.009,58.669" transform="translate(40.17 54.265)" fill="none" stroke="#b72a71" stroke-miterlimit="10" stroke-width="1"/>
    <path id="패스_74" data-name="패스 74" d="M107.38,214.106a2.012,2.012,0,1,1-2.013-2.013A2.012,2.012,0,0,1,107.38,214.106Z" transform="translate(26.881 65.511)" fill="#b72a71"/>
    <path id="패스_75" data-name="패스 75" d="M107.38,228.186a2.012,2.012,0,1,1-2.013-2.013A2.012,2.012,0,0,1,107.38,228.186Z" transform="translate(26.881 70.726)" fill="#b72a71"/>
    <path id="패스_76" data-name="패스 76" d="M107.38,242.266a2.012,2.012,0,1,1-2.013-2.012A2.014,2.014,0,0,1,107.38,242.266Z" transform="translate(26.881 75.941)" fill="#b72a71"/>
    <path id="패스_77" data-name="패스 77" d="M107.38,256.346a2.012,2.012,0,1,1-2.013-2.012A2.014,2.014,0,0,1,107.38,256.346Z" transform="translate(26.881 81.155)" fill="#b72a71"/>
    <path id="패스_78" data-name="패스 78" d="M107.38,270.426a2.012,2.012,0,1,1-2.013-2.012A2.014,2.014,0,0,1,107.38,270.426Z" transform="translate(26.881 86.37)" fill="#b72a71"/>
    <g id="그룹_53" data-name="그룹 53" transform="translate(70.559 310.523)">
      <g id="그룹_51" data-name="그룹 51">
        <path id="패스_79" data-name="패스 79" d="M82.55,241.822a19.462,19.462,0,0,1-1.115,9.087,13.18,13.18,0,0,1-5.761,7.108,11.422,11.422,0,0,1-2.8,1.02c-4.495,1.036-9.684.473-12.293-3.508.347.529.467,1.295.792,1.866a11.044,11.044,0,0,0,1.163,1.638,14.935,14.935,0,0,0,6.661,4.521,15.579,15.579,0,0,0,14.863-3.02A16.491,16.491,0,0,0,89.978,249c.208-2.991-.125-6.63-1.749-9.1" transform="translate(-59.52 -234.712)" fill="#cc3a7c"/>
        <path id="패스_80" data-name="패스 80" d="M89.744,240.048a39.314,39.314,0,0,1-25.393-3.933l-.939,2.853a14.744,14.744,0,0,0,6.054,3.445,38.1,38.1,0,0,0,15.326,1.92,11.162,11.162,0,0,0,4.558-1.215A7.348,7.348,0,0,0,89.744,240.048Z" transform="translate(-58.47 -236.115)" fill="#b72a71"/>
        <path id="패스_81" data-name="패스 81" d="M61.588,258.091A15.179,15.179,0,0,0,75.1,263.9a16.449,16.449,0,0,0,12.333-8.193,17.96,17.96,0,0,0,1.107-14.86" transform="translate(-59.146 -234.362)" fill="none" stroke="#b72a71" stroke-miterlimit="10" stroke-width="1"/>
        <path id="패스_82" data-name="패스 82" d="M60.525,255.3a15.168,15.168,0,0,1,1.584-12.641,29.875,29.875,0,0,1,4.48-5.137" transform="translate(-59.806 -235.592)" fill="none" stroke="#b72a71" stroke-miterlimit="10" stroke-width="1"/>
      </g>
      <g id="그룹_52" data-name="그룹 52" transform="translate(92.05)">
        <path id="패스_83" data-name="패스 83" d="M135.058,241.822a19.461,19.461,0,0,0,1.114,9.087,13.18,13.18,0,0,0,5.761,7.108,11.422,11.422,0,0,0,2.8,1.02c4.495,1.036,9.684.473,12.293-3.508-.347.529-.467,1.295-.792,1.866a10.944,10.944,0,0,1-1.163,1.638,14.938,14.938,0,0,1-6.66,4.521,15.581,15.581,0,0,1-14.864-3.02,16.491,16.491,0,0,1-5.92-11.53c-.208-2.991.125-6.63,1.749-9.1" transform="translate(-126.759 -234.712)" fill="#cc3a7c"/>
        <path id="패스_84" data-name="패스 84" d="M127.032,240.048a39.314,39.314,0,0,0,25.393-3.933l.939,2.853a14.744,14.744,0,0,1-6.054,3.445,38.1,38.1,0,0,1-15.326,1.92,11.168,11.168,0,0,1-4.558-1.215A7.371,7.371,0,0,1,127.032,240.048Z" transform="translate(-126.979 -236.115)" fill="#b72a71"/>
        <path id="패스_85" data-name="패스 85" d="M155.64,258.091a15.179,15.179,0,0,1-13.509,5.81,16.449,16.449,0,0,1-12.333-8.193,17.96,17.96,0,0,1-1.107-14.86" transform="translate(-126.755 -234.362)" fill="none" stroke="#b72a71" stroke-miterlimit="10" stroke-width="1"/>
        <path id="패스_86" data-name="패스 86" d="M150.953,255.3a15.168,15.168,0,0,0-1.584-12.641,29.927,29.927,0,0,0-4.478-5.137" transform="translate(-120.345 -235.592)" fill="none" stroke="#b72a71" stroke-miterlimit="10" stroke-width="1"/>
      </g>
    </g>
    <g id="그룹_54" data-name="그룹 54" transform="translate(70.11 80.956)">
      <path id="패스_87" data-name="패스 87" d="M122.9,104.333a54.347,54.347,0,0,0-2.593-18.548c-1.151-3.549-2.671-6.983-3.538-10.612a101.08,101.08,0,0,1,2.431,29C120.442,104.218,121.673,104.275,122.9,104.333Z" transform="translate(-38.261 -66.153)" fill="#632a2a"/>
      <path id="패스_88" data-name="패스 88" d="M141.451,104.866a62.551,62.551,0,0,0-8.517-26.289,94.159,94.159,0,0,1,4.052,25.853C138.489,104.567,139.975,104.714,141.451,104.866Z" transform="translate(-32.275 -64.893)" fill="#632a2a"/>
      <path id="패스_89" data-name="패스 89" d="M155.943,109.108a57.538,57.538,0,0,0-1.635-15.063c-2.193-8.5-7.111-16.568-14.624-21.109a55.152,55.152,0,0,1,5.665,14.82c.029-.2.078-.208.156,0a59.261,59.261,0,0,1,3.62,20.384C151.446,108.443,153.708,108.771,155.943,109.108Z" transform="translate(-29.775 -66.982)" fill="#632a2a"/>
      <path id="패스_90" data-name="패스 90" d="M74.922,97.335A266.626,266.626,0,0,1,84.4,68.591c-8.223,12.285-15.34,25.78-17.28,40.4,1.459-.166,2.928-.325,4.415-.477A101.691,101.691,0,0,1,74.922,97.335Z" transform="translate(-56.648 -68.591)" fill="#632a2a"/>
      <path id="패스_91" data-name="패스 91" d="M59.479,105.659q3.133-.45,6.376-.855a82.878,82.878,0,0,1,3.022-23.582A73,73,0,0,0,59.479,105.659Z" transform="translate(-59.479 -63.913)" fill="#632a2a"/>
      <path id="패스_92" data-name="패스 92" d="M83.837,104.317l.084.2q1.3-.076,2.609-.144c.018-.212.034-.426.053-.637A228.876,228.876,0,0,1,90.938,75.4C86.358,84.271,85.062,94.413,83.837,104.317Z" transform="translate(-50.458 -66.067)" fill="#632a2a"/>
      <path id="패스_93" data-name="패스 93" d="M104.026,74.933q-1.248,14.491-2.494,28.984c1.4-.012,2.771-.049,4.182-.049.2,0,.4,0,.595,0A130.723,130.723,0,0,0,104.026,74.933Z" transform="translate(-43.905 -66.242)" fill="#632a2a"/>
    </g>
    <path id="패스_94" data-name="패스 94" d="M126.158,71.058a80.018,80.018,0,0,1,8.515,31.208" transform="translate(35.326 13.279)" fill="none" stroke="#632a2a" stroke-miterlimit="10" stroke-width="1"/>
    <path id="패스_95" data-name="패스 95" d="M105.972,43.722a25.023,25.023,0,0,1,19.157-1.69,33.119,33.119,0,0,1,15.925,11.182" transform="translate(27.85 2.104)" fill="none" stroke="#632a2a" stroke-miterlimit="10" stroke-width="1"/>
    <path id="패스_96" data-name="패스 96" d="M106.612,44.811a19.488,19.488,0,0,1,15.063,1.438" transform="translate(28.087 3.228)" fill="none" stroke="#632a2a" stroke-miterlimit="10" stroke-width="1"/>
    <path id="패스_97" data-name="패스 97" d="M82.706,51.1a37.022,37.022,0,0,1,12.873-7.988,20.115,20.115,0,0,1,14.878.522" transform="translate(19.233 2.497)" fill="none" stroke="#632a2a" stroke-miterlimit="10" stroke-width="1"/>
    <path id="패스_98" data-name="패스 98" d="M93.769,51.192a14.761,14.761,0,0,1,12.942-6.136" transform="translate(23.33 3.635)" fill="none" stroke="#632a2a" stroke-miterlimit="10" stroke-width="1"/>
  </g>
</svg>
