<svg xmlns="http://www.w3.org/2000/svg" width="496.219" height="92" viewBox="0 0 496.219 92">
  <path id="패스_9" data-name="패스 9" d="M127.745,346.11c12.807,0,23.185,9,23.185,20.1s-10.378,20.1-23.185,20.1-23.185-9-23.185-20.1,10.382-20.1,23.185-20.1Zm442.121-13.669c17.073,0,30.913,12,30.913,26.8s-13.84,26.8-30.913,26.8A35.222,35.222,0,0,1,560,384.639c-6.089,8.505-16.956,14.17-29.351,14.17-14.035,0-26.114-7.262-31.509-17.687a47.878,47.878,0,0,1-15.375,2.5c-23.335,0-42.249-16.4-42.249-36.621s18.914-36.622,42.249-36.622c20.305,0,37.263,12.419,41.321,28.972a39.885,39.885,0,0,1,5.563-.389,38.74,38.74,0,0,1,15.437,3.154,32.9,32.9,0,0,1,23.782-9.677Zm-170.6,6.523c17.073,0,30.914,12,30.914,26.8s-13.841,26.8-30.914,26.8c-11.7,0-21.879-5.633-27.13-13.942a37.262,37.262,0,0,1-13.056,2.33c-18.213,0-32.975-12.8-32.975-28.583s14.762-28.582,32.975-28.582c13.31,0,24.776,6.837,29.986,16.68a35.148,35.148,0,0,1,10.2-1.5Zm-103.049,4.882c15.8,2.331,27.828,14.253,27.828,28.613,0,16.032-14.994,29.029-33.489,29.029-16.566,0-30.321-10.427-33.012-24.122-.159,0-.318.005-.478.005-14.658,0-27.435-6.982-34.146-17.319-1.344,11.238-12.3,20-25.621,20-14.228,0-25.761-10-25.761-22.33s11.533-22.329,25.761-22.329a27.2,27.2,0,0,1,20.623,8.945c-.007-.3-.014-.6-.014-.907,0-18.745,17.531-33.942,39.158-33.942s39.155,15.2,39.155,33.942C296.22,343.569,296.217,343.706,296.216,343.846Z" transform="translate(-104.56 -309.488)" fill="#99bd14" fill-rule="evenodd"/>
</svg>
