<svg xmlns="http://www.w3.org/2000/svg" width="453.74" height="76.632" viewBox="0 0 453.74 76.632">
  <path id="패스_8" data-name="패스 8" d="M149.085,325.567a31.462,31.462,0,0,1,3.43.188,28.482,28.482,0,0,1,19.661-7.5,29.8,29.8,0,0,1,13.177,3.006c7.44-7.625,18.636-12.478,31.164-12.478,22.4,0,40.556,15.513,40.556,34.65s-18.155,34.649-40.556,34.649c-14.474,0-27.175-6.479-34.352-16.227-1.995,6.7-9.1,11.66-17.565,11.66a20.226,20.226,0,0,1-10.411-2.81,31.164,31.164,0,0,1-5.1.419c-14.723,0-26.66-10.2-26.66-22.777s11.937-22.777,26.66-22.777Zm406.953-6.253c11.115,0,20.126,7.7,20.126,17.2S567.153,353.7,556.038,353.7a21.482,21.482,0,0,1-15.831-6.574c-3.086,6.725-10.748,11.488-19.715,11.488-11.693,0-21.17-8.1-21.17-18.089s9.477-18.087,21.17-18.087a22.483,22.483,0,0,1,17.025,7.335c3.066-6.149,10.2-10.461,18.522-10.461ZM441.3,334.945c13.856,0,25.09,9.6,25.09,21.438S455.154,377.82,441.3,377.82c-13.166,0-23.96-8.663-25.007-19.679a26.474,26.474,0,0,1-8.449,1.368c-12.7,0-23-8.8-23-19.652s10.3-19.649,23-19.649c11.561,0,21.13,7.288,22.754,16.781a28.574,28.574,0,0,1,10.7-2.044ZM306.43,327.354c18.765,0,33.978,13,33.978,29.029S325.2,385.412,306.43,385.412s-33.978-13-33.978-29.029S287.665,327.354,306.43,327.354Z" transform="translate(-122.425 -308.78)" fill="#84a316" fill-rule="evenodd"/>
</svg>
