<svg xmlns="http://www.w3.org/2000/svg" width="479.552" height="1037.234" viewBox="0 0 479.552 1037.234">
  <g id="그룹_577" data-name="그룹 577" transform="translate(111.269 -351.219)">
    <path id="패스_44" data-name="패스 44" d="M308.278,372.3l-2.212,3.217a47.453,47.453,0,0,0-7.833,28.849c.435,10.69,3.937,18.93,9.953,23.421l23.971,17.885c4.446,3.316,6.795,9.995,6.345,18.045s-3.566,15.176-8.424,19.262L304.7,504.318c-15.159,12.747-24.844,35.091-26.091,60.193s6.3,45.777,20.338,55.693l28.336,20.02c8.708,6.154,13.855,17.822,14.6,33.081s-3.142,29.843-11,41.344L318.42,732.893H431.181l.971-1.858a129.632,129.632,0,0,0,13.483-76.695c-3.423-26.612-14.015-45.677-30.391-54.7l-66.38-36.582c-3.355-1.848-5.358-6.253-5.43-11.939s1.809-11.027,5.1-14.481l15.117-15.87c12.074-12.677,19.008-32.233,18.84-53.129S375.1,430.455,362.861,423.4l-33.216-19.159c-3.691-2.129-5.975-6.74-6.4-12.925a26.717,26.717,0,0,1,4.33-16.905l4.863-7.087A110.8,110.8,0,0,0,308.278,372.3Z" transform="translate(-18.984 -55.147) rotate(9)" fill="#fbaf50" fill-rule="evenodd"/>
    <path id="패스_51" data-name="패스 51" d="M348.322,494.028h100.7L555.271,1109.8h-313.2Z" transform="translate(-18.285 164.796) rotate(17)" fill="#fbaf50" fill-rule="evenodd"/>
    <path id="빼기_2" data-name="빼기 2" d="M-622.207,56.8H-729.559a130.37,130.37,0,0,1,8.548-28.977A128.062,128.062,0,0,1-706,1.686L-704.743,0l111.566,17.541-15.2,16.09A63.712,63.712,0,0,0-622.207,56.8Z" transform="translate(888 716.012)" fill="#fbaf50" stroke="rgba(0,0,0,0)" stroke-miterlimit="10" stroke-width="1"/>
  </g>
</svg>
