<svg xmlns="http://www.w3.org/2000/svg" width="40.549" height="47.244" viewBox="0 0 40.549 47.244">
  <path id="빼기_20" data-name="빼기 20" d="M51.136,189.744h0a55.563,55.563,0,0,1,.048-12.842,16.374,16.374,0,0,1-6.606-1.861,16.165,16.165,0,0,1-5.4-4.613,16.292,16.292,0,0,1-2.478-14.85c.18-.006.359-.009.533-.009a16.468,16.468,0,0,1,7.179,1.655,16.343,16.343,0,0,1,8.765,11.135,37.236,37.236,0,0,0,1.127-6.2,40.509,40.509,0,0,0-1.456-15.729c-.324-.94-.61-1.926-.848-2.932h2.44c.191.641.4,1.269.635,1.867l.254.656.006.014c1.419,3.659,3.028,7.805,3.1,12.906a16.384,16.384,0,0,1,2.428-3.239,16.265,16.265,0,0,1,11.749-4.992,16.464,16.464,0,0,1,2.523.2,16.458,16.458,0,0,1-.329,7.618,16.3,16.3,0,0,1-15.686,11.813,16.47,16.47,0,0,1-1.837-.1,61.793,61.793,0,0,0,.739,14.263l.931,5.221Z" transform="translate(-35.396 -143)" fill="#109512" stroke="rgba(0,0,0,0)" stroke-miterlimit="10" stroke-width="1"/>
</svg>
