<svg xmlns="http://www.w3.org/2000/svg" width="781.101" height="856.586" viewBox="0 0 781.101 856.586">
  <g id="그룹_581" data-name="그룹 581" transform="translate(2679.162 -5567.531)">
    <circle id="타원_1" data-name="타원 1" cx="349.372" cy="349.372" r="349.372" transform="translate(-2679.162 5655.441) rotate(-7.228)" fill="#82970a"/>
    <path id="패스_28" data-name="패스 28" d="M346.317,745.767c13-230.449-26.489-417.809-120.543-570-19.571-31.669,9.53-67.747,32.717-32.721,55.505,83.842,102.556,173.49,134.082,271.1,19.765-74.365,53.763-141.629,95-203.919,14.932-22.565,33.684.678,21.076,21.078-60.589,98.043-91.8,219.188-77.654,367.2a880.4,880.4,0,0,1,1.429,150.706C430.277,777.851,344.7,774.444,346.317,745.767Z" transform="translate(-2665.187 5655.058)" fill="#ab8235" fill-rule="evenodd"/>
    <path id="패스_29" data-name="패스 29" d="M344.256,214.739a33.792,33.792,0,1,1-49.831,45.655c-28.732-31.358,11.784-67.41,38.07-81.408C329.154,193.726,335.19,204.828,344.256,214.739Z" transform="translate(-2592.994 5710.752)" fill="#bad526" fill-rule="evenodd"/>
    <path id="패스_30" data-name="패스 30" d="M327.5,175.712a33.79,33.79,0,1,1-49.829,45.653c-28.73-31.36,11.784-67.407,38.07-81.406C312.4,154.7,318.434,165.8,327.5,175.712Z" transform="translate(-2611.541 5667.552)" fill="#bad526" fill-rule="evenodd"/>
    <path id="패스_31" data-name="패스 31" d="M304.617,142.817a33.791,33.791,0,1,1-49.833,45.651c-28.732-31.358,11.786-67.407,38.066-81.408C289.508,121.8,295.547,132.906,304.617,142.817Z" transform="translate(-2636.874 5631.134)" fill="#bad526" fill-rule="evenodd"/>
    <path id="패스_32" data-name="패스 32" d="M275.6,114.207a33.79,33.79,0,1,1-49.829,45.653c-28.732-31.356,11.786-67.405,38.068-81.406C260.493,93.194,266.536,104.3,275.6,114.207Z" transform="translate(-2668.992 5599.469)" fill="#bad526" fill-rule="evenodd"/>
    <path id="패스_33" data-name="패스 33" d="M239.881,277.875a33.793,33.793,0,0,0,66.455-12.311c-7.749-41.821-60.927-31.166-87.923-18.6C232.19,253.165,237.422,264.667,239.881,277.875Z" transform="translate(-2666.202 5773.595)" fill="#bad526" fill-rule="evenodd"/>
    <path id="패스_34" data-name="패스 34" d="M227.622,241.5a33.793,33.793,0,0,0,66.455-12.309c-7.749-41.821-60.927-31.166-87.925-18.6C219.931,216.794,225.163,228.3,227.622,241.5Z" transform="translate(-2679.774 5733.334)" fill="#94ab13" fill-rule="evenodd"/>
    <path id="패스_35" data-name="패스 35" d="M190.839,165.082a33.793,33.793,0,0,0,66.455-12.309c-7.745-41.819-60.924-31.166-87.921-18.606C183.152,140.376,188.382,151.877,190.839,165.082Z" transform="translate(-2720.487 5648.741)" fill="#94ab13" fill-rule="evenodd"/>
    <path id="패스_36" data-name="패스 36" d="M180.117,115.556a33.791,33.791,0,1,0,63.078,24.259c15.265-39.7-35.631-58.426-65.212-61.837C186.484,90.477,184.925,103.016,180.117,115.556Z" transform="translate(-2711.091 5598.943)" fill="#bad526" fill-rule="evenodd"/>
    <path id="패스_37" data-name="패스 37" d="M255.472,81.552a28.147,28.147,0,0,1-52.543,20.206c-12.718-33.064,29.678-48.662,54.317-51.5C250.167,60.663,251.465,71.105,255.472,81.552Z" transform="translate(-2685.919 5568.252)" fill="#bad526" fill-rule="evenodd"/>
    <path id="패스_38" data-name="패스 38" d="M347.037,148.652a33.792,33.792,0,0,0,54.37,40.144c25.264-34.215-18.832-65.789-46.437-76.939C359.839,126.164,355.01,137.837,347.037,148.652Z" transform="translate(-2531.131 5636.443)" fill="#bad526" fill-rule="evenodd"/>
    <path id="패스_39" data-name="패스 39" d="M422.707,208.188a33.793,33.793,0,0,1-49.6-45.91c28.893-31.21,68.153,6.205,84.265,31.246C442.4,191.41,431.838,198.34,422.707,208.188Z" transform="translate(-2504.918 5679.122)" fill="#bad526" fill-rule="evenodd"/>
    <path id="패스_40" data-name="패스 40" d="M391.24,284.2a33.792,33.792,0,1,1-49.6-45.91c28.89-31.21,68.147,6.205,84.257,31.246C410.94,267.419,400.372,274.349,391.24,284.2Z" transform="translate(-2539.75 5763.261)" fill="#bad526" fill-rule="evenodd"/>
    <path id="패스_41" data-name="패스 41" d="M382.523,324.439a33.791,33.791,0,1,1-49.593-45.912c28.892-31.21,68.149,6.207,84.259,31.248C402.227,307.661,391.654,314.589,382.523,324.439Z" transform="translate(-2549.397 5807.803)" fill="#bad526" fill-rule="evenodd"/>
    <path id="패스_42" data-name="패스 42" d="M380.936,400.75a33.792,33.792,0,1,1-49.6-45.91c28.893-31.212,68.149,6.2,84.259,31.246C400.636,383.968,390.063,390.9,380.936,400.75Z" transform="translate(-2551.158 5892.276)" fill="#bad526" fill-rule="evenodd"/>
    <path id="패스_43" data-name="패스 43" d="M408.72,274.145A28.146,28.146,0,0,1,401.6,218.3c35.14-4.486,40.2,40.4,37.1,65.014C430.277,273.961,419.822,272.737,408.72,274.145Z" transform="translate(-2490.643 5753.93)" fill="#94ab13" fill-rule="evenodd"/>
    <path id="패스_44" data-name="패스 44" d="M423.842,235.322a28.146,28.146,0,0,1-7.124-55.84c35.14-4.486,40.209,40.407,37.1,65.01C445.4,235.14,434.942,233.914,423.842,235.322Z" transform="translate(-2473.906 5710.955)" fill="#bad526" fill-rule="evenodd"/>
    <path id="패스_45" data-name="패스 45" d="M398.1,309.292a28.149,28.149,0,1,1-7.124-55.845c35.135-4.484,40.2,40.4,37.1,65.014C419.651,309.113,409.194,307.884,398.1,309.292Z" transform="translate(-2502.405 5792.831)" fill="#94ab13" fill-rule="evenodd"/>
    <path id="패스_46" data-name="패스 46" d="M416.166,381.126a28.145,28.145,0,0,1-45.6-33c20.768-28.7,56.976-1.688,72.806,17.412C430.782,365.278,422.736,372.066,416.166,381.126Z" transform="translate(-2503.693 5884.114)" fill="#bad526" fill-rule="evenodd"/>
    <path id="패스_47" data-name="패스 47" d="M440.2,361.732a28.147,28.147,0,0,1-35.612-43.6c27.435-22.412,55.5,12.991,65.9,35.506C458.389,350.163,448.878,354.663,440.2,361.732Z" transform="translate(-2471.557 5856.863)" fill="#bad526" fill-rule="evenodd"/>
    <path id="패스_48" data-name="패스 48" d="M443.88,331.082a28.147,28.147,0,1,1-35.612-43.6c27.439-22.412,55.5,12.993,65.9,35.506C462.072,319.512,452.552,324.017,443.88,331.082Z" transform="translate(-2467.486 5822.935)" fill="#bad526" fill-rule="evenodd"/>
    <path id="패스_49" data-name="패스 49" d="M440.419,335.094a15.461,15.461,0,0,1-1.056-30.9c19.441-.668,19.932,24.143,16.984,37.438C452.218,336.092,446.563,334.887,440.419,335.094Z" transform="translate(-2438.152 5849.331)" fill="#bad526" fill-rule="evenodd"/>
    <path id="패스_50" data-name="패스 50" d="M456.553,267.741a28.147,28.147,0,1,1-35.612-43.6c27.432-22.41,55.5,12.987,65.9,35.506C474.739,256.173,465.219,260.67,456.553,267.741Z" transform="translate(-2453.465 5752.82)" fill="#bad526" fill-rule="evenodd"/>
    <path id="패스_51" data-name="패스 51" d="M479.58,236.615A28.149,28.149,0,0,1,432.3,206.06c19.228-29.754,56.808-4.69,73.619,13.546C493.33,220.018,485.657,227.222,479.58,236.615Z" transform="translate(-2434.437 5725.484)" fill="#bad526" fill-rule="evenodd"/>
    <path id="패스_52" data-name="패스 52" d="M470.18,203.1A28.148,28.148,0,0,1,422.9,172.551c19.228-29.756,56.807-4.69,73.621,13.546C483.936,186.508,476.256,193.711,470.18,203.1Z" transform="translate(-2444.842 5688.392)" fill="#94ab13" fill-rule="evenodd"/>
    <path id="패스_53" data-name="패스 53" d="M431.207,162.574a28.145,28.145,0,0,1-47.278-30.551c19.222-29.756,56.8-4.69,73.613,13.543C444.963,145.98,437.29,153.181,431.207,162.574Z" transform="translate(-2487.981 5643.529)" fill="#94ab13" fill-rule="evenodd"/>
    <path id="패스_54" data-name="패스 54" d="M366.1,119.235A28.145,28.145,0,0,0,421.327,130.1c6.841-34.758-37.6-42.836-62.368-41.4C367.726,97.742,368.242,108.255,366.1,119.235Z" transform="translate(-2510.625 5610.641)" fill="#bad526" fill-rule="evenodd"/>
    <path id="패스_55" data-name="패스 55" d="M438.918,176.527a20.85,20.85,0,1,1-26.381-32.3c20.326-16.6,41.111,9.62,48.816,26.3C452.388,167.954,445.336,171.29,438.918,176.527Z" transform="translate(-2459.798 5666.417)" fill="#bad526" fill-rule="evenodd"/>
    <path id="패스_56" data-name="패스 56" d="M453.134,146.013a20.849,20.849,0,0,1-26.377-32.3c20.322-16.6,41.109,9.62,48.81,26.3C466.6,137.445,459.558,140.776,453.134,146.013Z" transform="translate(-2444.058 5632.64)" fill="#bad526" fill-rule="evenodd"/>
    <path id="패스_57" data-name="패스 57" d="M468.663,170.941a20.849,20.849,0,1,1-26.379-32.293c20.326-16.6,41.111,9.618,48.814,26.3C482.135,162.37,475.083,165.7,468.663,170.941Z" transform="translate(-2426.868 5660.236)" fill="#bad526" fill-rule="evenodd"/>
    <path id="패스_58" data-name="패스 58" d="M473.672,280.014a20.85,20.85,0,0,1-26.381-32.293c20.328-16.6,41.113,9.618,48.814,26.295C487.144,271.445,480.1,274.78,473.672,280.014Z" transform="translate(-2421.321 5780.973)" fill="#bad526" fill-rule="evenodd"/>
    <path id="패스_59" data-name="패스 59" d="M480.04,244.7a15.462,15.462,0,0,1-26.415-16.08c10.12-16.617,31.124-3.411,40.626,6.355C487.344,235.385,483.24,239.454,480.04,244.7Z" transform="translate(-2408.332 5756.932)" fill="#bad526" fill-rule="evenodd"/>
    <path id="패스_60" data-name="패스 60" d="M479.222,201.789a15.46,15.46,0,1,1-26.413-16.076c10.118-16.62,31.122-3.413,40.618,6.352C486.527,192.476,482.425,196.542,479.222,201.789Z" transform="translate(-2409.236 5709.434)" fill="#bad526" fill-rule="evenodd"/>
    <path id="패스_61" data-name="패스 61" d="M383.889,82.327a20.849,20.849,0,0,0,31.021,27.864c17.536-19.519-7.678-41.515-23.979-49.991C393.078,69.275,389.422,76.158,383.889,82.327Z" transform="translate(-2488.933 5579.263)" fill="#bad526" fill-rule="evenodd"/>
    <path id="패스_62" data-name="패스 62" d="M330.113,122.5a28.146,28.146,0,1,1-55.234,10.866c-6.839-34.758,37.6-42.832,62.368-41.4C328.48,101,327.964,111.516,330.113,122.5Z" transform="translate(-2604.479 5614.253)" fill="#bad526" fill-rule="evenodd"/>
    <path id="패스_63" data-name="패스 63" d="M334.938,87.71A28.148,28.148,0,0,1,279.7,98.577c-6.839-34.756,37.609-42.832,62.368-41.4C333.307,66.219,332.785,76.732,334.938,87.71Z" transform="translate(-2599.143 5575.749)" fill="#bad526" fill-rule="evenodd"/>
    <path id="패스_64" data-name="패스 64" d="M307.4,59.8a20.848,20.848,0,0,1-41.642,2.136c-1.34-26.208,32.1-27.435,50.1-23.766C308.476,43.876,306.986,51.526,307.4,59.8Z" transform="translate(-2613.838 5553.199)" fill="#bad526" fill-rule="evenodd"/>
    <path id="패스_65" data-name="패스 65" d="M366.406,102.832a28.149,28.149,0,1,1-55.24,10.866c-6.837-34.758,37.607-42.832,62.368-41.4C364.773,81.341,364.257,91.852,366.406,102.832Z" transform="translate(-2564.311 5592.486)" fill="#94ab13" fill-rule="evenodd"/>
    <path id="패스_66" data-name="패스 66" d="M347.619,98.728a15.459,15.459,0,0,0,18.347,24.885c15.663-11.548.651-31.3-9.917-39.9C356.252,90.625,352.564,95.077,347.619,98.728Z" transform="translate(-2530.134 5605.289)" fill="#bad526" fill-rule="evenodd"/>
    <path id="패스_67" data-name="패스 67" d="M399.911,81.989A28.145,28.145,0,1,1,344.68,92.854c-6.841-34.756,37.6-42.834,62.368-41.393C398.28,60.5,397.764,71.01,399.911,81.989Z" transform="translate(-2527.215 5569.416)" fill="#bad526" fill-rule="evenodd"/>
    <path id="패스_68" data-name="패스 68" d="M319.5,66.926a28.149,28.149,0,0,0,55.24,10.866c6.837-34.758-37.609-42.832-62.37-41.4C321.14,45.433,321.656,55.946,319.5,66.926Z" transform="translate(-2562.194 5552.738)" fill="#bad526" fill-rule="evenodd"/>
    <path id="패스_69" data-name="패스 69" d="M259.09,361.621a33.793,33.793,0,0,0,63.2-23.952c-15.075-39.764-65.5-19.812-89.834-2.642C247.125,338.676,254.32,349.064,259.09,361.621Z" transform="translate(-2650.657 5860.791)" fill="#bad526" fill-rule="evenodd"/>
    <path id="패스_70" data-name="패스 70" d="M261.542,397.993a33.793,33.793,0,1,0,63.2-23.954c-15.073-39.767-65.5-19.812-89.832-2.64C249.574,375.048,256.77,385.442,261.542,397.993Z" transform="translate(-2647.943 5901.049)" fill="#bad526" fill-rule="evenodd"/>
    <path id="패스_71" data-name="패스 71" d="M225.033,368.133a28.145,28.145,0,1,0,52.79-19.542c-12.3-33.222-54.429-16.931-74.8-2.781C215.213,348.945,221.14,357.644,225.033,368.133Z" transform="translate(-2683.241 5876.911)" fill="#94ab13" fill-rule="evenodd"/>
    <path id="패스_72" data-name="패스 72" d="M218.976,331.4a28.146,28.146,0,1,0,52.79-19.548c-12.3-33.227-54.429-16.923-74.8-2.775C209.156,312.209,215.083,320.9,218.976,331.4Z" transform="translate(-2689.946 5836.243)" fill="#bad526" fill-rule="evenodd"/>
    <path id="패스_73" data-name="패스 73" d="M204.365,265.886A28.147,28.147,0,0,0,245.1,227.03c-24.455-25.635-56.683,6.022-69.788,27.078C187.749,252.157,196.639,257.8,204.365,265.886Z" transform="translate(-2713.915 5753.337)" fill="#bad526" fill-rule="evenodd"/>
    <path id="패스_74" data-name="패스 74" d="M190.88,234.417a28.145,28.145,0,1,0,40.729-38.854c-24.451-25.633-56.681,6.02-69.784,27.076C174.26,220.69,183.149,226.33,190.88,234.417Z" transform="translate(-2728.842 5718.505)" fill="#94ab13" fill-rule="evenodd"/>
    <path id="패스_75" data-name="패스 75" d="M176.7,198.686a28.146,28.146,0,1,0,40.731-38.856c-24.453-25.633-56.683,6.022-69.786,27.078C160.078,184.959,168.967,190.6,176.7,198.686Z" transform="translate(-2744.541 5678.951)" fill="#bad526" fill-rule="evenodd"/>
    <path id="패스_76" data-name="패스 76" d="M158.308,172.941a28.149,28.149,0,0,0,40.734-38.86c-24.453-25.631-56.681,6.022-69.788,27.083C141.692,159.212,150.582,164.851,158.308,172.941Z" transform="translate(-2764.897 5650.449)" fill="#bad526" fill-rule="evenodd"/>
    <path id="패스_77" data-name="패스 77" d="M137.715,371.659A33.793,33.793,0,0,0,204.17,359.35c-7.747-41.819-60.927-31.168-87.923-18.6,13.779,6.205,19.009,17.707,21.468,30.913Zm530.095,44.212a33.793,33.793,0,1,1-49.6-45.91c28.892-31.21,68.156,6.2,84.259,31.246-14.961-2.113-25.528,4.819-34.659,14.664ZM523.077,293.078A33.792,33.792,0,0,0,588.708,309.2c10.147-41.3-42.7-53.474-72.475-53.135,10.006,11.327,10.035,23.964,6.843,37.011ZM529.72,212.8a28.145,28.145,0,1,0,55.232,10.866c6.839-34.758-37.609-42.832-62.368-41.4,8.769,9.037,9.283,19.55,7.136,30.53ZM449.033,130.19a28.148,28.148,0,0,1-52.545,20.2c-12.715-33.064,29.681-48.664,54.315-51.5-7.073,10.408-5.777,20.857-1.77,31.3ZM290.118,345.825a33.793,33.793,0,1,0,66.455-12.307c-7.747-41.819-60.924-31.168-87.925-18.6,13.782,6.207,19.013,17.709,21.47,30.911Zm6.064,190.329a28.145,28.145,0,1,0,52.79-19.54c-12.3-33.224-54.431-16.929-74.8-2.781,12.193,3.135,18.12,11.835,22.013,22.321Zm76.046,52.09c-4.77-12.557-11.965-22.951-26.634-26.6,24.331-17.169,74.757-37.124,89.83,2.64a33.793,33.793,0,1,1-63.2,23.96Zm235.03,76.863a33.793,33.793,0,0,1-49.6-45.91c28.893-31.212,68.155,6.2,84.259,31.246-14.961-2.12-25.528,4.814-34.659,14.664Zm57-30.125c11.1-1.408,21.554-.177,29.978,9.169,3.108-24.6-1.959-69.5-37.1-65.012a28.147,28.147,0,1,0,7.119,55.843ZM771.189,532.758a28.145,28.145,0,1,1-35.614-43.593c27.437-22.414,55.5,12.987,65.9,35.5-12.1-3.474-21.615,1.026-30.287,8.089Zm44.05,35.06c6.424-5.238,13.47-8.567,22.433-5.994-7.7-16.676-28.486-42.9-48.807-26.3a20.847,20.847,0,1,0,26.375,32.291ZM754.428,170.812A28.145,28.145,0,1,1,699.2,181.679c-6.839-34.758,37.6-42.834,62.361-41.4-8.761,9.037-9.277,19.55-7.13,30.528ZM515.2,65.235a15.461,15.461,0,1,1-26.415-16.076c10.118-16.622,31.122-3.413,40.624,6.35-6.909.413-11.011,4.479-14.209,9.726Zm-95.752,1.2c-4.005-10.444-5.305-20.89,1.778-31.3-24.641,2.84-67.035,18.44-54.319,51.506a28.146,28.146,0,0,0,52.541-20.208ZM202.411,182.4a20.847,20.847,0,1,0,31.016,27.862c17.534-19.519-7.682-41.515-23.979-49.991C211.6,169.35,207.939,176.233,202.411,182.4Z" transform="translate(-2779.294 5551.515)" fill="#ddf266" fill-rule="evenodd"/>
    <path id="패스_78" data-name="패스 78" d="M129.293,166.923a20.847,20.847,0,0,0,31.018,27.862c17.538-19.521-7.678-41.517-23.977-49.994C138.484,153.869,134.826,160.752,129.293,166.923Z" transform="translate(-2770.759 5672.901)" fill="#bad526" fill-rule="evenodd"/>
    <path id="패스_79" data-name="패스 79" d="M164.991,268.894a33.792,33.792,0,1,0,44.872-50.537c-31.807-28.235-67.218,12.84-80.8,39.337C143.747,254.124,154.941,259.99,164.991,268.894Z" transform="translate(-2765.112 5743.804)" fill="#bad526" fill-rule="evenodd"/>
    <path id="패스_80" data-name="패스 80" d="M172.756,284.047a28.146,28.146,0,0,0,52.79-19.548c-12.3-33.224-54.431-16.927-74.8-2.781C162.934,264.85,168.863,273.552,172.756,284.047Z" transform="translate(-2741.111 5783.825)" fill="#bad526" fill-rule="evenodd"/>
    <path id="패스_81" data-name="패스 81" d="M194.555,331.22A28.146,28.146,0,0,0,214.8,278.694c-33.058-12.736-48.687,29.645-51.546,54.285C173.665,325.9,184.111,327.206,194.555,331.22Z" transform="translate(-2727.262 5818.539)" fill="#94ab13" fill-rule="evenodd"/>
    <path id="패스_82" data-name="패스 82" d="M203.547,364.321A28.145,28.145,0,0,0,223.788,311.8c-33.056-12.737-48.685,29.643-51.544,54.279C182.654,359.007,193.1,360.307,203.547,364.321Z" transform="translate(-2717.309 5855.182)" fill="#bad526" fill-rule="evenodd"/>
    <path id="패스_83" data-name="패스 83" d="M205.42,371.05a15.461,15.461,0,0,0,1.06-30.9c-19.447-.662-19.934,24.143-16.99,37.447C193.621,372.047,199.276,370.842,205.42,371.05Z" transform="translate(-2699.69 5889.133)" fill="#bad526" fill-rule="evenodd"/>
    <path id="패스_84" data-name="패스 84" d="M174.565,338.973a15.462,15.462,0,1,0,1.056-30.907c-19.443-.664-19.932,24.148-16.984,37.445C162.768,339.965,168.423,338.768,174.565,338.973Z" transform="translate(-2733.845 5853.622)" fill="#94ab13" fill-rule="evenodd"/>
    <path id="패스_85" data-name="패스 85" d="M149.871,306.521a28.146,28.146,0,0,0,52.79-19.546c-12.3-33.227-54.431-16.923-74.8-2.781C140.051,287.327,145.978,296.029,149.871,306.521Z" transform="translate(-2766.444 5808.707)" fill="#bad526" fill-rule="evenodd"/>
    <path id="패스_86" data-name="패스 86" d="M141.247,278.281a20.847,20.847,0,1,0,26.377-32.291c-20.324-16.6-41.109,9.618-48.809,26.3C127.775,269.714,134.825,273.044,141.247,278.281Z" transform="translate(-2776.453 5779.058)" fill="#bad526" fill-rule="evenodd"/>
    <path id="패스_87" data-name="패스 87" d="M132.472,237.212a15.46,15.46,0,1,0,1.058-30.9c-19.447-.664-19.934,24.144-16.988,37.443C120.675,238.209,126.333,237.01,132.472,237.212Z" transform="translate(-2780.44 5740.984)" fill="#bad526" fill-rule="evenodd"/>
  </g>
</svg>
