<svg xmlns="http://www.w3.org/2000/svg" width="92.699" height="196.896" viewBox="0 0 92.699 196.896">
  <g id="그룹_463" data-name="그룹 463" transform="translate(24.637 -2272)">
    <path id="패스_864" data-name="패스 864" d="M281.408,428.508l-2.127-11.93a140.919,140.919,0,0,1,0-46.954c3.206-17.986-2.366-31.123-6.742-42.459-6.408-16.606-4.99-37.776-2.153-53.684l-1.2-5.464c-6.137,17.774-8.626,41.6-1.73,61.582,3.248,9.4,4.514,23.1,3.326,35.94-1.964,21.219-10.638,26.292-7.239,63.027Z" transform="translate(-251.006 2040.33)" fill="#2e682f" fill-rule="evenodd"/>
    <path id="패스_865" data-name="패스 865" d="M288.691,245.648a31.18,31.18,0,0,1-21.018,46.526,31.175,31.175,0,0,1,21.018-46.526Z" transform="translate(-250.662 2026.352)" fill="#2e682f" fill-rule="evenodd"/>
    <path id="패스_866" data-name="패스 866" d="M240.363,280.6a28.3,28.3,0,0,1,38.5,25.782,28.295,28.295,0,0,1-38.5-25.782Z" transform="translate(-265 2046.998)" fill="#2e682f" fill-rule="evenodd"/>
    <path id="패스_867" data-name="패스 867" d="M300.328,280.8a28.294,28.294,0,0,0-34.038,31.438A28.3,28.3,0,0,0,300.328,280.8Z" transform="translate(-248.957 2047.914)" fill="#2e682f" fill-rule="evenodd"/>
    <path id="패스_868" data-name="패스 868" d="M243.642,318.787a37.277,37.277,0,0,0,36.691,48.78,37.272,37.272,0,0,0-36.691-48.78Z" transform="translate(-264.092 2072.041)" fill="#2e682f" fill-rule="evenodd"/>
    <path id="패스_869" data-name="패스 869" d="M313.544,312.382a37.273,37.273,0,0,0-42.355,43.952,37.276,37.276,0,0,0,42.355-43.952Z" transform="translate(-246.167 2067.773)" fill="#2e682f" fill-rule="evenodd"/>
  </g>
</svg>
