<svg xmlns="http://www.w3.org/2000/svg" width="351.154" height="476.504" viewBox="0 0 351.154 476.504">
  <g id="그룹_580" data-name="그룹 580" transform="translate(-739.028 -412.678)">
    <circle id="타원_1" data-name="타원 1" cx="157.064" cy="157.064" r="157.064" transform="translate(739.028 452.199) rotate(-7.228)" fill="#82970a"/>
    <path id="패스_28" data-name="패스 28" d="M279.354,420.36c6.147-108.928-12.521-197.49-56.978-269.426-9.251-14.969,4.5-32.022,15.464-15.466,26.236,39.63,48.476,82.005,63.378,128.144,9.343-35.151,25.413-66.945,44.9-96.388,7.058-10.666,15.922.321,9.962,9.963-28.639,46.343-43.391,103.605-36.705,173.567a416.144,416.144,0,0,1,.675,71.235C319.04,435.525,278.591,433.915,279.354,420.36Z" transform="translate(626.148 457.812)" fill="#ab8235" fill-rule="evenodd"/>
    <path id="패스_44" data-name="패스 44" d="M423.842,235.322a28.146,28.146,0,0,1-7.124-55.84c35.14-4.486,40.209,40.407,37.1,65.01C445.4,235.14,434.942,233.914,423.842,235.322Z" transform="translate(608.934 355.854)" fill="#bad526" fill-rule="evenodd"/>
    <path id="패스_51" data-name="패스 51" d="M474.051,227.836c-7.547,10.462-23.1,13.471-34.767,6.7s-15.005-20.735-7.47-31.205c17.175-23.86,50.743-3.761,65.76,10.862C486.333,214.527,479.479,220.3,474.051,227.836Z" transform="matrix(-0.695, -0.719, 0.719, -0.695, 1088.782, 1111.051)" fill="#bad526" fill-rule="evenodd"/>
    <path id="패스_52" data-name="패스 52" d="M470.18,203.1A28.148,28.148,0,0,1,422.9,172.551c19.228-29.756,56.807-4.69,73.621,13.546C483.936,186.508,476.256,193.711,470.18,203.1Z" transform="translate(505.479 287.441)" fill="#94ab13" fill-rule="evenodd"/>
    <path id="패스_73" data-name="패스 73" d="M204.365,265.886A28.147,28.147,0,0,0,245.1,227.03c-24.455-25.635-56.683,6.022-69.788,27.078C187.749,252.157,196.639,257.8,204.365,265.886Z" transform="translate(613.504 236.828)" fill="#bad526" fill-rule="evenodd"/>
    <path id="패스_74" data-name="패스 74" d="M186.8,227.624a24.2,24.2,0,1,0,35.016-33.4c-21.021-22.038-48.73,5.175-60,23.278C172.516,215.822,180.158,220.672,186.8,227.624Z" transform="translate(674.205 325.439)" fill="#94ab13" fill-rule="evenodd"/>
    <path id="패스_75" data-name="패스 75" d="M171.717,190.384a23.321,23.321,0,1,0,33.749-32.2c-20.261-21.239-46.966,4.989-57.823,22.437C157.946,179.01,165.312,183.683,171.717,190.384Z" transform="translate(733.82 404.446)" fill="#bad526" fill-rule="evenodd"/>
    <path id="패스_77" data-name="패스 77" d="M125.818,185.161a15.065,15.065,0,0,0,29.627-5.487c-3.454-18.643-27.162-13.9-39.2-8.294,6.143,2.766,8.474,7.894,9.571,13.782Zm236.325,19.71A15.065,15.065,0,1,1,340.03,184.4c12.881-13.914,30.385,2.766,37.564,13.93-6.67-.942-11.381,2.148-15.452,6.538Zm-64.524-54.743a15.065,15.065,0,0,0,29.26,7.189c4.524-18.414-19.038-23.84-32.31-23.688,4.461,5.05,4.474,10.684,3.051,16.5Zm2.962-35.788a12.548,12.548,0,1,0,24.623,4.844c3.049-15.5-16.767-19.1-27.8-18.455,3.909,4.029,4.139,8.716,3.181,13.611Zm-35.972-36.83a12.549,12.549,0,0,1-23.425,9.007c-5.669-14.741,13.232-21.7,24.214-22.961-3.153,4.64-2.576,9.3-.789,13.954Zm-70.847,96.134a15.065,15.065,0,1,0,29.627-5.486c-3.454-18.643-27.161-13.9-39.2-8.294,6.144,2.767,8.476,7.895,9.572,13.781Zm2.7,84.852A12.547,12.547,0,1,0,220,249.785c-5.484-14.812-24.266-7.547-33.348-1.24,5.436,1.4,8.078,5.276,9.814,9.951Zm33.9,23.223c-2.127-5.6-5.334-10.232-11.874-11.859,10.847-7.654,33.328-16.551,40.047,1.177a15.065,15.065,0,1,1-28.174,10.682Zm104.78,34.267a15.066,15.066,0,0,1-22.112-20.468c12.881-13.915,30.385,2.764,37.564,13.93-6.67-.945-11.381,2.146-15.452,6.538Zm25.413-13.43c4.948-.628,9.609-.079,13.365,4.088,1.385-10.969-.874-30.982-16.538-28.983a12.549,12.549,0,1,0,3.174,24.9Zm47.67-45.573a12.548,12.548,0,1,1-15.877-19.434c12.232-9.992,24.744,5.79,29.38,15.828-5.4-1.549-9.636.457-13.5,3.606Zm19.638,15.63c2.864-2.335,6.005-3.819,10-2.672-3.433-7.435-12.7-19.124-21.759-11.723a9.294,9.294,0,1,0,11.758,14.4ZM400.758,95.621a12.548,12.548,0,1,1-24.623,4.845c-3.049-15.5,16.763-19.1,27.8-18.455-3.906,4.029-4.136,8.716-3.179,13.61ZM294.108,48.553a6.893,6.893,0,1,1-11.776-7.167c4.511-7.41,13.875-1.522,18.111,2.831-3.08.184-4.909,2-6.335,4.336Zm-42.688.534c-1.786-4.656-2.365-9.313.793-13.953C241.228,36.4,222.328,43.354,228,58.1a12.548,12.548,0,0,0,23.424-9.009Zm-96.76,51.7a9.294,9.294,0,1,0,13.828,12.421c7.817-8.7-3.425-18.508-10.69-22.287C158.755,94.969,157.125,98.038,154.66,100.788Z" transform="translate(625.658 394.904)" fill="#ddf266" fill-rule="evenodd"/>
    <path id="패스_82" data-name="패스 82" d="M203.547,364.321A28.145,28.145,0,0,0,223.788,311.8c-33.056-12.737-48.685,29.643-51.544,54.279C182.654,359.007,193.1,360.307,203.547,364.321Z" transform="translate(581.781 290.883)" fill="#bad526" fill-rule="evenodd"/>
  </g>
</svg>
