<svg xmlns="http://www.w3.org/2000/svg" width="203.522" height="264.581" viewBox="0 0 203.522 264.581">
  <g id="그룹_579" data-name="그룹 579" transform="translate(-807.428 -615.159)">
    <path id="패스_28" data-name="패스 28" d="M262.711,339.48c4.442-78.725-9.049-142.729-41.179-194.719-6.686-10.819,3.255-23.143,11.176-11.178,18.961,28.641,35.034,59.267,45.8,92.612,6.752-25.4,18.366-48.382,32.453-69.661,5.1-7.709,11.507.232,7.2,7.2-20.7,33.493-31.359,74.878-26.528,125.44a300.753,300.753,0,0,1,.488,51.483C291.393,350.441,262.159,349.277,262.711,339.48Z" transform="translate(640.416 532.303)" fill="#ab8235" fill-rule="evenodd"/>
    <path id="패스_44" data-name="패스 44" d="M408.218,207.654a14.278,14.278,0,0,1-3.614-28.327c17.826-2.276,20.4,20.5,18.821,32.979C419.152,207.562,413.848,206.94,408.218,207.654Z" transform="translate(1260.001 1021.923) rotate(-166)" fill="#ddf266" fill-rule="evenodd"/>
    <path id="패스_51" data-name="패스 51" d="M459.553,216.7c-5.182,7.183-15.863,9.249-23.871,4.6s-10.3-14.237-5.129-21.426c11.793-16.383,34.841-2.582,45.152,7.458C467.986,207.56,463.28,211.526,459.553,216.7Z" transform="matrix(-0.695, -0.719, 0.719, -0.695, 1088.024, 1162.205)" fill="#bad526" fill-rule="evenodd"/>
    <path id="패스_52" data-name="패스 52" d="M460.88,195.146a23.094,23.094,0,0,1-38.794-25.067c15.775-24.413,46.607-3.848,60.4,11.113C472.166,181.53,465.866,187.44,460.88,195.146Z" transform="translate(512.492 574.517)" fill="#94ab13" fill-rule="evenodd"/>
    <path id="패스_74" data-name="패스 74" d="M182.832,221a20.349,20.349,0,1,0,29.448-28.092c-17.678-18.533-40.981,4.352-50.455,19.577C170.816,211.078,177.243,215.156,182.832,221Z" transform="translate(868.066 370.449) rotate(48)" fill="#ddf266" fill-rule="evenodd"/>
    <path id="패스_75" data-name="패스 75" d="M165.582,180.158a17.378,17.378,0,0,0,25.149-23.991c-15.1-15.827-35,3.718-43.088,16.719C155.321,171.683,160.809,175.165,165.582,180.158Z" transform="translate(1213.941 755.393) rotate(150)" fill="#ddf266" fill-rule="evenodd"/>
    <path id="패스_82" data-name="패스 82" d="M193.777,347.2A19.36,19.36,0,0,0,207.7,311.068c-22.739-8.761-33.49,20.391-35.457,37.338C179.405,343.543,186.592,344.438,193.777,347.2Z" transform="translate(661.358 374.538)" fill="#bad526" fill-rule="evenodd"/>
  </g>
</svg>
