<svg xmlns="http://www.w3.org/2000/svg" width="273.906" height="58.878" viewBox="0 0 273.906 58.878">
  <path id="빼기_6" data-name="빼기 6" d="M-650.834-1765.082c-16.039,0-31.771-.479-46.758-1.423-14.484-.912-27.975-2.239-40.1-3.943a254.8,254.8,0,0,1-30.711-5.976c-8.514-2.316-14.772-4.847-18.6-7.522a99.174,99.174,0,0,1,19.9-14.28,164.469,164.469,0,0,1,26.395-11.625,235.468,235.468,0,0,1,31.721-8.418,294.094,294.094,0,0,1,35.876-4.659c1.208,11.076,11.691,19.428,24.387,19.428,12.51,0,22.978-8.216,24.35-19.11a289.348,289.348,0,0,1,34.53,4.911,230.783,230.783,0,0,1,30.511,8.419,161.525,161.525,0,0,1,25.416,11.42,98.411,98.411,0,0,1,19.246,13.914c-3.827,2.676-10.085,5.206-18.6,7.522a254.8,254.8,0,0,1-30.711,5.976c-12.121,1.7-25.612,3.031-40.1,3.943C-619.064-1765.56-634.8-1765.082-650.834-1765.082Z" transform="translate(787.788 1823.46)" fill="#532304" stroke="rgba(0,0,0,0)" stroke-miterlimit="10" stroke-width="1"/>
</svg>
