<svg xmlns="http://www.w3.org/2000/svg" width="27.33" height="27.551" viewBox="0 0 27.33 27.551">
  <g id="그룹_475" data-name="그룹 475" transform="matrix(0.719, 0.695, -0.695, 0.719, 186.485, -399.064)">
    <g id="그룹_472" data-name="그룹 472" transform="translate(155.002 405.08)">
      <path id="패스_2436" data-name="패스 2436" d="M169.929,421.5a7.464,7.464,0,0,1-14.927,0c0-4.122,7.464-16.421,7.464-16.421S169.929,417.381,169.929,421.5Z" transform="translate(-155.002 -405.082)" fill="#3498db"/>
      <path id="패스_2439" data-name="패스 2439" d="M192.755,421.5a7.468,7.468,0,0,1-9.255,7.247,7.467,7.467,0,0,0,5.673-7.247c0-2.809-1.674-12.5-3.881-16.421h0S192.755,417.379,192.755,421.5Z" transform="translate(-177.828 -405.08)" fill="#308ecc"/>
    </g>
  </g>
</svg>
