<svg xmlns="http://www.w3.org/2000/svg" width="298.281" height="261.978" viewBox="0 0 298.281 261.978">
  <g id="그룹_480" data-name="그룹 480" transform="matrix(-0.951, 0.309, -0.309, -0.951, 298.354, 204.961)">
    <path id="패스_28" data-name="패스 28" d="M7.943,48.885H122.821l21.385,25.665L141.152,0,122.821,25.819,0,26.276Z" transform="translate(135.254 30.851)" fill="#e1454e" fill-rule="evenodd"/>
    <path id="패스_53" data-name="패스 53" d="M150.23,48.679C138.19,98.743,94.271,146.088,40.274,125.1-13.944,104.026-5.61,41.862,19.8,0L34.548,8.929C15.4,40.476,3.207,92.166,46.5,109c43.767,17.016,77.537-25.171,86.945-64.309Z" transform="translate(0 85.306)" fill="#e1454e" fill-rule="evenodd"/>
    <path id="패스_54" data-name="패스 54" d="M56.219,174.15,0,53.161,138.1,0V1.834l27.5,135.04Z" transform="translate(0.077 0)" fill="#ef5b78" fill-rule="evenodd"/>
  </g>
</svg>
