<svg xmlns="http://www.w3.org/2000/svg" width="59.886" height="70.224" viewBox="0 0 59.886 70.224">
  <g id="그룹_6" data-name="그룹 6" transform="matrix(0.899, 0.438, -0.438, 0.899, 64.51, -432.033)">
    <g id="그룹_472" data-name="그룹 472" transform="translate(155.002 405.08)">
      <path id="패스_2436" data-name="패스 2436" d="M192.425,446.249a18.711,18.711,0,0,1-37.423,0c0-10.334,18.711-41.166,18.711-41.166S192.425,435.915,192.425,446.249Z" transform="translate(-155.002 -405.082)" fill="#3498db"/>
      <path id="패스_2439" data-name="패스 2439" d="M206.7,446.247a18.723,18.723,0,0,1-23.2,18.169,18.719,18.719,0,0,0,14.221-18.169c0-7.041-4.2-31.332-9.73-41.167h0S206.7,435.913,206.7,446.247Z" transform="translate(-169.28 -405.08)" fill="#308ecc"/>
    </g>
  </g>
</svg>
