<svg xmlns="http://www.w3.org/2000/svg" width="139.437" height="170.051" viewBox="0 0 139.437 170.051">
  <g id="그룹_592" data-name="그룹 592" transform="translate(-10437.875 -1858.063)">
    <path id="패스_27" data-name="패스 27" d="M153.3,224.327A35.427,35.427,0,0,1,186.11,272.8,35.42,35.42,0,0,1,153.3,224.327Z" transform="translate(10321.821 1633.735)" fill="#99bd14" fill-rule="evenodd"/>
    <path id="패스_28" data-name="패스 28" d="M167.339,268.785l11.481-41.527,8.809,10.853-17.144,33.5Z" transform="translate(10338.184 1636.636)" fill="#92410c" fill-rule="evenodd"/>
    <path id="패스_29" data-name="패스 29" d="M183.1,245.917a49.115,49.115,0,0,1,19.96,4.325,49.066,49.066,0,0,1,19.954-4.325c29.883,0,52.076,28.456,49.568,63.551s-28.765,63.549-58.647,63.549a45.425,45.425,0,0,1-10.874-1.307,45.536,45.536,0,0,1-10.88,1.307c-29.883,0-56.143-28.454-58.649-63.549S153.215,245.917,183.1,245.917Z" transform="translate(10304.54 1655.096)" fill="#fe350b" fill-rule="evenodd"/>
    <path id="패스_30" data-name="패스 30" d="M175.6,249.24c20.067,0,35.385,18.873,34.208,42.155s-18.4,42.157-38.469,42.157S135.957,314.679,137.13,291.4,155.532,249.24,175.6,249.24Z" transform="translate(10308.232 1658.384)" fill="#fd471d" fill-rule="evenodd"/>
  </g>
</svg>
