<svg xmlns="http://www.w3.org/2000/svg" width="465.228" height="217.699" viewBox="0 0 465.228 217.699">
  <g id="그룹_594" data-name="그룹 594" transform="translate(-9839 -2018.825)">
    <path id="패스_35" data-name="패스 35" d="M163.083,293.4A35.422,35.422,0,0,1,195.9,341.874,35.421,35.421,0,0,1,163.083,293.4Z" transform="translate(9750.506 1755.3)" fill="#99bd14" fill-rule="evenodd"/>
    <path id="패스_36" data-name="패스 36" d="M177.128,337.862l11.481-41.53,8.81,10.858-17.146,33.5Z" transform="translate(9766.868 1758.2)" fill="#92410c" fill-rule="evenodd"/>
    <path id="패스_37" data-name="패스 37" d="M192.887,314.993a49.076,49.076,0,0,1,19.956,4.319,49.09,49.09,0,0,1,19.956-4.319c29.883,0,52.076,28.45,49.57,63.545s-28.767,63.549-58.649,63.549a45.417,45.417,0,0,1-10.876-1.309,45.38,45.38,0,0,1-10.876,1.309c-29.883,0-56.143-28.45-58.649-63.549S163,314.993,192.887,314.993Z" transform="translate(9733.225 1776.664)" fill="#e92001" fill-rule="evenodd"/>
    <path id="패스_38" data-name="패스 38" d="M185.389,318.314c20.063,0,35.379,18.875,34.206,42.155s-18.4,42.153-38.471,42.153-35.379-18.871-34.206-42.153S165.322,318.314,185.389,318.314Z" transform="translate(9736.916 1779.949)" fill="#fd471d" fill-rule="evenodd"/>
    <path id="패스_47" data-name="패스 47" d="M242.248,288.6a35.417,35.417,0,0,1,20.674,54.762A35.427,35.427,0,0,1,242.248,288.6Z" transform="translate(9824.941 1750.553)" fill="#99bd14" fill-rule="evenodd"/>
    <path id="패스_48" data-name="패스 48" d="M248.4,334.067l20.8-37.728,6.048,12.6L250.8,337.551Z" transform="translate(9837.383 1758.208)" fill="#92410c" fill-rule="evenodd"/>
    <path id="패스_49" data-name="패스 49" d="M271.988,311.686a49.214,49.214,0,0,1,18.41,8.831,49.118,49.118,0,0,1,20.407.43c29.069,6.939,44.055,39.762,33.474,73.317s-42.726,55.138-71.8,48.207a45.669,45.669,0,0,1-10.273-3.8,45.79,45.79,0,0,1-10.884-1.251c-29.067-6.935-48.008-40.7-42.3-75.424S242.919,304.753,271.988,311.686Z" transform="translate(9797.422 1772.152)" fill="#fe350b" fill-rule="evenodd"/>
    <path id="패스_50" data-name="패스 50" d="M261.975,314.287c19.52,4.657,30.036,26.57,23.489,48.941s-27.678,36.736-47.2,32.079-30.036-26.566-23.491-48.941S242.453,309.63,261.975,314.287Z" transform="translate(9802.194 1775.098)" fill="#fd471d" fill-rule="evenodd"/>
    <path id="패스_51" data-name="패스 51" d="M284.962,291.275a35.425,35.425,0,0,1,38.956,43.7,35.427,35.427,0,0,1-38.956-43.7Z" transform="translate(9872.521 1752.905)" fill="#99bd14" fill-rule="evenodd"/>
    <path id="패스_52" data-name="패스 52" d="M302.749,333.922l5.878-42.678,10.169,9.589-12.555,35.479Z" transform="translate(9891.156 1753.167)" fill="#92410c" fill-rule="evenodd"/>
    <path id="패스_53" data-name="패스 53" d="M314.563,314.53a49.043,49.043,0,0,1,20.345,1.637,49.094,49.094,0,0,1,19.21-6.929c29.616-3.963,55.387,21.3,57.557,56.415s-20.085,66.8-49.7,70.763a45.46,45.46,0,0,1-10.954.143,45.348,45.348,0,0,1-10.607,2.739c-29.622,3.963-59.417-20.757-66.559-55.21S284.937,318.491,314.563,314.53Z" transform="translate(9861.036 1770.565)" fill="#e92001" fill-rule="evenodd"/>
    <path id="패스_54" data-name="패스 54" d="M308.352,315.38c19.892-2.66,37.574,14.019,39.5,37.249s-12.647,44.224-32.535,46.882-37.572-14.015-39.5-37.243S288.462,318.039,308.352,315.38Z" transform="translate(9864.343 1776.77)" fill="#fd471d" fill-rule="evenodd"/>
    <g id="그룹_590" data-name="그룹 590" transform="translate(6 -43)">
      <path id="패스_63" data-name="패스 63" d="M581.146,357.66H132.775l6.292,59.143H574.862l6.284-59.143Zm-8.425,79.277H141.206l6.286,59.145H566.435l6.286-59.145Zm16.856-158.555H124.35l6.286,59.143H583.291Z" transform="translate(9708.65 1783.442)" fill="#92410c" fill-rule="evenodd"/>
      <path id="패스_64" data-name="패스 64" d="M510.256,357.66H405.191L435.322,416.8H540.386L510.256,357.66Zm-199.224,0H150.465L180.59,416.8H341.158L311.033,357.66Zm158.835-79.277L500,337.526H394.937l-30.129-59.143Zm80.771,158.555L568.908,472.8l-2.473,23.282H475.709l-30.131-59.145ZM270.65,278.383l30.125,59.143H140.205l-12.09-23.739-3.766-35.4Zm80.765,158.555,30.133,59.145H220.981l-30.129-59.145Z" transform="translate(9708.65 1783.442)" fill="#ae4f10" fill-rule="evenodd"/>
    </g>
  </g>
</svg>
