<svg xmlns="http://www.w3.org/2000/svg" width="294.956" height="155.28" viewBox="0 0 294.956 155.28">
  <path id="패스_2543" data-name="패스 2543" d="M62.967,175.257c14.9-3.168,27.427-2.011,40.268-.369l.194,20.535,6.914-19.607a201.069,201.069,0,0,0,23.381,1.968c21.559.225,36.922-3.9,56.7-4.58,6.4,0,12.745.3,19.124.638h0l.543,14.047,6.569-13.667c6.771.351,13.622.644,20.662.578,17.855-.166,34.852-.878,52.59-1.352l1.185,18.43,4.536-18.436c7.448.166,15.091.937,22.377,1.6,11.211,1.033,22.364,2.461,33.587,3.371,6.963,13.6,2.148,20.674,1.863,34.481l-40.728,6.021,40.954,2.692c.547,10.239,1.975,19.31,3,29.937.875,10.98-1.415,24.557-4.272,37.225l-20.065-.254,18.735,5.948c-.986,4.107-1.995,8.054-2.926,11.711-2.406,8.466-5.834,14.283-8.81,22.3-26.808.044-45.451-.207-68.761-3.065l-4.652-13.84-2.32,12.926c-4.068-.566-8.3-1.212-12.755-1.948-35.506-5.1-59.759.067-94.245,2.11a266.3,266.3,0,0,1-28.6-.331l-2.457-16.747-5.561,16.225c-17.072-1.223-34.253-3.026-51.505-3.024-3.518-22.311,1.355-39.927.973-61.512h0l32.945-.455-33.1-6.211c-.072-7.382.282-13.988.334-21.563C69.8,209.705,58.5,198.454,62.967,175.257Z" transform="translate(-61.922 -173.203)" fill="#ba7c3d" fill-rule="evenodd"/>
</svg>
