<svg xmlns="http://www.w3.org/2000/svg" width="139.438" height="170.051" viewBox="0 0 139.438 170.051">
  <g id="그룹_597" data-name="그룹 597" transform="translate(-1850.372 -2187.24)">
    <path id="패스_31" data-name="패스 31" d="M187.752,243.9a35.426,35.426,0,0,1,32.815,48.476A35.425,35.425,0,0,1,187.752,243.9Z" transform="translate(1699.861 1943.339)" fill="#99bd14" fill-rule="evenodd"/>
    <path id="패스_32" data-name="패스 32" d="M201.8,288.358l11.485-41.524,8.809,10.85-17.148,33.507Z" transform="translate(1716.223 1946.241)" fill="#92410c" fill-rule="evenodd"/>
    <path id="패스_33" data-name="패스 33" d="M217.559,265.491a49.1,49.1,0,0,1,19.956,4.325,49.08,49.08,0,0,1,19.954-4.325c29.883,0,52.076,28.454,49.57,63.549s-28.763,63.551-58.649,63.551a45.375,45.375,0,0,1-10.874-1.307,45.413,45.413,0,0,1-10.88,1.307c-29.883,0-56.141-28.452-58.649-63.551S187.676,265.491,217.559,265.491Z" transform="translate(1682.579 1964.7)" fill="#df1901" fill-rule="evenodd"/>
    <path id="패스_34" data-name="패스 34" d="M210.054,268.814c20.065,0,35.383,18.873,34.206,42.157s-18.4,42.157-38.469,42.157-35.375-18.873-34.2-42.157S189.987,268.814,210.054,268.814Z" transform="translate(1686.273 1967.988)" fill="#fd471d" fill-rule="evenodd"/>
  </g>
</svg>
