<svg xmlns="http://www.w3.org/2000/svg" width="139.439" height="170.051" viewBox="0 0 139.439 170.051">
  <g id="그룹_593" data-name="그룹 593" transform="translate(-10739.857 -1865.851)">
    <path id="패스_39" data-name="패스 39" d="M305.092,228.242a35.426,35.426,0,0,1,32.815,48.475,35.418,35.418,0,0,1-32.815-48.475Z" transform="translate(10472.007 1637.609)" fill="#99bd14" fill-rule="evenodd"/>
    <path id="패스_40" data-name="패스 40" d="M319.135,272.7l11.482-41.527,8.81,10.853-17.147,33.5Z" transform="translate(10488.369 1640.512)" fill="#92410c" fill-rule="evenodd"/>
    <path id="패스_41" data-name="패스 41" d="M334.894,249.834a49.11,49.11,0,0,1,19.956,4.319,49.124,49.124,0,0,1,19.956-4.319c29.883,0,52.08,28.452,49.572,63.549S395.61,376.93,365.727,376.93a45.4,45.4,0,0,1-10.878-1.307,45.354,45.354,0,0,1-10.876,1.307c-29.885,0-56.143-28.448-58.649-63.547S305.011,249.834,334.894,249.834Z" transform="translate(10454.727 1658.972)" fill="#eb981b" fill-rule="evenodd"/>
    <path id="패스_42" data-name="패스 42" d="M327.394,253.157c20.067,0,35.381,18.873,34.208,42.159s-18.4,42.153-38.469,42.153-35.379-18.875-34.208-42.153S307.325,253.157,327.394,253.157Z" transform="translate(10458.418 1662.26)" fill="#e6a13a" fill-rule="evenodd"/>
  </g>
</svg>
